<svg width="375" height="667" viewBox="0 0 375 667" fill="none" xmlns="http://www.w3.org/2000/svg">
<g clip-path="url(#clip0_2024_1220)">
<path opacity="0.75" d="M336.811 567.355C339.183 567.126 340.06 568.475 340.771 569.918C343.748 576.128 341.792 583.68 336.062 588.134C330.6 592.399 323.387 592.244 318.069 587.734C314.688 584.867 313.456 580.814 312.961 576.695C311.272 562.936 321.269 549.565 336.733 549.588C343.859 549.595 349.509 553.047 353.85 558.48C360.568 566.883 362.602 576.445 359.126 586.715C355.156 598.439 347.875 607.603 337.059 613.749C321.642 622.487 304.297 618.04 293.459 607.404C289.766 603.781 287.754 599.069 285.894 594.354C283.217 587.554 282.821 580.443 283.77 573.279C284.657 566.634 286.43 560.204 289.013 554.032C293.456 543.386 301.246 535.857 311.161 530.524C324.442 523.381 338.673 522.095 353.037 525.886C368.766 530.054 379.32 540.535 385.46 555.752C389.039 564.635 390.315 573.683 389.268 583.119C388.321 591.807 384.388 599.317 380.313 606.783C379.323 608.603 378.231 610.366 377.043 612.027C376.312 613.051 375.322 614 373.844 613.243C372.541 612.565 372.585 611.267 372.917 610.21C373.733 607.593 374.667 605.006 375.743 602.464C376.995 599.499 378.499 596.655 379.751 593.69C383.654 584.49 384.335 575.054 381.637 565.364C380.017 559.576 378.217 553.907 374.622 548.949C366.049 537.223 354.771 530.682 340.19 530.722C335.316 530.74 330.259 530.79 325.575 531.949C313.001 535.027 302.62 541.762 296.513 553.557C291.433 563.37 288.61 573.946 290.11 585.191C292.517 603.526 306.235 613.324 322.828 612.139C331.156 611.547 338.171 607.276 343.925 601.095C347.555 597.202 350.473 592.804 352.503 587.887C356.309 578.65 355.699 569.883 348.925 562.084C342.771 554.993 336.706 554.561 330.476 556.616C323.069 559.066 318.363 565.937 318.503 573.712C318.549 575.963 319.051 578.295 319.795 580.425C321.188 584.299 325.263 586.305 329.245 585.4C334.566 584.204 338.052 578.961 337.416 573.141C337.216 571.24 337.041 569.355 336.845 567.323L336.811 567.355Z" fill="white"/>
<path opacity="0.75" d="M93.2529 68.5188C88.1135 67.4534 83.0242 67.4166 78.0092 69.2526C73.0736 70.9832 68.5575 73.6905 64.4884 76.8998C63.2994 77.8204 62.0845 78.5564 61.1319 79.8204C58.83 82.8751 56.3968 85.6657 54.7006 89.0118C54.2502 89.8284 53.7221 90.0911 52.93 90.4851C49.577 92.087 45.8822 93.2663 43.7373 96.7697C42.4931 98.6397 40.9331 100.272 40.0842 102.274C39.1024 104.672 38.3052 107.044 37.2441 109.548C37.1647 109.653 37.2959 109.917 37.427 110.181C37.5031 111.394 36.8145 112.527 36.5212 113.792C36.3073 114.952 35.8829 115.954 36.4335 117.194C36.1159 117.616 36.0884 118.09 36.1661 118.644C35.7433 118.986 35.531 119.487 35.8987 120.094C35.6003 123.338 35.9612 126.583 36.5861 129.696C37.0022 131.991 38.1327 133.339 39.2941 132.893C40.9301 132.474 41.0663 130.76 41.3337 129.31C41.7616 126.99 41.2402 124.615 41.0088 122.294C41.3798 121.583 41.4609 120.818 41.1726 120.105C41.5436 119.394 41.2812 118.866 41.0983 118.233C41.1776 118.127 41.3364 117.917 41.2311 117.837C41.7074 117.205 41.3398 116.598 41.1568 115.964C41.4743 115.543 41.5278 115.253 41.4501 114.699C42.4544 113.805 42.035 112.828 41.7208 111.931C41.8537 111.535 42.1712 111.114 42.3041 110.719C42.9909 110.245 42.6233 109.638 42.4403 109.004C43.8224 104.761 45.8361 100.994 48.9561 97.7298C49.8551 96.7558 50.8319 96.3358 51.9122 96.6545C52.9926 96.9732 52.884 98.2125 52.9082 99.0565C53.0084 101.114 53.1087 103.171 54.1322 105.099C56.3622 109.587 59.3859 113.021 64.6306 114.166C66.7654 114.619 68.1908 114.042 69.6714 112.515C74.1926 107.83 72.8893 101.893 69.919 98.1682C67.6322 95.2887 65.0813 92.5406 61.3657 91.5572C60.1007 91.2645 59.6018 90.3932 60.1851 89.1812C62.2799 84.6492 65.5586 81.1746 69.7054 78.5193C73.8523 75.864 78.3651 74.4753 83.192 73.9841C85.3285 73.7774 87.5444 73.4654 89.7051 74.1028C92.4457 74.8469 92.8684 74.5049 94.3507 72.3189C95.7795 70.4229 95.2824 68.8922 93.2529 68.5188ZM67.1307 105.811C67.3396 106.629 67.469 107.552 66.7028 108.131C65.8573 108.815 64.9097 108.101 64.1193 107.835C63.6188 107.623 63.2771 107.201 62.856 106.883C60.3293 104.979 59.2557 102.023 58.208 99.252C58.025 98.6186 58.0267 97.9593 58.4236 97.4326C58.8999 96.8006 59.6109 97.1713 60.1373 97.5679C63.746 99.1314 66.3763 101.774 67.1307 105.811Z" fill="white"/>
<g opacity="0.75">
<path d="M118.27 59.1563C118.281 58.7144 118.181 58.2697 118.628 58.0595C120.076 57.6524 120.076 57.6524 120.818 58.997C121.392 58.1265 121.303 57.2399 121.545 56.3614C121.799 55.0409 123.322 56.0729 123.896 55.2024C122.591 54.2863 122.591 54.2862 121.364 54.6987C120.806 54.9063 120.593 54.5695 120.38 54.2326C120.388 53.9012 120.504 53.6829 120.512 53.3514C120.954 53.3622 121.397 53.3729 121.41 52.8204C121.418 52.489 120.979 52.3678 120.65 52.2492C120.555 51.5836 120.898 51.1497 121.24 50.7158C123.351 50.3248 123.354 50.2143 123.736 48.1231C125.187 47.6055 126.379 48.6294 127.813 48.7747C129.091 50.7957 128.811 53.2211 129.2 55.4416C129.675 58.6591 129.929 61.8713 130.183 65.0835C130.361 66.8567 130.361 66.8567 132.235 67.1233C135.212 67.5271 138.199 67.4891 141.057 68.2218C142.597 68.5908 143.02 69.3749 142.43 70.9083C142.08 71.6737 141.621 72.3259 140.947 72.7518C138.365 74.3474 135.779 76.0535 133.088 77.536C131.743 78.2772 131.169 79.1477 131.242 80.6973C131.493 84.0199 131.413 87.3346 131.996 90.6653C131.99 90.8863 131.982 91.2177 131.977 91.4387C131.947 92.654 132.136 93.9853 130.899 94.8397C130.001 95.3707 127.135 94.9695 126.161 94.0614C124.43 92.4717 122.583 91.1002 121.421 88.861C119.94 86.0612 118.727 85.9212 116.136 87.8483C115.009 88.7054 113.774 89.4493 112.758 90.3091C110.277 92.2389 109.611 92.3333 106.548 90.9323C106.575 89.8274 106.928 88.9515 107.613 88.0837C109.101 86.0193 109.163 83.4781 110.103 81.1793C110.225 80.7401 110.235 80.2981 110.467 79.8615C112.082 77.1369 110.793 75.5579 108.848 73.6313C106.904 71.7047 104.399 70.0962 103.361 67.3072C103.15 66.8599 102.495 66.5123 102.061 66.1701C101.877 64.6179 102.128 63.4079 103.91 62.8984C104.244 62.796 104.474 62.4698 104.811 62.2569C105.366 62.1598 105.919 62.1732 106.463 62.5181C107.984 63.6605 109.634 64.0322 111.411 63.7437C112.738 63.7759 114.172 63.9212 115.488 64.3954C115.593 64.619 115.583 65.061 115.693 65.0636C116.135 65.0744 115.925 64.6271 116.041 64.4088C116.265 64.3037 116.38 64.0853 116.604 63.9802C117.82 64.0097 117.41 62.6731 117.971 62.3551C119.432 61.3955 119.014 60.3905 118.27 59.1563Z" fill="white"/>
<path d="M123.736 48.1228C123.353 50.2141 123.24 50.3219 121.24 50.7156C121.496 49.2846 121.973 47.859 122.994 46.7783C123.337 46.3444 123.792 45.8026 124.337 46.1475C125.647 46.8426 127.416 46.8855 127.813 48.7745C126.378 48.6292 125.187 47.6053 123.736 48.1228C123.631 47.8992 123.523 47.786 123.518 48.007L123.736 48.1228Z" fill="white"/>
<path d="M120.27 54.2296C120.483 54.5664 120.696 54.9032 121.254 54.6957C122.481 54.2832 122.48 54.2832 123.786 55.1993C123.319 56.183 121.688 55.0379 121.435 56.3584C121.303 57.2396 121.278 58.234 120.707 58.994C119.965 57.6494 119.965 57.6494 118.518 58.0565C118.992 56.7413 118.919 55.1918 120.27 54.2296Z" fill="white"/>
<path d="M104.81 62.2565C104.584 62.4721 104.244 62.7955 103.91 62.898C102.238 63.4102 101.874 64.728 102.061 66.1697C100.968 65.5905 100.998 64.3751 100.798 63.4858C100.601 62.486 101.397 61.6209 102.394 61.5346C103.171 61.4429 104.171 61.246 104.81 62.2565Z" fill="white"/>
<path d="M118.27 59.1559C119.017 60.2796 119.542 61.3979 117.863 62.2415C117.302 62.5596 117.712 63.8962 116.496 63.8667C116.976 62.3306 117.019 60.5628 118.27 59.1559Z" fill="white"/>
<path d="M111.414 63.6329C109.637 63.9214 107.877 63.5471 106.466 62.4073C108.456 62.4556 110.217 62.83 111.414 63.6329Z" fill="white"/>
<path d="M120.647 52.3596C120.978 52.3676 121.307 52.4862 121.407 52.9308C121.394 53.4832 120.841 53.4698 120.509 53.4618C120.52 53.0198 120.528 52.6884 120.647 52.3596Z" fill="white"/>
<path d="M115.933 64.2956C115.817 64.5139 116.027 64.9611 115.585 64.9504C115.475 64.9477 115.485 64.5058 115.38 64.2822C115.601 64.2875 115.712 64.2902 115.933 64.2956Z" fill="white"/>
<path d="M123.736 48.1227C123.625 48.1201 123.518 48.0069 123.518 48.0069C123.631 47.8991 123.631 47.8991 123.736 48.1227Z" fill="white"/>
</g>
<path opacity="0.75" d="M245.561 676.575C247.483 665.943 247.931 654.805 248.178 644.025C248.426 633.21 248.522 621.994 246.982 611.264C245.606 601.69 240.266 597.553 231.114 595.425C211.139 590.781 189.62 590.829 169.549 594.887C171.067 590.066 171.712 585.038 171.368 580.432C170.202 564.869 151.736 562.289 139.968 566.535C128.752 570.58 118.217 577.341 108.677 585.211C114.688 574.822 118.733 563.267 119.226 551.586C119.841 537.05 110.372 519.207 93.5038 521.152C75.2455 523.255 68.5948 546.627 68.4022 561.976C68.311 569.223 69.5192 576.978 72.0273 584.283C65.3713 573.324 58.324 562.569 48.7956 554.473C37.6314 544.988 16.6368 537.252 7.94225 553.967C3.64642 562.226 5.05013 571.256 9.16825 579.273C1.76147 577.051 -5.91064 576.225 -13.6825 575.291C-18.2757 574.739 -22.8742 574.223 -27.4757 573.746C-32.2635 573.251 -38.4296 571.647 -43.0985 573.572C-48.9621 575.991 -48.933 582.191 -49.0794 587.638C-49.4175 600.12 -49.38 612.627 -49.1561 625.11C-48.8993 639.515 -53.0287 664.916 -34.4344 668.962C-24.7282 671.074 -13.98 670.515 -4.09125 671.134C7.59355 671.865 19.2759 672.632 30.9561 673.434C76.7029 676.574 122.414 680.238 168.077 684.434C179.735 685.505 191.391 686.61 203.042 687.751C212.826 688.709 224.624 691.929 234.318 690.071C241.284 688.736 244.387 683.068 245.561 676.575ZM242.868 640.016C242.834 643.751 242.721 647.485 242.542 651.215C242.403 651.179 242.253 651.156 242.093 651.148C218.66 650.018 195.077 650.218 171.621 650.305C157.652 650.358 143.643 650.392 129.653 650.782C131.858 644.448 132.411 636.615 130.842 629.443C148.718 631.839 166.967 632.354 184.957 633.144C204.187 633.988 223.617 635.074 242.871 634.627C242.881 636.427 242.884 638.225 242.868 640.016ZM112.627 633.578C111.377 636.408 109.935 639.046 108.378 641.616C107.556 635.587 105.785 629.784 102.899 624.304C101.565 621.769 99.8822 618.928 97.8849 616.337C97.7794 615.923 97.5426 615.648 97.2343 615.504C95.934 613.913 94.5075 612.444 92.9531 611.249C101.394 613.329 109.966 614.855 118.594 615.915C121.69 621.05 125.103 625.211 126.497 631.263C127.57 635.919 127.531 640.539 126.583 645.076C123.543 640.655 120.049 636.701 115.942 633.077C115.003 632.249 113.208 632.266 112.627 633.578ZM94.5275 606.747C94.5267 606.741 94.5257 606.736 94.5233 606.73C95.5245 606.475 99.783 604.197 99.573 604.312C101.692 603.138 103.846 602.104 106.084 601.169C111.226 599.021 116.597 597.515 122.142 596.856C126.644 596.322 131.586 596.081 136.061 596.923C142.725 598.176 151.699 604.198 145.66 611.902C145.548 612.046 145.463 612.19 145.391 612.336C142.747 612.654 140.013 612.68 137.288 612.593C122.886 612.126 108.604 609.701 94.5275 606.747ZM169.504 599.638C186.286 596.795 203.207 596.092 220.081 598.639C223.734 599.191 227.445 599.794 231.017 600.738C238.641 602.755 241.316 607.227 241.987 614.419C242.49 619.799 242.723 625.225 242.818 630.648C224.022 629.784 205.172 629.824 186.365 628.966C167.559 628.108 148.71 626.222 129.887 625.933C128.743 622.495 127.056 619.305 124.743 616.649C132.919 617.585 141.681 618.519 149.602 616.508C157.952 614.389 164.223 607.502 167.86 599.343C168.315 599.613 168.868 599.747 169.504 599.638ZM129.813 575.859C136.682 571.944 144.617 567.68 152.804 568.365C162.593 569.182 168.412 576.351 166.836 585.961C165.721 592.76 163.673 600.364 159.083 605.669C156.86 608.237 154.247 609.887 151.409 610.94C155.436 602.529 144.165 593.821 135.994 592.634C128.378 591.529 120.397 592.392 113.009 594.441C108.447 595.708 102.455 597.647 97.7911 600.603C107.306 590.959 118.009 582.586 129.813 575.859ZM69.3312 625.323C69.4532 625.102 69.5969 624.904 69.7231 624.687C69.4934 633.674 69.2634 642.65 68.9413 651.627C67.5162 650.988 66.0309 650.444 64.5059 649.975C64.9319 649.647 65.2471 649.175 65.253 648.624C65.3522 640.129 65.0004 633.115 69.3312 625.323ZM61.8274 649.235C55.9495 647.764 49.6584 647.14 43.9756 646.175C42.792 645.974 41.603 645.794 40.4166 645.604C43.0786 643.014 45.8142 640.494 48.6873 638.15C51.9648 642.186 55.9537 647.477 60.6447 648.914C60.9771 649.017 61.3353 648.952 61.6579 648.799C61.7144 648.944 61.7725 649.089 61.8274 649.235ZM60.3494 643.761C59.5069 642.85 58.557 642.012 57.5779 641.041C55.1251 638.604 52.7975 636.057 50.5374 633.442C49.7198 632.497 48.2037 632.746 47.3886 633.505C43.9439 636.709 40.6209 639.959 37.4885 643.422C38.3233 636.611 39.4923 630.549 43.5545 624.377C48.0229 617.589 54.2997 612.485 61.643 609.182C67.85 609.639 74.1176 609.594 80.2738 609.273C68.1325 615.491 58.4484 630.281 60.3494 643.761ZM90.4731 606.823C89.1484 605.097 87.8707 603.368 86.6407 601.631C85.9322 595.595 85.5155 589.563 85.9725 583.466C86.2863 579.262 86.8923 575.06 87.8009 570.943C88.5489 567.553 90.0464 558.961 93.3556 557.511C96.3286 558.106 99.2999 558.703 102.273 559.299C102.269 559.986 102.263 560.673 102.259 561.361C102.603 563.184 101.613 566.029 101.274 567.901C100.597 571.652 99.7375 575.375 98.7764 579.062C96.7111 586.987 93.9934 594.69 90.7884 602.219C90.5612 602.464 90.3266 602.708 90.1009 602.954C89.1111 604.03 89.6139 605.36 90.5581 605.961C90.7465 606.153 90.9665 606.306 91.203 606.417C90.9305 606.511 90.68 606.639 90.4731 606.823ZM73.3082 570.285C71.4884 555.881 74.4495 534.52 88.8578 527.067C97.4101 522.641 107.212 527.755 111.652 535.545C115.923 543.037 115.653 552.13 113.908 560.31C111.314 572.469 105.663 583.706 98.174 593.539C101.019 585.488 103.29 577.253 104.874 568.819C105.983 562.919 108.189 551.309 99.0816 550.715C89.0311 550.059 85.2588 563.799 83.8905 571.177C82.3227 579.625 82.132 588.407 83.473 596.921C78.3625 588.883 74.5849 580.383 73.3082 570.285ZM78.461 601.659C69.77 601.567 61.2237 600.26 52.9373 597.509C48.3143 595.973 43.8305 594.016 39.5631 591.666C37.6668 590.621 35.2432 589.438 33.5785 588.038C30.9187 585.801 27.3394 580.566 32.587 579.401C41.5118 577.418 52.454 581.767 59.9733 586.205C67.0723 590.392 72.6512 596.096 78.461 601.659ZM12.4695 555.179C23.5876 536.856 48.1536 558.66 56.014 569.09C59.8198 574.139 63.0722 579.69 66.4369 585.15C62.8635 582.612 59.0845 580.454 55.2314 578.78C47.5946 575.462 31.6089 570.6 24.9845 578.517C17.7691 587.141 36.1256 595.039 41.6076 597.597C50.0767 601.548 59.0348 603.998 68.2088 605.063C56.9481 604.823 45.7336 603.262 35.4779 598.352C21.6092 591.711 2.23873 572.039 12.4695 555.179ZM-30.2009 578.934C-25.5977 579.381 -20.9974 579.854 -16.4033 580.37C-7.23464 581.401 1.90027 583.032 11.0963 582.652C14.8066 588.55 19.8613 593.699 24.9275 597.292C34.2781 603.924 45.0325 607.217 56.155 608.628C49.9667 611.302 44.2699 615.868 40.0117 621.446C39.8234 620.548 39.1544 619.718 38.015 619.595C22.3023 617.91 6.55719 616.466 -9.17797 615.014C-17.0389 614.29 -24.906 613.62 -32.774 612.975C-36.7603 612.647 -40.5013 612.075 -44.1757 612.784C-44.2377 603.888 -44.1045 594.997 -43.6634 586.158C-43.2244 577.324 -36.8828 578.287 -30.2009 578.934ZM-43.515 639.045C-43.8178 631.417 -44.0417 623.757 -44.1362 616.097C-38.5884 615.137 -32.2189 616.852 -26.8482 617.432C-19.4756 618.227 -12.1052 619.028 -4.72512 619.754C9.52667 621.156 23.776 622.636 38.0437 623.865C38.1362 623.874 38.217 623.864 38.3032 623.862C34.2545 630.048 31.9683 637.236 32.6402 644.437C27.257 643.681 21.8615 643.009 16.46 642.408C-3.38038 640.199 -23.3942 638.903 -43.3627 639.03C-43.4169 639.03 -43.4634 639.042 -43.515 639.045ZM60.1138 670.143C41.6267 668.79 23.1331 667.524 4.63462 666.345C-4.12747 665.786 -12.8918 665.248 -21.6568 664.73C-25.6918 664.49 -30.2442 664.683 -34.1344 663.557C-42.8366 661.04 -42.9245 652.74 -43.255 645.242C-43.2874 644.516 -43.3148 643.787 -43.3457 643.062C-43.3412 643.062 -43.3383 643.062 -43.3338 643.063C-24.248 643.528 -5.21778 644.377 13.7807 646.333C20.4314 647.017 27.0651 647.845 33.6896 648.742C33.8884 649.89 35.2955 650.736 36.3657 649.642C36.5201 649.484 36.6787 649.328 36.8346 649.17C38.8877 649.454 40.9418 649.743 42.9936 650.039C51.3225 651.24 60.3744 653.936 68.8702 653.606C68.6714 658.897 68.4467 664.191 68.1448 669.488C68.1139 670.033 68.265 670.458 68.5166 670.777C65.7154 670.568 62.9155 670.347 60.1138 670.143ZM71.4535 670.999C71.8984 670.665 72.2254 670.153 72.2785 669.459C73.4896 653.351 73.7322 636.936 72.3398 620.825C76.2882 615.766 81.456 612.002 87.4296 609.361C87.4258 609.479 87.4384 609.598 87.4929 609.706C89.3763 613.453 92.2637 616.574 94.8834 619.913C94.0304 626.961 94.0027 634.179 93.6724 641.241C93.29 649.46 92.732 657.713 92.6674 665.947C92.5102 666.02 92.3578 666.091 92.2005 666.166C91.1529 666.665 91.0152 666.878 90.9486 667.987C90.867 669.343 90.6056 670.979 90.6397 672.518C84.2447 672.017 77.8507 671.48 71.4535 670.999ZM223.392 684.404C204.942 682.598 186.498 680.751 168.04 679.055C143.264 676.778 118.471 674.715 93.668 672.758C93.6128 672.256 93.5321 671.753 93.4656 671.257C93.4215 670.929 93.3729 670.601 93.3272 670.273C94.4091 671.103 96.4086 670.552 96.5661 668.749C97.3161 660.089 97.3772 651.349 97.6568 642.664C97.8463 636.795 98.2594 630.824 98.2712 624.898C98.3745 625.085 98.4926 625.259 98.5911 625.448C102.236 632.446 104.02 639.918 104.261 647.783C104.264 647.856 104.279 647.919 104.288 647.988C104.002 648.42 103.715 648.85 103.425 649.285C102.604 650.516 104.413 651.626 105.4 650.744C105.679 650.496 105.938 650.23 106.207 649.973C107.5 650.179 108.953 649.435 108.897 647.75C108.89 647.561 108.872 647.374 108.864 647.184C111.25 644.403 113.266 641.303 115.032 638.084C118.894 641.962 122.169 646.194 125 650.93C117.044 651.2 109.094 651.591 101.165 652.193C99.3526 652.332 99.3368 655.019 101.185 655.04C124.669 655.303 148.167 654.427 171.652 654.346C195.15 654.264 218.631 655.02 242.122 655.075C242.196 655.076 242.259 655.062 242.328 655.056C242.141 658.124 241.92 661.188 241.634 664.25C241.228 668.613 241.052 673.301 239.893 677.546C237.803 685.193 229.84 685.036 223.392 684.404Z" fill="white"/>
<path opacity="0.75" d="M428.629 199.379C424.306 169.973 413.506 140.019 404.005 111.977C399.231 97.883 394.117 83.9073 388.662 70.064C384.514 59.5387 381.016 44.3301 371.542 37.2905C358.387 27.5141 339.192 34.2289 323.069 40.9479C331.637 30.5467 337.967 18.3169 336.822 4.4198C335.568 -10.8178 325.482 -24.1688 309.751 -25.8175C294.001 -27.4683 278.35 -17.7436 271.349 -3.77615C266.729 5.44171 266.603 15.9607 266.661 26.0474C266.711 34.7812 266.775 43.7322 267.814 52.4847C258.221 35.0398 243.513 20.4207 225.285 12.1234C208.44 4.45497 183.093 3.2655 172.734 22.0446C163.222 39.2909 180.455 58.1507 194.891 65.5005C207.739 72.0416 223.887 73.9199 239.317 72.294C229.002 76.0796 218.687 79.8672 208.384 83.6922C198.645 87.3081 184.968 90.6056 180.04 100.972C178.574 104.058 178.044 107.357 178.421 110.471C177.691 111.102 177.247 112.13 177.72 113.241C178.306 114.622 178.924 116.064 179.601 117.502C183.443 126.743 185.778 136.031 188.534 145.77C188.72 146.426 189.241 146.8 189.817 146.912C191.667 154.146 194.175 161.27 197.855 167.733C202.096 182.664 206.621 197.517 210.765 212.308C214.851 226.89 218.939 241.472 223.025 256.055C225.681 265.538 227.991 277.553 236.091 284.187C243.519 290.271 251.629 287.828 259.962 285.385C275.555 280.813 291.115 276.098 306.612 271.21C334.77 262.328 362.696 252.636 389.837 240.958C408.551 232.918 432.257 224.056 428.629 199.379ZM344.898 41.5353C350.099 40.2031 355.615 39.1047 360.936 40.3231C367.947 41.9263 371.301 46.8414 373.91 52.5612C362.588 54.8491 351.116 61.0964 340.523 65.3992C329.869 69.7247 319.404 74.4122 309.194 79.7142C304.423 72.8173 299.242 66.2018 293.592 59.9318C300.822 57.286 308.051 54.6402 315.281 51.9944C325.043 48.4198 334.816 44.1149 344.898 41.5353ZM288.362 54.3526C288.089 54.0734 287.83 53.7858 287.555 53.5086C286.025 51.9675 284.059 53.9431 284.874 55.6269C282.434 56.5185 279.994 57.4101 277.554 58.3017C283.236 52.3502 286.84 43.7902 291.01 36.8457C293.861 32.0982 296.796 27.3962 300.017 22.8907C302.672 19.1796 307.826 10.7664 312.238 9.01632C313.884 6.38708 315.285 6.656 316.436 9.82723C318.416 10.7747 319.016 11.9993 318.241 13.4991C318.498 15.9194 315.33 20.8779 314.303 22.9962C312.154 27.4272 309.642 31.6886 306.867 35.7514C302.495 42.1539 297.47 47.8406 291.918 53.0515C290.734 53.4859 289.548 53.9182 288.362 54.3526ZM300.845 -19.382C319.196 -22.6959 331.767 -7.36938 330.463 10.092C329.348 25.0483 318.886 37.1457 308.47 46.9945C308.208 47.0938 307.94 47.1972 307.682 47.2924C306.655 47.6689 305.628 48.0433 304.601 48.4177C308.953 43.2482 312.814 37.6608 316.054 31.6245C319.48 25.2407 328.923 9.60588 321.38 2.92417C306.892 -9.91174 275.796 49.8885 274.002 59.1767C273.973 59.3277 273.981 59.4663 274.006 59.5987C273.474 59.7932 272.942 59.9876 272.41 60.1821C273.666 33.0022 263.654 -12.6672 300.845 -19.382ZM208.471 63.6429C194.367 59.6649 167.603 42.2532 179.007 23.9519C191.032 4.65563 218.708 13.7701 233.55 23.5361C248.071 33.0912 258.982 46.7007 266.135 62.4741C265.974 62.532 265.813 62.592 265.655 62.65C265.589 62.0025 265.261 61.3633 264.557 60.8854C257.13 55.8503 191.017 21.4488 190.132 39.8556C189.699 48.8707 210.387 58.281 216.75 61.0364C221.397 63.0471 226.228 64.5924 231.153 65.6722C223.703 66.1067 216.204 65.8233 208.471 63.6429ZM226.061 59.2512C220.75 57.5342 215.628 55.2815 210.791 52.4867C208.745 51.3035 195.763 43.8046 196.133 41.554C197.562 32.8243 243.399 55.4201 258.136 62.9602C256.365 63.0823 254.605 63.2457 252.85 63.4236C243.739 63.2064 234.876 62.1018 226.061 59.2512ZM190.229 117.473C189.951 114.207 189.458 110.965 188.647 107.794C189.138 105.069 189.499 102.306 189.959 99.6517C191.211 98.5471 192.502 97.612 193.662 96.9522C198.744 94.0499 204.74 92.3991 210.235 90.4152C219.611 87.0289 228.967 83.5867 238.327 80.1548C240.054 87.0765 244.614 93.5617 247.92 99.7614C248.248 100.378 248.578 100.992 248.906 101.609C230.027 108.601 211.091 116.795 193.608 126.825C192.523 123.687 191.403 120.568 190.229 117.473ZM306.614 263.842C296.08 267.191 285.509 270.424 274.926 273.614C263.619 277.023 244.49 287.015 236.681 274.019C230.446 263.645 228.555 249.798 225.339 238.282C221.637 225.022 217.932 211.762 214.23 198.502C207.99 176.162 202.426 153.269 195.058 131.165C214.081 123.549 232.83 114.91 251.499 106.464C254.026 111.195 256.544 115.928 259.005 120.694C266.853 135.894 274.427 151.242 281.611 166.767C295.599 197 309.85 228.061 314.136 261.397C311.628 262.212 309.126 263.043 306.614 263.842ZM320.188 259.433C316.43 228.226 303.334 199.085 290.42 170.712C282.791 153.947 274.765 137.353 266.197 121.05C261.915 112.901 257.586 104.765 253.027 96.768C249.614 90.7773 246.575 83.8659 241.702 78.9239C242.673 78.5681 243.647 78.2144 244.62 77.8586L283.381 63.6719C284.218 65.0268 285.918 65.8936 287.38 64.7807C288.289 64.0877 289.166 63.3595 290.053 62.6417C329.719 116.861 347.133 180.128 358.989 245.793C346.164 250.64 333.211 255.143 320.188 259.433ZM406.99 225.183C396.12 231.217 384.235 235.812 372.726 240.441C370.127 241.488 367.51 242.485 364.899 243.499C355.318 188.899 342.414 129.264 310.92 82.2751C322.809 78.7936 334.38 74.5446 345.902 69.9936C355.664 66.1377 366.978 63.0389 375.954 57.3935C376.218 58.0472 376.484 58.7009 376.752 59.3546C385.626 80.8809 393.612 102.782 400.786 124.935C408.129 147.613 415.209 170.722 420.234 194.046C423.402 208.746 420.201 217.85 406.99 225.183Z" fill="white"/>
</g>
<defs>
<clipPath id="clip0_2024_1220">
<rect width="375" height="667" fill="white"/>
</clipPath>
</defs>
</svg>
