<svg width="375" height="667" viewBox="0 0 375 667" fill="none" xmlns="http://www.w3.org/2000/svg">
<g clip-path="url(#clip0_2013_2325)">
<g opacity="0.75">
<path d="M346.717 170.504C368.765 174.768 379.516 196.262 387.946 214.777C388.819 216.696 386.456 218.064 384.879 217.435C374.086 213.133 363.291 208.829 352.498 204.528C353.316 203.332 354.135 202.139 354.953 200.943C372.393 217.107 379.265 240.391 385.461 262.578C385.824 263.876 385.02 265.433 383.536 265.468C378.672 265.587 374.884 262.874 371.146 260.08C367.034 257.006 363.006 253.826 359.037 250.572C351.093 244.063 343.383 237.272 335.677 230.487C336.652 229.398 337.625 228.309 338.6 227.223C342.501 230.952 343.594 236.892 345.637 241.685C348.577 248.587 352.322 255.201 355.423 262.045C356.172 263.699 354.389 265.066 352.912 264.896C337.956 263.175 321.925 261.062 310.093 250.835C299.961 242.076 295.921 228.795 294.063 215.969C293.658 213.175 298.033 212.899 298.435 215.672C300.167 227.64 303.963 240.103 313.621 248.08C324.799 257.313 339.915 259.006 353.785 260.602C352.949 261.552 352.11 262.503 351.273 263.453C348.304 256.901 344.958 250.542 341.907 244.036C339.918 239.795 339.164 233.821 335.677 230.487C333.644 228.545 336.473 225.351 338.6 227.223C345.646 233.43 352.694 239.638 359.921 245.631C363.533 248.625 367.191 251.568 370.913 254.427C374.409 257.113 378.539 261.211 383.239 261.097C382.596 262.061 381.954 263.024 381.314 263.987C375.335 242.573 368.884 219.822 352.033 204.204C350.134 202.444 352.239 199.724 354.488 200.618C365.281 204.919 376.076 209.223 386.869 213.524C385.846 214.409 384.824 215.297 383.802 216.182C376.049 199.155 366.193 178.728 345.845 174.79C343.073 174.26 343.946 169.969 346.717 170.504Z" fill="white"/>
<path d="M335.677 230.487C343.383 237.272 351.093 244.063 359.037 250.572C363.006 253.826 367.034 257.006 371.146 260.08C374.884 262.874 378.672 265.587 383.536 265.468C385.02 265.433 385.824 263.876 385.461 262.578C379.265 240.391 372.393 217.107 354.953 200.943C354.135 202.139 353.316 203.332 352.498 204.528C363.291 208.829 374.086 213.133 384.879 217.435C386.456 218.064 388.819 216.696 387.946 214.777C379.516 196.262 368.765 174.768 346.717 170.504C343.946 169.969 343.073 174.26 345.845 174.79C366.193 178.728 376.049 199.155 383.802 216.182C384.824 215.297 385.846 214.409 386.869 213.524C376.076 209.223 365.281 204.919 354.488 200.618C352.239 199.724 350.134 202.444 352.033 204.204C368.884 219.822 375.335 242.573 381.314 263.987C381.954 263.024 382.596 262.061 383.239 261.097C378.539 261.211 374.409 257.113 370.913 254.427C367.191 251.568 363.533 248.625 359.921 245.631C352.694 239.638 345.646 233.43 338.6 227.223M335.677 230.487C336.652 229.398 337.625 228.309 338.6 227.223M335.677 230.487C339.164 233.821 339.918 239.795 341.907 244.036C344.958 250.542 348.304 256.901 351.273 263.453C352.11 262.503 352.949 261.552 353.785 260.602C339.915 259.006 324.799 257.313 313.621 248.08C303.963 240.103 300.167 227.64 298.435 215.672C298.033 212.899 293.658 213.175 294.063 215.969C295.921 228.795 299.961 242.076 310.093 250.835C321.925 261.062 337.956 263.175 352.912 264.896C354.389 265.066 356.172 263.699 355.423 262.045C352.322 255.201 348.577 248.587 345.637 241.685C343.594 236.892 342.501 230.952 338.6 227.223M335.677 230.487C333.644 228.545 336.473 225.351 338.6 227.223" stroke="white"/>
<path d="M214.435 49.7284C241.363 50.02 267.907 58.4143 290.092 73.6871C311.37 88.3337 326.957 109.32 337.533 132.713C343.369 145.622 347.62 159.314 349.501 173.374C349.874 176.174 345.501 176.453 345.129 173.672C341.899 149.53 331.553 126.013 317.303 106.373C302.452 85.9044 281.717 70.7007 257.995 62.008C244.171 56.9422 229.449 54.2609 214.73 54.102C211.927 54.0693 211.615 49.6971 214.435 49.7284Z" fill="white" stroke="white"/>
<path d="M264.452 63.5362C256.861 86.1298 237.562 104.029 214.264 109.424C211.538 110.054 210.108 105.913 212.853 105.276C234.533 100.254 253.044 83.8317 260.158 62.6602C261.045 60.0216 265.35 60.8648 264.452 63.5362Z" fill="white" stroke="white"/>
<path d="M272.302 66.3482C266.255 93.0942 243.986 114.57 217.16 119.943C214.399 120.496 214.136 116.118 216.863 115.571C241.713 110.596 262.435 90.1303 268.008 65.4722C268.629 62.7265 272.924 63.5929 272.302 66.3482Z" fill="white" stroke="white"/>
<path d="M304.663 151.909C302.057 157.442 297.791 161.583 291.839 163.263C286.719 164.711 281.202 164.829 276.045 163.482C265.696 160.781 257.138 152.408 255.58 141.617C254.081 131.233 259.272 120.102 267.374 113.698C276.483 106.498 288.986 107.603 297.784 114.753C308.536 123.493 309.987 139.768 304.663 151.909C303.531 154.49 299.626 152.504 300.757 149.923C304.705 140.92 304.42 128.438 297.738 120.758C291.626 113.733 280.913 110.592 272.554 115.465C265.05 119.84 259.976 128.757 259.731 137.412C259.473 146.493 265.257 154.428 273.446 157.994C278.018 159.985 283.202 160.521 288.103 159.657C294.052 158.608 298.189 155.383 300.759 149.923C301.957 147.374 305.867 149.355 304.663 151.909Z" fill="white"/>
<path d="M304.663 151.909C302.057 157.442 297.791 161.583 291.839 163.263C286.719 164.711 281.202 164.829 276.045 163.482C265.696 160.781 257.138 152.408 255.58 141.617C254.081 131.233 259.272 120.102 267.374 113.698C276.483 106.498 288.986 107.603 297.784 114.753C308.536 123.493 309.987 139.768 304.663 151.909ZM304.663 151.909C303.531 154.49 299.626 152.504 300.757 149.923C304.705 140.92 304.42 128.438 297.738 120.758C291.626 113.733 280.913 110.592 272.554 115.465C265.05 119.84 259.976 128.757 259.731 137.412C259.473 146.493 265.257 154.428 273.446 157.994C278.018 159.985 283.202 160.521 288.103 159.657C294.052 158.608 298.189 155.383 300.759 149.923C301.957 147.374 305.867 149.355 304.663 151.909Z" stroke="white"/>
<path d="M298.075 147.448C296.211 151.406 293.117 154.398 288.857 155.603C285.221 156.629 281.295 156.733 277.63 155.776C270.195 153.835 264.115 147.846 262.997 140.102C261.929 132.705 265.661 124.822 271.421 120.268C277.934 115.119 286.907 115.952 293.185 121.056C300.833 127.265 301.859 138.82 298.075 147.448C296.943 150.029 293.038 148.043 294.169 145.462C296.761 139.551 296.603 131.272 292.243 126.205C288.276 121.593 281.219 119.428 275.737 122.623C270.776 125.513 267.4 131.39 267.215 137.115C267.02 143.142 270.859 148.357 276.283 150.721C279.314 152.04 282.773 152.378 286.016 151.793C289.883 151.095 292.498 149.006 294.166 145.464C295.369 142.913 299.276 144.894 298.075 147.448Z" fill="white"/>
<path d="M298.075 147.448C296.211 151.406 293.117 154.398 288.857 155.603C285.221 156.629 281.295 156.733 277.63 155.776C270.195 153.835 264.115 147.846 262.997 140.102C261.929 132.705 265.661 124.822 271.421 120.268C277.934 115.119 286.907 115.952 293.185 121.056C300.833 127.265 301.859 138.82 298.075 147.448ZM298.075 147.448C296.943 150.029 293.038 148.043 294.169 145.462C296.761 139.551 296.603 131.272 292.243 126.205C288.276 121.593 281.219 119.428 275.737 122.623C270.776 125.513 267.4 131.39 267.215 137.115C267.02 143.142 270.859 148.357 276.283 150.721C279.314 152.04 282.773 152.378 286.016 151.793C289.883 151.095 292.498 149.006 294.166 145.464C295.369 142.913 299.276 144.894 298.075 147.448Z" stroke="white"/>
<path d="M216.282 54.262C211.361 79.265 213.31 105.425 221.868 129.432C230.198 152.795 245.119 173.305 263.294 190.027C273.381 199.309 284.559 207.468 296.876 213.536C299.403 214.78 297.426 218.69 294.889 217.442C272.27 206.296 252.777 188.415 237.835 168.254C222.49 147.551 212.921 123.197 210.101 97.5694C208.48 82.8545 209.131 67.9077 211.989 53.3835C212.535 50.6202 216.826 51.4933 216.282 54.262Z" fill="white" stroke="white"/>
<path d="M349.277 173.849C332.657 189.241 315.237 203.757 297.094 217.317C296.289 216.099 295.482 214.882 294.677 213.662C295.16 213.382 295.643 213.103 296.126 212.821C298.559 211.41 300.986 215.057 298.543 216.476C298.06 216.756 297.577 217.037 297.094 217.317C294.651 218.733 292.412 215.354 294.677 213.662C312.526 200.324 329.664 186.066 346.014 170.926C348.061 169.028 351.349 171.929 349.277 173.849Z" fill="white"/>
<path d="M297.094 217.317C315.237 203.757 332.657 189.241 349.277 173.849C351.349 171.929 348.061 169.028 346.014 170.926C329.664 186.066 312.526 200.324 294.677 213.662M297.094 217.317C296.289 216.099 295.482 214.882 294.677 213.662M297.094 217.317C297.577 217.037 298.06 216.756 298.543 216.476C300.986 215.057 298.559 211.41 296.126 212.821C295.643 213.103 295.16 213.382 294.677 213.662M297.094 217.317C294.651 218.733 292.412 215.354 294.677 213.662" stroke="white"/>
<path d="M226.333 144.42C220.229 161.245 223.16 180.639 233.666 195.063C232.535 195.445 231.404 195.829 230.275 196.211C230.4 186.735 232.939 177.54 237.83 169.41C239.05 167.381 242.365 169.04 241.131 171.089C236.587 178.64 234.087 187.137 233.97 195.959C233.945 197.796 231.709 198.657 230.576 197.106C219.229 181.53 216.475 160.812 223.029 142.743C223.84 140.51 227.138 142.201 226.333 144.42Z" fill="white" stroke="white"/>
<path d="M297.883 78.3932C317.111 78.5145 335.554 88.3826 346.217 104.406C347.34 106.091 345.456 107.655 343.833 107.079C335.528 104.13 326.651 103.576 318.014 105.217C315.676 105.662 315.451 101.961 317.762 101.523C327.099 99.7492 336.572 100.604 345.511 103.778C344.717 104.669 343.923 105.561 343.127 106.451C333.227 91.5738 316.023 82.2029 298.132 82.0898C295.762 82.0748 295.5 78.3782 297.883 78.3932Z" fill="white" stroke="white"/>
<path d="M64.0163 129.962C64.0163 129.962 63.4899 129.824 62.9618 129.817C61.3744 130.062 60.8577 129.132 60.4795 127.675C59.4721 123.704 58.331 119.863 56.6618 116.016C55.1215 112.434 52.7825 109.37 49.777 106.826C48.0786 105.353 46.3803 103.881 44.6836 102.276C43.3781 101.072 42.2029 100.002 40.4899 99.7173C37.8529 99.421 38.9382 97.059 38.2943 95.7314C37.6521 94.2719 39.2395 94.0275 40.0365 93.6414C40.8334 93.2553 41.6304 92.8692 42.4225 92.8789C45.4588 92.9163 48.1153 91.6293 50.3839 89.6777C53.7216 86.6836 56.1416 83.1503 57.9097 78.9492C59.4072 75.2726 60.7712 71.7264 61.0838 67.7713C61.2305 66.5854 61.7747 65.2725 63.0932 65.4207C64.5438 65.5705 66.3936 65.4613 67.163 67.3182C67.6732 68.7761 68.0498 70.3642 68.428 71.8205C69.6865 76.8506 70.2849 81.8726 71.6755 86.9043C72.1808 88.758 73.0838 90.4846 73.9884 92.0793C75.7961 95.4006 79.4731 97.0293 83.3128 96.1528C84.9019 95.7764 86.2154 96.3205 87.5259 97.1283C89.4899 98.4721 89.6073 99.6613 87.6109 100.956C84.9495 102.639 82.2898 104.19 79.3676 105.606C72.3287 108.95 68.041 114.044 67.8101 122.091C67.7857 124.07 67.2333 126.043 66.813 128.017C66.5327 129.333 66.122 130.516 64.0163 129.962ZM46.5934 97.285C53.1292 102.644 58.8778 107.597 62.7507 114.771C65.4769 107.81 70.8062 103.917 77.7131 100.571C73.7591 99.9943 71.8065 97.7269 69.5866 95.7202C68.5418 94.7836 67.6339 93.4527 67.2557 91.9965C66.3673 89.0824 65.0813 86.2954 64.7225 83.2558C64.5986 82.5945 64.7403 81.8044 63.5571 81.3939C62.4799 83.0962 61.4011 84.9305 60.3223 86.7647C57.2243 91.7413 53.6063 96.0516 46.5934 97.285Z" fill="white"/>
<path d="M114.924 52.9043C114.728 53.376 114.534 53.7527 114.433 54.2255C114.241 54.4128 114.05 54.5052 114.048 54.6948C113.942 55.6416 114.21 56.9722 113.164 57.149C112.119 57.3257 111.82 58.4597 110.873 58.3532C110.613 56.3591 109.877 54.454 109.333 52.4564C108.787 50.5535 107.758 49.4032 105.58 49.092C103.592 48.7832 101.799 48.0026 100.3 46.4673C99.5508 45.6996 99.6538 45.0373 100.608 44.575C102.42 43.744 104.14 42.7223 106.139 42.178C107.947 41.7262 108.819 40.22 109.031 38.4213C109.341 36.3394 110.217 34.5489 110.81 32.5653C111.007 31.9989 111.204 31.4325 111.777 31.0603C112.064 30.8742 112.256 30.6869 112.635 30.7864C113.96 30.9923 115.268 32.6201 115.157 33.946C115.039 35.8407 115.396 37.6463 115.848 39.4532C116.212 40.6901 116.87 41.1722 117.91 41.4694C119.895 42.0627 121.879 42.656 123.859 43.6284C124.896 44.2099 124.889 44.7787 124.499 45.6271C124.206 46.2872 123.63 46.8489 123.059 47.0315C121.632 47.3932 120.575 48.4231 119.149 48.69C117.818 48.9581 116.86 49.7047 116.181 50.9288C115.516 51.0154 115.132 51.3899 114.747 51.8592C114.361 52.4233 114.452 52.7089 114.924 52.9043Z" fill="white"/>
<path d="M110.684 58.2561C111.726 58.3637 112.025 57.2296 112.975 57.0517C114.116 56.8761 113.848 55.5456 113.859 54.5976C113.862 54.4081 114.147 54.3168 114.245 54.1283C114.702 55.4613 114.496 56.7861 114.006 58.1073C113.711 58.957 113.232 59.3303 112.28 59.603C111.044 59.8722 110.765 59.3947 110.684 58.2561Z" fill="white"/>
<path d="M114.923 52.9039C114.452 52.7085 114.36 52.423 114.649 52.0473C114.94 51.5768 115.42 51.1087 116.084 51.1169C116.074 51.8752 115.31 52.3399 114.923 52.9039Z" fill="white"/>
<path d="M146.298 80.8548C150.175 79.1743 151.14 75.3052 152.937 72.0056C153.654 72.5068 154.162 72.9634 154.627 73.6272C155.67 75.023 156.851 76.1881 158.58 76.8208C160.078 77.317 160.335 77.9361 159.469 79.1374C157.895 81.4009 156.968 83.8901 156.063 86.4712C155.611 87.7617 154.968 87.9268 154.226 86.9429C152.254 84.2194 149.78 82.212 146.508 81.2904C146.484 81.1986 146.437 81.0149 146.298 80.8548Z" fill="white"/>
</g>
<g opacity="0.75">
<path d="M296.335 490.5C296.46 490.231 296.582 490.017 296.652 489.745C296.768 489.641 296.881 489.592 296.887 489.482C296.972 488.935 296.849 488.156 297.46 488.078C298.072 488.001 298.273 487.35 298.82 487.435C298.923 488.599 299.303 489.723 299.571 490.897C299.842 492.015 300.411 492.708 301.669 492.942C302.816 493.17 303.838 493.667 304.671 494.595C305.087 495.059 305.011 495.441 304.446 495.686C303.373 496.125 302.349 496.676 301.175 496.943C300.114 497.162 299.571 498.015 299.404 499.055C299.174 500.256 298.621 501.274 298.228 502.412C298.1 502.736 297.972 503.06 297.63 503.262C297.459 503.363 297.343 503.468 297.126 503.401C296.361 503.249 295.641 502.272 295.738 501.504C295.853 500.407 295.689 499.35 295.471 498.289C295.289 497.562 294.919 497.266 294.322 497.068C293.184 496.675 292.046 496.282 290.92 495.67C290.332 495.307 290.35 494.976 290.597 494.493C290.783 494.117 291.132 493.805 291.468 493.713C292.306 493.538 292.944 492.965 293.779 492.845C294.558 492.722 295.133 492.311 295.557 491.617C295.945 491.583 296.177 491.375 296.412 491.112C296.65 490.794 296.604 490.625 296.335 490.5Z" fill="white"/>
<path d="M313.997 515.959C311.704 516.84 311.05 519.063 309.926 520.936C309.522 520.627 309.238 520.35 308.984 519.953C308.412 519.117 307.755 518.412 306.766 518.002C305.908 517.677 305.774 517.312 306.307 516.635C307.275 515.359 307.875 513.936 308.463 512.459C308.757 511.721 309.134 511.641 309.541 512.23C310.62 513.86 312.008 515.086 313.886 515.701C313.897 515.754 313.92 515.862 313.997 515.959Z" fill="white"/>
</g>
<g opacity="0.75">
<mask id="path-22-outside-1_2013_2325" maskUnits="userSpaceOnUse" x="1.45857" y="468.735" width="117.108" height="171.41" fill="black">
<rect fill="white" x="1.45857" y="468.735" width="117.108" height="171.41"/>
<path d="M77.1795 542.909C78.2798 543.376 78.8943 543.763 79.5635 543.888C84.4712 544.834 86.7617 551.138 85.782 554.761C85.2648 556.655 85.6952 557.79 87.0279 559.145C89.4751 561.666 90.5533 564.87 90.3075 568.375C89.9462 573.709 87.9245 578.324 83.7172 581.761C82.4223 582.816 81.9851 583.926 81.8994 585.567C81.6976 589.881 80.4796 593.921 77.512 597.21C74.728 600.297 71.83 603.279 68.1742 605.364C66.8101 606.131 66.3086 606.988 66.6891 608.57C67.5242 612.057 66.4356 615.412 65.59 618.734C64.8787 621.554 63.875 624.31 62.891 627.056C60.9629 632.379 57.8934 632.957 53.9473 632.349C43.1747 630.699 33.7978 626.11 25.3646 619.39C21.5395 616.342 20.5113 612.494 22.1811 607.795C23.7564 603.379 25.3862 598.997 27.7347 594.939C28.4745 593.665 28.4605 592.569 28.0402 591.205C27.0018 587.833 26.0079 584.476 24.3347 581.321C23.6961 580.116 23.4494 578.628 23.3662 577.245C23.0483 571.964 22.7353 566.669 22.6702 561.373C22.624 557.159 23.5694 553.094 26.0315 549.586C29.3474 544.858 33.8959 542.378 39.7712 542.457C43.4897 542.51 43.6632 542.485 43.9935 538.826C44.5888 532.248 44.981 525.634 45.4326 519.04C45.9644 511.365 46.9474 503.775 48.788 496.29C49.2108 494.58 49.9063 492.944 50.4679 491.264C51.2829 488.924 52.8412 487.131 54.7166 485.625C58.6856 482.455 63.375 483.659 65.28 488.395C66.9326 492.552 67.6628 496.945 67.3369 501.382C67.016 505.854 66.2587 510.296 65.7593 514.758C65.5394 516.8 64.6404 518.798 65.3472 521.53C66.1366 520.207 66.7124 519.375 67.1494 518.463C70.9537 510.692 74.8422 502.965 79.7466 495.81C81.489 493.268 83.5137 490.919 85.6079 488.66C86.7939 487.387 88.2723 486.327 89.81 485.485C95.3259 482.436 100.529 486.258 101.144 491.191C101.371 492.986 101.265 494.935 100.833 496.675C98.6587 505.503 94.76 513.607 90.0484 521.322C86.4639 527.2 82.8001 533.018 79.2007 538.89C78.4759 540.069 77.9294 541.358 77.1746 542.875L77.1795 542.909ZM65.7261 561.349C63.4659 560.593 61.389 559.932 59.3171 559.207C57.1907 558.446 55.7541 556.958 55.0319 554.815C54.5275 553.308 54.0775 551.785 53.6425 550.268C53.3508 549.261 52.8109 548.601 51.8047 548.199C47.4777 546.504 43.0162 545.509 38.3704 545.659C33.4766 545.809 29.776 548.126 27.4174 552.413C25.6597 555.595 25.275 559.119 25.3911 562.679C25.5266 566.824 25.781 570.96 26.085 575.095C26.2027 576.672 26.3154 578.363 26.9588 579.751C28.4386 582.941 29.8789 586.1 31.081 589.428C31.8704 591.606 33.0514 593.464 34.5397 595.012C36.586 597.141 39.2134 598.686 42.2035 599.675C47.2147 601.35 52.3751 602.629 57.4708 604.051C58.6654 604.384 59.87 604.688 61.0945 604.832C61.8381 604.932 62.7306 604.933 63.3556 604.596C67.9091 602.151 71.8881 598.951 75.238 595.012C77.1189 592.797 77.9987 590.116 78.6752 587.35C78.7648 586.983 78.5668 586.537 78.4435 585.818C77.4714 586.203 76.6926 586.555 75.8942 586.817C72.5515 587.915 69.2435 589.206 65.8168 590.012C61.9388 590.931 57.9441 589.182 56.4194 586.176C55.073 583.528 53.8158 580.81 52.7273 578.032C51.05 573.752 48.306 570.438 44.3861 568.07C43.7964 567.707 43.0728 567.35 42.751 566.779C42.3945 566.164 42.1721 565.247 42.3809 564.622C42.5449 564.131 43.4179 563.646 44.0179 563.582C44.965 563.469 45.9465 563.698 46.9033 563.803C51.5486 564.297 56.174 564.951 60.8294 565.217C63.7 565.383 64.7172 564.318 65.7113 561.344L65.7261 561.349ZM58.3766 539.17C58.5261 538.179 58.5612 537.678 58.6757 537.187C59.5415 533.311 60.5759 529.474 61.2385 525.563C62.3397 518.955 63.2524 512.316 64.1156 505.678C64.8141 500.275 64.4417 494.91 62.542 489.762C61.2855 486.349 58.6334 485.728 55.8847 488.065C53.5032 490.096 52.1425 492.783 51.5847 495.787C50.7282 500.377 50.0749 505.002 49.3869 509.633C47.8912 519.746 48.6265 530.059 46.6301 540.138C46.0943 542.874 46.3041 542.938 49.0524 543.775C49.062 543.778 49.0717 543.781 49.0814 543.784C54.41 545.399 59.7038 547.119 64.3767 550.301C64.6443 550.49 65.0161 550.515 65.1945 550.575C66.8767 548.905 68.2169 547.072 70.0225 545.923C71.9175 544.705 73.1335 543.144 74.0573 541.221C74.4397 540.423 74.8469 539.65 75.3136 538.897C79.3201 532.35 83.3514 525.829 87.3579 519.282C91.1906 513.009 94.2552 506.362 96.8836 499.537C97.6885 497.426 97.973 495.091 98.2773 492.845C98.5417 490.867 97.7696 489.171 95.9558 488.168C94.1172 487.14 92.3666 487.629 90.7345 488.753C90.725 488.76 90.7155 488.766 90.706 488.772C90.2039 489.108 89.685 489.455 89.2758 489.902C87.4745 491.83 85.5344 493.677 83.956 495.778C78.7592 502.72 74.8113 510.427 70.8385 518.109C67.9534 523.674 65.2417 529.314 62.3614 534.865C61.5321 536.456 60.6829 538.156 58.4063 539.23L58.3766 539.17ZM30.3215 596.597C29.84 597.295 29.319 597.816 29.0904 598.45C27.6443 602.43 26.1884 606.39 24.891 610.42C24.3741 612.016 24.9479 613.613 26.1369 614.804C27.311 615.99 28.5297 617.191 29.9172 618.085C37.3306 622.811 45.0919 626.645 53.9858 627.733C57.2132 628.117 57.9968 627.801 59.0802 624.658C60.0294 621.917 60.9241 619.141 61.7445 616.341C62.1721 614.913 62.4361 613.431 62.6654 611.954C62.9944 609.733 62.5783 609.197 60.3079 608.719C59.0091 608.45 57.7203 608.201 56.4364 607.888C54.2107 607.326 51.9998 606.769 49.799 606.132C43.1022 604.208 36.2514 602.596 31.2829 597.133C31.1294 596.949 30.8369 596.885 30.3165 596.612L30.3215 596.597ZM67.0525 552.138C67.716 553.219 68.013 553.864 68.4488 554.39C69.8555 556.117 69.9878 558.095 69.5647 560.152C69.3108 561.357 68.9033 562.527 68.4661 563.686C67.1494 567.082 64.6936 568.988 61.0098 568.931C58.5605 568.889 56.1065 568.565 53.6524 568.389C53.0377 568.349 52.403 568.418 51.446 568.462C52.7087 570.471 53.6642 572.163 54.7885 573.695C55.2094 574.266 56.0321 574.673 56.7558 574.882C60.1414 575.881 63.4388 575.611 66.3707 573.566C68.3798 572.155 70.2999 570.565 72.0961 568.9C75.877 565.403 78.9593 561.325 81.5609 556.904C83.2887 553.961 82.8702 550.465 80.7399 548.331C78.8227 546.401 75.5655 546.106 72.6586 547.879C70.7438 549.057 69.0519 550.607 67.0624 552.158L67.0525 552.138ZM55.9257 577.465C56.9753 579.32 57.8321 580.515 58.3665 581.835C60.0043 585.887 61.9122 587.053 66.1373 586.085C71.5426 584.85 76.5371 582.717 80.8882 579.195C84.5795 576.214 86.3081 572.229 86.4457 567.663C86.4969 565.729 85.6755 563.735 85.092 561.821C84.914 561.265 84.24 560.858 83.5663 560.154C82.7423 561.234 82.0773 562.037 81.4817 562.879C78.012 567.72 73.9429 571.981 69.2001 575.586C66.3424 577.756 63.1485 578.854 59.5345 578.39C58.5182 578.265 57.5516 577.892 55.9257 577.465ZM66.4025 558.831C67.2712 557.567 66.9002 556.55 65.9537 555.92C63.3373 554.153 60.6464 552.509 57.9604 550.851C57.6978 550.697 57.2912 550.776 56.954 550.746C56.6879 554.856 60.1611 557.819 66.4025 558.831Z"/>
<path d="M58.3766 539.17C58.5261 538.179 58.5612 537.678 58.6757 537.187C59.5415 533.311 60.5759 529.474 61.2385 525.563C62.3397 518.955 63.2524 512.316 64.1156 505.678C64.8141 500.275 64.4417 494.91 62.542 489.762C61.2855 486.349 58.6334 485.728 55.8847 488.065C53.5032 490.096 52.1425 492.783 51.5847 495.787C50.7282 500.377 50.0749 505.002 49.3869 509.633C47.8912 519.746 48.6265 530.059 46.6301 540.138C46.0943 542.874 46.3041 542.938 49.0524 543.775L49.0814 543.784C54.41 545.399 59.7038 547.119 64.3767 550.301C64.6443 550.49 65.0161 550.515 65.1945 550.575C66.8767 548.905 68.2169 547.072 70.0225 545.923C71.9175 544.705 73.1335 543.144 74.0573 541.221C74.4397 540.423 74.8469 539.65 75.3136 538.897C79.3201 532.35 83.3514 525.829 87.3579 519.282C91.1906 513.009 94.2552 506.362 96.8836 499.537C97.6885 497.426 97.973 495.091 98.2773 492.845C98.5417 490.867 97.7696 489.171 95.9558 488.168C94.1172 487.14 92.3666 487.629 90.7345 488.753L90.706 488.772C90.2039 489.108 89.685 489.455 89.2758 489.902C87.4745 491.83 85.5344 493.677 83.956 495.778C78.7592 502.72 74.8113 510.427 70.8385 518.109C67.9534 523.674 65.2417 529.314 62.3614 534.865C61.5321 536.456 60.6829 538.156 58.4063 539.23L58.3766 539.17Z"/>
</mask>
<path d="M77.1795 542.909C78.2798 543.376 78.8943 543.763 79.5635 543.888C84.4712 544.834 86.7617 551.138 85.782 554.761C85.2648 556.655 85.6952 557.79 87.0279 559.145C89.4751 561.666 90.5533 564.87 90.3075 568.375C89.9462 573.709 87.9245 578.324 83.7172 581.761C82.4223 582.816 81.9851 583.926 81.8994 585.567C81.6976 589.881 80.4796 593.921 77.512 597.21C74.728 600.297 71.83 603.279 68.1742 605.364C66.8101 606.131 66.3086 606.988 66.6891 608.57C67.5242 612.057 66.4356 615.412 65.59 618.734C64.8787 621.554 63.875 624.31 62.891 627.056C60.9629 632.379 57.8934 632.957 53.9473 632.349C43.1747 630.699 33.7978 626.11 25.3646 619.39C21.5395 616.342 20.5113 612.494 22.1811 607.795C23.7564 603.379 25.3862 598.997 27.7347 594.939C28.4745 593.665 28.4605 592.569 28.0402 591.205C27.0018 587.833 26.0079 584.476 24.3347 581.321C23.6961 580.116 23.4494 578.628 23.3662 577.245C23.0483 571.964 22.7353 566.669 22.6702 561.373C22.624 557.159 23.5694 553.094 26.0315 549.586C29.3474 544.858 33.8959 542.378 39.7712 542.457C43.4897 542.51 43.6632 542.485 43.9935 538.826C44.5888 532.248 44.981 525.634 45.4326 519.04C45.9644 511.365 46.9474 503.775 48.788 496.29C49.2108 494.58 49.9063 492.944 50.4679 491.264C51.2829 488.924 52.8412 487.131 54.7166 485.625C58.6856 482.455 63.375 483.659 65.28 488.395C66.9326 492.552 67.6628 496.945 67.3369 501.382C67.016 505.854 66.2587 510.296 65.7593 514.758C65.5394 516.8 64.6404 518.798 65.3472 521.53C66.1366 520.207 66.7124 519.375 67.1494 518.463C70.9537 510.692 74.8422 502.965 79.7466 495.81C81.489 493.268 83.5137 490.919 85.6079 488.66C86.7939 487.387 88.2723 486.327 89.81 485.485C95.3259 482.436 100.529 486.258 101.144 491.191C101.371 492.986 101.265 494.935 100.833 496.675C98.6587 505.503 94.76 513.607 90.0484 521.322C86.4639 527.2 82.8001 533.018 79.2007 538.89C78.4759 540.069 77.9294 541.358 77.1746 542.875L77.1795 542.909ZM65.7261 561.349C63.4659 560.593 61.389 559.932 59.3171 559.207C57.1907 558.446 55.7541 556.958 55.0319 554.815C54.5275 553.308 54.0775 551.785 53.6425 550.268C53.3508 549.261 52.8109 548.601 51.8047 548.199C47.4777 546.504 43.0162 545.509 38.3704 545.659C33.4766 545.809 29.776 548.126 27.4174 552.413C25.6597 555.595 25.275 559.119 25.3911 562.679C25.5266 566.824 25.781 570.96 26.085 575.095C26.2027 576.672 26.3154 578.363 26.9588 579.751C28.4386 582.941 29.8789 586.1 31.081 589.428C31.8704 591.606 33.0514 593.464 34.5397 595.012C36.586 597.141 39.2134 598.686 42.2035 599.675C47.2147 601.35 52.3751 602.629 57.4708 604.051C58.6654 604.384 59.87 604.688 61.0945 604.832C61.8381 604.932 62.7306 604.933 63.3556 604.596C67.9091 602.151 71.8881 598.951 75.238 595.012C77.1189 592.797 77.9987 590.116 78.6752 587.35C78.7648 586.983 78.5668 586.537 78.4435 585.818C77.4714 586.203 76.6926 586.555 75.8942 586.817C72.5515 587.915 69.2435 589.206 65.8168 590.012C61.9388 590.931 57.9441 589.182 56.4194 586.176C55.073 583.528 53.8158 580.81 52.7273 578.032C51.05 573.752 48.306 570.438 44.3861 568.07C43.7964 567.707 43.0728 567.35 42.751 566.779C42.3945 566.164 42.1721 565.247 42.3809 564.622C42.5449 564.131 43.4179 563.646 44.0179 563.582C44.965 563.469 45.9465 563.698 46.9033 563.803C51.5486 564.297 56.174 564.951 60.8294 565.217C63.7 565.383 64.7172 564.318 65.7113 561.344L65.7261 561.349ZM58.3766 539.17C58.5261 538.179 58.5612 537.678 58.6757 537.187C59.5415 533.311 60.5759 529.474 61.2385 525.563C62.3397 518.955 63.2524 512.316 64.1156 505.678C64.8141 500.275 64.4417 494.91 62.542 489.762C61.2855 486.349 58.6334 485.728 55.8847 488.065C53.5032 490.096 52.1425 492.783 51.5847 495.787C50.7282 500.377 50.0749 505.002 49.3869 509.633C47.8912 519.746 48.6265 530.059 46.6301 540.138C46.0943 542.874 46.3041 542.938 49.0524 543.775C49.062 543.778 49.0717 543.781 49.0814 543.784C54.41 545.399 59.7038 547.119 64.3767 550.301C64.6443 550.49 65.0161 550.515 65.1945 550.575C66.8767 548.905 68.2169 547.072 70.0225 545.923C71.9175 544.705 73.1335 543.144 74.0573 541.221C74.4397 540.423 74.8469 539.65 75.3136 538.897C79.3201 532.35 83.3514 525.829 87.3579 519.282C91.1906 513.009 94.2552 506.362 96.8836 499.537C97.6885 497.426 97.973 495.091 98.2773 492.845C98.5417 490.867 97.7696 489.171 95.9558 488.168C94.1172 487.14 92.3666 487.629 90.7345 488.753C90.725 488.76 90.7155 488.766 90.706 488.772C90.2039 489.108 89.685 489.455 89.2758 489.902C87.4745 491.83 85.5344 493.677 83.956 495.778C78.7592 502.72 74.8113 510.427 70.8385 518.109C67.9534 523.674 65.2417 529.314 62.3614 534.865C61.5321 536.456 60.6829 538.156 58.4063 539.23L58.3766 539.17ZM30.3215 596.597C29.84 597.295 29.319 597.816 29.0904 598.45C27.6443 602.43 26.1884 606.39 24.891 610.42C24.3741 612.016 24.9479 613.613 26.1369 614.804C27.311 615.99 28.5297 617.191 29.9172 618.085C37.3306 622.811 45.0919 626.645 53.9858 627.733C57.2132 628.117 57.9968 627.801 59.0802 624.658C60.0294 621.917 60.9241 619.141 61.7445 616.341C62.1721 614.913 62.4361 613.431 62.6654 611.954C62.9944 609.733 62.5783 609.197 60.3079 608.719C59.0091 608.45 57.7203 608.201 56.4364 607.888C54.2107 607.326 51.9998 606.769 49.799 606.132C43.1022 604.208 36.2514 602.596 31.2829 597.133C31.1294 596.949 30.8369 596.885 30.3165 596.612L30.3215 596.597ZM67.0525 552.138C67.716 553.219 68.013 553.864 68.4488 554.39C69.8555 556.117 69.9878 558.095 69.5647 560.152C69.3108 561.357 68.9033 562.527 68.4661 563.686C67.1494 567.082 64.6936 568.988 61.0098 568.931C58.5605 568.889 56.1065 568.565 53.6524 568.389C53.0377 568.349 52.403 568.418 51.446 568.462C52.7087 570.471 53.6642 572.163 54.7885 573.695C55.2094 574.266 56.0321 574.673 56.7558 574.882C60.1414 575.881 63.4388 575.611 66.3707 573.566C68.3798 572.155 70.2999 570.565 72.0961 568.9C75.877 565.403 78.9593 561.325 81.5609 556.904C83.2887 553.961 82.8702 550.465 80.7399 548.331C78.8227 546.401 75.5655 546.106 72.6586 547.879C70.7438 549.057 69.0519 550.607 67.0624 552.158L67.0525 552.138ZM55.9257 577.465C56.9753 579.32 57.8321 580.515 58.3665 581.835C60.0043 585.887 61.9122 587.053 66.1373 586.085C71.5426 584.85 76.5371 582.717 80.8882 579.195C84.5795 576.214 86.3081 572.229 86.4457 567.663C86.4969 565.729 85.6755 563.735 85.092 561.821C84.914 561.265 84.24 560.858 83.5663 560.154C82.7423 561.234 82.0773 562.037 81.4817 562.879C78.012 567.72 73.9429 571.981 69.2001 575.586C66.3424 577.756 63.1485 578.854 59.5345 578.39C58.5182 578.265 57.5516 577.892 55.9257 577.465ZM66.4025 558.831C67.2712 557.567 66.9002 556.55 65.9537 555.92C63.3373 554.153 60.6464 552.509 57.9604 550.851C57.6978 550.697 57.2912 550.776 56.954 550.746C56.6879 554.856 60.1611 557.819 66.4025 558.831Z" fill="white"/>
<path d="M58.3766 539.17L57.8822 539.096L57.8586 539.252L57.9292 539.394L58.3766 539.17ZM58.6757 537.187L59.1626 537.301L59.1636 537.296L58.6757 537.187ZM61.2385 525.563L61.7315 525.646L61.7317 525.645L61.2385 525.563ZM64.1156 505.678L64.6114 505.743L64.6115 505.742L64.1156 505.678ZM62.542 489.762L62.0728 489.934L62.073 489.935L62.542 489.762ZM55.8847 488.065L55.5608 487.685L55.5603 487.685L55.8847 488.065ZM51.5847 495.787L52.0762 495.878L52.0763 495.878L51.5847 495.787ZM49.3869 509.633L48.8923 509.559L48.8923 509.56L49.3869 509.633ZM46.6301 540.138L46.1396 540.04L46.1394 540.041L46.6301 540.138ZM64.3767 550.301L64.6648 549.892L64.6581 549.888L64.3767 550.301ZM65.1945 550.575L65.036 551.049L65.3281 551.146L65.5467 550.929L65.1945 550.575ZM70.0225 545.923L70.2909 546.345L70.2929 546.343L70.0225 545.923ZM74.0573 541.221L74.508 541.437L74.5082 541.437L74.0573 541.221ZM75.3136 538.897L75.7386 539.16L75.74 539.158L75.3136 538.897ZM87.3579 519.282L87.7843 519.543L87.7845 519.543L87.3579 519.282ZM96.8836 499.537L97.3502 499.717L97.3508 499.715L96.8836 499.537ZM98.2773 492.845L98.7728 492.912L98.7729 492.911L98.2773 492.845ZM95.9558 488.168L95.7118 488.604L95.7138 488.605L95.9558 488.168ZM89.2758 489.902L89.6411 490.244L89.6448 490.24L89.2758 489.902ZM83.956 495.778L83.5562 495.478L83.5557 495.479L83.956 495.778ZM70.8385 518.109L71.2824 518.339L71.2827 518.338L70.8385 518.109ZM62.3614 534.865L62.8048 535.096L62.8052 535.095L62.3614 534.865ZM58.4063 539.23L57.9589 539.453L58.1772 539.891L58.6196 539.682L58.4063 539.23ZM58.3766 539.17L58.871 539.245C59.028 538.204 59.0537 537.768 59.1626 537.301L58.6757 537.187L58.1887 537.074C58.0688 537.588 58.0243 538.154 57.8822 539.096L58.3766 539.17ZM58.6757 537.187L59.1636 537.296C60.023 533.449 61.0662 529.574 61.7315 525.646L61.2385 525.563L60.7456 525.479C60.0857 529.375 59.0601 533.173 58.1877 537.078L58.6757 537.187ZM61.2385 525.563L61.7317 525.645C62.8343 519.028 63.748 512.383 64.6114 505.743L64.1156 505.678L63.6198 505.614C62.7569 512.25 61.845 518.881 60.7453 525.481L61.2385 525.563ZM64.1156 505.678L64.6115 505.742C65.3184 500.274 64.9436 494.825 63.0111 489.589L62.542 489.762L62.073 489.935C63.9399 494.994 64.3099 500.275 63.6197 505.614L64.1156 505.678ZM62.542 489.762L63.0112 489.589C62.3508 487.795 61.2776 486.617 59.8937 486.272C58.5141 485.929 57.0022 486.459 55.5608 487.685L55.8847 488.065L56.2087 488.446C57.5159 487.334 58.7044 487.006 59.6521 487.242C60.5957 487.477 61.4767 488.316 62.0728 489.934L62.542 489.762ZM55.8847 488.065L55.5603 487.685C53.0781 489.802 51.6683 492.597 51.0931 495.695L51.5847 495.787L52.0763 495.878C52.6166 492.968 53.9283 490.391 56.2092 488.446L55.8847 488.065ZM51.5847 495.787L51.0932 495.695C50.2345 500.297 49.5795 504.934 48.8923 509.559L49.3869 509.633L49.8815 509.706C50.5703 505.071 51.2219 500.457 52.0762 495.878L51.5847 495.787ZM49.3869 509.633L48.8923 509.56C48.14 514.646 47.9491 519.782 47.6969 524.874C47.4442 529.976 47.13 535.041 46.1396 540.04L46.6301 540.138L47.1206 540.235C48.1266 535.156 48.443 530.025 48.6957 524.923C48.9489 519.81 49.1381 514.733 49.8815 509.706L49.3869 509.633ZM49.0814 543.784L48.9363 544.262C54.2677 545.879 59.4929 547.581 64.0953 550.714L64.3767 550.301L64.6581 549.888C59.9147 546.658 54.5522 544.92 49.2265 543.305L49.0814 543.784ZM64.3767 550.301L64.0886 550.71C64.2978 550.857 64.5286 550.929 64.6974 550.971C64.7827 550.993 64.8661 551.01 64.9247 551.022C64.9929 551.037 65.0223 551.044 65.036 551.049L65.1945 550.575L65.353 550.1C65.2775 550.075 65.1935 550.057 65.1334 550.044C65.0638 550.029 65.004 550.017 64.9407 550.001C64.812 549.969 64.7231 549.934 64.6648 549.893L64.3767 550.301ZM65.1945 550.575L65.5467 550.929C66.3899 550.093 67.1802 549.181 67.9245 548.398C68.6868 547.597 69.44 546.886 70.2909 546.345L70.0225 545.923L69.7542 545.501C68.7994 546.108 67.9796 546.889 67.1999 547.709C66.4022 548.548 65.6812 549.387 64.8423 550.22L65.1945 550.575ZM70.0225 545.923L70.2929 546.343C72.2801 545.066 73.5523 543.427 74.508 541.437L74.0573 541.221L73.6066 541.004C72.7147 542.861 71.5549 544.343 69.7522 545.502L70.0225 545.923ZM74.0573 541.221L74.5082 541.437C74.8853 540.65 75.284 539.894 75.7386 539.16L75.3136 538.897L74.8885 538.633C74.4098 539.406 73.9941 540.196 73.6064 541.005L74.0573 541.221ZM75.3136 538.897L75.74 539.158C77.743 535.885 79.7521 532.619 81.7616 529.351C83.771 526.085 85.7807 522.817 87.7843 519.543L87.3579 519.282L86.9314 519.021C84.9285 522.294 82.9193 525.561 80.9098 528.828C78.9004 532.094 76.8907 535.362 74.8871 538.636L75.3136 538.897ZM87.3579 519.282L87.7845 519.543C91.6372 513.237 94.7143 506.562 97.3502 499.717L96.8836 499.537L96.417 499.358C93.7961 506.163 90.744 512.781 86.9312 519.022L87.3579 519.282ZM96.8836 499.537L97.3508 499.715C98.1806 497.539 98.471 495.14 98.7728 492.912L98.2773 492.845L97.7818 492.778C97.4751 495.042 97.1965 497.313 96.4164 499.359L96.8836 499.537ZM98.2773 492.845L98.7729 492.911C99.063 490.741 98.202 488.838 96.1978 487.73L95.9558 488.168L95.7138 488.605C97.3373 489.503 98.0204 490.993 97.7817 492.779L98.2773 492.845ZM95.9558 488.168L96.1998 487.731C94.1285 486.573 92.1653 487.161 90.4509 488.342L90.7345 488.753L91.0181 489.165C92.5679 488.098 94.1059 487.706 95.7118 488.604L95.9558 488.168ZM89.2758 489.902L88.9106 489.561C87.1363 491.459 85.1561 493.348 83.5562 495.478L83.956 495.778L84.3557 496.079C85.9126 494.006 87.8127 492.2 89.6411 490.244L89.2758 489.902ZM83.956 495.778L83.5557 495.479C78.3296 502.46 74.3631 510.205 70.3944 517.879L70.8385 518.109L71.2827 518.338C75.2595 510.649 79.1888 502.981 84.3563 496.078L83.956 495.778ZM70.8385 518.109L70.3946 517.879C68.95 520.665 67.5491 523.47 66.1508 526.269C64.752 529.069 63.3557 531.863 61.9176 534.635L62.3614 534.865L62.8052 535.095C64.2474 532.316 65.6471 529.515 67.0454 526.716C68.4443 523.916 69.8419 521.118 71.2824 518.339L70.8385 518.109ZM62.3614 534.865L61.9181 534.634C61.0866 536.229 60.3023 537.783 58.1929 538.778L58.4063 539.23L58.6196 539.682C61.0635 538.529 61.9777 536.683 62.8048 535.096L62.3614 534.865ZM58.4063 539.23L58.8537 539.007L58.824 538.947L58.3766 539.17L57.9292 539.394L57.9589 539.453L58.4063 539.23ZM46.6301 540.138L46.1394 540.041C46.0063 540.721 45.9105 541.277 45.8963 541.727C45.8818 542.185 45.9486 542.602 46.2022 542.958C46.4483 543.305 46.8203 543.522 47.2461 543.7C47.6726 543.878 48.2296 544.047 48.9068 544.253L49.0524 543.775L49.198 543.297C48.501 543.084 48.0011 542.932 47.6321 542.777C47.2623 542.622 47.1 542.495 47.0172 542.379C46.9417 542.273 46.8848 542.108 46.8958 541.759C46.9071 541.401 46.986 540.922 47.1208 540.234L46.6301 540.138ZM90.706 488.772L90.4281 488.357C89.9354 488.686 89.3638 489.065 88.9069 489.565L89.2758 489.902L89.6448 490.24C90.0061 489.845 90.4723 489.53 90.9839 489.188L90.706 488.772ZM27.7347 594.939L28.2001 595.121C28.4636 594.451 29.0621 593.698 29.9732 593.49C30.8675 593.286 32.2549 593.566 34.1987 595.378L34.5397 595.012L34.8807 594.646C32.8231 592.728 31.1085 592.206 29.7509 592.515C28.4102 592.821 27.607 593.896 27.2693 594.756L27.7347 594.939ZM61.0945 604.832L61.144 605.33C61.9846 605.246 63.2475 605.325 64.2971 605.806C65.3158 606.274 66.1197 607.106 66.1897 608.594L66.6891 608.57L67.1886 608.547C67.0976 606.615 66.0031 605.489 64.7141 604.897C63.4561 604.32 62.0022 604.24 61.045 604.335L61.0945 604.832ZM77.1795 542.909L76.1895 543.05L76.2692 543.609L76.7888 543.83L77.1795 542.909ZM79.5635 543.888L79.7528 542.906L79.7464 542.905L79.5635 543.888ZM85.782 554.761L86.7466 555.025L86.7473 555.022L85.782 554.761ZM87.0279 559.145L87.7454 558.448L87.7407 558.444L87.0279 559.145ZM90.3075 568.375L89.31 568.305L89.3098 568.307L90.3075 568.375ZM83.7172 581.761L84.3489 582.536L84.3499 582.536L83.7172 581.761ZM81.8994 585.567L80.9008 585.515L80.9005 585.521L81.8994 585.567ZM77.512 597.21L76.7694 596.541L76.7694 596.541L77.512 597.21ZM68.1742 605.364L68.6645 606.235L68.6695 606.232L68.1742 605.364ZM66.6891 608.57L67.6616 608.337L67.6614 608.337L66.6891 608.57ZM65.59 618.734L64.6209 618.487L64.6204 618.489L65.59 618.734ZM62.891 627.056L63.8312 627.397L63.8324 627.393L62.891 627.056ZM53.9473 632.349L54.0996 631.36L54.0987 631.36L53.9473 632.349ZM25.3646 619.39L25.9878 618.608L25.9878 618.608L25.3646 619.39ZM22.1811 607.795L21.2392 607.459L21.2388 607.46L22.1811 607.795ZM27.7347 594.939L26.87 594.436L26.8692 594.438L27.7347 594.939ZM28.0402 591.205L27.0845 591.5L27.0846 591.5L28.0402 591.205ZM24.3347 581.321L23.451 581.789L23.4513 581.79L24.3347 581.321ZM23.3662 577.245L24.3644 577.185L24.3644 577.184L23.3662 577.245ZM22.6702 561.373L21.6702 561.384L21.6703 561.386L22.6702 561.373ZM26.0315 549.586L26.8501 550.16L26.8502 550.16L26.0315 549.586ZM39.7712 542.457L39.7853 541.457L39.7847 541.457L39.7712 542.457ZM43.9935 538.826L42.9975 538.736L42.9975 538.737L43.9935 538.826ZM45.4326 519.04L44.435 518.971L44.4349 518.972L45.4326 519.04ZM48.788 496.29L47.8172 496.05L47.8169 496.051L48.788 496.29ZM50.4679 491.264L49.5235 490.935L49.5195 490.947L50.4679 491.264ZM54.7166 485.625L54.0925 484.844L54.0905 484.845L54.7166 485.625ZM65.28 488.395L66.2093 488.026L66.2078 488.022L65.28 488.395ZM67.3369 501.382L66.3396 501.309L66.3395 501.311L67.3369 501.382ZM65.7593 514.758L64.7654 514.647L64.765 514.651L65.7593 514.758ZM65.3472 521.53L64.379 521.781L64.9788 524.099L66.2059 522.043L65.3472 521.53ZM67.1494 518.463L66.2513 518.023L66.2477 518.031L67.1494 518.463ZM79.7466 495.81L78.9217 495.244L78.9217 495.244L79.7466 495.81ZM85.6079 488.66L84.8761 487.978L84.8745 487.98L85.6079 488.66ZM89.81 485.485L90.2901 486.362L90.2939 486.36L89.81 485.485ZM101.144 491.191L100.152 491.315L100.152 491.317L101.144 491.191ZM100.833 496.675L99.8621 496.433L99.8616 496.436L100.833 496.675ZM90.0484 521.322L89.195 520.801L89.1947 520.802L90.0484 521.322ZM79.2007 538.89L80.0527 539.414L80.0533 539.413L79.2007 538.89ZM77.1746 542.875L76.2793 542.429L76.1406 542.708L76.1846 543.016L77.1746 542.875ZM59.3171 559.207L58.9804 560.148L58.9866 560.151L59.3171 559.207ZM55.0319 554.815L54.0836 555.133L54.0843 555.135L55.0319 554.815ZM53.6425 550.268L54.6038 549.992L54.603 549.989L53.6425 550.268ZM51.8047 548.199L52.1761 547.27L52.1693 547.267L51.8047 548.199ZM38.3704 545.659L38.401 546.659L38.4026 546.659L38.3704 545.659ZM27.4174 552.413L28.2927 552.896L28.2936 552.895L27.4174 552.413ZM25.3911 562.679L24.3916 562.712L24.3916 562.712L25.3911 562.679ZM26.085 575.095L25.0877 575.168L25.0878 575.169L26.085 575.095ZM26.9588 579.751L26.0514 580.172L26.0517 580.172L26.9588 579.751ZM31.081 589.428L30.1405 589.768L30.1408 589.769L31.081 589.428ZM42.2035 599.675L42.5205 598.727L42.5177 598.726L42.2035 599.675ZM57.4708 604.051L57.202 605.014L57.2022 605.014L57.4708 604.051ZM61.0945 604.832L61.2275 603.841L61.2197 603.84L61.2119 603.839L61.0945 604.832ZM63.3556 604.596L62.8824 603.715L62.8813 603.716L63.3556 604.596ZM75.238 595.012L75.9998 595.66L76.0002 595.659L75.238 595.012ZM78.6752 587.35L79.6466 587.587L79.6467 587.587L78.6752 587.35ZM78.4435 585.818L79.4291 585.648L79.2206 584.433L78.0745 584.888L78.4435 585.818ZM75.8942 586.817L75.5823 585.867L75.5821 585.867L75.8942 586.817ZM65.8168 590.012L65.588 589.038L65.5862 589.039L65.8168 590.012ZM56.4194 586.176L57.3113 585.724L57.3109 585.723L56.4194 586.176ZM52.7273 578.032L51.7963 578.397L51.7963 578.397L52.7273 578.032ZM44.3861 568.07L43.8625 568.921L43.869 568.925L44.3861 568.07ZM42.751 566.779L43.622 566.288L43.6162 566.278L42.751 566.779ZM44.0179 563.582L44.1239 564.577L44.1366 564.575L44.0179 563.582ZM46.9033 563.803L46.7943 564.797L46.7974 564.797L46.9033 563.803ZM60.8294 565.217L60.8871 564.219L60.8866 564.219L60.8294 565.217ZM65.7113 561.344L66.0283 560.395L65.0798 560.078L64.7628 561.027L65.7113 561.344ZM49.0814 543.784L48.7902 544.74L49.3726 542.827L49.0814 543.784ZM90.7345 488.753L91.2904 489.585L90.1788 487.922L90.7345 488.753ZM30.3215 596.597L31.2699 596.914L29.4981 596.029L30.3215 596.597ZM29.0904 598.45L30.0303 598.791L30.0312 598.789L29.0904 598.45ZM24.891 610.42L25.8424 610.728L25.8429 610.727L24.891 610.42ZM26.1369 614.804L26.8476 614.101L26.8446 614.098L26.1369 614.804ZM29.9172 618.085L29.3758 618.925L29.3796 618.928L29.9172 618.085ZM53.9858 627.733L53.8643 628.726L53.8675 628.726L53.9858 627.733ZM59.0802 624.658L58.1353 624.331L58.1348 624.332L59.0802 624.658ZM61.7445 616.341L60.7865 616.054L60.7848 616.06L61.7445 616.341ZM62.6654 611.954L63.6535 612.107L63.6546 612.1L62.6654 611.954ZM60.3079 608.719L60.5139 607.74L60.5106 607.74L60.3079 608.719ZM56.4364 607.888L56.1915 608.857L56.1992 608.859L56.4364 607.888ZM49.799 606.132L50.0768 605.171L50.0751 605.171L49.799 606.132ZM31.2829 597.133L30.5159 597.775L30.5292 597.79L30.5431 597.806L31.2829 597.133ZM30.3165 596.612L29.3681 596.295L29.0983 597.102L29.8518 597.497L30.3165 596.612ZM67.0525 552.138L67.9049 551.615L66.1577 552.584L67.0525 552.138ZM68.4488 554.39L69.2241 553.758L69.2188 553.752L68.4488 554.39ZM69.5647 560.152L70.5432 560.358L70.5442 560.354L69.5647 560.152ZM68.4661 563.686L69.3985 564.048L69.4018 564.039L68.4661 563.686ZM61.0098 568.931L60.9928 569.931L60.9942 569.931L61.0098 568.931ZM53.6524 568.389L53.7238 567.392L53.7176 567.392L53.6524 568.389ZM51.446 568.462L51.4003 567.463L49.6864 567.542L50.5994 568.994L51.446 568.462ZM54.7885 573.695L53.9821 574.287L53.9838 574.289L54.7885 573.695ZM56.7558 574.882L57.039 573.923L57.0331 573.921L56.7558 574.882ZM66.3707 573.566L66.9428 574.386L66.9455 574.384L66.3707 573.566ZM72.0961 568.9L71.417 568.166L71.4164 568.167L72.0961 568.9ZM81.5609 556.904L82.4227 557.412L82.4233 557.411L81.5609 556.904ZM80.7399 548.331L80.0304 549.036L80.0323 549.038L80.7399 548.331ZM72.6586 547.879L72.138 547.025L72.1345 547.027L72.6586 547.879ZM67.0624 552.158L66.1676 552.604L66.7132 553.698L67.6771 552.947L67.0624 552.158ZM55.9257 577.465L56.1801 576.497L53.8885 575.895L55.0554 577.957L55.9257 577.465ZM58.3665 581.835L59.2936 581.46L59.2934 581.459L58.3665 581.835ZM66.1373 586.085L65.9145 585.11L65.9139 585.11L66.1373 586.085ZM80.8882 579.195L80.2599 578.418L80.2591 578.418L80.8882 579.195ZM86.4457 567.663L87.4453 567.693L87.4454 567.689L86.4457 567.663ZM85.092 561.821L86.0486 561.529L86.0465 561.522L86.0443 561.516L85.092 561.821ZM83.5663 560.154L84.289 559.463L83.4806 558.617L82.7712 559.547L83.5663 560.154ZM81.4817 562.879L82.2945 563.461L82.2982 563.456L81.4817 562.879ZM69.2001 575.586L69.8047 576.383L69.8053 576.382L69.2001 575.586ZM59.5345 578.39L59.6618 577.398L59.6564 577.397L59.5345 578.39ZM66.4025 558.831L66.2425 559.818L66.8677 559.919L67.2265 559.397L66.4025 558.831ZM65.9537 555.92L65.394 556.749L65.3993 556.752L65.9537 555.92ZM57.9604 550.851L58.4858 550L58.476 549.994L58.466 549.988L57.9604 550.851ZM56.954 550.746L57.0428 549.75L56.0223 549.659L55.9561 550.682L56.954 550.746ZM49.0524 543.775L49.3436 542.818L48.7611 544.732L49.0524 543.775ZM90.706 488.772L90.1502 487.941L91.2617 489.604L90.706 488.772ZM34.5397 595.012L35.2606 594.319L35.2606 594.319L34.5397 595.012ZM77.1795 542.909L76.7888 543.83C77.3268 544.058 77.7025 544.247 78.1186 544.437C78.5082 544.615 78.9206 544.786 79.3806 544.871L79.5635 543.888L79.7464 542.905C79.5371 542.866 79.3078 542.781 78.9477 542.617C78.6142 542.465 78.1326 542.227 77.5702 541.989L77.1795 542.909ZM79.5635 543.888L79.3742 544.87C81.4269 545.266 83.0103 546.798 83.9844 548.764C84.9657 550.745 85.2291 552.975 84.8166 554.5L85.782 554.761L86.7473 555.022C87.3146 552.924 86.9226 550.19 85.7766 547.877C84.6235 545.549 82.6078 543.456 79.7528 542.906L79.5635 543.888ZM85.782 554.761L84.8173 554.498C84.5261 555.564 84.4739 556.522 84.7544 557.446C85.0307 558.356 85.5956 559.115 86.315 559.846L87.0279 559.145L87.7407 558.444C87.1275 557.82 86.8108 557.335 86.6681 556.865C86.5295 556.408 86.5206 555.852 86.7466 555.025L85.782 554.761ZM87.0279 559.145L86.3104 559.842C88.5463 562.145 89.5373 565.064 89.31 568.305L90.3075 568.375L91.3051 568.445C91.5694 564.675 90.4039 561.187 87.7453 558.448L87.0279 559.145ZM90.3075 568.375L89.3098 568.307C88.9641 573.412 87.0445 577.751 83.0845 580.987L83.7172 581.761L84.3499 582.536C88.8044 578.896 90.9283 574.007 91.3052 568.442L90.3075 568.375ZM83.7172 581.761L83.0856 580.986C82.3421 581.592 81.8027 582.25 81.4459 583.028C81.0931 583.797 80.9474 584.621 80.9008 585.515L81.8994 585.567L82.8981 585.62C82.9371 584.873 83.0528 584.321 83.2638 583.861C83.4707 583.41 83.7974 582.986 84.3489 582.536L83.7172 581.761ZM81.8994 585.567L80.9005 585.521C80.7062 589.674 79.5404 593.469 76.7694 596.541L77.512 597.21L78.2545 597.88C81.4188 594.372 82.689 590.088 82.8983 585.614L81.8994 585.567ZM77.512 597.21L76.7694 596.541C73.9913 599.621 71.1844 602.496 67.6789 604.495L68.1742 605.364L68.6695 606.232C72.4756 604.062 75.4646 600.973 78.2545 597.88L77.512 597.21ZM68.1742 605.364L67.6839 604.492C66.925 604.919 66.2561 605.451 65.879 606.222C65.4932 607.012 65.4946 607.88 65.7168 608.804L66.6891 608.57L67.6614 608.337C67.5031 607.679 67.565 607.327 67.6759 607.101C67.7954 606.856 68.0593 606.576 68.6645 606.235L68.1742 605.364ZM66.6891 608.57L65.7166 608.803C66.4802 611.991 65.4943 615.056 64.6209 618.487L65.59 618.734L66.5591 618.98C67.3769 615.768 68.5681 612.122 67.6616 608.337L66.6891 608.57ZM65.59 618.734L64.6204 618.489C63.9234 621.253 62.9382 623.96 61.9496 626.719L62.891 627.056L63.8324 627.393C64.8117 624.66 65.8341 621.855 66.5597 618.978L65.59 618.734ZM62.891 627.056L61.9508 626.715C61.039 629.233 59.925 630.448 58.7369 631.028C57.5165 631.625 56.0157 631.656 54.0996 631.36L53.9473 632.349L53.795 633.337C55.8251 633.65 57.832 633.696 59.615 632.825C61.4302 631.938 62.8149 630.203 63.8312 627.397L62.891 627.056ZM53.9473 632.349L54.0987 631.36C43.5258 629.741 34.3076 625.238 25.9878 618.608L25.3646 619.39L24.7414 620.172C33.2881 626.982 42.8237 631.657 53.7959 633.337L53.9473 632.349ZM25.3646 619.39L25.9878 618.608C24.2046 617.187 23.1364 615.633 22.677 613.949C22.2167 612.261 22.3391 610.337 23.1234 608.13L22.1811 607.795L21.2388 607.46C20.3533 609.952 20.1549 612.302 20.7475 614.475C21.3411 616.651 22.6995 618.545 24.7415 620.172L25.3646 619.39ZM22.1811 607.795L23.123 608.131C24.699 603.713 26.3026 599.41 28.6003 595.439L27.7347 594.939L26.8692 594.438C24.4698 598.584 22.8138 603.045 21.2392 607.459L22.1811 607.795ZM27.7347 594.939L28.5994 595.441C29.0378 594.686 29.2737 593.944 29.3207 593.166C29.3669 592.4 29.2261 591.658 28.9959 590.911L28.0402 591.205L27.0846 591.5C27.2746 592.117 27.351 592.604 27.3243 593.046C27.2984 593.475 27.1714 593.917 26.87 594.436L27.7347 594.939ZM28.0402 591.205L28.9959 590.911C27.9651 587.564 26.9446 584.107 25.2181 580.852L24.3347 581.321L23.4513 581.79C25.0713 584.844 26.0384 588.102 27.0845 591.5L28.0402 591.205ZM24.3347 581.321L25.2183 580.853C24.679 579.835 24.4445 578.516 24.3644 577.185L23.3662 577.245L22.368 577.305C22.4543 578.74 22.7132 580.396 23.451 581.789L24.3347 581.321ZM23.3662 577.245L24.3644 577.184C24.0463 571.901 23.7349 566.629 23.6701 561.361L22.6702 561.373L21.6703 561.386C21.7357 566.708 22.0503 572.027 22.368 577.305L23.3662 577.245ZM22.6702 561.373L23.6701 561.362C23.6257 557.305 24.535 553.459 26.8501 550.16L26.0315 549.586L25.213 549.011C22.6039 552.729 21.6224 557.012 21.6702 561.384L22.6702 561.373ZM26.0315 549.586L26.8502 550.16C29.9857 545.69 34.2295 543.383 39.7577 543.457L39.7712 542.457L39.7847 541.457C33.5624 541.374 28.709 544.027 25.2128 549.011L26.0315 549.586ZM39.7712 542.457L39.757 543.457C40.6661 543.47 41.4372 543.481 42.0485 543.422C42.6588 543.364 43.2846 543.225 43.7923 542.803C44.311 542.371 44.5495 541.777 44.691 541.173C44.8306 540.576 44.9081 539.817 44.9894 538.916L43.9935 538.826L42.9975 538.737C42.9137 539.666 42.8456 540.281 42.7437 540.717C42.6435 541.145 42.5443 541.239 42.5135 541.265C42.4718 541.299 42.3364 541.385 41.858 541.431C41.3806 541.477 40.7356 541.471 39.7853 541.457L39.7712 542.457ZM43.9935 538.826L44.9894 538.917C45.5861 532.323 45.9795 525.69 46.4303 519.108L45.4326 519.04L44.4349 518.972C43.9825 525.578 43.5916 532.172 42.9975 538.736L43.9935 538.826ZM45.4326 519.04L46.4302 519.109C46.9594 511.473 47.936 503.943 49.759 496.529L48.788 496.29L47.8169 496.051C45.9587 503.608 44.9695 511.258 44.435 518.971L45.4326 519.04ZM48.788 496.29L49.7587 496.53C50.1703 494.865 50.8188 493.369 51.4163 491.581L50.4679 491.264L49.5195 490.947C48.9938 492.52 48.2513 494.294 47.8172 496.05L48.788 496.29ZM50.4679 491.264L51.4122 491.593C52.1453 489.489 53.5567 487.839 55.3427 486.405L54.7166 485.625L54.0905 484.845C52.1257 486.423 50.4206 488.36 49.5236 490.935L50.4679 491.264ZM54.7166 485.625L55.3407 486.407C57.1239 484.982 58.9705 484.609 60.5202 485.013C62.0686 485.416 63.4967 486.641 64.3523 488.769L65.28 488.395L66.2078 488.022C65.1584 485.413 63.2892 483.668 61.0245 483.078C58.7609 482.488 56.2783 483.098 54.0925 484.844L54.7166 485.625ZM65.28 488.395L64.3508 488.765C65.9508 492.789 66.6538 497.031 66.3396 501.309L67.3369 501.382L68.3342 501.456C68.6719 496.859 67.9144 492.314 66.2093 488.026L65.28 488.395ZM67.3369 501.382L66.3395 501.311C66.0196 505.768 65.2748 510.097 64.7655 514.647L65.7593 514.758L66.753 514.869C67.2426 510.495 68.0123 505.94 68.3344 501.454L67.3369 501.382ZM65.7593 514.758L64.765 514.651C64.7154 515.112 64.6264 515.58 64.5224 516.096C64.4208 516.601 64.3033 517.158 64.2167 517.737C64.0402 518.919 63.9817 520.244 64.379 521.781L65.3472 521.53L66.3153 521.28C66.0059 520.084 66.0435 519.045 66.1947 518.033C66.272 517.516 66.3764 517.021 66.4831 516.491C66.5874 515.973 66.6932 515.425 66.7535 514.865L65.7593 514.758ZM65.3472 521.53L66.2059 522.043C66.9504 520.795 67.5885 519.86 68.0512 518.895L67.1494 518.463L66.2477 518.031C65.8363 518.889 65.3228 519.619 64.4884 521.018L65.3472 521.53ZM67.1494 518.463L68.0476 518.902C71.8525 511.13 75.7129 503.464 80.5714 496.375L79.7466 495.81L78.9217 495.244C73.9715 502.467 70.0549 510.253 66.2513 518.023L67.1494 518.463ZM79.7466 495.81L80.5714 496.375C82.2738 493.891 84.2611 491.584 86.3413 489.34L85.6079 488.66L84.8745 487.98C82.7663 490.254 80.7041 492.644 78.9217 495.244L79.7466 495.81ZM85.6079 488.66L86.3396 489.342C87.4353 488.165 88.8207 487.167 90.2901 486.362L89.81 485.485L89.3299 484.608C87.7239 485.487 86.1525 486.608 84.8761 487.978L85.6079 488.66ZM89.81 485.485L90.2939 486.36C92.7502 485.002 95.0568 485.198 96.8155 486.211C98.6053 487.242 99.8823 489.153 100.152 491.315L101.144 491.191L102.137 491.067C101.791 488.296 100.159 485.829 97.814 484.478C95.4384 483.109 92.3857 482.918 89.3261 484.61L89.81 485.485ZM101.144 491.191L100.152 491.317C100.364 492.993 100.264 494.817 99.8621 496.433L100.833 496.675L101.803 496.916C102.267 495.052 102.378 492.98 102.137 491.066L101.144 491.191ZM100.833 496.675L99.8616 496.436C97.72 505.133 93.8734 513.139 89.195 520.801L90.0484 521.322L90.9019 521.844C95.6465 514.074 99.5973 505.874 101.804 496.914L100.833 496.675ZM90.0484 521.322L89.1947 520.802C85.6015 526.693 81.9655 532.466 78.3481 538.367L79.2007 538.89L80.0533 539.413C83.6348 533.569 87.3264 527.706 90.9022 521.843L90.0484 521.322ZM79.2007 538.89L78.3488 538.366C77.5933 539.596 76.9978 540.986 76.2793 542.429L77.1746 542.875L78.0698 543.32C78.8611 541.73 79.3585 540.543 80.0527 539.414L79.2007 538.89ZM77.1746 542.875L76.1846 543.016L76.1895 543.05L77.1795 542.909L78.1695 542.768L78.1645 542.733L77.1746 542.875ZM65.7261 561.349L66.0431 560.4C63.7639 559.639 61.7116 558.986 59.6476 558.263L59.3171 559.207L58.9866 560.151C61.0664 560.879 63.1679 561.548 65.4091 562.297L65.7261 561.349ZM59.3171 559.207L59.6538 558.265C57.8217 557.61 56.6061 556.355 55.9796 554.496L55.0319 554.815L54.0843 555.135C54.9021 557.561 56.5597 559.283 58.9804 560.148L59.3171 559.207ZM55.0319 554.815L55.9803 554.498C55.4828 553.011 55.0377 551.506 54.6037 549.992L53.6425 550.268L52.6812 550.543C53.1174 552.065 53.5721 553.604 54.0836 555.133L55.0319 554.815ZM53.6425 550.268L54.603 549.989C54.4272 549.383 54.1604 548.826 53.7455 548.35C53.328 547.87 52.8019 547.52 52.1761 547.27L51.8047 548.199L51.4334 549.127C51.8137 549.279 52.0606 549.46 52.2376 549.663C52.4171 549.869 52.566 550.146 52.682 550.546L53.6425 550.268ZM51.8047 548.199L52.1693 547.267C47.749 545.537 43.1509 544.504 38.3381 544.66L38.3704 545.659L38.4026 546.659C42.8815 546.514 47.2064 547.472 51.4401 549.13L51.8047 548.199ZM38.3704 545.659L38.3398 544.66C33.0847 544.82 29.0666 547.341 26.5413 551.931L27.4174 552.413L28.2936 552.895C30.4854 548.911 33.8686 546.797 38.401 546.659L38.3704 545.659ZM27.4174 552.413L26.5421 551.929C24.6599 555.336 24.2728 559.069 24.3916 562.712L25.3911 562.679L26.3906 562.647C26.2772 559.17 26.6594 555.853 28.2927 552.896L27.4174 552.413ZM25.3911 562.679L24.3916 562.712C24.5277 566.876 24.7831 571.026 25.0877 575.168L26.085 575.095L27.0823 575.022C26.7788 570.894 26.5254 566.773 26.3906 562.647L25.3911 562.679ZM26.085 575.095L25.0878 575.169C25.2016 576.694 25.3163 578.585 26.0514 580.172L26.9588 579.751L27.8661 579.331C27.3144 578.14 27.2038 576.65 27.0822 575.021L26.085 575.095ZM26.9588 579.751L26.0517 580.172C27.5317 583.362 28.9549 586.486 30.1405 589.768L31.081 589.428L32.0215 589.088C30.8029 585.715 29.3456 582.519 27.8659 579.33L26.9588 579.751ZM42.2035 599.675L41.8865 600.624C46.9295 602.309 52.1442 603.603 57.202 605.014L57.4708 604.051L57.7396 603.088C52.6059 601.655 47.5 600.391 42.5205 598.727L42.2035 599.675ZM57.4708 604.051L57.2022 605.014C58.407 605.35 59.6726 605.671 60.9771 605.825L61.0945 604.832L61.2119 603.839C60.0673 603.704 58.9239 603.418 57.7394 603.088L57.4708 604.051ZM61.0945 604.832L60.9615 605.824C61.7434 605.928 62.91 605.972 63.8298 605.477L63.3556 604.596L62.8813 603.716C62.5511 603.894 61.9329 603.936 61.2275 603.841L61.0945 604.832ZM63.3556 604.596L63.8287 605.477C68.4908 602.973 72.5681 599.695 75.9998 595.66L75.238 595.012L74.4762 594.364C71.2081 598.207 67.3273 601.328 62.8824 603.715L63.3556 604.596ZM75.238 595.012L76.0002 595.659C78.0386 593.259 78.9621 590.386 79.6466 587.587L78.6752 587.35L77.7039 587.112C77.0353 589.846 76.1992 592.335 74.4758 594.365L75.238 595.012ZM78.6752 587.35L79.6467 587.587C79.7506 587.161 79.6719 586.759 79.6164 586.503C79.5472 586.185 79.4868 585.985 79.4291 585.648L78.4435 585.818L77.4579 585.987C77.5235 586.369 77.6238 586.752 77.662 586.928C77.7139 587.167 77.6895 587.171 77.7038 587.113L78.6752 587.35ZM78.4435 585.818L78.0745 584.888C77.0446 585.297 76.3435 585.617 75.5823 585.867L75.8942 586.817L76.2061 587.767C77.0418 587.493 77.8981 587.11 78.8125 586.747L78.4435 585.818ZM75.8942 586.817L75.5821 585.867C72.1689 586.988 68.959 588.246 65.588 589.038L65.8168 590.012L66.0456 590.985C69.5279 590.167 72.9342 588.842 76.2062 587.767L75.8942 586.817ZM65.8168 590.012L65.5862 589.039C62.0912 589.867 58.5975 588.26 57.3113 585.724L56.4194 586.176L55.5276 586.629C57.2906 590.104 61.7864 591.994 66.0474 590.985L65.8168 590.012ZM56.4194 586.176L57.3109 585.723C55.9754 583.096 54.7325 580.408 53.6584 577.667L52.7273 578.032L51.7963 578.397C52.8991 581.211 54.1705 583.959 55.528 586.629L56.4194 586.176ZM52.7273 578.032L53.6584 577.667C51.9033 573.189 49.017 569.699 44.9032 567.214L44.3861 568.07L43.869 568.925C47.595 571.177 50.1968 574.315 51.7963 578.397L52.7273 578.032ZM44.3861 568.07L44.9097 567.218C44.5541 566.999 44.3058 566.868 44.0408 566.683C43.7925 566.509 43.6742 566.38 43.6219 566.288L42.751 566.779L41.88 567.27C42.1495 567.748 42.554 568.084 42.8953 568.322C43.22 568.549 43.6283 568.778 43.8625 568.921L44.3861 568.07ZM42.751 566.779L43.6162 566.278C43.4954 566.069 43.3893 565.792 43.3359 565.515C43.2801 565.225 43.2992 565.029 43.3293 564.939L42.3809 564.622L41.4324 564.305C41.2538 564.84 41.2797 565.414 41.372 565.893C41.4667 566.385 41.65 566.874 41.8858 567.28L42.751 566.779ZM42.3809 564.622L43.3293 564.939C43.305 565.012 43.2812 565.016 43.3323 564.965C43.377 564.92 43.4516 564.86 43.5551 564.797C43.7762 564.662 44.0044 564.589 44.1239 564.576L44.0179 563.582L43.9119 562.588C43.4314 562.639 42.9231 562.84 42.5166 563.087C42.1484 563.311 41.6303 563.713 41.4324 564.305L42.3809 564.622ZM44.0179 563.582L44.1366 564.575C44.496 564.532 44.8883 564.551 45.3415 564.604C45.5676 564.63 45.7956 564.663 46.0407 564.698C46.2808 564.732 46.5367 564.768 46.7943 564.797L46.9033 563.803L47.0123 562.809C46.7915 562.784 46.5659 562.753 46.3232 562.718C46.0856 562.684 45.8296 562.647 45.5724 562.617C45.0588 562.558 44.4868 562.519 43.8991 562.589L44.0179 563.582ZM46.9033 563.803L46.7974 564.797C51.3966 565.287 56.0849 565.947 60.7722 566.216L60.8294 565.217L60.8866 564.219C56.263 563.954 51.7006 563.308 47.0092 562.808L46.9033 563.803ZM60.8294 565.217L60.7717 566.215C62.3265 566.305 63.6 566.075 64.6159 565.225C65.5828 564.415 66.156 563.168 66.6597 561.661L65.7113 561.344L64.7628 561.027C64.2725 562.494 63.84 563.266 63.3321 563.691C62.8733 564.075 62.2028 564.295 60.8871 564.219L60.8294 565.217ZM65.7113 561.344L65.3943 562.292L65.4091 562.297L65.7261 561.349L66.0431 560.4L66.0283 560.395L65.7113 561.344ZM30.3215 596.597L29.4981 596.029C29.2625 596.371 29.0734 596.592 28.8065 596.954C28.572 597.271 28.3142 597.654 28.1496 598.111L29.0904 598.45L30.0312 598.789C30.0951 598.612 30.2121 598.417 30.4156 598.141C30.5868 597.91 30.8989 597.521 31.1449 597.164L30.3215 596.597ZM29.0904 598.45L28.1505 598.109C26.7068 602.082 25.2434 606.062 23.9391 610.114L24.891 610.42L25.8429 610.727C27.1333 606.719 28.5818 602.778 30.0303 598.791L29.0904 598.45ZM24.891 610.42L23.9397 610.112C23.2797 612.15 24.0441 614.123 25.4292 615.511L26.1369 614.804L26.8446 614.098C25.8518 613.103 25.4684 611.883 25.8424 610.728L24.891 610.42ZM26.1369 614.804L25.4263 615.508C26.5943 616.688 27.8838 617.965 29.3758 618.925L29.9172 618.085L30.4587 617.244C29.1756 616.418 28.0277 615.293 26.8475 614.101L26.1369 614.804ZM29.9172 618.085L29.3796 618.928C36.8464 623.688 44.7557 627.611 53.8643 628.726L53.9858 627.733L54.1072 626.74C45.428 625.678 37.8149 621.934 30.4548 617.241L29.9172 618.085ZM53.9858 627.733L53.8675 628.726C55.4258 628.911 56.7698 629 57.8367 628.384C58.9306 627.753 59.4913 626.534 60.0256 624.984L59.0802 624.658L58.1348 624.332C57.5856 625.925 57.2129 626.435 56.8372 626.652C56.4346 626.884 55.7731 626.939 54.104 626.74L53.9858 627.733ZM59.0802 624.658L60.0251 624.985C60.9791 622.231 61.8788 619.439 62.7042 616.622L61.7445 616.341L60.7848 616.06C59.9695 618.843 59.0798 621.603 58.1353 624.331L59.0802 624.658ZM61.7445 616.341L62.7025 616.628C63.1506 615.131 63.4228 613.593 63.6535 612.107L62.6654 611.954L61.6772 611.8C61.4493 613.268 61.1936 614.695 60.7866 616.054L61.7445 616.341ZM62.6654 611.954L63.6546 612.1C63.8153 611.015 63.8834 609.928 63.267 609.09C62.9547 608.666 62.5308 608.391 62.076 608.195C61.63 608.003 61.1004 607.864 60.5139 607.74L60.3079 608.719L60.102 609.697C60.6507 609.813 61.0245 609.92 61.2847 610.032C61.5362 610.14 61.6215 610.228 61.6559 610.275C61.7329 610.38 61.8444 610.671 61.6761 611.807L62.6654 611.954ZM60.3079 608.719L60.5106 607.74C59.1944 607.467 57.9347 607.224 56.6735 606.916L56.4364 607.888L56.1992 608.859C57.5058 609.178 58.8239 609.433 60.1053 609.698L60.3079 608.719ZM56.4364 607.888L56.6812 606.918C54.4523 606.355 52.2583 605.802 50.0768 605.171L49.799 606.132L49.5212 607.093C51.7413 607.735 53.969 608.296 56.1915 608.857L56.4364 607.888ZM49.799 606.132L50.0751 605.171C43.2843 603.22 36.7598 601.669 32.0227 596.46L31.2829 597.133L30.5431 597.806C35.7431 603.523 42.9201 605.196 49.5228 607.093L49.799 606.132ZM31.2829 597.133L32.05 596.491C31.8157 596.211 31.5143 596.071 31.3593 595.999C31.1608 595.907 31.0139 595.848 30.7812 595.726L30.3165 596.612L29.8518 597.497C30.1395 597.648 30.399 597.758 30.5152 597.812C30.675 597.887 30.5966 597.871 30.5159 597.775L31.2829 597.133ZM30.3165 596.612L31.2649 596.929L31.2699 596.914L30.3215 596.597L29.373 596.28L29.3681 596.295L30.3165 596.612ZM67.0525 552.138L66.2002 552.661C66.5249 553.19 66.7486 553.593 66.9727 553.977C67.189 554.347 67.406 554.699 67.6789 555.028L68.4488 554.39L69.2188 553.752C69.0558 553.555 68.9064 553.322 68.6994 552.968C68.5002 552.627 68.2436 552.167 67.9049 551.615L67.0525 552.138ZM68.4488 554.39L67.6736 555.022C68.8219 556.431 68.9737 558.062 68.5852 559.951L69.5647 560.152L70.5442 560.354C71.0018 558.128 70.8892 555.802 69.2241 553.758L68.4488 554.39ZM69.5647 560.152L68.5861 559.946C68.3487 561.073 67.9638 562.184 67.5304 563.334L68.4661 563.686L69.4018 564.039C69.8428 562.869 70.2729 561.641 70.5432 560.358L69.5647 560.152ZM68.4661 563.686L67.5337 563.325C66.9279 564.887 66.0879 566.037 65.0405 566.792C63.9999 567.543 62.6831 567.957 61.0254 567.931L61.0098 568.931L60.9942 569.931C63.0202 569.962 64.7733 569.451 66.2107 568.414C67.6413 567.382 68.6876 565.881 69.3984 564.048L68.4661 563.686ZM61.0098 568.931L61.0268 567.931C58.607 567.89 56.265 567.574 53.7238 567.392L53.6524 568.389L53.5811 569.387C55.9481 569.556 58.514 569.889 60.9928 569.931L61.0098 568.931ZM53.6524 568.389L53.7176 567.392C53.0291 567.347 52.2724 567.423 51.4003 567.463L51.446 568.462L51.4918 569.461C52.5335 569.413 53.0462 569.352 53.5872 569.387L53.6524 568.389ZM51.446 568.462L50.5994 568.994C51.8283 570.949 52.8299 572.716 53.9821 574.287L54.7885 573.695L55.5949 573.104C54.4986 571.609 53.5891 569.993 52.2927 567.93L51.446 568.462ZM54.7885 573.695L53.9838 574.289C54.6 575.124 55.6795 575.612 56.4786 575.843L56.7558 574.882L57.0331 573.921C56.3848 573.734 55.8189 573.408 55.5931 573.102L54.7885 573.695ZM56.7558 574.882L56.4727 575.841C60.0924 576.91 63.7165 576.637 66.9428 574.386L66.3707 573.566L65.7985 572.746C63.161 574.586 60.1904 574.853 57.0389 573.923L56.7558 574.882ZM66.3707 573.566L66.9455 574.384C68.9976 572.943 70.9526 571.323 72.7758 569.634L72.0961 568.9L71.4164 568.167C69.6472 569.806 67.762 571.367 65.7958 572.748L66.3707 573.566ZM72.0961 568.9L72.7751 569.634C76.6421 566.057 79.7826 561.898 82.4227 557.412L81.5609 556.904L80.6991 556.397C78.1359 560.752 75.1119 564.749 71.417 568.166L72.0961 568.9ZM81.5609 556.904L82.4233 557.411C84.3602 554.111 83.9281 550.109 81.4476 547.625L80.7399 548.331L80.0323 549.038C81.8123 550.821 82.2173 553.811 80.6985 556.398L81.5609 556.904ZM80.7399 548.331L81.4494 547.627C79.1429 545.304 75.3579 545.061 72.138 547.025L72.6586 547.879L73.1793 548.732C75.7731 547.151 78.5026 547.498 80.0304 549.036L80.7399 548.331ZM72.6586 547.879L72.1345 547.027C70.1587 548.243 68.3509 549.886 66.4478 551.369L67.0624 552.158L67.6771 552.947C69.7529 551.329 71.329 549.871 73.1828 548.73L72.6586 547.879ZM67.0624 552.158L67.9572 551.711L67.9473 551.691L67.0525 552.138L66.1577 552.584L66.1676 552.604L67.0624 552.158ZM55.9257 577.465L55.0554 577.957C55.5856 578.894 56.0826 579.691 56.479 580.36C56.8852 581.046 57.2016 581.622 57.4397 582.21L58.3665 581.835L59.2934 581.459C58.9971 580.728 58.6179 580.047 58.1996 579.341C57.7717 578.618 57.3154 577.89 56.7961 576.972L55.9257 577.465ZM58.3665 581.835L57.4394 582.209C58.2824 584.295 59.2781 585.867 60.7933 586.715C62.3249 587.572 64.1579 587.565 66.3607 587.06L66.1373 586.085L65.9139 585.11C63.8916 585.574 62.6582 585.467 61.7701 584.97C60.8656 584.464 60.0885 583.426 59.2936 581.46L58.3665 581.835ZM66.1373 586.085L66.3601 587.06C71.8805 585.799 77.0235 583.61 81.5174 579.973L80.8882 579.195L80.2591 578.418C76.0508 581.824 71.2047 583.901 65.9145 585.11L66.1373 586.085ZM80.8882 579.195L81.5166 579.973C85.4589 576.789 87.2999 572.518 87.4453 567.693L86.4457 567.663L85.4462 567.632C85.3164 571.94 83.7 575.639 80.2599 578.418L80.8882 579.195ZM86.4457 567.663L87.4454 567.689C87.4748 566.578 87.2535 565.487 86.9704 564.467C86.6991 563.489 86.3154 562.405 86.0486 561.529L85.092 561.821L84.1355 562.112C84.4521 563.151 84.7709 564.021 85.0433 565.002C85.3041 565.941 85.4679 566.813 85.4461 567.636L86.4457 567.663ZM85.092 561.821L86.0443 561.516C85.8705 560.974 85.4833 560.582 85.2011 560.316C84.8579 559.992 84.6083 559.797 84.289 559.463L83.5663 560.154L82.8435 560.845C83.1979 561.215 83.6222 561.576 83.829 561.771C83.9522 561.887 84.031 561.971 84.0831 562.038C84.1331 562.102 84.1407 562.129 84.1397 562.126L85.092 561.821ZM83.5663 560.154L82.7712 559.547C81.9812 560.583 81.2724 561.443 80.6652 562.302L81.4817 562.879L82.2982 563.456C82.8822 562.63 83.5035 561.885 84.3614 560.76L83.5663 560.154ZM81.4817 562.879L80.6689 562.296C77.2538 567.061 73.2536 571.249 68.5949 574.79L69.2001 575.586L69.8053 576.382C74.6323 572.713 78.7702 568.379 82.2945 563.461L81.4817 562.879ZM69.2001 575.586L68.5954 574.79C65.9064 576.831 62.9695 577.823 59.6618 577.398L59.5345 578.39L59.4071 579.382C63.3276 579.885 66.7785 578.68 69.8047 576.383L69.2001 575.586ZM59.5345 578.39L59.6564 577.397C59.2274 577.344 58.792 577.238 58.2316 577.079C57.6879 576.924 57.0034 576.714 56.1801 576.497L55.9257 577.465L55.6713 578.432C56.4739 578.643 57.0857 578.833 57.6858 579.003C58.2692 579.168 58.8253 579.31 59.4126 579.382L59.5345 578.39ZM66.4025 558.831L67.2265 559.397C67.7694 558.608 68.0107 557.762 67.8377 556.934C67.6668 556.115 67.131 555.503 66.5081 555.088L65.9537 555.92L65.3993 556.752C65.7228 556.968 65.8458 557.179 65.8799 557.342C65.9118 557.495 65.9043 557.79 65.5784 558.264L66.4025 558.831ZM65.9537 555.92L66.5134 555.091C63.876 553.31 61.1645 551.654 58.4858 550L57.9604 550.851L57.4351 551.702C60.1282 553.365 62.7985 554.996 65.394 556.749L65.9537 555.92ZM57.9604 550.851L58.466 549.988C58.0959 549.772 57.7007 549.756 57.5036 549.752C57.194 549.747 57.1783 549.762 57.0428 549.75L56.954 550.746L56.8653 551.742C57.0006 551.754 57.1297 551.755 57.2252 551.754C57.337 551.753 57.3964 551.751 57.4668 551.752C57.4968 551.753 57.5189 551.754 57.5355 551.755C57.5436 551.756 57.5495 551.756 57.5537 551.757C57.5579 551.757 57.5598 551.758 57.5597 551.758C57.5596 551.758 57.5571 551.757 57.5525 551.756C57.5479 551.755 57.5409 551.753 57.5319 551.75C57.5139 551.744 57.4868 551.733 57.4549 551.714L57.9604 550.851ZM56.954 550.746L55.9561 550.682C55.8011 553.076 56.7534 555.142 58.5881 556.711C60.3908 558.252 63.0156 559.295 66.2425 559.818L66.4025 558.831L66.5625 557.844C63.548 557.355 61.3155 556.411 59.8878 555.19C58.4921 553.997 57.8409 552.526 57.952 550.811L56.954 550.746ZM49.0524 543.775L48.7612 544.732L48.7902 544.74L49.0814 543.784L49.3725 542.827L49.3436 542.818L49.0524 543.775ZM90.7345 488.753L90.1788 487.922L90.1503 487.941L90.706 488.772L91.2617 489.604L91.2902 489.585L90.7345 488.753ZM90.7345 488.753L90.1786 487.922C90.1687 487.929 90.1606 487.934 90.1502 487.941L90.706 488.772L91.2618 489.604C91.2704 489.598 91.2813 489.591 91.2904 489.585L90.7345 488.753ZM49.0524 543.775L48.7611 544.732C48.7731 544.735 48.7784 544.737 48.7901 544.74L49.0814 543.784L49.3726 542.827C49.3649 542.825 49.3509 542.82 49.3437 542.818L49.0524 543.775ZM31.081 589.428L30.1408 589.769C30.9783 592.079 32.2343 594.057 33.8187 595.705L34.5397 595.012L35.2606 594.319C33.8684 592.871 32.7626 591.133 32.0211 589.087L31.081 589.428ZM34.5397 595.012L33.8187 595.705C35.9957 597.97 38.7713 599.593 41.8892 600.625L42.2035 599.675L42.5177 598.726C39.6554 597.779 37.1763 596.312 35.2606 594.319L34.5397 595.012Z" fill="white" mask="url(#path-22-outside-1_2013_2325)"/>
<path d="M29.7517 592.515C31.0244 592.225 32.6106 592.666 34.4992 594.303L34.8807 594.647L34.8912 594.655L34.901 594.666C36.8819 596.727 39.4348 598.232 42.3608 599.201L42.3626 599.202C47.3579 600.871 52.4913 602.142 57.606 603.57C58.7822 603.898 59.9434 604.188 61.1144 604.329C61.5289 604.293 62.0208 604.29 62.5421 604.34C62.7668 604.301 62.961 604.241 63.1185 604.156L63.2751 604.445C64.0554 604.597 64.8716 604.886 65.5599 605.391C66.4537 606.048 67.104 607.052 67.1857 608.496C68.0375 612.116 66.9035 615.602 66.0751 618.855C65.3567 621.704 64.3437 624.485 63.3621 627.225L63.3615 627.227C62.3713 629.96 61.0542 631.565 59.3958 632.376C57.9588 633.078 56.3396 633.145 54.6164 632.945L53.8719 632.843C42.9997 631.178 33.5435 626.546 25.0537 619.781C23.0764 618.206 21.7907 616.397 21.2306 614.343C20.6711 612.292 20.8503 610.048 21.7105 607.628L22.306 605.972C23.7041 602.123 25.2172 598.3 27.2856 594.718C27.6317 593.866 28.4305 592.817 29.7517 592.515ZM30.4702 597.242C30.304 597.463 30.1409 597.671 30.0136 597.844C29.8023 598.13 29.65 598.372 29.5608 598.619L29.5605 598.62C28.1133 602.604 26.6614 606.555 25.3675 610.574L25.3672 610.575C24.9496 611.864 25.3441 613.183 26.2941 614.243L26.4912 614.451L26.4928 614.453C27.669 615.641 28.8511 616.803 30.1852 617.663L30.1861 617.663C37.5728 622.372 45.2604 626.161 54.047 627.236C55.6873 627.432 56.5192 627.413 57.0877 627.085C57.6429 626.765 58.0629 626.077 58.6083 624.495L59.3082 622.438C59.9969 620.375 60.6519 618.295 61.2653 616.201L61.2662 616.198C61.6832 614.805 61.9424 613.352 62.1709 611.88C62.3372 610.757 62.2706 610.267 62.0588 609.979C61.9549 609.838 61.7851 609.703 61.4829 609.573C61.1764 609.441 60.7644 609.325 60.2068 609.207L60.2075 609.209C58.9174 608.942 57.6138 608.689 56.3186 608.373L56.3146 608.373C56.2819 608.365 56.2488 608.355 56.2161 608.347C54.025 607.794 51.8387 607.241 49.6607 606.611L49.6613 606.612C43.0116 604.702 35.9973 603.059 30.9132 597.469L30.9064 597.462L30.8999 597.453C30.8968 597.45 30.8677 597.425 30.7264 597.359C30.6607 597.329 30.5737 597.289 30.4702 597.242Z" fill="white" stroke="white"/>
</g>
<path opacity="0.75" d="M273.146 567.555C272.687 568.032 272.357 568.36 272.058 568.702C269.52 571.505 266.992 574.317 264.433 577.104C263.804 577.783 263.103 578.406 262.366 578.978C261.104 579.961 259.729 580.603 257.967 579.947C257.902 579.75 257.769 579.468 257.737 579.172C257.344 575.679 257.061 572.161 256.549 568.684C255.415 560.948 254.171 553.227 252.945 545.504C252.622 543.456 252.144 541.438 251.821 539.39C251.438 536.975 252.086 535.767 254.392 534.93C256.187 534.276 258.043 533.783 259.909 533.364C268.256 531.497 276.669 530.035 285.139 528.846C286.677 528.632 288.204 528.344 289.74 528.111C290.246 528.041 290.777 527.948 291.281 527.99C292.363 528.074 293.099 528.911 292.986 529.987C292.93 530.596 292.713 531.198 292.513 531.78C291.437 534.905 290.025 537.909 289.374 541.191C289.136 542.378 288.423 543.463 287.893 544.645C288.071 544.845 288.248 545.102 288.481 545.295C293.66 549.727 299.551 552.53 306.427 552.97C310.339 553.224 314.045 552.332 317.603 550.785C323.727 548.121 328.532 543.932 331.903 538.149C332.009 537.966 332.107 537.792 332.223 537.617C333.523 535.558 334.759 535.264 336.717 536.653C342.599 540.809 348.478 544.946 354.314 549.174C355.859 550.291 357.273 551.615 358.617 552.977C360.551 554.932 360.902 557.117 359.555 559.51C352.745 571.676 343.158 580.68 329.697 584.986C321.833 587.498 313.758 587.478 305.732 585.723C297.986 584.023 290.726 581.026 283.968 576.852C281 575.013 278.393 572.738 275.928 570.275C275.056 569.401 274.157 568.541 273.137 567.557L273.146 567.555ZM259.624 577.961C260.782 577.444 261.43 576.574 262.114 575.756C264.843 572.504 267.571 569.242 270.3 565.99C270.597 565.629 270.905 565.277 271.235 564.949C272.384 563.832 273.304 563.769 274.5 564.804C275.556 565.718 276.614 566.641 277.58 567.642C281.084 571.303 285.062 574.325 289.55 576.694C294.465 579.295 299.592 581.397 305.009 582.689C312.651 584.515 320.359 584.596 327.886 582.3C340.798 578.361 349.946 569.775 356.544 558.24C357.389 556.761 357.318 556.114 356.065 554.937C354.672 553.629 353.228 552.357 351.691 551.229C346.716 547.594 341.687 544.033 336.672 540.442C336.141 540.065 335.584 539.711 335.119 539.4C334.911 539.523 334.857 539.54 334.834 539.581C334.707 539.749 334.588 539.906 334.483 540.09C330.971 546.014 326.073 550.403 319.853 553.325C312.011 557.008 304.102 557.302 296.103 553.855C292.269 552.202 288.675 550.186 285.673 547.235C284.019 545.607 283.858 544.381 285.046 542.394C285.334 541.903 285.704 541.458 285.972 540.96C286.241 540.463 286.479 539.951 286.659 539.419C287.282 537.558 287.875 535.683 288.489 533.823C288.739 533.056 289.038 532.311 289.35 531.451C288.902 531.466 288.694 531.458 288.492 531.486C280.576 532.813 272.655 534.104 264.751 535.515C261.802 536.038 258.885 536.801 255.977 537.553C254.536 537.923 254.563 538.051 254.808 539.537C255.695 544.896 256.675 550.25 257.407 555.639C258.208 561.591 258.788 567.574 259.421 573.54C259.573 574.965 259.548 576.404 259.615 577.963L259.624 577.961Z" fill="white" stroke="white" stroke-width="2"/>
</g>
<defs>
<clipPath id="clip0_2013_2325">
<rect width="375" height="667" fill="white"/>
</clipPath>
</defs>
</svg>
