<svg width="375" height="667" viewBox="0 0 375 667" fill="none" xmlns="http://www.w3.org/2000/svg">
<g clip-path="url(#clip0_2048_1617)">
<path d="M71.7859 18.4861C27.5607 18.4861 12.6828 25.1486 11.3858 36.9362C-1.9228 157.887 13.945 340.85 11.3857 356.738C8.82634 372.625 11.3857 552.59 11.3857 602.303C11.3857 652.015 29.9538 656.739 58.1064 655.201C86.2591 653.664 300.859 658.789 333.106 655.201C365.354 651.614 371.734 597.303 369.606 557.303C368.004 527.183 363.606 356.892 363.606 319.303C363.606 267.803 371.675 64.1427 365.606 40.3028C358.606 12.8027 127.068 18.4861 71.7859 18.4861Z" fill="white"/>
<path fill-rule="evenodd" clip-rule="evenodd" d="M289.139 23.2495C290.38 23.572 291.091 23.9257 291.59 24.4488C292.207 25.0762 293.536 27.5014 293.918 28.6537C294.167 29.416 294.332 29.6058 294.663 29.5386C294.883 29.5038 296.075 29.3825 297.29 29.3061C301.094 29.0459 303.734 30.1005 304.829 32.3191C305.362 33.3965 305.551 36.4035 305.166 37.6926C304.746 39.1189 304.829 39.4025 305.829 40.1154C307.151 41.0315 307.742 41.9494 307.823 43.2324C307.892 44.6932 307.372 45.9486 306.203 47.131L305.2 48.1258L306.636 49.7685C309.362 52.8605 312.496 55.3957 314.869 56.4229C316.261 57.0016 319.264 57.8122 320.582 57.9295C321.454 58.0076 323.338 58.3107 325.897 58.7718C328.389 59.2138 332.029 60.2289 333.695 60.9463C335.632 61.7563 339.084 64.006 340.524 65.3806C342.909 67.6508 346.001 71.6306 349.075 76.3894C350.649 78.8224 354.562 85.6155 355.104 86.8231C355.289 87.2774 355.683 87.9188 355.949 88.2584C356.214 88.5748 356.438 88.9612 356.445 89.0704C356.453 89.2027 357.267 90.8402 358.251 92.7094C359.94 95.9109 360.928 97.8706 361.889 99.7202C362.65 101.226 364.106 104.265 364.831 105.908C365.22 106.794 366.349 109.232 367.37 111.323C369.034 114.814 369.577 116.047 370.863 119.186C371.12 119.768 371.458 120.548 371.66 120.913C372.449 122.484 374.738 128.89 375.168 130.794C375.291 131.341 375.442 131.977 375.523 132.216C375.582 132.457 375.789 133.977 375.979 135.586C376.759 142.331 375.696 147.683 372.493 153.235C369.568 158.283 365.784 161.318 353.38 168.492C351.646 169.511 350.165 170.336 350.121 170.339C350.054 170.343 346.024 172.639 341.159 175.433C336.317 178.225 331.553 180.877 330.606 181.337C323.384 184.765 313.71 188.439 309.355 189.444C304.736 190.489 300.652 190.878 298.318 190.471C297.69 190.377 296.948 190.247 296.637 190.222C295.338 190.059 289.956 188.511 288.313 187.792C285.757 186.709 285.39 186.511 281.308 183.746C277.854 181.41 271.722 174.645 268.567 169.693C266.646 166.706 262.326 159.093 260.981 156.404C260.244 154.917 259.354 153.131 258.953 152.422C258.576 151.712 257.969 150.553 257.615 149.842C257.26 149.13 256.146 146.959 255.135 145.001C254.146 143.044 253.131 141.021 252.875 140.48C252.62 139.942 252.035 138.779 251.602 137.895C250.437 135.593 248.583 131.556 247.946 129.91C247.653 129.129 247.051 127.679 246.654 126.66C245.528 123.933 243.745 118.183 243.345 116.032C242.922 113.904 242.557 108.798 242.7 107.191C243.009 103.286 243.901 99.4546 245.31 96.0794C245.697 95.1676 246.27 93.6874 246.57 92.8253C246.87 91.9632 247.858 89.6348 248.778 87.6691C251.257 82.2282 251.659 80.5163 251.134 77.463C250.694 75.0474 250.718 75.069 248.525 75.1626C246.201 75.2876 244.928 74.8111 243.934 73.497C243.281 72.6273 243.251 72.5174 243.268 70.6739C243.309 68.5167 243.481 68.7736 241.157 67.4756C238.235 65.8611 238.709 62.8103 242.391 59.5368C243.127 58.8687 243.708 58.2545 243.699 58.1222C243.671 58.0122 243.27 57.6601 242.764 57.3588C241.816 56.7733 239.167 53.4551 238.204 51.5845C237.877 50.9832 237.54 49.8491 237.417 48.9693C237.224 47.6722 237.265 47.246 237.596 46.5147C237.809 46.0122 238.15 45.4363 238.357 45.202C238.943 44.6318 248.972 38.8722 250.253 38.3932C250.535 38.287 251.116 38.0059 251.522 37.759C252.698 37.04 255.112 35.868 257.446 34.8337C258.634 34.3142 260.038 33.6715 260.576 33.4163C265.355 31.0289 272.71 27.5687 274.485 26.8352C281.5 23.9299 286.813 22.6409 289.139 23.2495ZM283.275 27.0817C281.051 27.7317 278.251 28.7531 276.329 29.6054C275.551 29.9431 274.341 30.4851 273.627 30.7956C271.682 31.6514 269.4 32.771 266.517 34.2614C264.022 35.5503 256.844 38.9782 256.601 38.9935C256.225 39.0171 248.883 43.0308 243.721 46.0201C241.043 47.5882 240.938 47.6602 240.917 48.3951C240.883 49.2637 241.09 49.7377 242.737 52.6319C243.962 54.8191 244.894 56.2278 245.318 56.5996C245.483 56.7452 245.87 56.5649 246.548 56.0563C247.099 55.6212 248.226 54.8399 249.079 54.2993C249.932 53.7355 251.276 52.852 252.108 52.3106C252.918 51.7707 254.115 51.0292 254.735 50.6361C255.356 50.2429 255.974 49.8478 256.124 49.7498C257.797 48.4683 275.446 38.1652 278.87 36.4637C283.695 34.0966 287.167 32.4553 289.224 31.6155C290.415 31.1422 291.453 30.6765 291.535 30.5828C291.703 30.4394 290.245 27.7335 289.676 27.1242C289.509 26.9576 289.159 26.6908 288.907 26.5738C288.194 26.2181 285.345 26.4857 283.275 27.0817ZM294.066 33.0862C292.017 33.681 288.917 34.8751 287.583 35.5598C287.176 35.7857 286.14 36.2724 285.321 36.6569C284.477 37.0199 283.078 37.7086 282.196 38.1625C281.315 38.6395 279.507 39.5522 278.217 40.1898C275.762 41.4109 274.091 42.3592 268.466 45.7759C266.649 46.8894 263.267 48.9002 260.977 50.2647C258.687 51.6293 256.101 53.2128 255.271 53.7983C254.419 54.362 252.693 55.514 251.436 56.371C248.155 58.5757 247.73 58.8913 246.68 59.8237C246.176 60.3002 245.354 60.9949 244.847 61.383C243.618 62.3267 242.25 63.8779 242.362 64.2482C242.416 64.4008 243.114 64.9113 243.923 65.3939C246.133 66.6548 246.377 67.0168 246.58 69.5338C246.673 70.6832 246.804 71.6954 246.874 71.7352C247.108 71.9419 249.316 71.7145 249.389 71.4654C249.425 71.3303 249.623 70.9616 249.847 70.6376C250.315 69.9652 250.996 69.8318 251.557 70.2646C251.885 70.5327 252.039 70.523 252.811 70.0971C253.305 69.8447 256.185 68.6645 259.196 67.4759C262.232 66.309 265.047 65.177 265.458 64.9953C265.866 64.7925 266.797 64.4009 267.511 64.0883C268.223 63.7547 269.238 63.2925 269.776 63.0352C270.313 62.7569 271.673 62.117 272.796 61.6016C274.63 60.7758 276.332 59.9352 278.613 58.7714C279.022 58.5687 281.447 57.2399 283.978 55.8138C290.865 51.9826 291.688 51.6652 292.54 52.4992C293.178 53.1253 292.857 54.0329 291.765 54.6582C291.293 54.9324 290.57 55.4437 290.15 55.8032C289.52 56.3762 280.78 61.4538 280.405 61.4775C280.337 61.4817 279.431 61.8928 278.42 62.4012C276.482 63.3663 275.019 64.1033 273.012 65.0495C271.935 65.5832 269.298 66.7271 265.127 68.5198C264.282 68.8618 262.722 69.4699 261.659 69.8698C258.383 71.075 253.329 73.347 253.346 73.6116C253.352 73.6998 253.604 74.5271 253.907 75.4631C254.765 78.1413 254.982 80.1915 254.596 82.1912C254.124 84.5757 254.063 84.6891 251.683 90.2567C247.133 100.868 246.155 104.771 246.554 111.119C246.726 114.194 247.14 116.211 248.405 120.439C249.438 123.793 252.505 131.261 254.454 135.068C254.785 135.737 255.068 136.362 255.075 136.473C255.081 136.562 255.466 137.381 255.944 138.284C256.421 139.165 257.355 140.949 257.992 142.262C258.651 143.553 259.613 145.447 260.143 146.457C260.672 147.468 261.633 149.338 262.293 150.652C262.952 151.943 264.113 154.179 264.868 155.596C265.644 157.013 266.431 158.561 266.637 159.016C267.647 161.306 273.025 169.849 274.653 171.745C274.916 172.041 275.659 172.926 276.333 173.75C277.026 174.55 277.628 175.267 277.697 175.33C277.768 175.393 278.219 175.851 278.695 176.378C280.721 178.603 283.881 181.181 286.561 182.834C288.894 184.264 292.439 185.551 296.288 186.376C301.149 187.424 306.898 186.687 314.129 184.099C316.476 183.262 319.904 182.003 320.854 181.589C324.101 180.253 327.471 178.753 329.494 177.738C332.077 176.444 357.146 161.966 360.456 159.85C362.487 158.591 365.467 156.204 366.718 154.905C369.446 152.025 371.624 147.469 372.424 142.889C372.836 140.62 372.44 134.316 371.712 131.564C370.842 128.311 368.903 123.26 366.881 118.989C366.265 117.674 365.467 115.924 365.083 115.105C364.72 114.261 364.132 113.054 363.802 112.409C363.473 111.764 362.885 110.536 362.522 109.713C360.25 104.659 356.972 98.0939 354.008 92.5967C353.205 91.1145 352.022 88.9015 351.366 87.6568C350.076 85.1407 345.879 78.0766 345.404 77.5962C345.238 77.4296 344.727 76.707 344.284 76.0012C342.41 73.0538 339.53 69.594 337.464 67.8139C333.966 64.7914 329.866 63.1623 323.456 62.2329C315.816 61.1594 313.278 60.3197 309.51 57.6241C307.254 56.012 305.245 54.0722 303.768 52.1012C301.658 49.2592 302.007 49.5029 300.782 50.1786C299.558 50.8331 298.826 50.856 298.366 50.2419C298.1 49.9024 298.088 49.705 298.282 49.2479C298.593 48.518 300.635 47.1015 301.475 47.0487C302.403 46.9904 303.233 46.4049 303.941 45.2957C304.831 43.9306 304.741 43.5357 303.226 42.4103C301.478 41.0993 301.077 39.6362 301.851 37.5005C302.245 36.3647 302.102 34.0863 301.594 33.4078C300.697 32.2478 297.468 32.0966 294.066 33.0862Z" fill="#965EEB" stroke="#965EEB"/>
<path fill-rule="evenodd" clip-rule="evenodd" d="M293.875 39.627C294.606 39.9584 294.584 41.0034 293.825 41.6497C292.77 42.5382 281.913 48.9043 278.858 50.4518C273.777 52.9911 270.931 54.3253 269.952 54.6524C269.124 54.9047 268.968 54.8914 268.523 54.521C268.169 54.189 268.064 53.9279 268.149 53.5009C268.264 52.8507 269.267 52.21 273.932 49.7854C275.458 48.979 278.614 47.2712 280.908 45.9718C285.217 43.5253 288.006 41.9733 288.204 41.9377C288.271 41.9335 288.979 41.556 289.818 41.1258C292.696 39.5894 293.282 39.3755 293.875 39.627Z" fill="#965EEB"/>
<path fill-rule="evenodd" clip-rule="evenodd" d="M261.13 58.4268C262.054 59.3469 261.343 60.0346 256.502 62.8708C253.354 64.7109 252.609 64.8694 252.19 63.8754C251.823 62.9878 252.348 62.4889 256.094 60.2781C259.841 58.0672 260.494 57.8238 261.13 58.4268Z" fill="#965EEB"/>
<path fill-rule="evenodd" clip-rule="evenodd" d="M304.843 81.6128C306.111 81.999 307.817 83.3359 308.536 84.5556C310.825 88.4741 309.967 94.9452 306.258 101.64C305.022 103.872 303.235 105.827 302.106 106.252C300.694 106.762 299.579 106.322 297.009 104.285C291.307 99.7589 289.983 98.4866 287.82 95.492C285.094 91.7105 284.041 86.2492 285.647 84.2382C287.581 81.8082 292.475 82.6538 294.966 85.8955L295.979 87.1853L296.848 85.8215C298.846 82.6559 302.265 80.8663 304.843 81.6128ZM301.358 85.1627C300.321 85.9616 299.737 86.5738 298.386 88.3916C297.031 90.1422 296.43 90.4689 295.485 89.9274C294.586 89.4063 294.397 89.2179 293.701 88.041C292.238 85.6011 289.364 84.384 287.862 85.5662C287.397 85.9496 287.384 86.0854 287.564 87.5392C287.988 90.7549 289.962 93.8943 293.707 97.2996C296.156 99.5216 300.921 103.263 301.297 103.24C301.74 103.212 303.735 100.333 304.613 98.4124C307.978 91.1618 307.63 85.2997 303.779 84.4308C302.988 84.2613 302.247 84.4849 301.358 85.1627Z" fill="#965EEB"/>
<path fill-rule="evenodd" clip-rule="evenodd" d="M324.466 87.8869C324.92 88.0355 325.489 88.2674 325.675 88.4096C326.42 88.9615 327.214 90.2882 327.464 91.451C327.769 92.7852 327.741 93.3646 327.391 95.2523C327.259 95.9711 327.211 96.6171 327.281 96.6802C327.352 96.7432 327.923 96.6398 328.554 96.4441C333.285 95.0358 337.025 95.9116 338.02 98.6698C338.931 101.144 337.296 104.823 334.29 107.143C331.772 109.099 327.19 111.475 324.594 112.194C323.939 112.368 323.154 112.595 322.847 112.681C322.543 112.768 320.956 112.977 319.324 113.147C316.612 113.43 316.233 113.43 315.278 113.069C313.778 112.518 313.375 111.767 313.417 109.589C313.439 107.456 314.021 104.378 315.283 99.7027C317.805 90.3484 320.578 86.7758 324.466 87.8869ZM321.69 91.7465C320.168 93.6635 318.795 97.9893 317.475 104.89C317.208 106.305 316.966 107.764 316.925 108.144C316.882 108.501 316.804 109.039 316.777 109.308C316.728 109.6 316.791 109.862 316.904 109.922C317.271 110.121 323.349 108.963 324.912 108.399C326.517 107.809 330.872 105.382 332.121 104.393C333.177 103.528 334.187 102.288 334.484 101.38C335.37 98.8596 333.589 98.4382 327.879 99.7964C324.771 100.525 324.014 100.484 323.577 99.5334C323.343 98.9937 323.47 97.8304 323.859 97.3168C324.267 96.7367 324.812 94.1032 324.757 92.886C324.701 91.2916 324.184 90.4787 323.256 90.5371C322.769 90.5677 322.389 90.8593 321.69 91.7465Z" fill="#965EEB"/>
<path fill-rule="evenodd" clip-rule="evenodd" d="M277.335 95.778C279.707 96.7841 281.182 99.7546 281.584 104.369C281.949 108.411 281.644 111.337 280.33 116.549C279.651 119.168 279.538 119.485 278.146 122.791C276.328 127.08 275.312 127.521 272.416 125.239C265.222 119.586 261.385 116.14 258.699 112.978C255.916 109.689 254.498 107.246 254.261 105.263C254.081 103.809 254.08 103.786 254.886 102.824C255.608 101.936 255.8 101.835 257.011 101.647C258.639 101.389 260.279 101.731 262.835 102.814C264.843 103.664 267.877 105.651 269.271 107.005C269.745 107.464 270.191 107.858 270.235 107.855C270.279 107.852 270.316 107.028 270.34 106.006C270.433 100.072 271.179 97.7819 273.479 96.2376C274.886 95.3101 275.921 95.1775 277.335 95.778ZM274.432 99.4242C273.418 100.976 273.045 103.863 273.034 110.015C273.035 110.748 273.075 111.745 273.107 112.253C273.219 114.045 272.183 114.154 270.924 112.502C268.352 109.044 265.195 106.489 261.82 105.08C259.129 103.961 256.85 103.727 256.815 104.573C256.739 106.553 260.39 111.276 265.685 116.028C268.65 118.683 274.199 123.263 274.535 123.309C274.94 123.372 276.63 119.204 277.341 116.362C279.21 109.005 278.961 101.515 276.798 99.2312C275.941 98.3511 275.082 98.4283 274.432 99.4242Z" fill="#965EEB"/>
<path fill-rule="evenodd" clip-rule="evenodd" d="M307.702 110.144C309.454 110.812 310.842 112.768 311.577 115.607C312.189 117.945 312.523 125.028 312.142 127.428C311.583 130.906 310.952 133.21 309.833 135.9C308.694 138.637 307.287 139.568 305.336 138.871C304.927 138.741 304.445 138.482 304.259 138.34C304.071 138.175 303.582 137.828 303.211 137.563C302.818 137.322 302.094 136.766 301.581 136.354C300.691 135.611 298.04 133.711 293.321 130.344C290.741 128.508 289.19 127.14 287.44 125.096C284.686 121.894 284.082 119.355 285.54 117.132C287.549 114.12 293.419 114.972 299.007 119.083C299.824 119.698 300.234 119.894 300.289 119.692C300.323 119.534 300.49 118.659 300.634 117.76C300.798 116.863 300.993 116.072 301.1 115.998C301.208 115.924 301.281 115.677 301.265 115.433C301.25 115.19 301.448 114.444 301.717 113.807C303 110.573 305.266 109.188 307.702 110.144ZM305.202 113.476C304.852 113.899 304.466 114.477 304.352 114.773C303.942 115.666 302.741 121.646 302.654 123.075C302.575 124.633 302.555 124.679 301.879 124.856C301.507 124.947 301.157 124.68 300.226 123.649C297.333 120.39 292.607 117.955 289.507 118.106C288.599 118.142 288.253 118.273 287.92 118.65C286.261 120.532 289.607 124.649 296.724 129.422C300.248 131.777 300.366 131.879 300.205 132.178C300.145 132.293 300.215 132.333 300.387 132.255C300.559 132.176 301.318 132.574 302.18 133.209C305.183 135.396 306.197 135.998 306.492 135.735C307.056 135.19 308.084 132.083 308.578 129.343C309.234 125.661 309.277 124.57 308.967 119.971C308.734 116.634 308.633 116.062 308.117 114.939C307.524 113.621 306.687 112.675 306.135 112.709C305.977 112.717 305.557 113.077 305.202 113.476Z" fill="#965EEB"/>
<path fill-rule="evenodd" clip-rule="evenodd" d="M339.137 112.165C341.361 112.559 344.397 115.322 345.756 118.188C345.987 118.683 346.256 119.067 346.365 119.06C346.453 119.055 347.062 118.483 347.73 117.798C349.146 116.309 349.55 116.041 350.733 115.767C351.982 115.511 353.069 115.841 354.061 116.801C355.221 117.949 355.661 118.944 355.771 120.691C356.059 125.269 352.38 135.271 349.057 138.944C347.439 140.734 346.376 141.176 345.053 140.572C344.389 140.281 344.145 139.919 342.348 136.412C341.767 135.293 340.936 133.747 340.51 132.975C340.085 132.203 339.525 131.083 339.267 130.5C339.029 129.893 338.566 128.879 338.258 128.232C336.509 124.412 334.557 118.784 334.46 117.237C334.243 113.761 336.198 111.663 339.137 112.165ZM337.752 114.85C337.277 115.08 336.835 116.151 336.963 116.786C337.025 117.071 337.187 117.86 337.315 118.497C337.492 119.529 339.514 124.864 340.33 126.546C340.481 126.846 341.017 127.947 341.529 129.024C343.011 132.105 346.002 137.291 346.31 137.272C346.774 137.242 348.092 135.229 349.346 132.574C350.013 131.178 350.718 129.69 350.895 129.322C351.092 128.933 351.246 128.523 351.283 128.411C351.298 128.277 351.621 127.08 351.979 125.702C353.077 121.636 352.845 118.653 351.43 118.742C351.165 118.758 350.217 119.573 349.28 120.563C347.24 122.713 346.386 123.254 345.556 122.796C345.256 122.615 344.89 122.083 344.701 121.562C344.096 119.713 342.496 117.57 340.575 115.958C339.076 114.722 338.53 114.514 337.752 114.85Z" fill="#965EEB"/>
<path fill-rule="evenodd" clip-rule="evenodd" d="M288.517 128.848C290.71 129.465 292.344 131.806 292.664 134.76C292.947 137.472 292.237 141.381 290.821 144.645C290.048 146.471 287.453 151.097 286.728 151.941C285.881 152.95 284.946 153.274 283.797 152.992C283.142 152.812 279.668 149.832 277.293 147.384C277.009 147.092 276.486 146.569 276.154 146.235C272.129 142.247 269.16 137.77 268.963 135.341C268.809 133.597 268.876 133.26 269.491 132.443C271.299 130.11 275.117 130.825 279.828 134.391C280.548 134.923 281.266 135.367 281.398 135.359C281.53 135.35 281.623 135.056 281.601 134.703C281.54 133.728 282.275 131.642 283.013 130.661C284.345 128.889 286.347 128.23 288.517 128.848ZM285.709 132.577C285.048 133.352 284.419 136.056 284.345 138.435C284.29 141.08 283.72 141.206 281.342 139.068C277.553 135.666 275.23 134.368 272.299 134.018C271.426 133.917 271.701 135.81 272.795 137.672C273.267 138.486 273.956 139.554 274.322 140.064C275.318 141.422 279.54 145.708 282.079 147.969L284.312 149.916L284.853 149.348C285.437 148.734 287.256 145.179 288.174 142.811C289 140.76 289.584 138.038 289.621 136.147C289.639 134.657 289.574 134.328 289.049 133.429C288.053 131.696 286.766 131.378 285.709 132.577Z" fill="#965EEB"/>
<path fill-rule="evenodd" clip-rule="evenodd" d="M329.313 127.527C329.966 127.687 332.63 129.783 333.426 130.777C335.18 132.887 336.914 136.798 338.177 141.358C339.131 144.874 339.05 150.651 338.019 152.626C337.343 153.889 336.584 154.181 333.531 154.352C327.555 154.66 324.428 154.347 319.948 153.03C315.131 151.623 312.617 150.139 311.394 148.017C310.843 147.031 310.755 146.681 310.832 145.788C311.063 143.088 312.688 141.409 316.067 140.398C318.615 139.616 321.948 139.651 324.506 140.422C325.026 140.589 325.069 140.563 324.916 140.24C324.352 139.055 323.429 136.003 323.372 135.096C323.165 131.801 324.915 128.228 327.029 127.582C328.055 127.295 328.319 127.278 329.313 127.527ZM327.395 130.956C325.974 132.734 325.968 135.11 327.327 138.353C329.334 143.091 329.524 143.633 329.259 144.006C328.871 144.541 328.31 144.466 326.284 143.66C322.549 142.162 319.118 141.979 316.281 143.133C314.723 143.765 313.552 144.926 313.606 145.789C313.775 148.464 321.88 151.309 329.842 151.496C330.998 151.511 334.432 151.407 335.204 151.314C335.888 151.227 335.875 145.388 335.178 142.411C334.043 137.442 331.719 132.969 329.26 130.948C328.419 130.269 327.953 130.278 327.395 130.956Z" fill="#965EEB"/>
<path fill-rule="evenodd" clip-rule="evenodd" d="M301.052 145.646C304.376 146.614 306.519 148.545 309.008 152.828C312.297 158.528 314.334 165.151 313.511 167.578C313.079 168.826 312.47 169.041 308.309 169.238C299.542 169.656 294.307 169.051 289.787 167.071C286.296 165.558 284.434 163.499 284.272 160.933C284.086 157.97 285.926 155.812 289.029 155.349C290.549 155.142 293.235 155.485 294.558 156.045C295.015 156.237 295.422 156.368 295.462 156.298C295.526 156.25 295.187 155.449 294.73 154.546C293.611 152.308 293.383 150.789 293.822 148.919C294.228 147.272 295.096 146.219 296.444 145.757C297.679 145.325 299.787 145.281 301.052 145.646ZM297.388 148.474C296.344 148.828 296.095 150.509 296.791 152.397C297.139 153.33 299.064 156.761 300.072 158.296C300.364 158.722 300.481 159.136 300.394 159.54C300.315 160.055 300.167 160.153 299.504 160.195C298.996 160.227 298.518 160.08 298.098 159.729C297.747 159.441 297.2 159.231 296.847 159.253C296.515 159.274 295.633 159.019 294.882 158.71C292.463 157.686 289.632 157.487 287.972 158.278C287.324 158.564 286.728 159.689 286.781 160.529C286.85 161.635 287.847 162.994 289.205 163.775C291.647 165.198 296.985 166.372 301.273 166.412C304.674 166.443 305.939 166.452 308.335 166.434L310.755 166.438L310.541 165.14C310.336 163.998 309.993 162.799 309.232 160.583C308.282 157.845 305.854 153.134 304.581 151.593C303.788 150.643 302.032 149.177 301.254 148.827C299.949 148.224 298.521 148.114 297.388 148.474Z" fill="#965EEB"/>
<path d="M127.059 40.0054C127.118 38.6978 127.118 37.5607 127.829 36.5942C129.132 34.7749 131.858 34.4907 133.695 35.8552C134.88 36.7079 136.005 37.5607 136.776 38.7546C137.25 39.4369 137.427 39.4369 138.138 38.9252C139.442 38.0724 140.686 36.9922 142.108 36.31C144.893 35.0023 147.559 34.7749 149.751 37.6176C150.522 38.6409 150.64 39.9486 150.166 41.1425C149.633 42.4501 149.1 43.644 148.033 44.7242C146.552 46.1455 145.485 47.9649 144.241 49.6136C143.175 51.0349 142.049 52.3994 140.982 53.8207C140.449 54.5598 139.62 54.9578 138.909 55.4695C138.612 55.6969 138.138 55.8106 137.724 55.8674C137.19 55.9811 137.072 55.4126 136.716 55.242C136.361 55.0146 136.005 54.7872 135.65 54.5598C133.458 53.1953 131.799 51.4329 130.317 49.3862C129.073 47.6806 128.421 45.8044 127.71 43.8714C127.296 42.5638 127.118 41.1993 127.059 40.0054Z" fill="#965EEB"/>
<path d="M168.44 57.5646C170.482 57.7417 172.613 57.5647 174.478 58.1845C177.585 59.1585 180.604 60.3097 183.268 62.5234C184.689 63.7631 186.109 65.1799 187.619 66.331C188.507 66.9508 188.507 68.4562 189.75 68.5447C190.727 68.6333 191.437 67.6592 192.414 67.305C194.989 66.2425 197.297 64.7371 199.872 63.8516C203.601 62.5234 207.153 62.1692 210.616 64.56C212.747 65.9768 213.457 67.9249 212.924 70.4043C212.036 74.7432 209.462 78.1081 206.62 81.2958C203.157 85.1034 199.606 88.8225 195.876 92.2759C193.302 94.6667 190.904 97.5003 187.441 98.9171C186.909 99.0942 186.642 99.6255 186.287 100.068C184.6 102.282 182.38 102.37 180.249 100.511C178.473 99.0056 176.609 97.6774 174.922 96.0835C172.968 94.224 170.926 92.453 169.328 90.4164C165.776 85.9004 162.935 80.9416 160.804 75.6287C160.005 73.6806 159.472 71.644 159.028 69.5188C158.584 67.3936 158.85 65.4455 159.294 63.4089C159.472 62.7891 159.561 62.1692 160.093 61.7265C162.402 59.2471 164.355 57.3875 168.44 57.5646ZM191.437 71.7325C191.792 72.7065 192.058 73.6806 192.414 74.5661C193.213 76.6913 192.946 78.7279 192.236 80.7645C191.97 81.5615 191.437 82.1813 190.638 82.7126C188.063 84.395 185.221 84.3065 182.735 83.2439C180.072 82.0928 178.207 79.2592 180.515 75.8943C181.67 74.2119 183.179 72.7951 184.866 71.644C185.932 70.9356 186.021 70.5814 185.31 69.6959C183.978 68.0135 182.735 66.4196 181.048 65.0913C178.651 63.2318 176.253 61.5494 173.057 61.1066C171.015 60.841 169.15 60.3097 167.019 61.0181C164.089 62.0806 162.668 63.586 162.668 66.6852C162.668 69.1646 163.556 71.4669 164.355 73.8577C165.155 76.5142 166.575 78.905 167.907 81.2958C168.973 83.1554 170.127 85.1034 171.548 86.6973C174.3 89.9736 177.053 93.0729 180.338 95.8179C182.025 97.2347 182.291 97.3232 184.245 96.3492C184.6 96.1721 184.955 95.9064 185.31 95.7293C188.862 93.6041 191.614 90.5935 194.633 87.8485C197.297 85.3691 199.783 82.6241 202.269 79.9676C204.223 77.8424 205.821 75.5401 207.242 73.1493C207.863 72.0867 208.307 70.847 208.662 69.6073C209.284 67.128 206.531 65.357 204.578 65.7997C201.204 66.5967 198.096 68.0135 195.077 69.6959C194.012 70.4043 192.858 71.2012 191.437 71.7325ZM187.974 74.389C186.553 74.9203 185.488 75.8058 184.511 76.8684C183.623 77.8424 183.357 79.2592 183.89 79.9676C184.6 80.8531 185.665 81.1187 186.731 80.9416C187.974 80.7645 188.684 79.9676 188.773 78.5508C188.862 77.134 188.951 75.7172 187.974 74.389Z" fill="#965EEB"/>
<path fill-rule="evenodd" clip-rule="evenodd" d="M114.659 89.5354C113.599 90.0039 112.161 91.6842 111.381 93.3532L111.088 93.9893L110.332 93.0522C109.442 91.9841 108.26 91.047 107.516 90.8429C106.809 90.6389 105.261 90.6754 104.444 90.9148C103.664 91.1314 102.787 91.8393 102.445 92.5358C101.787 93.8206 101.861 95.5978 102.653 97.2542C104.091 100.28 106.773 103.066 110.04 104.95C111.856 105.994 112.735 106.211 113.515 105.814C114.575 105.261 115.148 104.013 116.635 98.8981C117.805 94.9115 118.012 93.6507 117.794 92.1026C117.463 89.7634 116.293 88.8024 114.659 89.5354ZM115.841 91.3001C115.927 91.4927 116.024 92.1289 116.061 92.7285C116.134 94.1808 116 94.7941 114.671 99.02C113.977 101.242 113.587 102.37 113.195 103.306C112.817 104.207 112.684 104.243 111.55 103.679C106.735 101.29 102.699 95.4542 104.345 93.2814C104.649 92.8732 105.466 92.6327 106.295 92.6931C107.258 92.765 107.904 93.2335 109.404 94.9389C110.721 96.4403 111.085 96.7036 111.634 96.5474C112.037 96.4277 112.304 96.1154 112.304 95.7791C112.304 95.2991 112.743 94.0622 113.17 93.3532C113.816 92.285 115.12 90.9752 115.547 90.9752C115.622 90.9763 115.757 91.1199 115.841 91.3001Z" fill="#965EEB"/>
<path d="M115.841 91.3001C115.927 91.4927 116.024 92.1289 116.061 92.7285C116.134 94.1808 116 94.7941 114.671 99.02C113.977 101.242 113.587 102.37 113.195 103.306C112.817 104.207 112.684 104.243 111.55 103.679C106.735 101.29 102.699 95.4542 104.345 93.2814C104.649 92.8732 105.466 92.6327 106.295 92.6931C107.258 92.765 107.904 93.2335 109.404 94.9389C110.721 96.4403 111.085 96.7036 111.634 96.5474C112.037 96.4277 112.304 96.1154 112.304 95.7791C112.304 95.2991 112.743 94.0622 113.17 93.3532C113.816 92.285 115.12 90.9752 115.547 90.9752C115.622 90.9763 115.757 91.1199 115.841 91.3001Z" fill="#965EEB"/>
<path fill-rule="evenodd" clip-rule="evenodd" d="M144.444 551.377C142.917 551.509 135.745 552.659 132.696 553.241C128.08 554.145 127.762 554.222 120.273 555.789C113.385 557.237 106.409 558.814 100.353 560.265C98.2715 560.78 95.0267 561.547 93.1477 561.993C91.2686 562.44 88.6874 563.04 87.4161 563.346C86.1448 563.653 84.1104 564.162 82.8865 564.461C80.7982 564.997 79.4127 565.378 72.2807 567.293C67.2184 568.662 59.5114 570.817 57.0374 571.565C54.8874 572.217 52.0547 573.03 46.2428 574.697C45.1274 575.01 42.5988 575.651 40.5786 576.117C38.5705 576.612 36.0837 577.198 35.0633 577.43C32.6169 578.029 31.8319 578.427 31.5474 579.289C31.3849 579.78 31.4329 580.113 31.7498 580.582C32.2706 581.39 43.3235 592.377 47.5262 596.265C49.2892 597.869 52.1607 600.681 53.946 602.496C55.7307 604.312 57.3583 605.848 57.5816 605.922C57.8857 606.022 57.953 606.226 57.8714 606.744C57.7898 607.127 57.4305 609.028 57.059 610.973C56.6862 612.915 56.1855 615.658 55.9413 617.076C55.1769 621.638 54.7642 623.908 54.3632 625.864C52.461 635.227 52.3597 636.896 53.636 637.318C53.8997 637.405 54.6633 637.407 55.3596 637.342C56.6174 637.212 58.523 636.208 63.4651 633.095C70.5439 628.622 75.2408 625.974 87.0637 619.73C95.5607 615.248 94.4794 615.458 99.1563 617.368C100.677 618.006 102.758 618.854 103.793 619.264C104.821 619.695 106.698 620.475 107.942 621C113.275 623.238 114.14 623.548 115.024 623.385C116.261 623.182 117.398 622.057 118.682 619.87C119.912 617.711 120.251 617.027 123.734 609.276C125.121 606.238 126.386 603.43 126.555 603.055C127.664 600.72 127.738 600.561 131.207 592.102C131.87 590.504 132.587 588.742 132.831 588.21C133.061 587.65 133.676 586.129 134.183 584.796C134.691 583.465 135.218 582.208 135.339 581.976C135.454 581.764 135.921 580.692 136.353 579.586C136.78 578.501 137.482 576.848 137.902 575.92C138.322 574.991 139.127 573.168 139.695 571.857C140.262 570.546 141.027 568.846 141.386 568.102C143.354 564.052 147.542 553.763 147.441 553.185C147.326 552.511 146.63 551.554 146.143 551.393C145.919 551.343 145.14 551.314 144.444 551.377ZM142.651 558.574C141.637 561.1 140.399 564.029 137.943 569.689C136.848 572.189 135.555 575.144 135.102 576.245C134.385 577.871 131.679 584.356 128.149 592.795C127.831 593.552 127.054 595.294 126.445 596.66C125.816 598.02 124.355 601.215 123.199 603.763C122.043 606.311 120.67 609.24 120.142 610.293C119.622 611.324 118.944 612.691 118.668 613.327C118.392 613.962 117.944 614.905 117.654 615.445C117.37 615.963 116.904 616.9 116.64 617.494C116.025 618.813 115.01 620.248 114.571 620.422C114.315 620.518 113.031 620.049 109.927 618.683C107.561 617.675 104.19 616.241 102.446 615.529C98.6606 613.983 95.5454 612.658 92.4772 611.328C89.2735 609.928 85.6778 608.423 82.7859 607.308C81.4134 606.764 80.218 606.233 80.0961 606.124C79.9614 605.989 80.6431 605.418 82.1116 604.451C87.7354 600.768 89.6553 599.313 101.88 589.682C110.42 582.965 116.767 577.978 123.535 572.675C126.819 570.082 129.064 568.258 131.209 566.399C135.611 562.608 143.109 556.524 143.33 556.598C143.388 556.617 143.091 557.517 142.651 558.574ZM135.833 555.664C135.772 555.848 131.134 557.904 128.587 558.879C127.734 559.21 126.558 559.707 125.978 559.971C125.396 560.233 124.511 560.598 124.017 560.8C123.531 560.979 122.171 561.552 121.01 562.076C119.853 562.58 117.068 563.794 114.832 564.78C110.229 566.801 104.834 569.311 99.2763 572.039C94.9774 574.161 93.6662 574.795 90.5483 576.263C89.3193 576.855 87.1609 577.869 85.7694 578.545C84.3761 579.221 82.457 580.131 81.5046 580.564C80.5586 580.978 78.7538 581.813 77.4965 582.42C76.2457 583.007 73.8595 584.103 72.21 584.875C69.6338 586.068 65.7482 588.166 63.8818 589.389C62.7868 590.118 62.0967 590.843 62.0626 591.353C62.002 592.15 61.0137 592.279 59.7908 591.625C58.8855 591.166 46.5983 585.471 43.7539 584.212C42.0305 583.438 37.2389 581.061 36.6108 580.649C36.3195 580.439 36.0834 580.203 36.1033 580.072C36.097 579.955 36.8864 579.673 37.8612 579.45C43.7885 578.047 49.6908 576.455 57.4165 574.172C62.2227 572.763 76.4982 568.828 83.5153 566.99C86.0291 566.323 89.0852 565.584 92.1874 564.906C94.8039 564.341 99.7782 563.167 100.839 562.884C105.645 561.611 114.675 559.599 121.104 558.384C122.422 558.138 123.774 557.858 124.125 557.748C124.47 557.657 125.509 557.433 126.423 557.259C127.35 557.11 129.011 556.775 130.142 556.558C132.67 556.054 135.76 555.484 135.847 555.492C135.865 555.493 135.86 555.582 135.833 555.664ZM133.614 560.131C132.587 561.13 125.482 567.184 123.96 568.385C123.568 568.686 121.579 570.278 119.558 571.904C114.19 576.238 108.762 580.552 105.969 582.741C101.69 586.096 99.6759 587.701 96.6058 590.252C88.6832 596.808 86.9039 598.173 81.7942 601.664C79.1517 603.47 77.7929 604.52 77.4545 605.066C76.7162 606.208 73.9525 610.016 73.6476 610.325C73.5128 610.462 72.3624 611.966 71.099 613.683C69.8401 615.38 68.7051 616.844 68.5837 616.94C68.4688 617.016 67.7114 617.945 66.9147 618.999C66.0968 620.046 65.0286 621.373 64.5414 621.962C63.6086 623.085 61.3438 625.991 59.1399 628.92C56.9148 631.841 56.0097 632.881 55.8262 632.751C55.7377 632.676 55.9075 631.484 56.2121 630.084C56.9973 626.551 58.0391 621.014 58.2771 619.208C58.7569 615.644 60.1599 608.477 62.0343 600.013C62.326 598.723 62.6018 597.204 62.6912 596.597C62.841 595.465 62.8063 595.499 64.0161 595.172C64.4416 595.041 64.4339 594.994 64.051 594.388C63.8348 594.022 63.4493 593.418 63.1992 593.018L62.7386 592.299L64.0845 591.495C66.3226 590.169 71.8242 587.399 74.0359 586.496C79.7286 584.175 91.2592 578.88 102.258 573.567C104.111 572.658 106.51 571.521 107.599 571.018C108.695 570.494 109.647 570.061 109.729 570.019C112.447 568.668 123.817 563.797 130.306 561.172C133.1 560.051 134.007 559.761 133.614 560.131ZM41.637 586.122C42.4069 586.512 44.7925 587.596 46.9022 588.564C49.0164 589.513 51.0112 590.422 51.3211 590.57C54.4766 592.044 55.7265 592.616 57.6732 593.465C58.909 594.009 60.0254 594.514 60.1326 594.596C60.2333 594.699 60.1316 595.549 59.9029 596.519C59.6601 597.461 59.252 599.439 58.9557 600.885C58.6787 602.337 58.3934 603.536 58.3325 603.585C58.2574 603.605 57.9469 603.253 57.6082 602.779C56.8923 601.746 54.425 599.275 51.3841 596.498C50.1607 595.367 48.4651 593.831 47.6138 593.073C46.7888 592.3 46.0741 591.678 46.0125 591.657C45.7276 591.563 39.0724 585.095 39.1199 584.951C39.1469 584.87 39.3894 584.95 39.6942 585.12C39.981 585.279 40.8459 585.724 41.637 586.122ZM85.7583 611.578C87.9148 612.541 90.1978 613.522 90.8465 613.736C91.4952 613.95 91.9745 614.199 91.9 614.289C91.8467 614.386 90.1562 615.347 88.2018 616.428C86.2289 617.501 82.9556 619.304 80.9146 620.447C78.8736 621.59 75.4039 623.509 73.2082 624.714C71.0106 625.917 66.9684 628.283 64.2104 629.961C61.4525 631.639 59.0995 633.041 58.9776 633.068C58.735 633.124 59.8777 631.707 61.7431 629.668C63.866 627.327 69.3218 620.954 71.3517 618.423C72.8115 616.59 76.2403 611.932 77.471 610.114C77.8774 609.498 78.364 608.911 78.5392 608.787C78.907 608.566 79.6301 608.827 85.7583 611.578Z" fill="#965EEB" stroke="#965EEB"/>
<path d="M15.3291 588.742C3.04949 591.555 -24.2078 598.194 -35 602.245" stroke="#965EEB" stroke-width="3" stroke-linecap="round"/>
<path d="M30.0596 602.245C21.973 605.314 4.02307 612.556 -3.084 616.976" stroke="#965EEB" stroke-width="3" stroke-linecap="round"/>
<path d="M111.077 545.778C126.89 541.914 163.182 532.509 159.409 549.125C156.449 562.16 149.592 581.329 145.449 588.742" stroke="#965EEB" stroke-width="3" stroke-linecap="round"/>
<path d="M283.565 621.919C283.565 621.919 283.233 621.835 282.902 621.835C281.907 622.002 281.575 621.417 281.326 620.496C280.663 617.986 279.917 615.56 278.839 613.134C277.844 610.875 276.352 608.95 274.445 607.361C273.367 606.44 272.289 605.52 271.211 604.516C270.382 603.763 269.636 603.094 268.558 602.926C266.9 602.759 267.563 601.253 267.148 600.416C266.734 599.496 267.729 599.329 268.226 599.078C268.724 598.827 269.221 598.576 269.719 598.576C271.626 598.576 273.284 597.739 274.693 596.484C276.766 594.56 278.259 592.301 279.337 589.623C280.249 587.281 281.078 585.022 281.243 582.512C281.326 581.759 281.658 580.922 282.487 581.006C283.399 581.089 284.56 581.006 285.057 582.177C285.389 583.097 285.638 584.101 285.887 585.022C286.716 588.201 287.13 591.38 288.042 594.56C288.374 595.731 288.954 596.819 289.535 597.823C290.695 599.914 293.017 600.918 295.421 600.333C296.416 600.082 297.245 600.416 298.075 600.918C299.318 601.755 299.401 602.508 298.157 603.345C296.499 604.432 294.841 605.436 293.017 606.357C288.623 608.532 285.969 611.795 285.887 616.899C285.887 618.154 285.555 619.409 285.306 620.664C285.14 621.5 284.892 622.253 283.565 621.919ZM272.372 601.337C276.517 604.683 280.166 607.779 282.653 612.297C284.311 607.863 287.628 605.353 291.939 603.177C289.452 602.843 288.208 601.42 286.799 600.165C286.135 599.58 285.555 598.743 285.306 597.823C284.726 595.982 283.897 594.225 283.648 592.301C283.565 591.882 283.648 591.38 282.902 591.129C282.238 592.217 281.575 593.388 280.912 594.56C279.005 597.739 276.766 600.5 272.372 601.337Z" fill="#965EEB"/>
<path d="M318.949 634.541C318.826 634.848 318.704 635.093 318.642 635.399C318.52 635.522 318.397 635.583 318.397 635.706C318.336 636.318 318.52 637.176 317.845 637.299C317.171 637.422 316.987 638.157 316.374 638.096C316.19 636.809 315.699 635.583 315.331 634.296C314.964 633.07 314.289 632.335 312.879 632.151C311.591 631.967 310.426 631.477 309.445 630.497C308.955 630.006 309.016 629.577 309.629 629.271C310.794 628.719 311.898 628.045 313.185 627.678C314.35 627.371 314.902 626.391 315.025 625.226C315.209 623.878 315.761 622.714 316.129 621.427C316.251 621.059 316.374 620.691 316.742 620.446C316.926 620.324 317.048 620.201 317.294 620.262C318.152 620.385 319.01 621.427 318.949 622.285C318.888 623.51 319.133 624.675 319.44 625.839C319.685 626.636 320.114 626.942 320.788 627.126C322.076 627.494 323.364 627.861 324.651 628.474C325.326 628.842 325.326 629.21 325.081 629.761C324.897 630.19 324.529 630.558 324.161 630.68C323.241 630.926 322.567 631.6 321.647 631.784C320.788 631.967 320.175 632.458 319.746 633.254C319.317 633.316 319.072 633.561 318.826 633.867C318.581 634.235 318.642 634.419 318.949 634.541Z" fill="#965EEB"/>
<path d="M316.251 638.034C316.925 638.095 317.109 637.36 317.723 637.237C318.458 637.115 318.274 636.257 318.274 635.644C318.274 635.521 318.458 635.46 318.52 635.337C318.826 636.195 318.704 637.053 318.397 637.911C318.213 638.463 317.906 638.708 317.293 638.892C316.496 639.076 316.312 638.769 316.251 638.034Z" fill="#965EEB"/>
<path d="M318.949 634.541C318.642 634.418 318.581 634.234 318.765 633.989C318.949 633.683 319.255 633.376 319.684 633.376C319.684 633.867 319.194 634.173 318.949 634.541Z" fill="#965EEB"/>
</g>
<defs>
<clipPath id="clip0_2048_1617">
<rect width="375" height="667" fill="white"/>
</clipPath>
</defs>
</svg>
