<svg width="375" height="866" viewBox="0 0 375 866" fill="none" xmlns="http://www.w3.org/2000/svg">
<g clip-path="url(#clip0_2012_1505)">
<path d="M71.7859 18.4861C27.5607 18.4861 12.6828 25.1486 11.3858 36.9362C-1.9228 157.887 13.945 340.85 11.3857 356.738C8.82634 372.625 11.3857 552.59 11.3857 602.303C11.3857 652.015 29.9538 656.739 58.1064 655.201C86.2591 653.664 300.859 658.789 333.106 655.201C365.354 651.614 371.734 597.303 369.606 557.303C368.004 527.183 363.606 356.892 363.606 319.303C363.606 267.803 371.675 64.1427 365.606 40.3028C358.606 12.8027 127.068 18.4861 71.7859 18.4861Z" fill="white"/>
<path d="M291.26 632.027C291.346 632.631 291.397 633.056 291.476 633.467C292.072 636.898 292.681 640.325 293.254 643.762C293.391 644.602 293.446 645.465 293.443 646.323C293.442 647.796 293.129 649.158 291.655 650.065C291.475 650 291.195 649.937 290.962 649.793C288.204 648.099 285.49 646.311 282.676 644.713C276.419 641.153 270.111 637.682 263.811 634.197C262.141 633.27 260.406 632.475 258.737 631.548C256.767 630.458 256.258 629.304 256.956 627.156C257.499 625.483 258.192 623.857 258.945 622.265C262.319 615.149 266.024 608.214 269.96 601.393C270.676 600.156 271.332 598.884 272.033 597.638C272.269 597.23 272.502 596.792 272.819 596.451C273.492 595.713 274.516 595.653 275.233 596.345C275.643 596.73 275.958 597.229 276.267 597.704C277.926 600.255 279.305 602.982 281.319 605.313C282.046 606.159 282.43 607.291 282.987 608.345C283.233 608.329 283.52 608.346 283.792 608.286C289.943 607.038 295.314 604.351 299.53 599.61C301.93 596.914 303.382 593.72 304.275 590.261C305.811 584.306 305.492 578.446 303.206 572.723C303.132 572.542 303.062 572.373 303 572.189C302.243 570.08 302.729 569.016 304.847 568.382C311.195 566.467 317.529 564.543 323.904 562.703C325.59 562.215 327.352 561.939 329.102 561.735C331.616 561.439 333.401 562.422 334.375 564.755C339.347 576.59 340.45 588.65 335.949 600.859C333.317 607.99 328.728 613.839 322.907 618.67C317.285 623.329 310.997 626.9 304.139 629.44C301.122 630.553 297.994 631.156 294.81 631.549C293.682 631.688 292.548 631.853 291.256 632.035L291.26 632.027ZM291.152 647.737C291.432 646.604 291.168 645.64 290.962 644.681C290.148 640.857 289.326 637.03 288.512 633.206C288.418 632.787 288.337 632.364 288.286 631.939C288.126 630.472 288.602 629.768 290.03 629.487C291.292 629.237 292.561 628.993 293.835 628.859C298.477 628.39 302.924 627.215 307.187 625.299C311.859 623.206 316.289 620.676 320.295 617.475C325.951 612.964 330.376 607.416 332.974 600.651C337.43 589.049 336.382 577.545 331.747 566.222C331.153 564.77 330.643 564.455 329.079 564.698C327.34 564.968 325.598 565.295 323.909 565.772C318.453 567.323 313.019 568.956 307.571 570.561C306.997 570.733 306.425 570.936 305.935 571.098C305.907 571.319 305.888 571.367 305.905 571.407C305.955 571.594 306.002 571.769 306.075 571.95C308.385 577.855 308.796 583.897 307.393 590.067C305.624 597.844 301.356 603.752 294.322 607.604C290.95 609.45 287.452 610.917 283.609 611.424C281.49 611.701 280.509 611.124 279.74 609.137C279.547 608.649 279.433 608.128 279.224 607.652C279.016 607.175 278.779 606.712 278.495 606.28C277.497 604.774 276.472 603.281 275.47 601.782C275.055 601.166 274.684 600.526 274.236 599.812C273.994 600.146 273.87 600.292 273.775 600.455C270.254 606.953 266.704 613.433 263.25 619.969C261.959 622.406 260.86 624.955 259.758 627.492C259.21 628.747 259.318 628.8 260.536 629.464C264.927 631.856 269.369 634.178 273.695 636.7C278.469 639.491 283.139 642.46 287.829 645.38C288.948 646.077 289.979 646.91 291.148 647.745L291.152 647.737Z" fill="#965EEB" stroke="#965EEB" stroke-width="2"/>
<path d="M356.234 125.46C374.036 128.903 382.717 146.257 389.523 161.207C390.228 162.757 388.32 163.861 387.047 163.352C378.332 159.88 369.616 156.405 360.902 152.932C361.563 151.966 362.223 151.002 362.884 150.037C376.966 163.088 382.514 181.888 387.517 199.802C387.81 200.85 387.16 202.107 385.963 202.136C382.035 202.231 378.977 200.041 375.958 197.785C372.638 195.303 369.386 192.736 366.181 190.108C359.767 184.853 353.542 179.37 347.32 173.891C348.108 173.012 348.894 172.133 349.681 171.256C352.83 174.267 353.713 179.063 355.362 182.933C357.736 188.505 360.76 193.846 363.264 199.371C363.868 200.707 362.428 201.811 361.236 201.673C349.161 200.284 336.217 198.578 326.664 190.321C318.483 183.248 315.221 172.525 313.721 162.169C313.394 159.913 316.926 159.69 317.25 161.929C318.649 171.593 321.715 181.656 329.512 188.096C338.537 195.551 350.743 196.918 361.941 198.206C361.266 198.974 360.589 199.741 359.913 200.508C357.516 195.218 354.814 190.084 352.351 184.831C350.744 181.407 350.136 176.583 347.32 173.891C345.679 172.323 347.963 169.744 349.681 171.256C355.369 176.268 361.06 181.28 366.896 186.118C369.812 188.536 372.765 190.913 375.771 193.221C378.593 195.389 381.928 198.698 385.723 198.606C385.204 199.385 384.685 200.162 384.168 200.939C379.341 183.649 374.132 165.28 360.526 152.67C358.993 151.249 360.693 149.052 362.508 149.775C371.223 153.248 379.939 156.723 388.653 160.195C387.828 160.91 387.002 161.626 386.177 162.341C379.917 148.593 371.959 132.1 355.53 128.921C353.292 128.493 353.997 125.028 356.234 125.46Z" fill="#965EEB"/>
<path d="M347.32 173.891C353.542 179.37 359.767 184.853 366.181 190.108C369.386 192.736 372.638 195.303 375.958 197.785C378.977 200.041 382.035 202.231 385.963 202.136C387.16 202.107 387.81 200.85 387.517 199.802C382.514 181.888 376.966 163.088 362.884 150.037C362.223 151.002 361.563 151.966 360.902 152.932C369.616 156.405 378.332 159.88 387.047 163.352C388.32 163.861 390.228 162.757 389.523 161.207C382.717 146.257 374.036 128.903 356.234 125.46C353.997 125.028 353.292 128.493 355.53 128.921C371.959 132.1 379.917 148.593 386.177 162.341C387.002 161.626 387.828 160.91 388.653 160.195C379.939 156.723 371.223 153.248 362.508 149.775C360.693 149.052 358.993 151.249 360.526 152.67C374.132 165.28 379.341 183.649 384.168 200.939C384.685 200.162 385.204 199.385 385.723 198.606C381.928 198.698 378.593 195.389 375.771 193.221C372.765 190.913 369.812 188.536 366.896 186.118C361.06 181.28 355.369 176.268 349.681 171.256M347.32 173.891C348.108 173.012 348.894 172.133 349.681 171.256M347.32 173.891C350.136 176.583 350.744 181.407 352.351 184.831C354.814 190.084 357.516 195.218 359.913 200.508C360.589 199.741 361.266 198.974 361.941 198.206C350.743 196.918 338.537 195.551 329.512 188.096C321.715 181.656 318.649 171.593 317.25 161.929C316.926 159.69 313.394 159.913 313.721 162.169C315.221 172.525 318.483 183.248 326.664 190.321C336.217 198.578 349.161 200.284 361.236 201.673C362.428 201.811 363.868 200.707 363.264 199.371C360.76 193.846 357.736 188.505 355.362 182.933C353.713 179.063 352.83 174.267 349.681 171.256M347.32 173.891C345.679 172.323 347.963 169.744 349.681 171.256" stroke="#965EEB"/>
<path d="M249.428 27.9438C271.169 28.1792 292.601 34.9569 310.514 47.2884C327.694 59.1143 340.279 76.0589 348.818 94.9467C353.531 105.37 356.963 116.425 358.481 127.777C358.783 130.038 355.252 130.263 354.952 128.017C352.344 108.525 343.99 89.5368 332.485 73.6792C320.494 57.1528 303.752 44.8772 284.598 37.8585C273.436 33.7683 261.55 31.6034 249.665 31.4751C247.402 31.4487 247.15 27.9185 249.428 27.9438Z" fill="#965EEB" stroke="#965EEB"/>
<path d="M289.812 39.0925C283.683 57.3349 268.101 71.787 249.289 76.1429C247.088 76.6519 245.933 73.3078 248.15 72.7938C265.655 68.7389 280.601 55.4793 286.345 38.3851C287.06 36.2547 290.537 36.9355 289.812 39.0925Z" fill="#965EEB" stroke="#965EEB"/>
<path d="M296.149 41.3628C291.267 62.9579 273.287 80.2977 251.627 84.6359C249.398 85.0822 249.185 81.5479 251.387 81.1062C271.451 77.0894 288.183 60.5648 292.683 40.6555C293.184 38.4386 296.652 39.1381 296.149 41.3628Z" fill="#965EEB" stroke="#965EEB"/>
<path d="M322.278 110.446C320.175 114.913 316.73 118.257 311.924 119.614C307.79 120.782 303.336 120.878 299.172 119.79C290.816 117.609 283.906 110.849 282.648 102.136C281.438 93.7514 285.629 84.7645 292.171 79.5936C299.525 73.7807 309.621 74.6729 316.725 80.4454C325.406 87.502 326.577 100.643 322.278 110.446C321.365 112.53 318.211 110.926 319.125 108.842C322.313 101.573 322.083 91.4948 316.687 85.2938C311.752 79.622 303.103 77.0862 296.353 81.0206C290.295 84.5528 286.197 91.7524 286 98.7408C285.792 106.073 290.461 112.48 297.073 115.359C300.765 116.966 304.951 117.399 308.908 116.701C313.711 115.854 317.051 113.251 319.127 108.843C320.094 106.784 323.25 108.384 322.278 110.446Z" fill="#965EEB"/>
<path d="M322.278 110.446C320.175 114.913 316.73 118.257 311.924 119.614C307.79 120.782 303.336 120.878 299.172 119.79C290.816 117.609 283.906 110.849 282.648 102.136C281.438 93.7514 285.629 84.7645 292.171 79.5936C299.525 73.7807 309.621 74.6729 316.725 80.4454C325.406 87.502 326.577 100.643 322.278 110.446ZM322.278 110.446C321.365 112.53 318.211 110.926 319.125 108.842C322.313 101.573 322.083 91.4948 316.687 85.2938C311.752 79.622 303.103 77.0862 296.353 81.0206C290.295 84.5528 286.197 91.7524 286 98.7408C285.792 106.073 290.461 112.48 297.073 115.359C300.765 116.966 304.951 117.399 308.908 116.701C313.711 115.854 317.051 113.251 319.127 108.843C320.094 106.784 323.25 108.384 322.278 110.446Z" stroke="#965EEB"/>
<path d="M316.959 106.844C315.454 110.04 312.955 112.456 309.516 113.428C306.581 114.257 303.41 114.341 300.451 113.568C294.448 112.001 289.54 107.165 288.637 100.912C287.774 94.9406 290.788 88.5757 295.438 84.8985C300.697 80.7413 307.942 81.4141 313.011 85.5345C319.185 90.5477 320.014 99.8773 316.959 106.844C316.045 108.928 312.892 107.324 313.805 105.24C315.898 100.468 315.771 93.7833 312.25 89.692C309.047 85.9686 303.35 84.2202 298.923 86.7998C294.918 89.1336 292.192 93.8789 292.042 98.5008C291.885 103.368 294.985 107.578 299.364 109.487C301.811 110.552 304.604 110.825 307.223 110.352C310.344 109.789 312.456 108.102 313.803 105.242C314.775 103.182 317.929 104.782 316.959 106.844Z" fill="#965EEB"/>
<path d="M316.959 106.844C315.454 110.04 312.955 112.456 309.516 113.428C306.581 114.257 303.41 114.341 300.451 113.568C294.448 112.001 289.54 107.165 288.637 100.912C287.774 94.9406 290.788 88.5757 295.438 84.8985C300.697 80.7413 307.942 81.4141 313.011 85.5345C319.185 90.5477 320.014 99.8773 316.959 106.844ZM316.959 106.844C316.045 108.928 312.892 107.324 313.805 105.24C315.898 100.468 315.771 93.7833 312.25 89.692C309.047 85.9686 303.35 84.2202 298.923 86.7998C294.918 89.1336 292.192 93.8789 292.042 98.5008C291.885 103.368 294.985 107.578 299.364 109.487C301.811 110.552 304.604 110.825 307.223 110.352C310.344 109.789 312.456 108.102 313.803 105.242C314.775 103.182 317.929 104.782 316.959 106.844Z" stroke="#965EEB"/>
<path d="M250.918 31.6045C246.945 51.7923 248.519 72.9144 255.429 92.2977C262.154 111.161 274.202 127.721 288.877 141.223C297.021 148.717 306.046 155.305 315.991 160.205C318.032 161.209 316.435 164.366 314.387 163.358C296.124 154.359 280.385 139.922 268.321 123.643C255.931 106.927 248.205 87.2636 245.927 66.5715C244.619 54.6904 245.144 42.6222 247.452 30.8952C247.893 28.664 251.358 29.369 250.918 31.6045Z" fill="#965EEB" stroke="#965EEB"/>
<path d="M358.3 128.161C344.881 140.589 330.816 152.309 316.167 163.257C315.517 162.274 314.865 161.291 314.216 160.306C314.606 160.081 314.995 159.855 315.386 159.627C317.349 158.488 319.31 161.433 317.337 162.579C316.947 162.804 316.557 163.032 316.167 163.257C314.194 164.401 312.387 161.672 314.216 160.306C328.627 149.537 342.464 138.025 355.665 125.801C357.319 124.269 359.973 126.611 358.3 128.161Z" fill="#965EEB"/>
<path d="M316.167 163.257C330.816 152.309 344.881 140.589 358.3 128.161C359.973 126.611 357.319 124.269 355.665 125.801C342.464 138.025 328.627 149.537 314.216 160.306M316.167 163.257C315.517 162.274 314.865 161.291 314.216 160.306M316.167 163.257C316.557 163.032 316.947 162.804 317.337 162.579C319.31 161.433 317.349 158.488 315.386 159.627C314.995 159.855 314.606 160.081 314.216 160.306M316.167 163.257C314.194 164.401 312.387 161.672 314.216 160.306" stroke="#965EEB"/>
<path d="M259.034 104.4C254.106 117.984 256.473 133.643 264.956 145.29C264.043 145.598 263.129 145.908 262.218 146.216C262.318 138.565 264.368 131.141 268.318 124.576C269.303 122.938 271.979 124.278 270.983 125.932C267.314 132.029 265.295 138.89 265.201 146.013C265.181 147.496 263.375 148.191 262.461 146.939C253.299 134.363 251.075 117.634 256.367 103.046C257.022 101.243 259.685 102.608 259.034 104.4Z" fill="#965EEB" stroke="#965EEB"/>
<path d="M316.805 51.0884C332.33 51.1863 347.221 59.154 355.831 72.0915C356.737 73.4523 355.216 74.7145 353.905 74.2497C347.2 71.8683 340.033 71.4211 333.059 72.7465C331.171 73.1059 330.99 70.117 332.856 69.7634C340.395 68.3315 348.043 69.0215 355.261 71.5846C354.62 72.3042 353.979 73.0237 353.335 73.7428C345.342 61.7306 331.452 54.1644 317.006 54.0731C315.092 54.0609 314.881 51.0762 316.805 51.0884Z" fill="#965EEB" stroke="#965EEB"/>
<path d="M124.114 82.3807C124.114 82.3807 123.767 82.2894 123.418 82.2852C122.372 82.4463 122.032 81.8332 121.782 80.8734C121.118 78.2557 120.366 75.724 119.266 73.188C118.251 70.827 116.709 68.8074 114.728 67.1304C113.608 66.1598 112.489 65.1892 111.371 64.1317C110.51 63.3382 109.735 62.6329 108.606 62.445C106.868 62.2497 107.584 60.6928 107.159 59.8178C106.736 58.8558 107.782 58.6946 108.307 58.4401C108.833 58.1856 109.358 57.9312 109.88 57.9376C111.882 57.9622 113.633 57.1139 115.128 55.8275C117.328 53.854 118.923 51.525 120.088 48.7559C121.076 46.3326 121.975 43.9951 122.181 41.3881C122.277 40.6065 122.636 39.7411 123.505 39.8387C124.461 39.9375 125.681 39.8655 126.188 41.0895C126.524 42.0504 126.772 43.0972 127.021 44.0571C127.851 47.3727 128.245 50.6829 129.162 53.9995C129.495 55.2213 130.09 56.3594 130.687 57.4105C131.878 59.5997 134.302 60.6733 136.833 60.0955C137.88 59.8475 138.746 60.206 139.61 60.7386C140.904 61.6243 140.982 62.4081 139.666 63.2618C137.911 64.371 136.158 65.3932 134.232 66.3263C129.593 68.5308 126.766 71.8884 126.614 77.1925C126.598 78.4971 126.234 79.7973 125.957 81.0986C125.772 81.9662 125.501 82.7457 124.114 82.3807ZM112.629 60.8418C116.937 64.3741 120.727 67.639 123.279 72.3675C125.076 67.7795 128.589 65.2132 133.142 63.0076C130.535 62.6276 129.248 61.1331 127.785 59.8104C127.096 59.193 126.498 58.3158 126.249 57.3559C125.663 55.4351 124.815 53.5981 124.579 51.5946C124.497 51.1587 124.591 50.6379 123.811 50.3674C123.101 51.4894 122.39 52.6985 121.679 53.9075C119.637 57.1877 117.252 60.0288 112.629 60.8418Z" fill="#965EEB"/>
<path d="M176.346 44.0042C176.189 44.385 176.032 44.6892 175.95 45.071C175.795 45.2221 175.641 45.2968 175.639 45.4499C175.553 46.2143 175.77 47.2887 174.926 47.4314C174.082 47.5741 173.84 48.4897 173.076 48.4037C172.866 46.7937 172.272 45.2554 171.832 43.6425C171.392 42.1062 170.56 41.1774 168.802 40.9261C167.197 40.6767 165.749 40.0465 164.539 38.8069C163.934 38.187 164.017 37.6522 164.788 37.279C166.251 36.608 167.64 35.7831 169.254 35.3436C170.713 34.9789 171.417 33.7627 171.589 32.3104C171.839 30.6295 172.546 29.1838 173.025 27.5822C173.184 27.1249 173.343 26.6675 173.806 26.367C174.038 26.2168 174.193 26.0656 174.498 26.1459C175.568 26.3121 176.624 27.6264 176.535 28.697C176.439 30.2268 176.728 31.6847 177.093 33.1436C177.387 34.1423 177.918 34.5316 178.758 34.7715C180.36 35.2505 181.963 35.7296 183.561 36.5147C184.398 36.9843 184.392 37.4435 184.078 38.1285C183.841 38.6614 183.376 39.115 182.915 39.2624C181.762 39.5545 180.91 40.386 179.758 40.6015C178.683 40.818 177.91 41.4208 177.362 42.4091C176.825 42.4791 176.515 42.7815 176.204 43.1604C175.892 43.6158 175.965 43.8465 176.346 44.0042Z" fill="#965EEB"/>
<path d="M172.923 48.3251C173.765 48.412 174.006 47.4964 174.774 47.3527C175.694 47.2109 175.478 46.1366 175.487 45.3713C175.489 45.2182 175.72 45.1445 175.798 44.9923C176.168 46.0686 176.002 47.1382 175.606 48.205C175.367 48.891 174.981 49.1925 174.212 49.4127C173.214 49.63 172.989 49.2445 172.923 48.3251Z" fill="#965EEB"/>
<path d="M176.346 44.0038C175.965 43.846 175.891 43.6154 176.125 43.3121C176.359 42.9323 176.747 42.5543 177.283 42.5609C177.275 43.1732 176.658 43.5483 176.346 44.0038Z" fill="#965EEB"/>
<path d="M208.39 62.2173C211.521 60.8604 212.3 57.7364 213.751 55.0722C214.329 55.4769 214.74 55.8456 215.115 56.3816C215.958 57.5086 216.911 58.4493 218.307 58.9601C219.517 59.3608 219.724 59.8607 219.025 60.8306C217.754 62.6581 217.005 64.668 216.275 66.752C215.91 67.794 215.391 67.9273 214.792 67.1328C213.199 64.9338 211.202 63.3131 208.56 62.5689C208.541 62.4948 208.503 62.3465 208.39 62.2173Z" fill="#965EEB"/>
<mask id="path-22-outside-1_2012_1505" maskUnits="userSpaceOnUse" x="11.0541" y="533.735" width="98.4328" height="143.264" fill="black">
<rect fill="white" x="11.0541" y="533.735" width="98.4328" height="143.264"/>
<path d="M74.353 595.873C75.2717 596.263 75.7847 596.586 76.3435 596.69C80.441 597.48 82.3533 602.743 81.5354 605.768C81.1036 607.349 81.463 608.298 82.5756 609.429C84.6188 611.533 85.519 614.208 85.3138 617.135C85.0121 621.588 83.3242 625.441 79.8115 628.311C78.7303 629.192 78.3653 630.119 78.2938 631.489C78.1253 635.09 77.1083 638.463 74.6306 641.21C72.3062 643.787 69.8867 646.277 66.8344 648.017C65.6955 648.658 65.2768 649.374 65.5945 650.694C66.2917 653.605 65.3828 656.407 64.6768 659.18C64.0829 661.535 63.2449 663.836 62.4234 666.128C60.8136 670.573 58.2508 671.055 54.9561 670.547C45.962 669.17 38.133 665.339 31.0921 659.728C27.8984 657.184 27.0399 653.971 28.434 650.047C29.7493 646.36 31.1101 642.702 33.0709 639.313C33.6885 638.25 33.6768 637.335 33.3259 636.196C32.4589 633.381 31.6291 630.577 30.2321 627.944C29.6989 626.937 29.493 625.695 29.4235 624.54C29.1581 620.131 28.8967 615.71 28.8424 611.289C28.8039 607.77 29.5932 604.376 31.6488 601.447C34.4173 597.5 38.2149 595.43 43.1203 595.496C46.2249 595.54 46.3698 595.519 46.6455 592.464C47.1426 586.971 47.47 581.45 47.8471 575.944C48.2911 569.536 49.1118 563.199 50.6485 556.95C51.0016 555.522 51.5822 554.157 52.0511 552.754C52.7316 550.8 54.0326 549.303 55.5984 548.046C58.9122 545.399 62.8275 546.404 64.418 550.359C65.7978 553.829 66.4074 557.497 66.1353 561.202C65.8673 564.935 65.2351 568.644 64.8181 572.369C64.6346 574.074 63.8839 575.742 64.474 578.023C65.1331 576.919 65.6139 576.224 65.9788 575.462C69.155 568.974 72.4016 562.523 76.4963 556.549C77.9511 554.426 79.6416 552.466 81.39 550.579C82.3802 549.516 83.6146 548.632 84.8984 547.929C89.5037 545.383 93.8476 548.574 94.3617 552.693C94.5509 554.192 94.4627 555.818 94.1013 557.271C92.2863 564.642 89.0312 571.408 85.0975 577.85C82.1047 582.757 79.0458 587.614 76.0406 592.517C75.4354 593.502 74.9792 594.578 74.3489 595.844L74.353 595.873ZM64.7905 611.269C62.9033 610.638 61.1693 610.086 59.4395 609.48C57.6641 608.845 56.4646 607.602 55.8617 605.814C55.4405 604.555 55.0649 603.284 54.7016 602.017C54.4581 601.176 54.0073 600.625 53.1673 600.289C49.5546 598.875 45.8296 598.044 41.9507 598.169C37.8649 598.294 34.7752 600.229 32.8059 603.808C31.3384 606.464 31.0172 609.407 31.1141 612.379C31.2272 615.84 31.4397 619.293 31.6935 622.745C31.7918 624.062 31.8858 625.474 32.423 626.633C33.6586 629.296 34.8611 631.934 35.8647 634.712C36.5238 636.531 37.5098 638.082 38.7524 639.374C40.4609 641.152 42.6545 642.442 45.151 643.268C49.335 644.666 53.6434 645.734 57.898 646.921C58.8954 647.199 59.901 647.453 60.9234 647.574C61.5443 647.657 62.2894 647.658 62.8112 647.376C66.613 645.335 69.9351 642.663 72.732 639.374C74.3024 637.525 75.037 635.286 75.6019 632.977C75.6766 632.671 75.5114 632.298 75.4084 631.698C74.5967 632.02 73.9465 632.313 73.2799 632.532C70.4891 633.449 67.7271 634.527 64.8661 635.199C61.6284 635.967 58.2931 634.507 57.0201 631.997C55.896 629.786 54.8464 627.517 53.9376 625.198C52.5372 621.624 50.2461 618.857 46.9733 616.88C46.481 616.577 45.8768 616.279 45.6081 615.802C45.3105 615.289 45.1249 614.523 45.2991 614.001C45.4361 613.592 46.165 613.187 46.6659 613.133C47.4566 613.039 48.2761 613.23 49.075 613.317C52.9534 613.73 56.8152 614.276 60.7021 614.498C63.0988 614.637 63.9481 613.747 64.778 611.264L64.7905 611.269ZM58.6542 592.751C58.7791 591.924 58.8084 591.505 58.9039 591.096C59.6268 587.859 60.4905 584.656 61.0437 581.39C61.963 575.873 62.7251 570.331 63.4458 564.788C64.029 560.277 63.7181 555.797 62.132 551.499C61.0829 548.65 58.8686 548.131 56.5737 550.083C54.5853 551.779 53.4493 554.021 52.9836 556.53C52.2684 560.362 51.723 564.224 51.1486 568.09C49.8998 576.534 50.5137 585.144 48.8469 593.559C48.3995 595.844 48.5747 595.897 50.8693 596.596C50.8773 596.598 50.8854 596.601 50.8935 596.603C55.3424 597.952 59.7623 599.388 63.6638 602.045C63.8872 602.202 64.1976 602.223 64.3466 602.273C65.7511 600.879 66.87 599.348 68.3776 598.389C69.9597 597.372 70.975 596.069 71.7462 594.463C72.0655 593.797 72.4055 593.152 72.7952 592.523C76.1403 587.057 79.506 581.612 82.8511 576.147C86.0511 570.909 88.6098 565.359 90.8043 559.661C91.4763 557.898 91.7139 555.949 91.9679 554.074C92.1887 552.422 91.544 551.006 90.0296 550.168C88.4946 549.31 87.033 549.719 85.6703 550.657C85.6624 550.663 85.6544 550.668 85.6465 550.673C85.2273 550.954 84.794 551.243 84.4525 551.617C82.9485 553.226 81.3286 554.769 80.0108 556.523C75.672 562.319 72.3758 568.753 69.0589 575.167C66.65 579.813 64.386 584.522 61.9812 589.157C61.2888 590.485 60.5798 591.904 58.679 592.801L58.6542 592.751ZM35.2306 640.697C34.8286 641.281 34.3936 641.715 34.2027 642.245C32.9954 645.568 31.7798 648.874 30.6966 652.239C30.265 653.572 30.7441 654.905 31.7368 655.899C32.7171 656.889 33.7346 657.892 34.893 658.638C41.0826 662.584 47.5626 665.785 54.9882 666.694C57.6828 667.014 58.3371 666.75 59.2417 664.126C60.0342 661.838 60.7812 659.52 61.4661 657.182C61.8231 655.99 62.0435 654.753 62.235 653.519C62.5097 651.665 62.1623 651.217 60.2667 650.818C59.1823 650.594 58.1062 650.386 57.0343 650.125C55.176 649.655 53.3302 649.19 51.4926 648.659C45.9014 647.052 40.1816 645.706 36.0333 641.145C35.9051 640.992 35.6609 640.938 35.2264 640.71L35.2306 640.697ZM65.8979 603.578C66.4518 604.481 66.6998 605.019 67.0637 605.458C68.2381 606.9 68.3486 608.552 67.9953 610.269C67.7834 611.275 67.4431 612.252 67.0781 613.22C65.9788 616.055 63.9284 617.647 60.8527 617.599C58.8078 617.564 56.7589 617.293 54.7099 617.147C54.1967 617.113 53.6667 617.171 52.8678 617.207C53.922 618.885 54.7198 620.297 55.6584 621.577C56.0099 622.053 56.6968 622.393 57.301 622.568C60.1277 623.402 62.8807 623.177 65.3286 621.469C67.0061 620.291 68.6092 618.963 70.1088 617.573C73.2655 614.653 75.839 611.249 78.0111 607.558C79.4537 605.1 79.1043 602.181 77.3257 600.4C75.725 598.788 73.0055 598.542 70.5785 600.022C68.9798 601.006 67.5672 602.3 65.9061 603.595L65.8979 603.578ZM56.6079 624.724C57.4843 626.273 58.1996 627.271 58.6458 628.372C60.0132 631.756 61.6062 632.73 65.1337 631.921C69.6467 630.89 73.8167 629.109 77.4495 626.169C80.5314 623.679 81.9747 620.352 82.0896 616.54C82.1323 614.926 81.4465 613.261 80.9593 611.663C80.8107 611.199 80.2479 610.859 79.6854 610.271C78.9975 611.173 78.4423 611.843 77.945 612.546C75.0481 616.588 71.6508 620.145 67.6909 623.156C65.305 624.967 62.6384 625.884 59.621 625.496C58.7724 625.392 57.9654 625.081 56.6079 624.724ZM65.3552 609.166C66.0804 608.111 65.7707 607.262 64.9805 606.736C62.796 605.26 60.5493 603.888 58.3068 602.504C58.0875 602.375 57.748 602.441 57.4665 602.416C57.2443 605.848 60.1441 608.322 65.3552 609.166Z"/>
<path d="M58.6542 592.751C58.7791 591.924 58.8084 591.505 58.9039 591.096C59.6268 587.859 60.4905 584.656 61.0437 581.39C61.963 575.873 62.7251 570.331 63.4458 564.788C64.029 560.277 63.7181 555.797 62.132 551.499C61.0829 548.65 58.8686 548.131 56.5737 550.083C54.5853 551.779 53.4493 554.021 52.9836 556.53C52.2684 560.362 51.723 564.224 51.1486 568.09C49.8998 576.534 50.5137 585.144 48.8469 593.559C48.3995 595.844 48.5747 595.897 50.8693 596.596L50.8935 596.603C55.3424 597.952 59.7623 599.388 63.6638 602.045C63.8872 602.202 64.1976 602.223 64.3466 602.273C65.7511 600.879 66.87 599.348 68.3776 598.389C69.9597 597.372 70.975 596.069 71.7462 594.463C72.0655 593.797 72.4055 593.152 72.7952 592.523C76.1403 587.057 79.506 581.612 82.8511 576.147C86.0511 570.909 88.6098 565.359 90.8043 559.661C91.4763 557.898 91.7139 555.949 91.9679 554.074C92.1887 552.422 91.544 551.006 90.0296 550.168C88.4946 549.31 87.033 549.719 85.6703 550.657L85.6465 550.673C85.2273 550.954 84.794 551.243 84.4525 551.617C82.9485 553.226 81.3286 554.769 80.0108 556.523C75.672 562.319 72.3758 568.753 69.0589 575.167C66.65 579.813 64.386 584.522 61.9812 589.157C61.2888 590.485 60.5798 591.904 58.679 592.801L58.6542 592.751Z"/>
</mask>
<path d="M74.353 595.873C75.2717 596.263 75.7847 596.586 76.3435 596.69C80.441 597.48 82.3533 602.743 81.5354 605.768C81.1036 607.349 81.463 608.298 82.5756 609.429C84.6188 611.533 85.519 614.208 85.3138 617.135C85.0121 621.588 83.3242 625.441 79.8115 628.311C78.7303 629.192 78.3653 630.119 78.2938 631.489C78.1253 635.09 77.1083 638.463 74.6306 641.21C72.3062 643.787 69.8867 646.277 66.8344 648.017C65.6955 648.658 65.2768 649.374 65.5945 650.694C66.2917 653.605 65.3828 656.407 64.6768 659.18C64.0829 661.535 63.2449 663.836 62.4234 666.128C60.8136 670.573 58.2508 671.055 54.9561 670.547C45.962 669.17 38.133 665.339 31.0921 659.728C27.8984 657.184 27.0399 653.971 28.434 650.047C29.7493 646.36 31.1101 642.702 33.0709 639.313C33.6885 638.25 33.6768 637.335 33.3259 636.196C32.4589 633.381 31.6291 630.577 30.2321 627.944C29.6989 626.937 29.493 625.695 29.4235 624.54C29.1581 620.131 28.8967 615.71 28.8424 611.289C28.8039 607.77 29.5932 604.376 31.6488 601.447C34.4173 597.5 38.2149 595.43 43.1203 595.496C46.2249 595.54 46.3698 595.519 46.6455 592.464C47.1426 586.971 47.47 581.45 47.8471 575.944C48.2911 569.536 49.1118 563.199 50.6485 556.95C51.0016 555.522 51.5822 554.157 52.0511 552.754C52.7316 550.8 54.0326 549.303 55.5984 548.046C58.9122 545.399 62.8275 546.404 64.418 550.359C65.7978 553.829 66.4074 557.497 66.1353 561.202C65.8673 564.935 65.2351 568.644 64.8181 572.369C64.6346 574.074 63.8839 575.742 64.474 578.023C65.1331 576.919 65.6139 576.224 65.9788 575.462C69.155 568.974 72.4016 562.523 76.4963 556.549C77.9511 554.426 79.6416 552.466 81.39 550.579C82.3802 549.516 83.6146 548.632 84.8984 547.929C89.5037 545.383 93.8476 548.574 94.3617 552.693C94.5509 554.192 94.4627 555.818 94.1013 557.271C92.2863 564.642 89.0312 571.408 85.0975 577.85C82.1047 582.757 79.0458 587.614 76.0406 592.517C75.4354 593.502 74.9792 594.578 74.3489 595.844L74.353 595.873ZM64.7905 611.269C62.9033 610.638 61.1693 610.086 59.4395 609.48C57.6641 608.845 56.4646 607.602 55.8617 605.814C55.4405 604.555 55.0649 603.284 54.7016 602.017C54.4581 601.176 54.0073 600.625 53.1673 600.289C49.5546 598.875 45.8296 598.044 41.9507 598.169C37.8649 598.294 34.7752 600.229 32.8059 603.808C31.3384 606.464 31.0172 609.407 31.1141 612.379C31.2272 615.84 31.4397 619.293 31.6935 622.745C31.7918 624.062 31.8858 625.474 32.423 626.633C33.6586 629.296 34.8611 631.934 35.8647 634.712C36.5238 636.531 37.5098 638.082 38.7524 639.374C40.4609 641.152 42.6545 642.442 45.151 643.268C49.335 644.666 53.6434 645.734 57.898 646.921C58.8954 647.199 59.901 647.453 60.9234 647.574C61.5443 647.657 62.2894 647.658 62.8112 647.376C66.613 645.335 69.9351 642.663 72.732 639.374C74.3024 637.525 75.037 635.286 75.6019 632.977C75.6766 632.671 75.5114 632.298 75.4084 631.698C74.5967 632.02 73.9465 632.313 73.2799 632.532C70.4891 633.449 67.7271 634.527 64.8661 635.199C61.6284 635.967 58.2931 634.507 57.0201 631.997C55.896 629.786 54.8464 627.517 53.9376 625.198C52.5372 621.624 50.2461 618.857 46.9733 616.88C46.481 616.577 45.8768 616.279 45.6081 615.802C45.3105 615.289 45.1249 614.523 45.2991 614.001C45.4361 613.592 46.165 613.187 46.6659 613.133C47.4566 613.039 48.2761 613.23 49.075 613.317C52.9534 613.73 56.8152 614.276 60.7021 614.498C63.0988 614.637 63.9481 613.747 64.778 611.264L64.7905 611.269ZM58.6542 592.751C58.7791 591.924 58.8084 591.505 58.9039 591.096C59.6268 587.859 60.4905 584.656 61.0437 581.39C61.963 575.873 62.7251 570.331 63.4458 564.788C64.029 560.277 63.7181 555.797 62.132 551.499C61.0829 548.65 58.8686 548.131 56.5737 550.083C54.5853 551.779 53.4493 554.021 52.9836 556.53C52.2684 560.362 51.723 564.224 51.1486 568.09C49.8998 576.534 50.5137 585.144 48.8469 593.559C48.3995 595.844 48.5747 595.897 50.8693 596.596C50.8773 596.598 50.8854 596.601 50.8935 596.603C55.3424 597.952 59.7623 599.388 63.6638 602.045C63.8872 602.202 64.1976 602.223 64.3466 602.273C65.7511 600.879 66.87 599.348 68.3776 598.389C69.9597 597.372 70.975 596.069 71.7462 594.463C72.0655 593.797 72.4055 593.152 72.7952 592.523C76.1403 587.057 79.506 581.612 82.8511 576.147C86.0511 570.909 88.6098 565.359 90.8043 559.661C91.4763 557.898 91.7139 555.949 91.9679 554.074C92.1887 552.422 91.544 551.006 90.0296 550.168C88.4946 549.31 87.033 549.719 85.6703 550.657C85.6624 550.663 85.6544 550.668 85.6465 550.673C85.2273 550.954 84.794 551.243 84.4525 551.617C82.9485 553.226 81.3286 554.769 80.0108 556.523C75.672 562.319 72.3758 568.753 69.0589 575.167C66.65 579.813 64.386 584.522 61.9812 589.157C61.2888 590.485 60.5798 591.904 58.679 592.801L58.6542 592.751ZM35.2306 640.697C34.8286 641.281 34.3936 641.715 34.2027 642.245C32.9954 645.568 31.7798 648.874 30.6966 652.239C30.265 653.572 30.7441 654.905 31.7368 655.899C32.7171 656.889 33.7346 657.892 34.893 658.638C41.0826 662.584 47.5626 665.785 54.9882 666.694C57.6828 667.014 58.3371 666.75 59.2417 664.126C60.0342 661.838 60.7812 659.52 61.4661 657.182C61.8231 655.99 62.0435 654.753 62.235 653.519C62.5097 651.665 62.1623 651.217 60.2667 650.818C59.1823 650.594 58.1062 650.386 57.0343 650.125C55.176 649.655 53.3302 649.19 51.4926 648.659C45.9014 647.052 40.1816 645.706 36.0333 641.145C35.9051 640.992 35.6609 640.938 35.2264 640.71L35.2306 640.697ZM65.8979 603.578C66.4518 604.481 66.6998 605.019 67.0637 605.458C68.2381 606.9 68.3486 608.552 67.9953 610.269C67.7834 611.275 67.4431 612.252 67.0781 613.22C65.9788 616.055 63.9284 617.647 60.8527 617.599C58.8078 617.564 56.7589 617.293 54.7099 617.147C54.1967 617.113 53.6667 617.171 52.8678 617.207C53.922 618.885 54.7198 620.297 55.6584 621.577C56.0099 622.053 56.6968 622.393 57.301 622.568C60.1277 623.402 62.8807 623.177 65.3286 621.469C67.0061 620.291 68.6092 618.963 70.1088 617.573C73.2655 614.653 75.839 611.249 78.0111 607.558C79.4537 605.1 79.1043 602.181 77.3257 600.4C75.725 598.788 73.0055 598.542 70.5785 600.022C68.9798 601.006 67.5672 602.3 65.9061 603.595L65.8979 603.578ZM56.6079 624.724C57.4843 626.273 58.1996 627.271 58.6458 628.372C60.0132 631.756 61.6062 632.73 65.1337 631.921C69.6467 630.89 73.8167 629.109 77.4495 626.169C80.5314 623.679 81.9747 620.352 82.0896 616.54C82.1323 614.926 81.4465 613.261 80.9593 611.663C80.8107 611.199 80.2479 610.859 79.6854 610.271C78.9975 611.173 78.4423 611.843 77.945 612.546C75.0481 616.588 71.6508 620.145 67.6909 623.156C65.305 624.967 62.6384 625.884 59.621 625.496C58.7724 625.392 57.9654 625.081 56.6079 624.724ZM65.3552 609.166C66.0804 608.111 65.7707 607.262 64.9805 606.736C62.796 605.26 60.5493 603.888 58.3068 602.504C58.0875 602.375 57.748 602.441 57.4665 602.416C57.2443 605.848 60.1441 608.322 65.3552 609.166Z" fill="#965EEB"/>
<path d="M58.6542 592.751L58.1598 592.677L58.1362 592.833L58.2068 592.975L58.6542 592.751ZM58.9039 591.096L59.3909 591.209L59.3919 591.205L58.9039 591.096ZM61.0437 581.39L61.5367 581.474L61.5369 581.472L61.0437 581.39ZM63.4458 564.788L63.9416 564.853L63.9417 564.852L63.4458 564.788ZM62.132 551.499L61.6628 551.672L61.6629 551.672L62.132 551.499ZM56.5737 550.083L56.2498 549.702L56.2493 549.703L56.5737 550.083ZM52.9836 556.53L53.4751 556.621L53.4752 556.621L52.9836 556.53ZM51.1486 568.09L50.654 568.016L50.654 568.017L51.1486 568.09ZM48.8469 593.559L48.3564 593.462L48.3562 593.463L48.8469 593.559ZM63.6638 602.045L63.9519 601.636L63.9452 601.631L63.6638 602.045ZM64.3466 602.273L64.1881 602.747L64.4802 602.845L64.6988 602.628L64.3466 602.273ZM68.3776 598.389L68.646 598.811L68.648 598.81L68.3776 598.389ZM71.7462 594.463L72.1969 594.68L72.1971 594.68L71.7462 594.463ZM72.7952 592.523L73.2202 592.786L73.2216 592.784L72.7952 592.523ZM82.8511 576.147L83.2776 576.408L83.2778 576.407L82.8511 576.147ZM90.8043 559.661L91.2709 559.841L91.2715 559.839L90.8043 559.661ZM91.9679 554.074L92.4634 554.141L92.4635 554.14L91.9679 554.074ZM90.0296 550.168L89.7857 550.605L89.7877 550.606L90.0296 550.168ZM84.4525 551.617L84.8178 551.958L84.8214 551.954L84.4525 551.617ZM80.0108 556.523L79.6111 556.222L79.6106 556.223L80.0108 556.523ZM69.0589 575.167L69.5028 575.397L69.503 575.396L69.0589 575.167ZM61.9812 589.157L62.4246 589.388L62.425 589.387L61.9812 589.157ZM58.679 592.801L58.2316 593.024L58.45 593.462L58.8923 593.253L58.679 592.801ZM58.6542 592.751L59.1486 592.826C59.2809 591.949 59.3008 591.595 59.3909 591.209L58.9039 591.096L58.417 590.982C58.3159 591.416 58.2772 591.898 58.1598 592.677L58.6542 592.751ZM58.9039 591.096L59.3919 591.205C60.1083 587.998 60.9807 584.755 61.5367 581.474L61.0437 581.39L60.5507 581.307C60.0002 584.556 59.1454 587.721 58.4159 590.987L58.9039 591.096ZM61.0437 581.39L61.5369 581.472C62.4577 575.946 63.2207 570.397 63.9416 564.853L63.4458 564.788L62.95 564.724C62.2295 570.264 61.4684 575.8 60.5505 581.308L61.0437 581.39ZM63.4458 564.788L63.9417 564.852C64.5333 560.276 64.22 555.713 62.6011 551.326L62.132 551.499L61.6629 551.672C63.2162 555.882 63.5248 560.278 62.9499 564.724L63.4458 564.788ZM62.132 551.499L62.6012 551.326C62.0445 549.815 61.1326 548.802 59.9408 548.506C58.7533 548.21 57.4643 548.669 56.2498 549.702L56.5737 550.083L56.8977 550.464C57.9781 549.545 58.9436 549.288 59.6992 549.476C60.4507 549.663 61.1704 550.335 61.6628 551.672L62.132 551.499ZM56.5737 550.083L56.2493 549.703C54.1602 551.484 52.9751 553.836 52.492 556.438L52.9836 556.53L53.4752 556.621C53.9234 554.207 55.0105 552.073 56.8982 550.464L56.5737 550.083ZM52.9836 556.53L52.4921 556.438C51.7748 560.282 51.2277 564.156 50.654 568.016L51.1486 568.09L51.6432 568.163C52.2184 564.292 52.7621 560.442 53.4751 556.621L52.9836 556.53ZM51.1486 568.09L50.654 568.017C50.0252 572.269 49.8656 576.561 49.6551 580.811C49.4442 585.071 49.182 589.294 48.3564 593.462L48.8469 593.559L49.3374 593.656C50.1786 589.409 50.4429 585.12 50.6539 580.86C50.8654 576.59 51.0233 572.355 51.6432 568.163L51.1486 568.09ZM50.8935 596.603L50.7484 597.082C55.2002 598.431 59.5515 599.849 63.3824 602.458L63.6638 602.045L63.9452 601.631C59.9732 598.927 55.4847 597.473 51.0386 596.125L50.8935 596.603ZM63.6638 602.045L63.3757 602.453C63.5628 602.585 63.7673 602.648 63.9114 602.684C63.9845 602.702 64.0561 602.717 64.1041 602.727C64.1301 602.733 64.1495 602.737 64.1653 602.741C64.1729 602.743 64.1786 602.744 64.1827 602.746C64.1869 602.747 64.1885 602.747 64.1881 602.747L64.3466 602.273L64.5051 601.799C64.4369 601.776 64.3623 601.76 64.3128 601.749C64.2538 601.737 64.2058 601.727 64.1548 601.714C64.0506 601.688 63.9881 601.662 63.9519 601.636L63.6638 602.045ZM64.3466 602.273L64.6988 602.628C65.4032 601.929 66.0687 601.161 66.6857 600.513C67.3208 599.845 67.9441 599.258 68.646 598.811L68.3776 598.389L68.1092 597.967C67.3035 598.48 66.6136 599.137 65.9611 599.823C65.2907 600.528 64.6945 601.223 63.9944 601.918L64.3466 602.273ZM68.3776 598.389L68.648 598.81C70.3224 597.733 71.3937 596.352 72.1969 594.68L71.7462 594.463L71.2956 594.247C70.5562 595.786 69.5971 597.011 68.1072 597.969L68.3776 598.389ZM71.7462 594.463L72.1971 594.68C72.5111 594.024 72.8426 593.396 73.2202 592.786L72.7952 592.523L72.3701 592.26C71.9684 592.908 71.6199 593.57 71.2954 594.247L71.7462 594.463ZM72.7952 592.523L73.2216 592.784C74.8938 590.052 76.5713 587.324 78.249 584.597C79.9267 581.869 81.6047 579.141 83.2776 576.408L82.8511 576.147L82.4246 575.886C80.7524 578.618 79.075 581.345 77.3972 584.073C75.7196 586.8 74.0416 589.528 72.3687 592.262L72.7952 592.523ZM82.8511 576.147L83.2778 576.407C86.4977 571.137 89.0689 565.559 91.2709 559.841L90.8043 559.661L90.3377 559.481C88.1507 565.16 85.6046 570.68 82.4244 575.886L82.8511 576.147ZM90.8043 559.661L91.2715 559.839C91.9684 558.011 92.2118 555.998 92.4634 554.141L91.9679 554.074L91.4724 554.006C91.2159 555.9 90.9843 557.785 90.3371 559.483L90.8043 559.661ZM91.9679 554.074L92.4635 554.14C92.71 552.296 91.9764 550.674 90.2716 549.731L90.0296 550.168L89.7877 550.606C91.1117 551.338 91.6674 552.548 91.4723 554.007L91.9679 554.074ZM90.0296 550.168L90.2736 549.732C88.5058 548.744 86.8317 549.25 85.3867 550.246L85.6703 550.657L85.9539 551.069C87.2343 550.187 88.4833 549.877 89.7857 550.605L90.0296 550.168ZM84.4525 551.617L84.0872 551.275C82.6102 552.856 80.9504 554.44 79.6111 556.222L80.0108 556.523L80.4106 556.823C81.7069 555.098 83.2867 553.596 84.8177 551.958L84.4525 551.617ZM80.0108 556.523L79.6106 556.223C75.2424 562.058 71.9275 568.531 68.6148 574.937L69.0589 575.167L69.503 575.396C72.824 568.975 76.1016 562.579 80.4111 556.822L80.0108 556.523ZM69.0589 575.167L68.615 574.937C67.4085 577.264 66.2386 579.606 65.0712 581.943C63.9032 584.281 62.7377 586.613 61.5374 588.927L61.9812 589.157L62.425 589.387C63.6294 587.066 64.7983 584.727 65.9658 582.39C67.1338 580.052 68.3003 577.716 69.5028 575.397L69.0589 575.167ZM61.9812 589.157L61.5378 588.926C60.8432 590.258 60.1991 591.531 58.4657 592.349L58.679 592.801L58.8923 593.253C60.9604 592.278 61.7344 590.712 62.4246 589.388L61.9812 589.157ZM58.679 592.801L59.1264 592.578L59.1016 592.528L58.6542 592.751L58.2068 592.975L58.2316 593.024L58.679 592.801ZM48.8469 593.559L48.3562 593.463C48.2452 594.03 48.1638 594.5 48.1517 594.883C48.1394 595.275 48.196 595.644 48.4224 595.962C48.6414 596.27 48.9692 596.458 49.3294 596.609C49.6902 596.76 50.16 596.902 50.7237 597.074L50.8693 596.596L51.0149 596.117C50.4313 595.94 50.0187 595.814 49.7153 595.687C49.4112 595.559 49.293 595.461 49.2373 595.382C49.189 595.315 49.1423 595.198 49.1512 594.915C49.1604 594.624 49.2249 594.23 49.3376 593.655L48.8469 593.559ZM85.6465 550.673L85.3686 550.258C84.9588 550.532 84.4729 550.854 84.0835 551.279L84.4525 551.617L84.8214 551.954C85.1152 551.633 85.4958 551.376 85.9244 551.089L85.6465 550.673ZM33.0709 639.313L33.5362 639.496C33.7501 638.952 34.233 638.35 34.9582 638.184C35.6665 638.023 36.7979 638.236 38.4115 639.74L38.7524 639.374L39.0934 639.009C37.3661 637.398 35.9076 636.942 34.7359 637.209C33.581 637.473 32.8935 638.397 32.6055 639.13L33.0709 639.313ZM60.9234 647.574L60.973 648.071C61.6651 648.002 62.7038 648.067 63.5629 648.462C64.3912 648.842 65.0383 649.512 65.095 650.718L65.5945 650.694L66.0939 650.671C66.0163 649.021 65.0784 648.057 63.9799 647.553C62.9124 647.063 61.6828 646.995 60.8739 647.076L60.9234 647.574ZM74.353 595.873L73.3631 596.014L73.4428 596.573L73.9624 596.794L74.353 595.873ZM76.3435 596.69L76.5328 595.708L76.5264 595.707L76.3435 596.69ZM81.5354 605.768L82.5 606.032L82.5007 606.029L81.5354 605.768ZM82.5756 609.429L83.2931 608.732L83.2885 608.727L82.5756 609.429ZM85.3138 617.135L84.3163 617.065L84.3161 617.067L85.3138 617.135ZM79.8115 628.311L80.4431 629.086L80.4442 629.085L79.8115 628.311ZM78.2938 631.489L77.2951 631.437L77.2949 631.442L78.2938 631.489ZM74.6306 641.21L73.8881 640.54L73.888 640.54L74.6306 641.21ZM66.8344 648.017L67.3247 648.889L67.3297 648.886L66.8344 648.017ZM65.5945 650.694L66.567 650.462L66.5667 650.461L65.5945 650.694ZM64.6768 659.18L63.7077 658.933L63.7072 658.935L64.6768 659.18ZM62.4234 666.128L63.3636 666.469L63.3648 666.466L62.4234 666.128ZM54.9561 670.547L55.1084 669.559L55.1075 669.559L54.9561 670.547ZM31.0921 659.728L31.7153 658.946L31.7152 658.946L31.0921 659.728ZM28.434 650.047L27.4922 649.711L27.4918 649.712L28.434 650.047ZM33.0709 639.313L32.2062 638.811L32.2053 638.812L33.0709 639.313ZM33.3259 636.196L32.3702 636.49L32.3703 636.491L33.3259 636.196ZM30.2321 627.944L29.3485 628.412L29.3487 628.412L30.2321 627.944ZM29.4235 624.54L30.4217 624.48L30.4217 624.48L29.4235 624.54ZM28.8424 611.289L27.8425 611.3L27.8425 611.301L28.8424 611.289ZM31.6488 601.447L32.4674 602.022L32.4675 602.022L31.6488 601.447ZM43.1203 595.496L43.1344 594.496L43.1338 594.496L43.1203 595.496ZM46.6455 592.464L45.6496 592.374L45.6496 592.374L46.6455 592.464ZM47.8471 575.944L46.8495 575.875L46.8494 575.876L47.8471 575.944ZM50.6485 556.95L49.6778 556.71L49.6774 556.711L50.6485 556.95ZM52.0511 552.754L51.1067 552.425L51.1027 552.437L52.0511 552.754ZM55.5984 548.046L54.9744 547.264L54.9724 547.266L55.5984 548.046ZM64.418 550.359L65.3472 549.989L65.3458 549.985L64.418 550.359ZM66.1353 561.202L65.138 561.128L65.1379 561.13L66.1353 561.202ZM64.8181 572.369L63.8243 572.258L63.8238 572.262L64.8181 572.369ZM64.474 578.023L63.5059 578.274L64.1057 580.593L65.3328 578.536L64.474 578.023ZM65.9788 575.462L65.0806 575.023L65.077 575.03L65.9788 575.462ZM76.4963 556.549L75.6715 555.983L75.6715 555.983L76.4963 556.549ZM81.39 550.579L80.6583 549.898L80.6566 549.9L81.39 550.579ZM84.8984 547.929L85.3786 548.806L85.3823 548.804L84.8984 547.929ZM94.3617 552.693L93.3694 552.817L93.3696 552.818L94.3617 552.693ZM94.1013 557.271L93.1309 557.03L93.1303 557.032L94.1013 557.271ZM85.0975 577.85L84.244 577.329L84.2438 577.329L85.0975 577.85ZM76.0406 592.517L76.8926 593.041L76.8932 593.04L76.0406 592.517ZM74.3489 595.844L73.4537 595.398L73.315 595.677L73.3589 595.985L74.3489 595.844ZM59.4395 609.48L59.1028 610.422L59.1089 610.424L59.4395 609.48ZM55.8617 605.814L54.9134 606.131L54.9141 606.133L55.8617 605.814ZM54.7016 602.017L55.6629 601.741L55.6621 601.738L54.7016 602.017ZM53.1673 600.289L53.5386 599.361L53.5319 599.358L53.1673 600.289ZM41.9507 598.169L41.9813 599.168L41.983 599.168L41.9507 598.169ZM32.8059 603.808L33.6812 604.291L33.6821 604.29L32.8059 603.808ZM31.1141 612.379L30.1147 612.412L30.1147 612.412L31.1141 612.379ZM31.6935 622.745L30.6962 622.819L30.6963 622.82L31.6935 622.745ZM32.423 626.633L31.5157 627.053L31.5159 627.054L32.423 626.633ZM35.8647 634.712L34.9242 635.052L34.9245 635.053L35.8647 634.712ZM45.151 643.268L45.468 642.32L45.4653 642.319L45.151 643.268ZM57.898 646.921L57.6291 647.884L57.6293 647.884L57.898 646.921ZM60.9234 647.574L61.0564 646.582L61.0486 646.581L61.0408 646.58L60.9234 647.574ZM62.8112 647.376L62.3381 646.495L62.337 646.496L62.8112 647.376ZM72.732 639.374L73.4938 640.022L73.4943 640.022L72.732 639.374ZM75.6019 632.977L76.5732 633.215L76.5733 633.214L75.6019 632.977ZM75.4084 631.698L76.3939 631.529L76.1854 630.313L75.0394 630.768L75.4084 631.698ZM73.2799 632.532L72.968 631.582L72.9678 631.582L73.2799 632.532ZM64.8661 635.199L64.6373 634.226L64.6355 634.226L64.8661 635.199ZM57.0201 631.997L57.912 631.545L57.9116 631.544L57.0201 631.997ZM53.9376 625.198L53.0065 625.562L53.0065 625.563L53.9376 625.198ZM46.9733 616.88L46.4497 617.732L46.4562 617.736L46.9733 616.88ZM45.6081 615.802L46.4792 615.311L46.4733 615.301L45.6081 615.802ZM46.6659 613.133L46.7719 614.128L46.7847 614.126L46.6659 613.133ZM49.075 613.317L48.966 614.311L48.9691 614.312L49.075 613.317ZM60.7021 614.498L60.7598 613.5L60.7593 613.5L60.7021 614.498ZM64.778 611.264L65.095 610.316L64.1466 609.999L63.8296 610.947L64.778 611.264ZM50.8935 596.603L50.6023 597.56L51.1848 595.646L50.8935 596.603ZM85.6703 550.657L86.2262 551.489L85.1146 549.826L85.6703 550.657ZM35.2306 640.697L36.179 641.014L34.4072 640.13L35.2306 640.697ZM34.2027 642.245L35.1426 642.586L35.1435 642.584L34.2027 642.245ZM30.6966 652.239L31.648 652.547L31.6485 652.545L30.6966 652.239ZM31.7368 655.899L32.4475 655.196L32.4445 655.193L31.7368 655.899ZM34.893 658.638L34.3516 659.479L34.3555 659.481L34.893 658.638ZM54.9882 666.694L54.8668 667.686L54.87 667.687L54.9882 666.694ZM59.2417 664.126L58.2967 663.799L58.2963 663.8L59.2417 664.126ZM61.4661 657.182L60.5082 656.895L60.5065 656.901L61.4661 657.182ZM62.235 653.519L63.2232 653.672L63.2242 653.666L62.235 653.519ZM60.2667 650.818L60.4727 649.84L60.4694 649.839L60.2667 650.818ZM57.0343 650.125L56.7894 651.094L56.7972 651.096L57.0343 650.125ZM51.4926 648.659L51.7704 647.698L51.7688 647.698L51.4926 648.659ZM36.0333 641.145L35.2663 641.787L35.2796 641.803L35.2935 641.818L36.0333 641.145ZM35.2264 640.71L34.278 640.393L34.0083 641.2L34.7617 641.595L35.2264 640.71ZM65.8979 603.578L66.7502 603.055L65.0031 604.025L65.8979 603.578ZM67.0637 605.458L67.839 604.827L67.8336 604.82L67.0637 605.458ZM67.9953 610.269L68.9738 610.476L68.9748 610.471L67.9953 610.269ZM67.0781 613.22L68.0105 613.582L68.0138 613.573L67.0781 613.22ZM60.8527 617.599L60.8357 618.599L60.8371 618.599L60.8527 617.599ZM54.7099 617.147L54.7813 616.149L54.7751 616.149L54.7099 617.147ZM52.8678 617.207L52.822 616.208L51.1082 616.287L52.0211 617.739L52.8678 617.207ZM55.6584 621.577L54.852 622.168L54.8538 622.171L55.6584 621.577ZM57.301 622.568L57.5841 621.608L57.5783 621.607L57.301 622.568ZM65.3286 621.469L65.9007 622.289L65.9034 622.287L65.3286 621.469ZM70.1088 617.573L69.4298 616.839L69.4291 616.84L70.1088 617.573ZM78.0111 607.558L78.873 608.065L78.8736 608.064L78.0111 607.558ZM77.3257 600.4L76.6162 601.105L76.618 601.107L77.3257 600.4ZM70.5785 600.022L70.0578 599.168L70.0543 599.17L70.5785 600.022ZM65.9061 603.595L65.0114 604.041L65.5569 605.135L66.5208 604.384L65.9061 603.595ZM56.6079 624.724L56.8624 623.757L54.5708 623.154L55.7376 625.216L56.6079 624.724ZM58.6458 628.372L59.5729 627.998L59.5726 627.997L58.6458 628.372ZM65.1337 631.921L64.911 630.946L64.9103 630.946L65.1337 631.921ZM77.4495 626.169L76.8211 625.391L76.8204 625.392L77.4495 626.169ZM82.0896 616.54L83.0891 616.57L83.0892 616.566L82.0896 616.54ZM80.9593 611.663L81.9159 611.371L81.9138 611.364L81.9116 611.357L80.9593 611.663ZM79.6854 610.271L80.4082 609.58L79.5998 608.734L78.8903 609.664L79.6854 610.271ZM77.945 612.546L78.7578 613.129L78.7615 613.123L77.945 612.546ZM67.6909 623.156L68.2955 623.952L68.2961 623.952L67.6909 623.156ZM59.621 625.496L59.7483 624.504L59.7428 624.504L59.621 625.496ZM65.3552 609.166L65.1952 610.153L65.8204 610.255L66.1792 609.733L65.3552 609.166ZM64.9805 606.736L64.4207 607.565L64.4261 607.568L64.9805 606.736ZM58.3068 602.504L58.8321 601.653L58.8223 601.647L58.8124 601.641L58.3068 602.504ZM57.4665 602.416L57.5552 601.42L56.5348 601.329L56.4686 602.352L57.4665 602.416ZM50.8693 596.596L51.1605 595.639L50.5781 597.552L50.8693 596.596ZM85.6465 550.673L85.0907 549.842L86.2022 551.505L85.6465 550.673ZM38.7524 639.374L39.4734 638.681L39.4734 638.681L38.7524 639.374ZM74.353 595.873L73.9624 596.794C74.4095 596.983 74.7144 597.137 75.0687 597.299C75.3964 597.448 75.7559 597.598 76.1606 597.673L76.3435 596.69L76.5264 595.707C76.3723 595.678 76.196 595.615 75.8978 595.479C75.6262 595.355 75.2153 595.153 74.7437 594.952L74.353 595.873ZM76.3435 596.69L76.1542 597.672C77.8018 597.99 79.0881 599.223 79.8867 600.835C80.6923 602.461 80.9016 604.281 80.57 605.507L81.5354 605.768L82.5007 606.029C82.9871 604.23 82.6492 601.906 81.6788 599.947C80.7013 597.974 78.9827 596.181 76.5328 595.708L76.3435 596.69ZM81.5354 605.768L80.5707 605.505C80.3222 606.415 80.2736 607.248 80.5195 608.058C80.7612 608.854 81.2533 609.51 81.8627 610.13L82.5756 609.429L83.2885 608.727C82.7853 608.216 82.5413 607.833 82.4332 607.477C82.3291 607.134 82.3167 606.703 82.5 606.032L81.5354 605.768ZM82.5756 609.429L81.8581 610.125C83.69 612.012 84.503 614.402 84.3163 617.065L85.3138 617.135L86.3114 617.204C86.5351 614.014 85.5476 611.054 83.2931 608.732L82.5756 609.429ZM85.3138 617.135L84.3161 617.067C84.03 621.291 82.4442 624.869 79.1788 627.537L79.8115 628.311L80.4442 629.085C84.2041 626.013 85.9943 621.886 86.3115 617.202L85.3138 617.135ZM79.8115 628.311L79.1798 627.536C78.5433 628.054 78.0754 628.623 77.7651 629.3C77.4588 629.967 77.3347 630.678 77.2951 631.437L78.2938 631.489L79.2924 631.541C79.3243 630.93 79.4185 630.492 79.583 630.133C79.7434 629.784 79.9986 629.448 80.4431 629.086L79.8115 628.311ZM78.2938 631.489L77.2949 631.442C77.1338 634.883 76.1691 638.011 73.8881 640.54L74.6306 641.21L75.3731 641.88C78.0475 638.915 79.1167 635.297 79.2927 631.536L78.2938 631.489ZM74.6306 641.21L73.888 640.54C71.5696 643.111 69.2411 645.494 66.3391 647.148L66.8344 648.017L67.3297 648.886C70.5323 647.06 73.0429 644.463 75.3732 641.88L74.6306 641.21ZM66.8344 648.017L66.3441 647.146C65.6978 647.509 65.1059 647.974 64.7698 648.662C64.425 649.367 64.4314 650.135 64.6222 650.928L65.5945 650.694L66.5667 650.461C66.4399 649.933 66.4968 649.683 66.5666 649.54C66.6452 649.379 66.8321 649.166 67.3247 648.889L66.8344 648.017ZM65.5945 650.694L64.622 650.927C65.2477 653.54 64.4415 656.051 63.7077 658.933L64.6768 659.18L65.6459 659.427C66.3241 656.763 67.3356 653.671 66.567 650.462L65.5945 650.694ZM64.6768 659.18L63.7072 658.935C63.1276 661.234 62.3081 663.485 61.482 665.791L62.4234 666.128L63.3648 666.466C64.1816 664.186 65.0383 661.836 65.6465 659.424L64.6768 659.18ZM62.4234 666.128L61.4831 665.788C60.7305 667.866 59.8227 668.837 58.8825 669.297C57.9101 669.772 56.6988 669.804 55.1084 669.559L54.9561 670.547L54.8038 671.536C56.5082 671.798 58.2256 671.844 59.7606 671.093C61.3279 670.328 62.5064 668.836 63.3636 666.469L62.4234 666.128ZM54.9561 670.547L55.1075 669.559C46.313 668.212 38.6428 664.466 31.7153 658.946L31.0921 659.728L30.4688 660.51C37.6233 666.211 45.6109 670.128 54.8047 671.536L54.9561 670.547ZM31.0921 659.728L31.7152 658.946C30.2477 657.777 29.3799 656.507 29.0074 655.142C28.634 653.772 28.7299 652.201 29.3763 650.382L28.434 650.047L27.4918 649.712C26.7441 651.817 26.5722 653.814 27.0779 655.668C27.5845 657.525 28.7427 659.135 30.4689 660.51L31.0921 659.728ZM28.434 650.047L29.3759 650.383C30.6919 646.694 32.0265 643.115 33.9364 639.814L33.0709 639.313L32.2053 638.812C30.1937 642.289 28.8067 646.026 27.4922 649.711L28.434 650.047ZM33.0709 639.313L33.9356 639.815C34.3129 639.166 34.5189 638.521 34.5598 637.843C34.6 637.177 34.4772 636.536 34.2816 635.902L33.3259 636.196L32.3703 636.491C32.5256 636.995 32.584 637.381 32.5634 637.723C32.5435 638.052 32.4465 638.397 32.2062 638.811L33.0709 639.313ZM33.3259 636.196L34.2816 635.902C33.4223 633.111 32.5658 630.209 31.1155 627.475L30.2321 627.944L29.3487 628.412C30.6925 630.946 31.4955 633.65 32.3702 636.49L33.3259 636.196ZM30.2321 627.944L31.1158 627.475C30.6819 626.656 30.488 625.583 30.4217 624.48L29.4235 624.54L28.4253 624.6C28.4979 625.807 28.716 627.218 29.3485 628.412L30.2321 627.944ZM29.4235 624.54L30.4217 624.48C30.1561 620.068 29.8963 615.67 29.8423 611.277L28.8424 611.289L27.8425 611.301C27.8972 615.75 28.1601 620.194 28.4254 624.6L29.4235 624.54ZM28.8424 611.289L29.8423 611.278C29.8055 607.917 30.5588 604.741 32.4674 602.022L31.6488 601.447L30.8303 600.873C28.6276 604.011 27.8022 607.624 27.8425 611.3L28.8424 611.289ZM31.6488 601.447L32.4675 602.022C35.0556 598.332 38.5485 596.434 43.1068 596.496L43.1203 595.496L43.1338 594.496C37.8814 594.425 33.7789 596.669 30.8301 600.873L31.6488 601.447ZM43.1203 595.496L43.1061 596.496C43.8617 596.506 44.5159 596.515 45.0373 596.466C45.5578 596.416 46.1208 596.295 46.5831 595.911C47.0565 595.517 47.2671 594.98 47.3886 594.461C47.5083 593.949 47.5738 593.303 47.6415 592.554L46.6455 592.464L45.6496 592.374C45.5793 593.152 45.5233 593.654 45.4413 594.005C45.4021 594.172 45.3648 594.268 45.3373 594.322C45.3244 594.347 45.315 594.36 45.3105 594.366C45.3064 594.372 45.3046 594.373 45.3044 594.373C45.304 594.373 45.3002 594.377 45.2895 594.382C45.2782 594.388 45.2573 594.398 45.2227 594.409C45.1495 594.432 45.033 594.457 44.8469 594.475C44.4593 594.512 43.9312 594.507 43.1344 594.496L43.1203 595.496ZM46.6455 592.464L47.6414 592.554C48.1398 587.047 48.4685 581.506 48.8447 576.013L47.8471 575.944L46.8494 575.876C46.4715 581.393 46.1454 586.896 45.6496 592.374L46.6455 592.464ZM47.8471 575.944L48.8447 576.013C49.2861 569.644 50.1004 563.367 51.6196 557.189L50.6485 556.95L49.6774 556.711C48.1231 563.032 47.2962 569.429 46.8495 575.875L47.8471 575.944ZM50.6485 556.95L51.6193 557.19C51.9611 555.808 52.4947 554.581 52.9996 553.071L52.0511 552.754L51.1027 552.437C50.6697 553.732 50.042 555.237 49.6778 556.71L50.6485 556.95ZM52.0511 552.754L52.9955 553.083C53.594 551.365 54.7481 550.011 56.2245 548.825L55.5984 548.046L54.9724 547.266C53.3172 548.595 51.8692 550.236 51.1068 552.425L52.0511 552.754ZM55.5984 548.046L56.2225 548.827C57.6781 547.664 59.1674 547.373 60.4023 547.694C61.636 548.016 62.7919 548.995 63.4902 550.732L64.418 550.359L65.3458 549.985C64.4536 547.767 62.8566 546.267 60.9066 545.759C58.9578 545.251 56.8326 545.78 54.9744 547.264L55.5984 548.046ZM64.418 550.359L63.4888 550.728C64.816 554.066 65.3984 557.583 65.138 561.128L66.1353 561.202L67.1326 561.275C67.4165 557.411 66.7796 553.591 65.3472 549.989L64.418 550.359ZM66.1353 561.202L65.1379 561.13C64.871 564.849 64.2512 568.444 63.8243 572.258L64.8181 572.369L65.8119 572.48C66.219 568.843 66.8637 565.021 67.1328 561.273L66.1353 561.202ZM64.8181 572.369L63.8238 572.262C63.7833 572.638 63.7104 573.023 63.6236 573.454C63.5392 573.873 63.44 574.343 63.367 574.832C63.2174 575.832 63.1669 576.963 63.5059 578.274L64.474 578.023L65.4422 577.773C65.1911 576.802 65.2208 575.959 65.345 575.128C65.4087 574.702 65.4948 574.293 65.5842 573.849C65.6714 573.416 65.7611 572.952 65.8124 572.476L64.8181 572.369ZM64.474 578.023L65.3328 578.536C65.9469 577.506 66.49 576.709 66.8806 575.894L65.9788 575.462L65.077 575.03C64.7378 575.738 64.3193 576.331 63.6153 577.511L64.474 578.023ZM65.9788 575.462L66.877 575.902C70.0538 569.412 73.2723 563.022 77.3212 557.114L76.4963 556.549L75.6715 555.983C71.5309 562.025 68.2562 568.536 65.0806 575.023L65.9788 575.462ZM76.4963 556.549L77.3212 557.114C78.7359 555.05 80.389 553.13 82.1234 551.259L81.39 550.579L80.6566 549.9C78.8941 551.801 77.1662 553.803 75.6715 555.983L76.4963 556.549ZM81.39 550.579L82.1217 551.261C83.0216 550.295 84.163 549.471 85.3785 548.806L84.8984 547.929L84.4183 547.052C83.0662 547.792 81.7388 548.738 80.6583 549.898L81.39 550.579ZM84.8984 547.929L85.3823 548.804C87.3833 547.698 89.2476 547.861 90.6651 548.678C92.1136 549.512 93.1504 551.062 93.3694 552.817L94.3617 552.693L95.354 552.569C95.059 550.205 93.6668 548.099 91.6635 546.945C89.6292 545.773 87.0189 545.614 84.4146 547.054L84.8984 547.929ZM94.3617 552.693L93.3696 552.818C93.5438 554.198 93.4615 555.701 93.1309 557.03L94.1013 557.271L95.0718 557.512C95.4639 555.936 95.558 554.185 95.3538 552.568L94.3617 552.693ZM94.1013 557.271L93.1303 557.032C91.3477 564.272 88.1447 570.941 84.244 577.329L85.0975 577.85L85.951 578.371C89.9177 571.875 93.225 565.013 95.0723 557.51L94.1013 557.271ZM85.0975 577.85L84.2438 577.329C81.2423 582.251 78.2112 587.062 75.188 591.995L76.0406 592.517L76.8932 593.04C79.8804 588.166 82.9672 583.263 85.9513 578.371L85.0975 577.85ZM76.0406 592.517L75.1886 591.994C74.5528 593.028 74.0475 594.205 73.4537 595.398L74.3489 595.844L75.2441 596.29C75.9108 594.95 76.318 593.976 76.8926 593.041L76.0406 592.517ZM74.3489 595.844L73.3589 595.985L73.3631 596.014L74.353 595.873L75.343 595.732L75.3389 595.703L74.3489 595.844ZM64.7905 611.269L65.1075 610.32C63.2013 609.683 61.4919 609.139 59.77 608.536L59.4395 609.48L59.1089 610.424C60.8467 611.032 62.6053 611.593 64.4735 612.217L64.7905 611.269ZM59.4395 609.48L59.7762 608.538C58.2951 608.009 57.3167 606.999 56.8093 605.494L55.8617 605.814L54.9141 606.133C55.6126 608.205 57.0331 609.682 59.1028 610.422L59.4395 609.48ZM55.8617 605.814L56.81 605.496C56.3959 604.259 56.025 603.004 55.6629 601.741L54.7016 602.017L53.7404 602.292C54.1047 603.563 54.4851 604.851 54.9134 606.131L55.8617 605.814ZM54.7016 602.017L55.6621 601.738C55.5104 601.215 55.2779 600.727 54.9121 600.307C54.5437 599.884 54.0814 599.578 53.5386 599.361L53.1673 600.289L52.7959 601.218C53.0932 601.337 53.2763 601.474 53.4042 601.621C53.5346 601.77 53.6493 601.978 53.7411 602.295L54.7016 602.017ZM53.1673 600.289L53.5319 599.358C49.8258 597.907 45.9643 597.039 41.9185 597.169L41.9507 598.169L41.983 599.168C45.6949 599.049 49.2833 599.842 52.8027 601.22L53.1673 600.289ZM41.9507 598.169L41.9202 597.169C37.4729 597.305 34.0657 599.444 31.9298 603.326L32.8059 603.808L33.6821 604.29C35.4846 601.014 38.2568 599.282 41.9813 599.168L41.9507 598.169ZM32.8059 603.808L31.9306 603.324C30.3386 606.206 30.015 609.357 30.1147 612.412L31.1141 612.379L32.1136 612.347C32.0194 609.458 32.3381 606.723 33.6812 604.291L32.8059 603.808ZM31.1141 612.379L30.1147 612.412C30.2284 615.891 30.4418 619.359 30.6962 622.819L31.6935 622.745L32.6908 622.672C32.4375 619.227 32.2261 615.789 32.1136 612.347L31.1141 612.379ZM31.6935 622.745L30.6963 622.82C30.7906 624.084 30.8868 625.696 31.5157 627.053L32.423 626.633L33.3304 626.213C32.8849 625.251 32.7929 624.04 32.6907 622.671L31.6935 622.745ZM32.423 626.633L31.5159 627.054C32.7516 629.717 33.9371 632.319 34.9242 635.052L35.8647 634.712L36.8052 634.372C35.785 631.548 34.5655 628.875 33.3301 626.212L32.423 626.633ZM45.151 643.268L44.834 644.216C49.0497 645.625 53.4126 646.708 57.6291 647.884L57.898 646.921L58.1668 645.958C53.8743 644.76 49.6202 643.707 45.468 642.32L45.151 643.268ZM57.898 646.921L57.6293 647.884C58.6369 648.165 59.7037 648.436 60.806 648.567L60.9234 647.574L61.0408 646.58C60.0984 646.469 59.1538 646.233 58.1666 645.958L57.898 646.921ZM60.9234 647.574L60.7905 648.565C61.4495 648.653 62.4689 648.697 63.2854 648.257L62.8112 647.376L62.337 646.496C62.11 646.618 61.639 646.661 61.0564 646.582L60.9234 647.574ZM62.8112 647.376L63.2844 648.257C67.1948 646.157 70.6151 643.407 73.4938 640.022L72.732 639.374L71.9703 638.727C69.2551 641.919 66.0313 644.512 62.3381 646.495L62.8112 647.376ZM72.732 639.374L73.4943 640.022C75.2221 637.987 76.0004 635.557 76.5732 633.215L75.6019 632.977L74.6305 632.739C74.0736 635.016 73.3828 637.063 71.9698 638.727L72.732 639.374ZM75.6019 632.977L76.5733 633.214C76.6698 632.819 76.5956 632.45 76.549 632.235C76.4886 631.957 76.4415 631.806 76.3939 631.529L75.4084 631.698L74.4228 631.867C74.4782 632.19 74.5652 632.525 74.5945 632.66C74.6376 632.858 74.6087 632.829 74.6304 632.74L75.6019 632.977ZM75.4084 631.698L75.0394 630.768C74.17 631.113 73.5974 631.375 72.968 631.582L73.2799 632.532L73.5918 633.482C74.2957 633.251 75.0235 632.926 75.7773 632.627L75.4084 631.698ZM73.2799 632.532L72.9678 631.582C70.1064 632.522 67.4427 633.567 64.6373 634.226L64.8661 635.199L65.0949 636.173C68.0116 635.487 70.8717 634.376 73.592 633.482L73.2799 632.532ZM64.8661 635.199L64.6355 634.226C61.7807 634.903 58.9465 633.585 57.912 631.545L57.0201 631.997L56.1283 632.45C57.6396 635.429 61.476 637.031 65.0967 636.173L64.8661 635.199ZM57.0201 631.997L57.9116 631.544C56.7984 629.354 55.7631 627.115 54.8686 624.833L53.9376 625.198L53.0065 625.563C53.9297 627.918 54.9935 630.217 56.1287 632.45L57.0201 631.997ZM53.9376 625.198L54.8686 624.833C53.3904 621.061 50.9571 618.118 47.4904 616.024L46.9733 616.88L46.4562 617.736C49.5351 619.596 51.6839 622.187 53.0065 625.562L53.9376 625.198ZM46.9733 616.88L47.4969 616.028C47.19 615.839 46.9959 615.737 46.7796 615.586C46.5799 615.447 46.5049 615.357 46.4791 615.311L45.6081 615.802L44.7372 616.294C44.9801 616.724 45.3414 617.021 45.6341 617.226C45.9102 617.419 46.2643 617.618 46.4497 617.732L46.9733 616.88ZM45.6081 615.802L46.4733 615.301C46.382 615.143 46.2998 614.929 46.2586 614.716C46.215 614.489 46.2347 614.357 46.2476 614.318L45.2991 614.001L44.3507 613.684C44.1893 614.167 44.2147 614.679 44.2947 615.094C44.3772 615.522 44.5366 615.948 44.7429 616.304L45.6081 615.802ZM45.2991 614.001L46.2476 614.318C46.2165 614.411 46.1786 614.436 46.2108 614.404C46.2367 614.378 46.2876 614.335 46.3653 614.288C46.441 614.242 46.5252 614.202 46.6058 614.172C46.6893 614.141 46.7472 614.13 46.7719 614.127L46.6659 613.133L46.5599 612.139C46.1289 612.185 45.6814 612.363 45.3268 612.579C45.0104 612.771 44.535 613.133 44.3507 613.684L45.2991 614.001ZM46.6659 613.133L46.7847 614.126C47.0659 614.092 47.3786 614.107 47.752 614.15C47.9382 614.172 48.1262 614.199 48.3315 614.228C48.5317 614.257 48.7479 614.287 48.966 614.311L49.075 613.317L49.184 612.323C49.0026 612.303 48.8169 612.277 48.614 612.248C48.4162 612.22 48.2002 612.189 47.9829 612.164C47.5491 612.113 47.0567 612.079 46.5472 612.14L46.6659 613.133ZM49.075 613.317L48.9691 614.312C52.8014 614.72 56.7262 615.272 60.6449 615.497L60.7021 614.498L60.7593 613.5C56.9043 613.279 53.1054 612.741 49.1809 612.323L49.075 613.317ZM60.7021 614.498L60.6444 615.497C61.9623 615.573 63.0753 615.38 63.9695 614.631C64.8147 613.924 65.3048 612.843 65.7265 611.581L64.778 611.264L63.8296 610.947C63.4213 612.169 63.0718 612.774 62.6857 613.098C62.3486 613.38 61.8386 613.562 60.7598 613.5L60.7021 614.498ZM64.778 611.264L64.461 612.213L64.4735 612.217L64.7905 611.269L65.1075 610.32L65.095 610.316L64.778 611.264ZM35.2306 640.697L34.4072 640.13C34.2114 640.414 34.0636 640.585 33.8329 640.897C33.6346 641.166 33.4077 641.501 33.2619 641.906L34.2027 642.245L35.1435 642.584C35.1886 642.459 35.2746 642.312 35.442 642.085C35.577 641.902 35.8477 641.564 36.054 641.265L35.2306 640.697ZM34.2027 642.245L33.2628 641.903C32.0579 645.22 30.8349 648.546 29.7447 651.933L30.6966 652.239L31.6485 652.545C32.7247 649.203 33.9329 645.916 35.1426 642.586L34.2027 642.245ZM30.6966 652.239L29.7453 651.931C29.1707 653.705 29.8403 655.415 31.0291 656.606L31.7368 655.899L32.4445 655.193C31.648 654.395 31.3593 653.438 31.648 652.547L30.6966 652.239ZM31.7368 655.899L31.0262 656.603C32.0004 657.587 33.0887 658.665 34.3516 659.479L34.893 658.638L35.4345 657.797C34.3805 657.119 33.4338 656.192 32.4475 655.196L31.7368 655.899ZM34.893 658.638L34.3555 659.481C40.5984 663.461 47.2264 666.751 54.8668 667.686L54.9882 666.694L55.1097 665.701C47.8987 664.819 41.5669 661.707 35.4306 657.795L34.893 658.638ZM54.9882 666.694L54.87 667.687C56.1619 667.84 57.3403 667.926 58.286 667.38C59.2585 666.819 59.7422 665.743 60.1871 664.452L59.2417 664.126L58.2963 663.8C57.8365 665.134 57.5408 665.501 57.2865 665.648C57.0052 665.81 56.5092 665.868 55.1065 665.701L54.9882 666.694ZM59.2417 664.126L60.1866 664.454C60.9838 662.151 61.7359 659.818 62.4258 657.463L61.4661 657.182L60.5065 656.901C59.8265 659.222 59.0845 661.524 58.2967 663.799L59.2417 664.126ZM61.4661 657.182L62.4241 657.469C62.8016 656.208 63.0303 654.915 63.2231 653.672L62.235 653.519L61.2468 653.366C61.0568 654.59 60.8446 655.772 60.5082 656.895L61.4661 657.182ZM62.235 653.519L63.2242 653.666C63.3578 652.764 63.4294 651.791 62.8702 651.03C62.5866 650.645 62.2047 650.4 61.8082 650.23C61.4205 650.063 60.9655 649.944 60.4727 649.84L60.2667 650.818L60.0608 651.797C60.5157 651.893 60.815 651.979 61.0169 652.066C61.2102 652.15 61.2533 652.208 61.2592 652.216C61.2789 652.242 61.3869 652.42 61.2458 653.373L62.235 653.519ZM60.2667 650.818L60.4694 649.839C59.3676 649.611 58.3207 649.409 57.2714 649.153L57.0343 650.125L56.7972 651.096C57.8918 651.363 58.9971 651.577 60.0641 651.798L60.2667 650.818ZM57.0343 650.125L57.2792 649.155C55.4176 648.685 53.5887 648.224 51.7704 647.698L51.4926 648.659L51.2148 649.619C53.0716 650.156 54.9344 650.626 56.7894 651.094L57.0343 650.125ZM51.4926 648.659L51.7688 647.698C46.0835 646.064 40.6899 644.779 36.7731 640.472L36.0333 641.145L35.2935 641.818C39.6732 646.634 45.7193 648.04 51.2165 649.62L51.4926 648.659ZM36.0333 641.145L36.8003 640.504C36.5787 640.239 36.2957 640.109 36.1668 640.049C35.9942 639.969 35.8809 639.924 35.6912 639.824L35.2264 640.71L34.7617 641.595C35.0065 641.724 35.2325 641.82 35.3227 641.862C35.3786 641.888 35.3877 641.895 35.3797 641.89C35.3661 641.881 35.3181 641.849 35.2663 641.787L36.0333 641.145ZM35.2264 640.71L36.1749 641.027L36.179 641.014L35.2306 640.697L34.2822 640.38L34.278 640.393L35.2264 640.71ZM65.8979 603.578L65.0455 604.101C65.3155 604.541 65.4995 604.873 65.6887 605.197C65.87 605.507 66.0568 605.811 66.2938 606.097L67.0637 605.458L67.8336 604.82C67.7066 604.667 67.5875 604.482 67.4154 604.188C67.2511 603.907 67.0342 603.518 66.7502 603.055L65.8979 603.578ZM67.0637 605.458L66.2884 606.09C67.2045 607.214 67.3345 608.518 67.0158 610.068L67.9953 610.269L68.9748 610.471C69.3626 608.585 69.2718 606.586 67.839 604.827L67.0637 605.458ZM67.9953 610.269L67.0168 610.063C66.8213 610.991 66.5036 611.909 66.1424 612.867L67.0781 613.22L68.0138 613.573C68.3826 612.594 68.7454 611.559 68.9738 610.476L67.9953 610.269ZM67.0781 613.22L66.1457 612.859C65.6486 614.14 64.9643 615.071 64.1214 615.68C63.2853 616.283 62.222 616.62 60.8683 616.599L60.8527 617.599L60.8371 618.599C62.5591 618.626 64.0588 618.191 65.2916 617.302C66.5177 616.417 67.4082 615.135 68.0104 613.582L67.0781 613.22ZM60.8527 617.599L60.8697 616.599C58.8543 616.565 56.9173 616.302 54.7813 616.149L54.7099 617.147L54.6386 618.144C56.6005 618.285 58.7613 618.563 60.8357 618.599L60.8527 617.599ZM54.7099 617.147L54.7751 616.149C54.1881 616.111 53.5362 616.176 52.822 616.208L52.8678 617.207L52.9135 618.206C53.7973 618.166 54.2052 618.116 54.6447 618.145L54.7099 617.147ZM52.8678 617.207L52.0211 617.739C53.0416 619.363 53.8855 620.85 54.852 622.168L55.6584 621.577L56.4648 620.986C55.5541 619.744 54.8024 618.406 53.7144 616.675L52.8678 617.207ZM55.6584 621.577L54.8538 622.171C55.4004 622.912 56.3442 623.332 57.0238 623.528L57.301 622.568L57.5783 621.607C57.0494 621.454 56.6194 621.195 56.4631 620.983L55.6584 621.577ZM57.301 622.568L57.0179 623.527C60.0786 624.43 63.1585 624.202 65.9007 622.289L65.3286 621.469L64.7564 620.649C62.6029 622.151 60.1767 622.374 57.5841 621.609L57.301 622.568ZM65.3286 621.469L65.9034 622.287C67.6239 621.079 69.2619 619.721 70.7885 618.307L70.1088 617.573L69.4291 616.84C67.9564 618.205 66.3882 619.502 64.7537 620.651L65.3286 621.469ZM70.1088 617.573L70.7878 618.307C74.0307 615.308 76.6623 611.821 78.873 608.065L78.0111 607.558L77.1493 607.051C75.0157 610.676 72.5004 613.999 69.4298 616.839L70.1088 617.573ZM78.0111 607.558L78.8736 608.064C80.5252 605.25 80.1622 601.826 78.0334 599.693L77.3257 600.4L76.618 601.107C78.0464 602.537 78.3823 604.95 77.1487 607.052L78.0111 607.558ZM77.3257 600.4L78.0352 599.695C76.0452 597.692 72.7979 597.497 70.0579 599.168L70.5785 600.022L71.0991 600.876C73.2131 599.587 75.4049 599.885 76.6162 601.105L77.3257 600.4ZM70.5785 600.022L70.0543 599.17C68.3947 600.192 66.8662 601.579 65.2915 602.806L65.9061 603.595L66.5208 604.384C68.2682 603.022 69.5649 601.82 71.1026 600.874L70.5785 600.022ZM65.9061 603.595L66.8009 603.148L66.7927 603.132L65.8979 603.578L65.0031 604.025L65.0114 604.041L65.9061 603.595ZM56.6079 624.724L55.7376 625.216C56.1812 626 56.5995 626.671 56.9278 627.226C57.266 627.796 57.5249 628.269 57.7189 628.748L58.6458 628.372L59.5726 627.997C59.3205 627.374 58.9987 626.797 58.6485 626.206C58.2886 625.599 57.911 624.996 57.4783 624.231L56.6079 624.724ZM58.6458 628.372L57.7187 628.747C58.4265 630.498 59.2759 631.855 60.5913 632.591C61.9232 633.337 63.5031 633.321 65.3571 632.896L65.1337 631.921L64.9103 630.946C63.2368 631.33 62.2565 631.231 61.5681 630.846C60.8633 630.452 60.2326 629.63 59.5729 627.998L58.6458 628.372ZM65.1337 631.921L65.3565 632.896C69.9847 631.839 74.3031 630.002 78.0786 626.946L77.4495 626.169L76.8204 625.392C73.3303 628.216 69.3088 629.941 64.911 630.946L65.1337 631.921ZM77.4495 626.169L78.0779 626.947C81.4108 624.255 82.9664 620.641 83.0891 616.57L82.0896 616.54L81.09 616.51C80.9829 620.063 79.652 623.104 76.8211 625.391L77.4495 626.169ZM82.0896 616.54L83.0892 616.566C83.1144 615.615 82.9248 614.686 82.6867 613.828C82.4602 613.012 82.1345 612.088 81.9159 611.371L80.9593 611.663L80.0028 611.954C80.2712 612.835 80.532 613.543 80.7596 614.363C80.9754 615.14 81.1075 615.85 81.0899 616.513L82.0896 616.54ZM80.9593 611.663L81.9116 611.357C81.7525 610.861 81.4004 610.509 81.1636 610.286C80.8658 610.005 80.6719 609.855 80.4082 609.58L79.6854 610.271L78.9627 610.962C79.2615 611.274 79.6302 611.589 79.7915 611.741C80.0139 611.951 80.0175 612 80.007 611.968L80.9593 611.663ZM79.6854 610.271L78.8903 609.664C78.2364 610.522 77.6374 611.249 77.1285 611.969L77.945 612.546L78.7615 613.123C79.2472 612.436 79.7587 611.823 80.4805 610.877L79.6854 610.271ZM77.945 612.546L77.1322 611.963C74.2899 615.929 70.9614 619.413 67.0857 622.36L67.6909 623.156L68.2961 623.952C72.3401 620.877 75.8063 617.247 78.7578 613.129L77.945 612.546ZM67.6909 623.156L67.0862 622.359C64.869 624.042 62.4593 624.852 59.7483 624.504L59.621 625.496L59.4936 626.488C62.8174 626.915 65.741 625.891 68.2955 623.952L67.6909 623.156ZM59.621 625.496L59.7428 624.504C59.3977 624.461 59.0442 624.375 58.5782 624.243C58.1289 624.115 57.5514 623.938 56.8624 623.757L56.6079 624.724L56.3535 625.691C57.0219 625.867 57.5267 626.023 58.0324 626.167C58.5214 626.306 58.9956 626.427 59.4991 626.489L59.621 625.496ZM65.3552 609.166L66.1792 609.733C66.6504 609.047 66.8711 608.296 66.715 607.548C66.5611 606.811 66.0797 606.267 65.5348 605.904L64.9805 606.736L64.4261 607.568C64.6715 607.732 64.7401 607.875 64.7572 607.957C64.7723 608.029 64.7852 608.23 64.5311 608.6L65.3552 609.166ZM64.9805 606.736L65.5402 605.907C63.3347 604.418 61.0674 603.033 58.8321 601.653L58.3068 602.504L57.7814 603.355C60.0311 604.744 62.2572 606.103 64.4207 607.565L64.9805 606.736ZM58.3068 602.504L58.8124 601.641C58.4639 601.437 58.0963 601.425 57.9283 601.421C57.8367 601.42 57.7298 601.422 57.677 601.423C57.6081 601.423 57.5746 601.422 57.5552 601.42L57.4665 602.416L57.3778 603.412C57.4992 603.423 57.6136 603.423 57.6944 603.422C57.7913 603.422 57.8358 603.42 57.8916 603.421C57.9406 603.422 57.9515 603.425 57.9424 603.423C57.9319 603.421 57.875 603.41 57.8012 603.367L58.3068 602.504ZM57.4665 602.416L56.4686 602.352C56.3355 604.407 57.1554 606.181 58.7235 607.521C60.2596 608.835 62.4834 609.714 65.1952 610.153L65.3552 609.166L65.5151 608.179C63.0159 607.774 61.1843 606.994 60.0232 606.001C58.8942 605.036 58.3753 603.857 58.4644 602.481L57.4665 602.416ZM50.8693 596.596L50.5781 597.552L50.6023 597.56L50.8935 596.603L51.1847 595.646L51.1605 595.639L50.8693 596.596ZM85.6703 550.657L85.1146 549.826L85.0908 549.842L85.6465 550.673L86.2022 551.505L86.226 551.489L85.6703 550.657ZM85.6703 550.657L85.1144 549.826C85.1061 549.832 85.0995 549.836 85.0907 549.842L85.6465 550.673L86.2023 551.505C86.2094 551.5 86.2186 551.494 86.2262 551.489L85.6703 550.657ZM50.8693 596.596L50.5781 597.552C50.5885 597.556 50.5921 597.557 50.6022 597.56L50.8935 596.603L51.1848 595.646C51.1787 595.645 51.1662 595.641 51.1606 595.639L50.8693 596.596ZM35.8647 634.712L34.9245 635.053C35.6317 637.004 36.6927 638.675 38.0315 640.067L38.7524 639.374L39.4734 638.681C38.3269 637.489 37.416 636.057 36.8048 634.371L35.8647 634.712ZM38.7524 639.374L38.0315 640.067C39.8706 641.981 42.2125 643.349 44.8368 644.217L45.151 643.268L45.4653 642.319C43.0966 641.534 41.0512 640.323 39.4734 638.681L38.7524 639.374Z" fill="#965EEB" mask="url(#path-22-outside-1_2012_1505)"/>
<path d="M34.7366 637.209C35.835 636.959 37.1857 637.344 38.7734 638.72L39.094 639.009L39.1144 639.028C40.7575 640.737 42.877 641.988 45.3096 642.793L45.3105 642.794L46.0935 643.051C50.0138 644.32 54.0271 645.322 58.0335 646.44C59.012 646.713 59.9739 646.953 60.9424 647.071C61.2882 647.041 61.696 647.038 62.1279 647.079C62.3052 647.048 62.4555 647.001 62.5752 646.936L62.6948 647.158C63.3745 647.282 64.0953 647.528 64.7018 647.974C65.4651 648.534 66.0192 649.392 66.0912 650.619C66.8059 653.664 65.8516 656.596 65.1626 659.303L64.9265 660.194C64.3505 662.266 63.6115 664.297 62.8948 666.297L62.8941 666.299C62.0631 668.593 60.9525 669.955 59.5421 670.644C58.1477 671.325 56.557 671.299 54.8811 671.04L54.8817 671.042C45.7879 669.649 37.8796 665.775 30.782 660.119C29.1205 658.795 28.0348 657.271 27.5617 655.536C27.0891 653.804 27.242 651.913 27.9644 649.88L27.9647 649.879C29.2769 646.201 30.6477 642.51 32.6274 639.084C32.9259 638.359 33.6066 637.467 34.7366 637.209ZM35.3808 641.338C35.2548 641.505 35.1347 641.661 35.041 641.788C34.866 642.025 34.7445 642.219 34.6743 642.414L34.6736 642.416C33.6162 645.327 32.5563 648.214 31.5845 651.138L31.1734 652.392L31.1731 652.393C30.8356 653.435 31.1522 654.507 31.93 655.375L32.092 655.546L32.0936 655.548C33.0759 656.54 34.057 657.504 35.1619 658.216L35.1629 658.216C41.3252 662.145 47.7306 665.301 55.0481 666.197L55.532 666.25C56.5868 666.352 57.1462 666.307 57.5376 666.081C57.9713 665.83 58.3144 665.286 58.7703 663.964L58.7706 663.963C59.5607 661.681 60.3049 659.371 60.9874 657.041L60.9883 657.038C61.3347 655.882 61.5507 654.673 61.7413 653.445C61.8805 652.506 61.8181 652.129 61.6635 651.919C61.5882 651.817 61.46 651.712 61.216 651.607C60.9678 651.5 60.6299 651.405 60.166 651.307C59.0905 651.085 57.9996 650.875 56.9165 650.61L56.9128 650.609C56.8856 650.602 56.8582 650.596 56.831 650.589C55.0018 650.127 53.1754 649.664 51.3553 649.138L51.356 649.139C45.8118 647.546 39.9284 646.17 35.6645 641.482L35.6577 641.474L35.6555 641.472C35.6477 641.466 35.6167 641.447 35.5345 641.408C35.494 641.39 35.4419 641.366 35.3808 641.338Z" fill="#965EEB" stroke="#965EEB"/>
</g>
<defs>
<clipPath id="clip0_2012_1505">
<rect width="375" height="866" fill="white"/>
</clipPath>
</defs>
</svg>
