<svg width="375" height="667" viewBox="0 0 375 667" fill="none" xmlns="http://www.w3.org/2000/svg">
<g clip-path="url(#clip0_2013_2196)">
<g opacity="0.75">
<path d="M42.1512 114.17C42.5691 112.503 42.9391 111.261 43.1818 109.992C45.8404 96.9482 48.4752 83.9082 51.1855 70.8794C51.5699 69.0221 52.0774 67.1677 52.7205 65.3875C54.0108 61.851 56.1681 61.1529 59.4133 63.1565C60.6787 63.9391 61.8544 64.9092 62.9196 65.9477C71.1573 74.0359 79.3754 82.1521 87.5935 90.2683C90.2969 92.9555 92.957 95.6749 95.5933 98.3984C96.1623 98.9848 96.5814 99.6956 97.4773 100.886C98.8845 98.4326 99.6742 97.0679 100.464 95.7033C103.087 91.0989 105.709 86.4945 108.36 81.9097C108.774 81.1994 109.217 80.5087 109.775 79.9202C111.651 77.8988 113.688 78.0553 115.009 80.5445C117.136 84.5587 118.144 88.8925 118.593 93.3981C119.312 100.553 120.034 107.732 120.92 114.857C122.207 125.246 122.28 135.702 122.354 146.157C122.381 150.075 120.761 152.713 117.609 155.008C109.997 160.515 101.499 164.191 92.6045 166.588C83.4567 169.079 74.0507 170.66 64.6978 172.402C62.0623 172.89 59.2748 172.792 56.5852 172.554C51.206 172.078 46.8475 169.878 43.7047 165.111C37.8258 156.215 33.346 146.633 29.2971 136.852C25.9018 128.697 22.922 120.395 21.3118 111.656C20.9062 109.349 19.6238 106.657 22.1007 104.849C24.3606 103.201 26.6018 104.793 28.5524 105.847C32.1305 107.792 35.5168 110.041 39.0053 112.173C39.9114 112.725 40.8174 113.277 42.1904 114.114L42.1512 114.17ZM115.5 143.71C115.554 140.39 115.794 137.014 115.625 133.685C115.157 124.329 114.541 114.974 113.902 105.623C113.535 100.466 113.025 95.3333 112.491 90.2053C112.407 89.3128 111.888 88.4481 111.261 86.6951C109.942 88.8148 109.019 89.9822 108.416 91.2896C106.222 95.9656 104.057 100.661 102.023 105.407C99.8884 110.416 97.3802 110.931 93.6131 106.935C91.357 104.561 89.2115 102.119 86.9358 99.7736C80.3367 92.9173 73.7179 86.0889 67.0516 79.2688C64.8682 77.0295 62.6022 74.8783 60.3124 72.7313C59.6679 72.1336 58.8191 71.768 57.5538 70.9854C56.9091 73.0355 56.2843 74.6408 55.9141 76.2995C53.0791 89.5954 50.2679 102.887 47.4847 116.198C46.5518 120.653 45.235 121.669 41.0302 119.785C37.5987 118.255 34.4781 115.985 31.2175 114.033C29.9004 113.235 28.5833 112.437 26.9628 111.447C27.254 120.074 44.5299 156.14 51.2717 162.971C57.6606 159.151 63.8483 155.023 70.4272 151.586C77.2271 148.012 84.837 146.674 92.4061 145.662C99.7891 144.707 107.253 144.351 115.516 143.658L115.5 143.71ZM110.608 151.581C98.8416 147.963 64.8158 158.015 57.7705 167.026C63.1463 170.689 105.168 158.569 110.608 151.581Z" fill="white"/>
<path d="M83.0825 120.236C83.19 122.938 83.3688 125.628 83.3293 128.332C83.3173 129.658 83.02 131.034 82.5269 132.273C81.4369 135.137 79.9149 137.636 76.45 138.147C72.8899 138.675 70.2516 137.055 68.4573 134.379C66.6629 131.704 65.1877 128.752 64.0929 125.733C62.5905 121.51 61.7092 117.056 62.4155 112.568C62.761 110.35 63.459 108.045 64.5652 106.11C66.9414 101.917 70.977 101.305 74.8818 104.272C79.0103 107.395 80.6552 112.009 82.0706 116.712C82.4224 117.876 82.4929 119.114 82.702 120.303C82.8209 120.282 82.9202 120.289 83.0433 120.292L83.0825 120.236ZM69.7073 107.609C67.2707 109.925 66.6514 111.701 67.0672 115.599C67.5819 120.338 68.8925 124.864 71.0187 129.148C71.9282 130.974 72.7548 133.305 75.1804 132.878C77.606 132.452 77.9125 129.873 77.792 127.933C77.4572 121.985 76.7853 116.072 73.5826 110.825C72.6562 109.321 71.7256 107.793 69.7115 107.632L69.7073 107.609Z" fill="white"/>
</g>
<g opacity="0.75">
<path d="M25.5326 65.5271C27.0179 66.7824 28.252 67.6131 29.1782 68.7141C29.6413 69.2646 29.8895 70.5087 29.5924 71.0799C29.2823 71.6665 28.0646 72.2288 27.4067 72.0971C25.7982 71.7722 24.1812 71.1748 22.7342 70.3763C19.1298 68.3646 15.6121 66.1876 12.0968 64.039C8.47557 61.8275 4.81752 59.6909 1.29852 57.3271C-0.147387 56.3704 -1.40913 55.0388 -2.502 53.6644C-2.93413 53.14 -2.97423 51.8066 -2.57368 51.2698C-2.16006 50.7176 -1.01943 50.435 -0.23905 50.4845C0.73049 50.5612 1.68957 51.0269 2.57607 51.4843C10.707 55.7034 18.5859 60.3462 25.5612 65.5248L25.5326 65.5271Z" fill="white"/>
<path d="M39.8888 22.1471C40.6723 23.26 41.2842 24.0424 41.8022 24.9045C46.3545 32.3852 49.2312 40.6247 52.4385 48.6927C52.9663 50.0139 52.9933 51.3629 51.633 52.2821C50.5177 53.037 48.9948 52.7048 47.859 51.1615C46.8054 49.7406 45.9111 48.1626 45.2011 46.5548C42.2969 40.0425 39.4735 33.466 36.6526 26.918C36.3488 26.2104 36.0688 25.4433 35.9494 24.7059C35.7703 23.5997 35.6398 22.2163 36.9445 21.8337C37.8722 21.5833 39.0025 22.0346 39.9043 22.1601L39.8888 22.1471Z" fill="white"/>
<path d="M80.9704 21.9891C81.1432 22.5065 81.6719 23.3246 81.6843 24.1572C81.7283 27.9341 81.9769 31.7512 81.5129 35.4701C80.9578 39.9872 79.7936 44.4404 78.8911 48.9292C78.7251 49.6906 78.559 50.452 78.3049 51.1921C77.7041 52.9388 76.5567 53.8257 75.204 53.6374C73.9109 53.4729 72.8121 52.1995 72.9882 50.3592C73.3712 46.3596 73.9587 42.4004 74.5748 38.4388C75.2633 34.1405 76.0708 29.8897 76.9068 25.6365C77.138 24.4527 77.4834 23.2594 78.0716 22.2181C78.6206 21.2233 79.6208 20.9812 80.9574 22.0046L80.9704 21.9891Z" fill="white"/>
</g>
<g opacity="0.75">
<path fill-rule="evenodd" clip-rule="evenodd" d="M369.52 419.421C358.201 417.062 343.875 418.491 332.865 423.095C327.871 425.154 322.622 428.37 318.119 432.099C315.242 434.487 312.341 437.392 312.697 437.487C312.816 437.518 312.728 437.599 312.521 437.647C311.829 437.803 307.98 442.564 305.383 446.485C302.402 450.931 300.258 455.052 297.652 461.239C296.328 464.354 292.968 475.916 292.299 479.622C291.341 484.709 291.228 485.409 290.855 488.358C288.32 506.892 289.387 523.827 293.958 537.891C295.049 541.309 296.741 545.512 297.936 547.836C299.974 551.741 304.23 558.214 307.332 562.114C311.281 567.046 317.991 572.844 321.936 574.702L323.568 575.475L323.019 576.658C322.514 577.696 322.536 577.937 323.019 578.795C323.311 579.316 323.524 579.894 323.473 580.064C323.415 580.256 322.424 581.089 321.27 581.928C317.822 584.398 316.605 585.769 316.001 587.771C315.196 590.553 315.844 592.342 318.08 593.354C319.354 593.928 321.018 593.848 323.674 593.043C326.611 592.156 327.558 592.329 329.515 594.153C331.174 595.688 331.631 597.373 331.302 600.7C330.686 606.477 326.489 612.816 320.171 617.442C315.99 620.527 306.587 624.932 293.644 629.881C284.08 633.541 278.215 636.776 272.299 641.666C266.938 646.104 264.345 650.549 264.522 654.973C264.618 657.527 264.946 658.577 267.117 663.429C269.575 668.826 269.989 670.005 270.559 672.814C270.813 674.106 271.079 675.35 271.14 675.574C271.232 675.806 271.015 676.949 270.702 678.09C269.787 681.444 267.965 683.748 264.383 686.027C262.629 687.152 254.587 690.667 252.368 691.302C248.221 692.465 245.477 693.351 244.95 693.709C244.626 693.934 244.372 694.025 244.401 693.929C244.504 693.59 240.544 694.882 236.836 696.401C231.81 698.451 227.274 701.441 225.076 704.14C224.103 705.341 220.844 710.495 220.22 711.813C219.948 712.392 219.385 713.519 218.973 714.349C217.527 717.117 216.097 721.22 216.084 722.649C216.078 724.159 216.891 725.521 217.963 725.806C218.916 726.059 219.151 725.704 219.444 723.671C219.815 721.165 221.39 717.543 224.021 713.084C226.77 708.446 229.443 705.247 232.128 703.383C234.4 701.824 240.311 699.175 244.452 697.931C254.155 694.986 257.076 693.939 261.84 691.791C267.383 689.304 270.854 686.657 273.009 683.348C274.025 681.794 275.067 678.449 275.071 676.624C275.073 674.383 273.457 669.393 271.181 664.567C270.022 662.121 268.882 659.603 268.662 658.946C267.07 654.198 268.821 650.208 274.824 645.027C278.876 641.517 285.849 637.275 290.593 635.409C309.6 627.953 316.049 625.029 321.345 621.434C329.018 616.257 333.959 609.153 334.711 602.185C334.843 600.788 334.924 599.454 334.9 599.212C334.859 598.81 335.201 598.849 337.792 599.434C341.678 600.312 343.773 600.191 345.467 598.947C346.459 598.221 346.73 597.85 347.131 596.521C347.596 594.977 347.731 591.443 347.394 590.312C347.289 590.024 347.055 589.623 346.847 589.463C346.542 589.199 346.592 589.032 347.261 588.193C348.322 586.911 348.571 585.127 347.936 583.605C347.52 582.635 347.534 582.377 347.955 581.942C348.738 581.161 348.94 580.066 348.472 579.056C348.171 578.454 348.168 578.141 348.43 578.132C349.33 578.136 354.941 576.919 358.07 576.031C361.726 574.997 367.316 572.574 370.55 570.593C373.031 569.09 378.963 564.673 381.83 562.204C385.963 558.639 392.352 551.633 395.234 547.525C399.565 541.381 401.316 538.563 404.179 533.121C407.411 526.996 408.997 523.013 411.677 514.24C414.967 503.335 415.349 501.534 416.067 492.865C417.182 479.036 415.731 466.039 411.807 455.378C408.956 447.558 403.649 439.657 397.369 433.818C393.846 430.563 388.168 426.681 383.465 424.361C380.75 423.013 373.74 420.343 371.932 419.939C371.454 419.832 370.368 419.595 369.52 419.421ZM374.834 424.301C388.144 428.805 399.06 437.831 405.496 449.652C411.265 460.281 413.904 475.628 412.736 491.971C412.225 499.315 411.556 502.707 409.105 510.943C406.713 518.984 405.353 522.74 403.306 526.966C397.701 538.611 392.172 546.704 383.682 555.652C376.566 563.142 366.843 569.781 359.58 572.098C350.509 574.976 342.413 575.795 330.734 574.956C329.314 574.865 324.569 573.212 323.077 572.294C316.042 567.998 307.903 558.513 302.727 548.588C301.216 545.71 299.347 541.67 299.406 541.477C299.428 541.404 299.093 540.377 298.648 539.19C296.741 533.888 295.044 525.331 294.378 517.729C293.545 508.543 294.159 494.999 295.802 485.715C296.987 479.125 300.277 467.047 301.931 463.162C302.306 462.244 302.921 460.844 303.242 459.992C305.643 454.168 310.852 445.962 315.396 440.812C323.786 431.342 334.729 425.026 346.643 422.748C354.564 421.232 361.437 421.26 369.466 422.797C370.137 422.923 370.776 423.041 370.874 423.04C370.97 423.038 372.758 423.62 374.834 424.301ZM344.376 579.756C344.432 580.421 337.975 580.607 332.463 580.106C330.991 579.975 327.886 578.969 327.138 578.352C326.638 577.984 326.671 577.238 327.146 577.364C328.336 577.68 337.133 578.587 339.038 578.571C341.513 578.576 344.32 579.194 344.376 579.756ZM344.398 584.27C344.587 584.919 344.268 586.086 343.817 586.409C343.241 586.83 341.092 586.805 339.365 586.346C336.209 585.507 332.146 583.62 332.641 583.254C332.76 583.182 334.559 583.294 336.642 583.536C338.753 583.786 341.14 583.871 341.974 583.781C343.909 583.541 344.178 583.612 344.398 584.27ZM327.445 583.307C329.709 585.186 331.82 586.398 335.002 587.687C337.877 588.815 341.481 589.88 341.882 589.724C342.03 589.66 342.624 589.714 343.263 589.832L344.423 590.036L344.247 592.543C344.159 593.9 343.968 595.282 343.866 595.621C343.443 597.02 341.602 597.364 338.656 596.581C336.631 596.043 334.504 594.671 332.731 592.764C330.936 590.827 330.062 590.204 328.131 589.455C326.312 588.764 324.017 588.908 321.349 589.866C319.651 590.484 319.554 590.483 319.293 589.97C318.872 589.128 319.548 588.163 322.636 585.074C324.12 583.566 325.389 582.236 325.426 582.115C325.534 581.755 325.726 581.858 327.445 583.307Z" fill="white" stroke="white"/>
<path d="M386.339 520.737C383.467 520.726 381.998 518.906 380.672 516.987C380.344 516.479 380.288 515.888 379.946 515.495C378.263 513.298 377.491 513.2 375.673 515.19C373.397 517.705 371.263 520.122 369.115 522.654C367.268 524.873 365.01 525.172 362.454 523.683C361.969 523.388 361.512 522.864 361.585 522.289C361.73 521.139 361.617 519.958 362.291 518.758C363.854 515.686 365.174 512.466 366.608 509.377C367.311 507.948 367.298 507.012 365.757 505.767C363.159 503.571 360.591 501.146 358.437 498.539C357.068 496.966 355.041 495.426 355.746 492.946C356.322 490.45 357.166 489.972 359.808 490.772C362.208 491.425 364.465 492.176 366.85 492.944C367.107 492.976 367.478 493.14 367.735 493.172C371.336 493.626 371.577 494.824 373.413 490.618C375.293 486.068 378.529 482.155 382.108 478.636C382.852 477.912 385.994 478.892 385.993 479.943C386.143 483.932 389.253 487.243 389.275 491.216C389.259 492.381 389.5 493.579 389.612 494.761C389.753 495.713 390.353 496.139 391.382 496.268C393.953 496.592 396.469 496.326 399.043 495.599C401.745 494.889 403.587 495.821 404.454 498.266C404.838 499.365 404.594 500.268 403.721 500.976C403.435 501.173 403.134 501.486 402.72 501.667C398.873 503.167 395.568 505.553 391.578 507.152C390.205 507.68 389.732 508.321 389.83 509.618C390.026 512.211 389.965 514.772 390.289 517.382C390.87 520.024 389.896 521.536 386.339 520.737Z" fill="white"/>
<path d="M363.173 454.509C362.045 454.133 360.645 453.84 359.558 454.17C357.128 454.798 354.655 454.72 352.268 455.003C350.01 455.302 349.653 455.024 350.042 452.971C350.777 449.21 349.897 445.83 347.559 442.616C346.66 441.452 344.704 440.388 343.589 440.948C341.915 441.788 339.885 442.35 339.096 444.469C338.018 447.836 335.827 450.713 334.249 453.9C333.905 454.557 333.576 455.1 332.69 454.871C330.176 454.088 327.646 454.469 325.103 453.915C322.318 453.214 319.474 452.973 316.187 453.142C316.928 454.52 317.312 455.619 317.439 456.686C317.566 457.753 318.364 458.671 319.35 459.145C322.291 460.684 323.615 463.653 326.413 465.29C327.256 465.863 327.411 466.7 326.796 467.44C325.521 469.264 325.131 471.317 324.228 473.305C323.353 475.063 323.092 477.132 322.575 479.168C322.345 479.957 322.443 481.253 323.357 481.252C324.658 481.299 325.985 482.167 327.215 481.738C328.445 481.309 329.332 480.487 330.12 479.418C331.824 477.298 333.771 475.324 335.589 473.335C336.362 472.382 337.119 472.594 337.79 473.496C338.132 473.889 338.603 474.299 338.559 474.643C338.541 476.86 340.124 478.811 340.507 480.961C340.704 482.503 341.602 483.667 342.758 484.864C344.627 486.617 346.699 486.762 348.488 485.002C349.82 483.769 350.265 482.307 350.211 480.665C350.258 478.219 350.19 475.642 350.237 473.196C350.214 470.274 350.318 467.368 353.68 465.573C355.94 464.223 357.744 462.348 360.118 461.13C361.52 460.372 362.693 459.352 363.967 458.579C365.97 457.196 365.558 455.276 363.173 454.509Z" fill="white"/>
<path d="M324.117 517.416C324.162 517.058 324.107 516.687 324.531 516.558C325.879 516.364 325.879 516.364 326.446 517.528C327.037 516.874 327.027 516.144 327.318 515.452C327.654 514.402 328.957 515.386 329.548 514.732C328.435 513.863 328.435 513.863 327.287 514.083C326.763 514.199 326.597 513.905 326.43 513.611C326.464 513.342 326.587 513.175 326.621 512.906C327.022 512.957 327.423 513.007 327.479 512.559C327.513 512.29 327.123 512.15 326.834 512.023C326.801 511.472 327.147 511.152 327.493 510.831C329.443 510.713 329.455 510.623 329.97 508.958C331.33 508.674 332.331 509.62 333.623 509.874C334.623 511.639 334.174 513.585 334.35 515.428C334.523 518.09 334.497 520.727 334.47 523.364C334.49 524.823 334.49 524.823 336.172 525.217C338.845 525.827 341.564 526.079 344.103 526.945C345.473 527.391 345.795 528.068 345.135 529.26C344.755 529.849 344.287 530.337 343.64 530.619C341.164 531.673 338.678 532.816 336.113 533.768C334.831 534.244 334.239 534.898 334.181 536.165C334.143 538.891 333.805 541.58 334.067 544.344C334.045 544.524 334.011 544.793 333.988 544.972C333.864 545.958 333.929 547.058 332.736 547.636C331.877 547.983 329.304 547.386 328.492 546.555C327.046 545.099 325.477 543.808 324.6 541.877C323.479 539.46 322.387 539.231 319.878 540.554C318.785 541.144 317.603 541.633 316.61 542.236C314.201 543.571 313.588 543.585 310.916 542.156C311.029 541.26 311.42 540.58 312.112 539.939C313.63 538.401 313.89 536.339 314.929 534.558C315.074 534.213 315.12 533.854 315.365 533.521C317.051 531.457 316.006 530.051 314.393 528.3C312.781 526.549 310.633 525.004 309.912 522.637C309.757 522.253 309.189 521.908 308.822 521.589C308.78 520.309 309.104 519.348 310.765 519.102C311.077 519.051 311.311 518.807 311.635 518.666C312.147 518.639 312.649 518.703 313.116 519.035C314.407 520.108 315.877 520.566 317.515 520.499C318.718 520.651 320.011 520.905 321.169 521.415C321.246 521.607 321.201 521.965 321.301 521.978C321.702 522.028 321.547 521.645 321.67 521.478C321.882 521.414 322.005 521.247 322.216 521.183C323.319 521.322 323.054 520.196 323.589 519.99C324.994 519.348 324.695 518.49 324.117 517.416Z" fill="white"/>
<path d="M329.969 508.958C329.453 510.623 329.342 510.7 327.492 510.831C327.839 509.691 328.387 508.577 329.402 507.794C329.748 507.474 330.206 507.076 330.673 507.408C331.809 508.097 333.413 508.3 333.622 509.874C332.33 509.62 331.329 508.674 329.969 508.958C329.891 508.766 329.802 508.664 329.78 508.843L329.969 508.958Z" fill="white"/>
<path d="M326.328 513.598C326.495 513.892 326.662 514.186 327.185 514.07C328.334 513.851 328.334 513.851 329.446 514.719C328.944 515.475 327.553 514.39 327.217 515.44C327.026 516.144 326.924 516.951 326.344 517.515C325.778 516.351 325.778 516.351 324.429 516.545C324.966 515.52 325.023 514.253 326.328 513.598Z" fill="white"/>
<path d="M311.634 518.666C311.411 518.82 311.076 519.051 310.764 519.103C309.204 519.361 308.768 520.399 308.821 521.589C307.875 521.015 307.999 520.029 307.889 519.287C307.79 518.455 308.582 517.826 309.496 517.85C310.209 517.849 311.134 517.784 311.634 518.666Z" fill="white"/>
<path d="M324.115 517.416C324.704 518.401 325.093 519.36 323.498 519.888C322.963 520.093 323.229 521.219 322.126 521.08C322.685 519.876 322.866 518.442 324.115 517.416Z" fill="white"/>
<path d="M317.526 520.41C315.888 520.477 314.317 520.006 313.127 518.945C314.932 519.173 316.502 519.644 317.526 520.41Z" fill="white"/>
<path d="M326.821 512.112C327.122 512.15 327.411 512.278 327.466 512.649C327.41 513.097 326.909 513.034 326.608 512.996C326.653 512.637 326.687 512.369 326.821 512.112Z" fill="white"/>
<path d="M321.579 521.376C321.457 521.542 321.612 521.926 321.211 521.876C321.111 521.863 321.156 521.504 321.078 521.313C321.279 521.338 321.379 521.35 321.579 521.376Z" fill="white"/>
<path d="M329.97 508.959C329.869 508.946 329.78 508.844 329.78 508.844C329.892 508.766 329.892 508.766 329.97 508.959Z" fill="white"/>
</g>
<g opacity="0.75">
<path d="M301.763 25.013C304.027 25.2097 306.388 25.013 308.455 25.7014C311.899 26.7832 315.244 28.0618 318.196 30.5205C319.771 31.8973 321.345 33.4709 323.018 34.7494C324.002 35.4379 324.002 37.1098 325.38 37.2081C326.462 37.3065 327.249 36.2247 328.332 35.8313C331.185 34.6511 333.744 32.9792 336.597 31.9957C340.73 30.5205 344.666 30.1271 348.504 32.7825C350.865 34.356 351.653 36.5197 351.062 39.2735C350.078 44.0925 347.225 47.8298 344.076 51.3703C340.238 55.5993 336.302 59.7299 332.169 63.5655C329.316 66.2209 326.659 69.3681 322.821 70.9416C322.231 71.1383 321.936 71.7284 321.542 72.2202C319.672 74.6789 317.212 74.7772 314.851 72.7119C312.883 71.04 310.816 69.5648 308.947 67.7945C306.782 65.7292 304.519 63.7622 302.747 61.5002C298.811 56.4844 295.663 50.9769 293.301 45.076C292.415 42.9124 291.825 40.6503 291.333 38.29C290.841 35.9296 291.136 33.766 291.628 31.504C291.825 30.8155 291.923 30.1271 292.514 29.6353C295.072 26.8816 297.237 24.8163 301.763 25.013ZM327.249 40.7487C327.643 41.8305 327.938 42.9124 328.332 43.8959C329.217 46.2562 328.922 48.5182 328.135 50.7802C327.84 51.6654 327.249 52.3538 326.364 52.9439C323.51 54.8125 320.361 54.7142 317.606 53.534C314.654 52.2554 312.587 49.1083 315.146 45.3711C316.425 43.5025 318.098 41.9289 319.968 40.6503C321.148 39.8636 321.247 39.4702 320.46 38.4867C318.984 36.6181 317.606 34.8478 315.736 33.3726C313.079 31.3073 310.423 29.4386 306.88 28.9469C304.617 28.6518 302.551 28.0618 300.189 28.8485C296.942 30.0287 295.367 31.7007 295.367 35.1429C295.367 37.8966 296.351 40.4536 297.237 43.109C298.123 46.0595 299.697 48.7149 301.173 51.3703C302.354 53.4356 303.633 55.5993 305.207 57.3696C308.258 61.0084 311.308 64.4507 314.949 67.4995C316.819 69.073 317.114 69.1714 319.279 68.0896C319.672 67.8929 320.066 67.5978 320.46 67.4011C324.396 65.0407 327.446 61.6969 330.792 58.6481C333.744 55.8944 336.499 52.8456 339.254 49.8951C341.419 47.5347 343.19 44.9777 344.765 42.3223C345.453 41.1421 345.945 39.7652 346.339 38.3883C347.028 35.6346 343.977 33.6676 341.812 34.1594C338.073 35.0445 334.629 36.6181 331.284 38.4867C330.103 39.2735 328.824 40.1586 327.249 40.7487ZM323.412 43.6991C321.837 44.2892 320.656 45.2727 319.574 46.4529C318.59 47.5347 318.295 49.1083 318.885 49.8951C319.672 50.8786 320.853 51.1736 322.034 50.9769C323.412 50.7802 324.199 49.8951 324.297 48.3215C324.396 46.748 324.494 45.1744 323.412 43.6991Z" fill="white"/>
</g>
<path opacity="0.75" d="M267.986 73.5542C268.042 72.3645 268.042 71.3299 268.711 70.4505C269.937 68.7952 272.501 68.5366 274.228 69.7781C275.343 70.554 276.402 71.3299 277.127 72.4162C277.572 73.0369 277.74 73.0369 278.408 72.5714C279.635 71.7955 280.805 70.8126 282.143 70.1919C284.762 69.0021 287.27 68.7952 289.332 71.3816C290.057 72.3127 290.168 73.5025 289.722 74.5888C289.221 75.7785 288.719 76.8648 287.716 77.8477C286.323 79.1409 285.319 80.7962 284.149 82.2963C283.146 83.5895 282.087 84.831 281.084 86.1242C280.582 86.7967 279.802 87.1588 279.133 87.6243C278.854 87.8312 278.408 87.9347 278.018 87.9864C277.517 88.0899 277.405 87.5726 277.071 87.4174C276.736 87.2105 276.402 87.0036 276.068 86.7967C274.006 85.5552 272.445 83.9516 271.052 82.0894C269.881 80.5375 269.268 78.8305 268.599 77.0717C268.209 75.882 268.042 74.6405 267.986 73.5542Z" fill="white"/>
<path opacity="0.75" d="M95.9737 548.828C98.3538 556.504 96.5385 562.951 91.2521 568.636C89.8802 570.115 88.9684 571.996 87.3322 573.406C83.2906 577.015 83.1241 577.113 77.4777 578.752C76.7346 576.724 76.819 574.77 76.8055 572.648C76.7308 566.417 72.7436 560.582 67.0307 558.674C64.6857 557.924 62.1743 557.272 59.6576 557.183C54.7565 557.039 52.5228 558.577 50.7918 563.068C49.6396 565.875 48.2864 568.912 49.7829 571.841C51.4065 575.369 53.9315 578.142 57.1912 580.26C60.5832 582.411 64.2446 584.068 68.2444 584.966C69.5662 585.309 70.1585 585.745 69.3497 587.229C67.3596 591.089 64.6159 594.047 60.59 595.966C60.257 596.162 59.7917 596.323 59.4243 596.651C54.4522 600.583 48.9193 600.699 43.0294 600.016C37.4038 599.402 32.1852 597.764 27.5454 594.441C25.7905 597.939 25.7905 597.939 28.5851 600.217C36.0776 606.681 44.582 607.619 53.9108 605.384C59.3221 604.107 63.8528 601.331 67.5322 597.486C70.2759 594.529 73.1226 591.174 74.2218 586.942C74.5309 585.752 75.2658 585.095 76.4606 584.841C79.8443 584.308 82.9345 583.276 85.7364 581.18C90.6054 577.645 94.9166 573.541 97.8477 568.232C100.205 564.044 102.166 559.754 101.65 554.678C101.563 553.385 102.229 552.993 103.482 553.601C104.603 554.175 105.621 555.145 106.707 555.851C107.53 556.488 108.484 557.159 109.576 557.302C110.668 557.444 111.598 557.121 111.844 555.632C112.33 553.217 111.782 551.522 109.81 549.88C106.918 547.435 104.06 544.857 101.168 542.412C97.8152 539.565 95.2642 539.608 92.5497 542.997C91.3444 544.378 90.1391 545.759 88.4738 546.738C87.9742 547.032 87.6067 547.36 87.3371 547.855C86.3275 549.569 86.1349 552.484 87.2558 553.057C89.0033 553.935 90.3064 552.72 91.673 551.805C93.0396 550.889 94.3428 549.674 95.9737 548.828ZM61.7494 563.797C63.1399 563.876 64.0652 564.116 64.9218 564.621C65.7783 565.126 66.6349 565.63 67.3593 566.101C70.6534 568.086 73.1522 573.676 72.3569 577.281C71.876 579.133 71.5429 579.329 69.6237 579.112C67.0435 578.725 64.6695 577.543 62.2954 576.362C59.0648 574.676 56.1381 572.363 54.6468 568.869C53.4489 565.876 54.6938 563.799 57.7788 563.33C59.4045 563.047 60.7263 563.39 61.7494 563.797Z" fill="white"/>
</g>
<defs>
<clipPath id="clip0_2013_2196">
<rect width="375" height="667" fill="white"/>
</clipPath>
</defs>
</svg>
