<svg width="375" height="1049" viewBox="0 0 375 1049" fill="none" xmlns="http://www.w3.org/2000/svg">
<g clip-path="url(#clip0_2012_1361)">
<path d="M71.7859 18.4861C27.5607 18.4861 12.6828 25.1486 11.3858 36.9362C-1.9228 157.887 13.945 340.85 11.3857 356.738C8.82634 372.625 11.3857 552.59 11.3857 602.303C11.3857 652.015 29.9538 656.739 58.1064 655.201C86.2591 653.664 300.859 658.789 333.106 655.201C365.354 651.614 371.734 597.303 369.606 557.303C368.004 527.183 363.606 356.892 363.606 319.303C363.606 267.803 371.675 64.1427 365.606 40.3028C358.606 12.8027 127.068 18.4861 71.7859 18.4861Z" fill="white"/>
<path fill-rule="evenodd" clip-rule="evenodd" d="M109.093 470.641C98.6732 468.469 85.4838 469.784 75.3486 474.023C70.7506 475.919 65.9183 478.88 61.7731 482.312C59.1251 484.51 56.4541 487.185 56.7821 487.272C56.8914 487.301 56.81 487.375 56.6193 487.42C55.983 487.563 52.4395 491.946 50.0486 495.556C47.3043 499.649 45.3303 503.442 42.9314 509.139C41.7122 512.006 38.6192 522.65 38.0031 526.062C37.1216 530.746 37.0172 531.39 36.6734 534.105C34.3405 551.167 35.3221 566.757 39.5304 579.705C40.5352 582.851 42.0923 586.72 43.1927 588.86C45.069 592.455 48.987 598.414 51.8428 602.005C55.4777 606.545 61.6556 611.882 65.2867 613.593L66.7899 614.305L66.2843 615.393C65.8188 616.349 65.839 616.571 66.2839 617.361C66.5526 617.84 66.7489 618.373 66.7019 618.529C66.6484 618.706 65.7367 619.473 64.6744 620.245C61.5001 622.519 60.3798 623.782 59.8238 625.625C59.0821 628.186 59.6792 629.832 61.7372 630.764C62.9105 631.293 64.4424 631.219 66.8873 630.478C69.5908 629.661 70.4623 629.82 72.264 631.5C73.7917 632.913 74.2122 634.464 73.9095 637.527C73.3426 642.845 69.479 648.681 63.6618 652.94C59.8136 655.78 51.1564 659.835 39.2414 664.391C30.4369 667.76 25.037 670.739 19.591 675.24C14.6554 679.326 12.2683 683.418 12.4314 687.491C12.5204 689.842 12.8222 690.809 14.8203 695.276C17.0833 700.244 17.4644 701.329 17.9889 703.915C18.2232 705.105 18.4683 706.25 18.5241 706.456C18.6087 706.67 18.4094 707.722 18.1206 708.772C17.2789 711.86 15.6016 713.981 12.3033 716.079C10.6892 717.115 3.28569 720.351 1.24255 720.935C-2.57541 722.006 -5.10167 722.822 -5.58612 723.151C-5.88491 723.359 -6.11823 723.442 -6.09151 723.354C-5.99736 723.042 -9.64307 724.232 -13.0562 725.629C-17.6829 727.517 -21.8591 730.27 -23.8823 732.754C-24.7782 733.86 -27.7783 738.604 -28.3525 739.818C-28.6031 740.351 -29.1214 741.388 -29.5011 742.153C-30.832 744.701 -32.1487 748.478 -32.1604 749.794C-32.1665 751.184 -31.4173 752.438 -30.4309 752.7C-29.5537 752.933 -29.3369 752.606 -29.0676 750.735C-28.7257 748.427 -27.2756 745.093 -24.8535 740.988C-22.3227 736.718 -19.8626 733.773 -17.3908 732.057C-15.2992 730.622 -9.8569 728.184 -6.0446 727.038C2.88753 724.327 5.57654 723.363 9.96296 721.386C15.0652 719.096 18.2606 716.659 20.2451 713.613C21.1799 712.182 22.1398 709.103 22.1434 707.423C22.1445 705.36 20.6568 700.766 18.5614 696.323C17.4947 694.071 16.4451 691.754 16.2425 691.149C14.7777 686.777 16.3893 683.104 21.9161 678.334C25.6462 675.103 32.0653 671.198 36.4325 669.48C53.9303 662.616 59.868 659.924 64.7435 656.615C71.8073 651.849 76.3556 645.309 77.048 638.894C77.1691 637.608 77.2444 636.38 77.2215 636.157C77.1841 635.787 77.4994 635.823 79.8842 636.362C83.4615 637.169 85.39 637.058 86.9502 635.913C87.8632 635.244 88.1124 634.903 88.4813 633.68C88.9101 632.259 89.0342 629.005 88.7242 627.963C88.627 627.698 88.4122 627.329 88.2203 627.182C87.9394 626.939 87.9859 626.785 88.6013 626.013C89.5785 624.833 89.8071 623.19 89.2233 621.789C88.8402 620.897 88.8529 620.659 89.2408 620.258C89.9611 619.539 90.147 618.531 89.7162 617.601C89.4392 617.047 89.4361 616.759 89.6776 616.751C90.5059 616.754 95.6715 615.634 98.5524 614.817C101.918 613.864 107.064 611.634 110.041 609.81C112.325 608.427 117.786 604.36 120.426 602.087C124.231 598.805 130.112 592.356 132.766 588.574C136.753 582.917 138.365 580.323 141.001 575.314C143.975 569.674 145.436 566.008 147.903 557.931C150.932 547.892 151.283 546.234 151.945 538.253C152.971 525.522 151.635 513.557 148.023 503.743C145.398 496.544 140.512 489.27 134.731 483.895C131.488 480.899 126.26 477.324 121.931 475.189C119.431 473.948 112.978 471.49 111.314 471.118C110.874 471.019 109.874 470.801 109.093 470.641ZM113.985 475.133C126.238 479.279 136.288 487.589 142.213 498.472C147.524 508.257 149.953 522.385 148.878 537.431C148.407 544.191 147.791 547.315 145.535 554.896C143.333 562.299 142.082 565.757 140.197 569.647C135.036 580.368 129.946 587.818 122.13 596.056C115.58 602.951 106.628 609.062 99.9428 611.196C91.5916 613.845 84.1385 614.599 73.3867 613.826C72.0792 613.743 67.7107 612.222 66.3379 611.376C59.8609 607.421 52.368 598.689 47.6033 589.552C46.2125 586.903 44.4921 583.183 44.5455 583.006C44.5659 582.939 44.2578 581.994 43.848 580.901C42.0929 576.02 40.5303 568.142 39.9173 561.143C39.1507 552.687 39.7155 540.218 41.2284 531.671C42.3193 525.604 45.3475 514.485 46.8707 510.909C47.2155 510.064 47.7815 508.775 48.0773 507.99C50.288 502.629 55.0832 495.075 59.2662 490.333C66.9907 481.616 77.0645 475.8 88.0325 473.703C95.325 472.308 101.652 472.334 109.044 473.748C109.661 473.865 110.25 473.973 110.34 473.972C110.428 473.971 112.074 474.506 113.985 475.133ZM85.9455 618.246C85.9969 618.858 80.0522 619.029 74.9786 618.568C73.6234 618.447 70.7651 617.521 70.0762 616.953C69.6161 616.614 69.6461 615.927 70.0834 616.044C71.1791 616.335 79.2777 617.17 81.0309 617.155C83.3097 617.16 85.8935 617.728 85.9455 618.246ZM85.9656 622.401C86.1396 622.998 85.8463 624.073 85.4305 624.37C84.9003 624.758 82.9222 624.735 81.3319 624.312C78.4272 623.54 74.6861 621.803 75.1419 621.466C75.2519 621.399 76.9078 621.503 78.8255 621.726C80.7692 621.955 82.9666 622.034 83.7339 621.951C85.5157 621.73 85.7629 621.796 85.9656 622.401ZM70.3586 621.515C72.4432 623.245 74.3867 624.361 77.3155 625.547C79.9628 626.586 83.28 627.566 83.6493 627.423C83.7854 627.363 84.3327 627.413 84.9212 627.522L85.9891 627.71L85.8271 630.017C85.7454 631.267 85.5697 632.539 85.4756 632.851C85.0869 634.139 83.3915 634.456 80.6794 633.735C78.8158 633.239 76.8577 631.976 75.2251 630.221C73.5728 628.438 72.7676 627.864 70.9904 627.175C69.3156 626.538 67.2034 626.671 64.747 627.553C63.1838 628.122 63.0942 628.121 62.8541 627.649C62.4665 626.874 63.089 625.985 65.9317 623.142C67.298 621.754 68.4659 620.529 68.4996 620.417C68.5995 620.086 68.7762 620.181 70.3586 621.515Z" fill="#965EEB"/>
<path d="M113.985 475.133C126.238 479.279 136.288 487.589 142.213 498.472C147.524 508.257 149.953 522.385 148.878 537.431C148.407 544.191 147.791 547.315 145.535 554.896C143.333 562.299 142.082 565.757 140.197 569.647C135.036 580.368 129.946 587.818 122.13 596.056C115.58 602.951 106.628 609.062 99.9428 611.196C91.5916 613.845 84.1385 614.599 73.3867 613.826C72.0792 613.743 67.7107 612.222 66.3379 611.376C59.8609 607.421 52.368 598.689 47.6033 589.552C46.2125 586.903 44.4921 583.183 44.5455 583.006C44.5659 582.939 44.2578 581.994 43.848 580.901C42.0929 576.02 40.5303 568.142 39.9173 561.143C39.1507 552.687 39.7155 540.218 41.2284 531.671C42.3193 525.604 45.3475 514.485 46.8707 510.909C47.2155 510.064 47.7815 508.775 48.0773 507.99C50.288 502.629 55.0832 495.075 59.2662 490.333C66.9907 481.616 77.0645 475.8 88.0325 473.703C95.325 472.308 101.652 472.334 109.044 473.748C109.661 473.865 110.25 473.973 110.34 473.972C110.428 473.971 112.074 474.506 113.985 475.133Z" fill="white"/>
<path d="M85.9455 618.246C85.9969 618.858 80.0522 619.029 74.9786 618.568C73.6234 618.447 70.7651 617.521 70.0762 616.953C69.6161 616.614 69.6461 615.927 70.0834 616.044C71.1791 616.335 79.2777 617.17 81.0309 617.155C83.3097 617.16 85.8935 617.728 85.9455 618.246Z" fill="white"/>
<path d="M85.9656 622.401C86.1396 622.998 85.8463 624.073 85.4305 624.37C84.9003 624.758 82.9222 624.735 81.3319 624.312C78.4272 623.54 74.6861 621.803 75.1419 621.466C75.2519 621.399 76.9078 621.503 78.8255 621.726C80.7692 621.955 82.9666 622.034 83.7339 621.951C85.5157 621.73 85.7629 621.796 85.9656 622.401Z" fill="white"/>
<path d="M70.3586 621.515C72.4432 623.245 74.3867 624.361 77.3155 625.547C79.9628 626.586 83.28 627.566 83.6493 627.423C83.7854 627.363 84.3327 627.413 84.9212 627.522L85.9891 627.71L85.8271 630.017C85.7454 631.267 85.5697 632.539 85.4756 632.851C85.0869 634.139 83.3915 634.456 80.6794 633.735C78.8158 633.239 76.8577 631.976 75.2251 630.221C73.5728 628.438 72.7676 627.864 70.9904 627.175C69.3156 626.538 67.2034 626.671 64.747 627.553C63.1838 628.122 63.0942 628.121 62.8541 627.649C62.4665 626.874 63.089 625.985 65.9317 623.142C67.298 621.754 68.4659 620.529 68.4996 620.417C68.5995 620.086 68.7762 620.181 70.3586 621.515Z" fill="white"/>
<path fill-rule="evenodd" clip-rule="evenodd" d="M109.093 470.641C98.6732 468.469 85.4838 469.784 75.3486 474.023C70.7506 475.919 65.9183 478.88 61.7731 482.312C59.1251 484.51 56.4541 487.185 56.7821 487.272C56.8914 487.301 56.81 487.375 56.6193 487.42C55.983 487.563 52.4395 491.946 50.0486 495.556C47.3043 499.649 45.3303 503.442 42.9314 509.139C41.7122 512.006 38.6192 522.65 38.0031 526.062C37.1216 530.746 37.0172 531.39 36.6734 534.105C34.3405 551.167 35.3221 566.757 39.5304 579.705C40.5352 582.851 42.0923 586.72 43.1927 588.86C45.069 592.455 48.987 598.414 51.8428 602.005C55.4777 606.545 61.6556 611.882 65.2867 613.593L66.7899 614.305L66.2843 615.393C65.8188 616.349 65.839 616.571 66.2839 617.361C66.5526 617.84 66.7489 618.373 66.7019 618.529C66.6484 618.706 65.7367 619.473 64.6744 620.245C61.5001 622.519 60.3798 623.782 59.8238 625.625C59.0821 628.186 59.6792 629.832 61.7372 630.764C62.9105 631.293 64.4424 631.219 66.8873 630.478C69.5908 629.661 70.4623 629.82 72.264 631.5C73.7917 632.913 74.2122 634.464 73.9095 637.527C73.3426 642.845 69.479 648.681 63.6618 652.94C59.8136 655.78 51.1564 659.835 39.2414 664.391C30.4369 667.76 25.037 670.739 19.591 675.24C14.6554 679.326 12.2683 683.418 12.4314 687.491C12.5204 689.842 12.8222 690.809 14.8203 695.276C17.0833 700.244 17.4644 701.329 17.9889 703.915C18.2232 705.105 18.4683 706.25 18.5241 706.456C18.6087 706.67 18.4094 707.722 18.1206 708.772C17.2789 711.86 15.6016 713.981 12.3033 716.079C10.6892 717.115 3.28569 720.351 1.24255 720.935C-2.57541 722.006 -5.10167 722.822 -5.58612 723.151C-5.88491 723.359 -6.11823 723.442 -6.09151 723.354C-5.99736 723.042 -9.64307 724.232 -13.0562 725.629C-17.6829 727.517 -21.8591 730.27 -23.8823 732.754C-24.7782 733.86 -27.7783 738.604 -28.3525 739.818C-28.6031 740.351 -29.1214 741.388 -29.5011 742.153C-30.832 744.701 -32.1487 748.478 -32.1604 749.794C-32.1665 751.184 -31.4173 752.438 -30.4309 752.7C-29.5537 752.933 -29.3369 752.606 -29.0676 750.735C-28.7257 748.427 -27.2756 745.093 -24.8535 740.988C-22.3227 736.718 -19.8626 733.773 -17.3908 732.057C-15.2992 730.622 -9.8569 728.184 -6.0446 727.038C2.88753 724.327 5.57654 723.363 9.96296 721.386C15.0652 719.096 18.2606 716.659 20.2451 713.613C21.1799 712.182 22.1398 709.103 22.1434 707.423C22.1445 705.36 20.6568 700.766 18.5614 696.323C17.4947 694.071 16.4451 691.754 16.2425 691.149C14.7777 686.777 16.3893 683.104 21.9161 678.334C25.6462 675.103 32.0653 671.198 36.4325 669.48C53.9303 662.616 59.868 659.924 64.7435 656.615C71.8073 651.849 76.3556 645.309 77.048 638.894C77.1691 637.608 77.2444 636.38 77.2215 636.157C77.1841 635.787 77.4994 635.823 79.8842 636.362C83.4615 637.169 85.39 637.058 86.9502 635.913C87.8632 635.244 88.1124 634.903 88.4813 633.68C88.9101 632.259 89.0342 629.005 88.7242 627.963C88.627 627.698 88.4122 627.329 88.2203 627.182C87.9394 626.939 87.9859 626.785 88.6013 626.013C89.5785 624.833 89.8071 623.19 89.2233 621.789C88.8402 620.897 88.8529 620.659 89.2408 620.258C89.9611 619.539 90.147 618.531 89.7162 617.601C89.4392 617.047 89.4361 616.759 89.6776 616.751C90.5059 616.754 95.6715 615.634 98.5524 614.817C101.918 613.864 107.064 611.634 110.041 609.81C112.325 608.427 117.786 604.36 120.426 602.087C124.231 598.805 130.112 592.356 132.766 588.574C136.753 582.917 138.365 580.323 141.001 575.314C143.975 569.674 145.436 566.008 147.903 557.931C150.932 547.892 151.283 546.234 151.945 538.253C152.971 525.522 151.635 513.557 148.023 503.743C145.398 496.544 140.512 489.27 134.731 483.895C131.488 480.899 126.26 477.324 121.931 475.189C119.431 473.948 112.978 471.49 111.314 471.118C110.874 471.019 109.874 470.801 109.093 470.641ZM113.985 475.133C126.238 479.279 136.288 487.589 142.213 498.472C147.524 508.257 149.953 522.385 148.878 537.431C148.407 544.191 147.791 547.315 145.535 554.896C143.333 562.299 142.082 565.757 140.197 569.647C135.036 580.368 129.946 587.818 122.13 596.056C115.58 602.951 106.628 609.062 99.9428 611.196C91.5916 613.845 84.1385 614.599 73.3867 613.826C72.0792 613.743 67.7107 612.222 66.3379 611.376C59.8609 607.421 52.368 598.689 47.6033 589.552C46.2125 586.903 44.4921 583.183 44.5455 583.006C44.5659 582.939 44.2578 581.994 43.848 580.901C42.0929 576.02 40.5303 568.142 39.9173 561.143C39.1507 552.687 39.7155 540.218 41.2284 531.671C42.3193 525.604 45.3475 514.485 46.8707 510.909C47.2155 510.064 47.7815 508.775 48.0773 507.99C50.288 502.629 55.0832 495.075 59.2662 490.333C66.9907 481.616 77.0645 475.8 88.0325 473.703C95.325 472.308 101.652 472.334 109.044 473.748C109.661 473.865 110.25 473.973 110.34 473.972C110.428 473.971 112.074 474.506 113.985 475.133ZM85.9455 618.246C85.9969 618.858 80.0522 619.029 74.9786 618.568C73.6234 618.447 70.7651 617.521 70.0762 616.953C69.6161 616.614 69.6461 615.927 70.0834 616.044C71.1791 616.335 79.2777 617.17 81.0309 617.155C83.3097 617.16 85.8935 617.728 85.9455 618.246ZM85.9656 622.401C86.1396 622.998 85.8463 624.073 85.4305 624.37C84.9003 624.758 82.9222 624.735 81.3319 624.312C78.4272 623.54 74.6861 621.803 75.1419 621.466C75.2519 621.399 76.9078 621.503 78.8255 621.726C80.7692 621.955 82.9666 622.034 83.7339 621.951C85.5157 621.73 85.7629 621.796 85.9656 622.401ZM70.3586 621.515C72.4432 623.245 74.3867 624.361 77.3155 625.547C79.9628 626.586 83.28 627.566 83.6493 627.423C83.7854 627.363 84.3327 627.413 84.9212 627.522L85.9891 627.71L85.8271 630.017C85.7454 631.267 85.5697 632.539 85.4756 632.851C85.0869 634.139 83.3915 634.456 80.6794 633.735C78.8158 633.239 76.8577 631.976 75.2251 630.221C73.5728 628.438 72.7676 627.864 70.9904 627.175C69.3156 626.538 67.2034 626.671 64.747 627.553C63.1838 628.122 63.0942 628.121 62.8541 627.649C62.4665 626.874 63.089 625.985 65.9317 623.142C67.298 621.754 68.4659 620.529 68.4996 620.417C68.5995 620.086 68.7762 620.181 70.3586 621.515Z" stroke="#965EEB"/>
<path d="M113.985 475.133C126.238 479.279 136.288 487.589 142.213 498.472C147.524 508.257 149.953 522.385 148.878 537.431C148.407 544.191 147.791 547.315 145.535 554.896C143.333 562.299 142.082 565.757 140.197 569.647C135.036 580.368 129.946 587.818 122.13 596.056C115.58 602.951 106.628 609.062 99.9428 611.196C91.5916 613.845 84.1385 614.599 73.3867 613.826C72.0792 613.743 67.7107 612.222 66.3379 611.376C59.8609 607.421 52.368 598.689 47.6033 589.552C46.2125 586.903 44.4921 583.183 44.5455 583.006C44.5659 582.939 44.2578 581.994 43.848 580.901C42.0929 576.02 40.5303 568.142 39.9173 561.143C39.1507 552.687 39.7155 540.218 41.2284 531.671C42.3193 525.604 45.3475 514.485 46.8707 510.909C47.2155 510.064 47.7815 508.775 48.0773 507.99C50.288 502.629 55.0832 495.075 59.2662 490.333C66.9907 481.616 77.0645 475.8 88.0325 473.703C95.325 472.308 101.652 472.334 109.044 473.748C109.661 473.865 110.25 473.973 110.34 473.972C110.428 473.971 112.074 474.506 113.985 475.133Z" stroke="#965EEB"/>
<path d="M85.9455 618.246C85.9969 618.858 80.0522 619.029 74.9786 618.568C73.6234 618.447 70.7651 617.521 70.0762 616.953C69.6161 616.614 69.6461 615.927 70.0834 616.044C71.1791 616.335 79.2777 617.17 81.0309 617.155C83.3097 617.16 85.8935 617.728 85.9455 618.246Z" stroke="#965EEB"/>
<path d="M85.9656 622.401C86.1396 622.998 85.8463 624.073 85.4305 624.37C84.9003 624.758 82.9222 624.735 81.3319 624.312C78.4272 623.54 74.6861 621.803 75.1419 621.466C75.2519 621.399 76.9078 621.503 78.8255 621.726C80.7692 621.955 82.9666 622.034 83.7339 621.951C85.5157 621.73 85.7629 621.796 85.9656 622.401Z" stroke="#965EEB"/>
<path d="M70.3586 621.515C72.4432 623.245 74.3867 624.361 77.3155 625.547C79.9628 626.586 83.28 627.566 83.6493 627.423C83.7854 627.363 84.3327 627.413 84.9212 627.522L85.9891 627.71L85.8271 630.017C85.7454 631.267 85.5697 632.539 85.4756 632.851C85.0869 634.139 83.3915 634.456 80.6794 633.735C78.8158 633.239 76.8577 631.976 75.2251 630.221C73.5728 628.438 72.7676 627.864 70.9904 627.175C69.3156 626.538 67.2034 626.671 64.747 627.553C63.1838 628.122 63.0942 628.121 62.8541 627.649C62.4665 626.874 63.089 625.985 65.9317 623.142C67.298 621.754 68.4659 620.529 68.4996 620.417C68.5995 620.086 68.7762 620.181 70.3586 621.515Z" stroke="#965EEB"/>
<path d="M124.576 563.913C121.932 563.902 120.579 562.227 119.359 560.461C119.057 559.993 119.005 559.449 118.69 559.087C117.141 557.064 116.431 556.974 114.757 558.806C112.661 561.122 110.697 563.347 108.72 565.677C107.019 567.72 104.94 567.996 102.588 566.625C102.141 566.353 101.72 565.87 101.787 565.341C101.92 564.283 101.817 563.195 102.437 562.091C103.876 559.262 105.091 556.298 106.412 553.455C107.059 552.139 107.047 551.277 105.628 550.131C103.237 548.11 100.872 545.877 98.8897 543.477C97.6292 542.029 95.7634 540.611 96.4118 538.328C96.9419 536.03 97.7189 535.59 100.152 536.327C102.361 536.928 104.438 537.619 106.634 538.326C106.871 538.356 107.213 538.506 107.45 538.536C110.764 538.954 110.986 540.057 112.676 536.185C114.407 531.996 117.386 528.394 120.681 525.154C121.366 524.488 124.259 525.39 124.257 526.357C124.396 530.03 127.259 533.078 127.279 536.735C127.264 537.808 127.486 538.911 127.589 539.999C127.719 540.875 128.271 541.267 129.218 541.387C131.586 541.685 133.902 541.439 136.271 540.77C138.759 540.116 140.454 540.975 141.253 543.226C141.607 544.238 141.382 545.069 140.578 545.72C140.315 545.902 140.038 546.19 139.656 546.357C136.115 547.738 133.072 549.934 129.399 551.406C128.135 551.892 127.7 552.482 127.79 553.676C127.97 556.064 127.914 558.421 128.212 560.824C128.748 563.256 127.851 564.648 124.576 563.913Z" fill="#965EEB"/>
<path d="M103.251 502.943C102.212 502.597 100.923 502.327 99.9227 502.631C97.6851 503.209 95.4092 503.137 93.2117 503.398C91.1326 503.673 90.8041 503.417 91.1624 501.527C91.8392 498.065 91.0287 494.953 88.876 491.994C88.049 490.923 86.2482 489.943 85.2211 490.459C83.6806 491.232 81.8116 491.749 81.0847 493.7C80.0928 496.8 78.0755 499.448 76.6234 502.382C76.3066 502.987 76.0032 503.487 75.1879 503.276C72.8736 502.555 70.5443 502.906 68.2034 502.396C65.639 501.751 63.0213 501.528 59.9951 501.685C60.6771 502.953 61.0307 503.965 61.1474 504.947C61.2642 505.929 61.9995 506.774 62.9066 507.211C65.6144 508.627 66.8334 511.361 69.4095 512.868C70.1848 513.395 70.3283 514.166 69.7614 514.847C68.5877 516.527 68.2293 518.416 67.3974 520.246C66.5922 521.865 66.3522 523.769 65.8754 525.644C65.6637 526.37 65.7539 527.564 66.5959 527.562C67.793 527.606 69.0152 528.405 70.1473 528.01C71.2794 527.615 72.0964 526.858 72.8216 525.874C74.3904 523.922 76.1827 522.106 77.8566 520.274C78.5685 519.397 79.2654 519.592 79.8824 520.422C80.1975 520.784 80.6311 521.161 80.5911 521.479C80.5745 523.519 82.0318 525.315 82.3838 527.294C82.5656 528.715 83.3926 529.786 84.4564 530.888C86.1772 532.502 88.0847 532.635 89.7319 531.015C90.9573 529.88 91.3674 528.534 91.3173 527.023C91.3605 524.771 91.2987 522.398 91.3419 520.146C91.3201 517.456 91.4166 514.781 94.5111 513.128C96.5918 511.886 98.2524 510.16 100.438 509.038C101.729 508.341 102.809 507.402 103.981 506.689C105.825 505.417 105.447 503.649 103.251 502.943Z" fill="#965EEB"/>
<path d="M67.2927 560.856C67.3343 560.526 67.2836 560.184 67.6736 560.065C68.9151 559.887 68.9151 559.887 69.4365 560.958C69.9812 560.356 69.9721 559.684 70.2398 559.048C70.5492 558.081 71.7479 558.986 72.2926 558.384C71.2681 557.585 71.2681 557.585 70.2112 557.787C69.7288 557.894 69.5754 557.623 69.422 557.352C69.4532 557.105 69.5663 556.951 69.5975 556.704C69.9667 556.75 70.3359 556.797 70.3879 556.384C70.4191 556.137 70.0603 556.008 69.7938 555.89C69.7638 555.384 70.0823 555.088 70.4008 554.793C72.1962 554.684 72.2066 554.602 72.681 553.069C73.9329 552.808 74.8548 553.678 76.0443 553.912C76.9649 555.537 76.5516 557.328 76.7129 559.025C76.8729 561.476 76.8483 563.903 76.8238 566.331C76.842 567.674 76.8421 567.674 78.3905 568.037C80.8515 568.599 83.3541 568.83 85.6917 569.628C86.9528 570.038 87.2492 570.662 86.6421 571.759C86.2924 572.302 85.8609 572.75 85.2654 573.01C82.9865 573.98 80.6972 575.033 78.3363 575.909C77.1559 576.347 76.6111 576.949 76.5579 578.116C76.5229 580.626 76.2111 583.101 76.453 585.646C76.4322 585.811 76.4011 586.058 76.3803 586.223C76.2659 587.131 76.3258 588.144 75.2272 588.676C74.4368 588.996 72.0681 588.446 71.3205 587.681C69.9892 586.34 68.5448 585.152 67.7373 583.374C66.705 581.149 65.7 580.938 63.3898 582.156C62.3836 582.7 61.2955 583.149 60.3816 583.705C58.1637 584.934 57.5995 584.947 55.1397 583.631C55.2437 582.806 55.6038 582.181 56.2408 581.59C57.6383 580.174 57.8774 578.276 58.8341 576.637C58.968 576.318 59.0096 575.988 59.2358 575.681C60.7879 573.782 59.8258 572.487 58.3411 570.875C56.8563 569.263 54.8788 567.841 54.2157 565.662C54.0726 565.308 53.55 564.991 53.212 564.697C53.1729 563.519 53.4719 562.634 55.0007 562.408C55.288 562.36 55.5038 562.136 55.8015 562.006C56.2735 561.982 56.735 562.04 57.1653 562.345C58.3536 563.333 59.707 563.755 61.2151 563.694C62.3227 563.833 63.5123 564.067 64.5784 564.537C64.6499 564.713 64.6083 565.043 64.7006 565.055C65.0699 565.101 64.9268 564.748 65.0399 564.595C65.2349 564.536 65.348 564.382 65.543 564.323C66.5584 564.451 66.3139 563.414 66.8066 563.225C68.1002 562.634 67.8245 561.845 67.2927 560.856Z" fill="#965EEB"/>
<path d="M72.6807 553.069C72.2063 554.602 72.1036 554.673 70.4005 554.793C70.7203 553.744 71.2247 552.718 72.1594 551.998C72.4779 551.702 72.899 551.336 73.3294 551.642C74.3746 552.277 75.8515 552.463 76.044 553.912C74.8545 553.678 73.9327 552.808 72.6807 553.069C72.6092 552.892 72.5273 552.798 72.5065 552.963L72.6807 553.069Z" fill="#965EEB"/>
<path d="M69.3279 557.34C69.4814 557.611 69.6348 557.882 70.1171 557.775C71.1741 557.573 71.174 557.573 72.1985 558.373C71.7358 559.069 70.4552 558.069 70.1458 559.036C69.9703 559.684 69.8767 560.427 69.3424 560.946C68.8211 559.875 68.8211 559.875 67.5795 560.054C68.0735 559.11 68.1267 557.943 69.3279 557.34Z" fill="#965EEB"/>
<path d="M55.8013 562.006C55.5959 562.148 55.2878 562.36 55.0005 562.408C53.564 562.646 53.1623 563.601 53.2118 564.697C52.3407 564.168 52.4551 563.261 52.3536 562.577C52.2626 561.812 52.9919 561.233 53.833 561.255C54.4895 561.254 55.3411 561.194 55.8013 562.006Z" fill="#965EEB"/>
<path d="M67.2918 560.856C67.834 561.762 68.1915 562.645 66.7238 563.131C66.231 563.32 66.4756 564.357 65.4602 564.229C65.975 563.12 66.1413 561.8 67.2918 560.856Z" fill="#965EEB"/>
<path d="M61.2236 563.611C59.7155 563.673 58.2698 563.239 57.1738 562.263C58.8353 562.472 60.281 562.906 61.2236 563.611Z" fill="#965EEB"/>
<path d="M69.7837 555.973C70.0607 556.008 70.3271 556.125 70.3779 556.467C70.3259 556.879 69.8644 556.821 69.5874 556.786C69.629 556.456 69.6603 556.209 69.7837 555.973Z" fill="#965EEB"/>
<path d="M64.9566 564.501C64.8435 564.654 64.9865 565.007 64.6173 564.961C64.525 564.949 64.5666 564.619 64.4951 564.443C64.6797 564.466 64.772 564.477 64.9566 564.501Z" fill="#965EEB"/>
<path d="M72.6804 553.068C72.5884 553.057 72.5069 552.963 72.5069 552.963C72.6092 552.893 72.6091 552.893 72.6804 553.068Z" fill="#965EEB"/>
<path d="M165.953 34.2271C166.016 34.0028 166.024 33.7625 166.28 33.7139C167.073 33.6963 167.073 33.6962 167.275 34.4806C167.683 34.1114 167.754 33.6467 167.993 33.2298C168.296 32.5886 168.939 33.3159 169.346 32.9467C168.8 32.3073 168.8 32.3072 168.119 32.3567C167.807 32.3894 167.742 32.1894 167.678 31.9893C167.725 31.8211 167.813 31.7248 167.861 31.5565C168.085 31.6201 168.31 31.6837 168.389 31.4033C168.437 31.235 168.228 31.1153 168.076 31.0115C168.115 30.6591 168.347 30.4825 168.579 30.3058C169.709 30.3835 169.725 30.3274 170.195 29.3094C171.004 29.2356 171.478 29.9153 172.192 30.178C172.579 31.3784 172.117 32.5805 172.024 33.7658C171.844 35.4719 171.551 37.1461 171.259 38.8203C171.117 39.7495 171.117 39.7495 172.039 40.132C173.507 40.7294 175.038 41.1026 176.402 41.8524C177.14 42.2433 177.253 42.6994 176.75 43.4052C176.47 43.7501 176.15 44.023 175.75 44.152C174.221 44.6277 172.676 45.1595 171.107 45.5632C170.322 45.765 169.915 46.1343 169.748 46.9354C169.44 48.6657 168.963 50.3483 168.823 52.1264C168.792 52.2385 168.744 52.4068 168.712 52.5189C168.537 53.1359 168.459 53.8408 167.715 54.1146C167.186 54.2679 165.775 53.6863 165.397 53.0945C164.721 52.0549 163.958 51.1116 163.659 49.815C163.27 48.1903 162.669 47.9593 161.092 48.6033C160.404 48.893 159.675 49.1107 159.043 49.4164C157.523 50.0762 157.17 50.0369 155.789 48.9188C155.948 48.3579 156.244 47.9569 156.707 47.6036C157.739 46.7445 158.104 45.4545 158.887 44.4039C159.007 44.1954 159.07 43.971 159.246 43.7785C160.429 42.5989 159.978 41.6229 159.238 40.3832C158.498 39.1436 157.429 37.9928 157.266 36.4316C157.217 36.1755 156.928 35.9118 156.751 35.68C156.861 34.863 157.148 34.2778 158.126 34.2517C158.31 34.2433 158.47 34.1068 158.67 34.0423C158.966 34.0657 159.247 34.1452 159.48 34.3929C160.107 35.1764 160.901 35.5831 161.846 35.6692C162.52 35.8599 163.233 36.1227 163.843 36.5378C163.867 36.6659 163.804 36.8902 163.86 36.9061C164.084 36.9697 164.036 36.7136 164.124 36.6173C164.252 36.593 164.34 36.4967 164.468 36.4724C165.085 36.6473 165.051 35.9106 165.38 35.8219C166.252 35.5237 166.171 34.9554 165.953 34.2271Z" fill="#965EEB"/>
<path d="M170.195 29.3093C169.725 30.3273 169.653 30.3675 168.579 30.3057C168.898 29.6084 169.329 28.9428 169.993 28.525C170.225 28.3483 170.528 28.1315 170.761 28.3792C171.339 28.9065 172.237 29.1608 172.192 30.1779C171.478 29.9152 171.004 29.2355 170.195 29.3093C170.17 29.1812 170.13 29.1093 170.098 29.2214L170.195 29.3093Z" fill="#965EEB"/>
<path d="M167.622 31.9733C167.687 32.1734 167.751 32.3734 168.064 32.3407C168.744 32.2912 168.744 32.2912 169.291 32.9307C168.923 33.3719 168.24 32.5726 167.937 33.2138C167.754 33.6466 167.611 34.1514 167.219 34.4646C167.017 33.6802 167.017 33.6802 166.224 33.6979C166.639 33.0885 166.806 32.2873 167.622 31.9733Z" fill="#965EEB"/>
<path d="M158.67 34.0421C158.526 34.1225 158.31 34.2431 158.126 34.2515C157.204 34.2935 156.845 34.9188 156.751 35.6798C156.269 35.2404 156.444 34.6234 156.459 34.1429C156.49 33.6063 157.01 33.2689 157.531 33.3559C157.939 33.4111 158.476 33.4419 158.67 34.0421Z" fill="#965EEB"/>
<path d="M165.953 34.2272C166.187 34.8993 166.309 35.5397 165.34 35.7499C165.012 35.8387 165.045 36.5753 164.428 36.4005C164.875 35.6788 165.129 34.7814 165.953 34.2272Z" fill="#965EEB"/>
<path d="M161.863 35.613C160.917 35.5269 160.067 35.1043 159.496 34.3368C160.506 34.6229 161.356 35.0455 161.863 35.613Z" fill="#965EEB"/>
<path d="M168.061 31.0674C168.229 31.1151 168.382 31.2189 168.374 31.4591C168.295 31.7396 168.014 31.6601 167.846 31.6124C167.91 31.388 167.957 31.2198 168.061 31.0674Z" fill="#965EEB"/>
<path d="M164.084 36.5453C163.996 36.6416 164.045 36.8977 163.821 36.8341C163.764 36.8182 163.828 36.5939 163.804 36.4658C163.916 36.4976 163.972 36.5135 164.084 36.5453Z" fill="#965EEB"/>
<path d="M170.195 29.3093C170.139 29.2934 170.099 29.2214 170.099 29.2214C170.171 29.1812 170.171 29.1812 170.195 29.3093Z" fill="#965EEB"/>
<path d="M124.305 69.2899C124.13 69.4436 123.916 69.5534 123.982 69.8057C124.307 70.5297 124.307 70.5297 125.102 70.3757C124.943 70.9024 124.554 71.1659 124.28 71.561C123.831 72.1097 124.764 72.3781 124.605 72.9048C123.793 72.6857 123.793 72.6857 123.546 72.0495C123.441 71.7534 123.233 71.7809 123.024 71.8084C122.893 71.9237 122.844 72.0444 122.712 72.1596C122.866 72.3351 123.02 72.5105 122.8 72.7026C122.669 72.8179 122.471 72.6809 122.312 72.5877C122.011 72.7744 121.951 73.0596 121.89 73.3449C122.445 74.3321 122.402 74.3705 121.684 75.232C121.964 75.9944 122.782 76.1312 123.325 76.663C124.576 76.4978 125.464 75.5649 126.494 74.9719C127.958 74.0771 129.345 73.0945 130.731 72.1119C131.51 71.5849 131.51 71.5849 132.251 72.2538C133.42 73.3229 134.414 74.5457 135.677 75.4557C136.347 75.9546 136.807 75.8611 137.229 75.1039C137.42 74.7033 137.53 74.2974 137.474 73.8805C137.248 72.2953 137.065 70.6716 136.756 69.081C136.602 68.2856 136.761 67.7589 137.413 67.2649C138.843 66.2439 140.159 65.0913 141.705 64.2019C141.792 64.125 141.924 64.0098 142.012 63.933C142.494 63.5103 143.097 63.137 143.025 62.3471C142.936 61.8041 141.805 60.7789 141.109 60.6914C139.88 60.5275 138.7 60.2428 137.401 60.5287C135.766 60.875 135.3 60.4309 135.205 58.7304C135.171 57.9844 135.055 57.2329 135.06 56.5308C135.003 54.8742 134.817 54.5726 133.214 53.8054C132.776 54.1896 132.54 54.6285 132.42 55.1991C132.087 56.4993 131.078 57.383 130.465 58.5407C130.328 58.7383 130.153 58.892 130.054 59.1334C129.497 60.708 128.422 60.7195 126.984 60.583C125.547 60.4466 124.049 59.9755 122.569 60.4974C122.316 60.5633 121.954 60.4154 121.669 60.3552C120.978 60.8054 120.573 61.3157 120.969 62.2097C121.04 62.3797 120.985 62.5827 121.013 62.7911C121.161 63.0489 121.354 63.2682 121.677 63.3723C122.654 63.6022 123.362 64.1449 123.846 64.962C124.307 65.4884 124.851 66.0203 125.487 66.393C125.613 66.36 125.789 66.2063 125.827 66.2502C125.981 66.4257 125.729 66.4916 125.679 66.6123C125.712 66.7385 125.663 66.8592 125.696 66.9853C126.119 67.4678 125.439 67.7534 125.5 68.088C125.605 69.0041 125.057 69.1744 124.305 69.2899Z" fill="#965EEB"/>
<path d="M121.684 75.2318C122.401 74.3703 122.407 74.288 121.89 73.3447C121.397 73.9319 120.981 74.6068 120.889 75.3858C120.829 75.6711 120.763 76.0387 121.087 76.1427C121.811 76.4386 122.426 77.1405 123.325 76.6628C122.782 76.131 121.964 75.9942 121.684 75.2318C121.558 75.2648 121.475 75.2594 121.563 75.1825L121.684 75.2318Z" fill="#965EEB"/>
<path d="M122.986 71.7644C123.194 71.7369 123.403 71.7094 123.507 72.0056C123.755 72.6418 123.755 72.6418 124.567 72.8608C124.807 72.3395 123.792 72.0658 124.242 71.517C124.554 71.1658 124.949 70.82 125.063 70.3317C124.268 70.4857 124.268 70.4857 123.944 69.7617C123.571 70.3982 122.919 70.8923 122.986 71.7644Z" fill="#965EEB"/>
<path d="M121.013 62.7911C121.024 62.6265 121.04 62.3797 120.968 62.2096C120.611 61.3596 121.022 60.7669 121.669 60.3552C121.065 60.1086 120.583 60.5313 120.155 60.7509C119.684 61.0089 119.602 61.6233 119.904 62.0566C120.129 62.402 120.387 62.8737 121.013 62.7911Z" fill="#965EEB"/>
<path d="M124.305 69.2897C125.013 69.2126 125.643 69.0477 125.417 68.0824C125.357 67.7478 126.037 67.4622 125.614 66.9797C125.154 67.693 124.452 68.3077 124.305 69.2897Z" fill="#965EEB"/>
<path d="M123.801 65.0004C123.318 64.1833 122.571 63.5967 121.633 63.4106C122.325 64.2002 123.071 64.7868 123.801 65.0004Z" fill="#965EEB"/>
<path d="M122.356 72.5496C122.471 72.6812 122.63 72.7743 122.844 72.6645C123.063 72.4724 122.871 72.2531 122.756 72.1215C122.58 72.2752 122.449 72.3905 122.356 72.5496Z" fill="#965EEB"/>
<path d="M125.596 66.6069C125.646 66.4862 125.898 66.4202 125.744 66.2447C125.706 66.2009 125.53 66.3546 125.404 66.3875C125.481 66.4753 125.52 66.5191 125.596 66.6069Z" fill="#965EEB"/>
<path d="M121.684 75.2324C121.645 75.1885 121.563 75.1831 121.563 75.1831C121.558 75.2654 121.558 75.2653 121.684 75.2324Z" fill="#965EEB"/>
<path d="M264.685 73.4858C265.181 71.5061 265.621 70.0315 265.909 68.5251C269.066 53.0349 272.195 37.5496 275.413 22.0777C275.87 19.8722 276.473 17.6701 277.236 15.5561C278.769 11.3563 281.33 10.5274 285.184 12.9067C286.687 13.8361 288.083 14.988 289.348 16.2212C299.13 25.8262 308.889 35.4643 318.649 45.1024C321.859 48.2935 325.018 51.5228 328.149 54.757C328.824 55.4534 329.322 56.2975 330.386 57.7116C332.057 54.7976 332.995 53.177 333.932 51.5565C337.047 46.0887 340.161 40.6209 343.309 35.1765C343.801 34.333 344.326 33.5128 344.99 32.8139C347.217 30.4134 349.637 30.5993 351.205 33.5552C353.731 38.3221 354.927 43.4686 355.461 48.8191C356.314 57.3156 357.173 65.8404 358.224 74.3022C359.753 86.6394 359.84 99.0554 359.927 111.471C359.959 116.124 358.035 119.257 354.293 121.982C345.253 128.521 335.162 132.887 324.599 135.734C313.736 138.692 302.566 140.569 291.46 142.638C288.33 143.217 285.02 143.101 281.826 142.818C275.438 142.253 270.262 139.64 266.53 133.979C259.549 123.416 254.229 112.036 249.421 100.421C245.389 90.7368 241.85 80.8782 239.938 70.5007C239.456 67.7615 237.934 64.5647 240.875 62.4172C243.559 60.4605 246.22 62.3507 248.536 63.6029C252.785 65.9126 256.807 68.5826 260.949 71.1149C262.025 71.77 263.101 72.4251 264.732 73.4194L264.685 73.4858ZM351.788 108.565C351.788 108.545 351.789 108.525 351.789 108.505C351.855 104.582 352.136 100.594 351.937 96.6604C351.38 85.5496 350.65 74.4404 349.891 63.3361C349.454 57.2117 348.848 51.1172 348.214 45.0275C348.115 43.9678 347.498 42.9409 346.754 40.8592C345.187 43.3763 344.092 44.7626 343.375 46.3152C340.771 51.868 338.199 57.444 335.784 63.08C333.249 69.0282 330.27 69.6392 325.797 64.8943C323.118 62.0756 320.57 59.1756 317.868 56.3901C310.031 48.2481 302.171 40.1392 294.255 32.0403C291.662 29.3811 288.971 26.8265 286.252 24.2769C285.487 23.5672 284.479 23.133 282.976 22.2036C282.21 24.6382 281.468 26.5445 281.029 28.5142C277.662 44.3033 274.324 60.0874 271.019 75.8948C269.911 81.1844 268.347 82.391 263.354 80.1539C259.279 78.3375 255.573 75.6412 251.701 73.3233C250.137 72.3756 248.573 71.4279 246.649 70.2524C246.995 80.4976 267.51 123.326 275.516 131.438C283.103 126.902 290.451 121.999 298.263 117.918C306.338 113.674 315.375 112.085 324.364 110.883C333.126 109.75 341.984 109.327 351.789 108.505C351.795 108.504 351.801 108.504 351.806 108.503L351.788 108.565ZM345.979 117.913C332.006 113.615 291.6 125.553 283.233 136.253C289.617 140.604 339.519 126.21 345.979 117.913Z" fill="#965EEB"/>
<path d="M351.789 108.505C351.855 104.582 352.136 100.594 351.937 96.6604C351.38 85.5496 350.65 74.4404 349.891 63.3361C349.454 57.2117 348.848 51.1172 348.214 45.0275C348.115 43.9678 347.498 42.9409 346.754 40.8592C345.187 43.3763 344.092 44.7626 343.375 46.3152C340.771 51.868 338.199 57.444 335.784 63.08C333.249 69.0282 330.27 69.6392 325.797 64.8943C323.118 62.0756 320.57 59.1756 317.868 56.3901C310.031 48.2481 302.171 40.1392 294.255 32.0403C291.662 29.3811 288.971 26.8265 286.252 24.2769C285.487 23.5672 284.479 23.133 282.976 22.2036C282.21 24.6382 281.468 26.5445 281.029 28.5142C277.662 44.3033 274.324 60.0874 271.019 75.8948C269.911 81.1844 268.347 82.391 263.354 80.1539C259.279 78.3375 255.573 75.6412 251.701 73.3233C250.137 72.3756 248.573 71.4279 246.649 70.2524C246.995 80.4976 267.51 123.326 275.516 131.438C283.103 126.902 290.451 121.999 298.263 117.918C306.338 113.674 315.375 112.085 324.364 110.883C333.126 109.75 341.984 109.327 351.789 108.505Z" fill="white"/>
<path d="M313.291 80.6895C313.418 83.8987 313.631 87.0929 313.584 90.3036C313.57 91.8782 313.217 93.5124 312.631 94.9837C311.337 98.3847 309.529 101.352 305.415 101.959C301.187 102.586 298.054 100.662 295.923 97.4849C293.792 94.3078 292.04 90.802 290.74 87.2168C288.956 82.2028 287.91 76.9135 288.749 71.5838C289.159 68.9497 289.988 66.2129 291.301 63.9149C294.123 58.9353 298.915 58.2091 303.552 61.7316C308.455 65.4403 310.408 70.9194 312.089 76.5048C312.507 77.887 312.591 79.357 312.839 80.769C312.98 80.7442 313.098 80.7525 313.244 80.756L313.291 80.6895ZM297.408 65.6943C294.514 68.4448 293.779 70.5538 294.272 75.1833C294.884 80.8112 296.44 86.1854 298.965 91.273C300.045 93.4412 301.026 96.2091 303.907 95.7026C306.787 95.1961 307.151 92.1334 307.008 89.8295C306.611 82.7667 305.813 75.7452 302.01 69.5141C300.909 67.7278 299.804 65.9133 297.413 65.7225L297.408 65.6943Z" fill="#965EEB"/>
<path d="M205.649 95.209C207.231 95.0203 208.419 94.745 209.596 94.8052C210.184 94.8353 211.068 95.3817 211.245 95.8788C211.423 96.3924 211.079 97.4362 210.633 97.7569C209.54 98.5391 208.278 99.1743 206.991 99.5951C203.772 100.631 200.502 101.522 197.25 102.428C193.902 103.362 190.578 104.36 187.195 105.148C185.814 105.48 184.311 105.492 182.877 105.379C182.322 105.345 181.5 104.624 181.402 104.084C181.303 103.528 181.771 102.686 182.236 102.246C182.824 101.708 183.639 101.394 184.408 101.118C191.479 98.6035 198.663 96.4765 205.664 95.1905L205.649 95.209Z" fill="#965EEB"/>
<path d="M187.677 62.3695C188.782 62.5219 189.592 62.5924 190.398 62.7637C197.424 64.2157 203.968 67.0957 210.595 69.6818C211.681 70.1038 212.505 70.8413 212.295 72.1699C212.125 73.26 211.075 73.9869 209.515 73.8051C208.075 73.6426 206.63 73.2968 205.27 72.8238C199.745 70.9254 194.227 68.9426 188.727 66.9743C188.134 66.761 187.518 66.5001 187.009 66.1597C186.246 65.6489 185.344 64.9542 185.844 63.9586C186.212 63.2629 187.114 62.8377 187.693 62.3675L187.677 62.3695Z" fill="#965EEB"/>
<path d="M210.536 37.665C210.943 37.8505 211.728 37.9908 212.234 38.4486C214.522 40.5325 216.948 42.5163 218.917 44.8722C221.313 47.7287 223.331 50.9144 225.517 53.9632C225.88 54.4881 226.243 55.0131 226.545 55.5788C227.256 56.9148 227.146 58.0978 226.277 58.8031C225.456 59.486 224.08 59.4329 223.075 58.2991C220.893 55.835 218.849 53.2708 216.819 50.6881C214.628 47.874 212.532 45.0151 210.451 42.1378C209.871 41.3378 209.349 40.4641 209.054 39.5299C208.764 38.6451 209.178 37.9105 210.538 37.6815L210.536 37.665Z" fill="#965EEB"/>
<path d="M204.892 577.148C207.272 584.825 205.456 591.271 200.17 596.957C198.798 598.436 197.886 600.316 196.25 601.727C192.209 605.336 192.042 605.434 186.396 607.073C185.653 605.045 185.737 603.09 185.723 600.969C185.649 594.738 181.662 588.902 175.949 586.995C173.604 586.245 171.092 585.592 168.576 585.503C163.674 585.36 161.441 586.897 159.71 591.389C158.558 594.195 157.204 597.232 158.701 600.162C160.324 603.689 162.849 606.463 166.109 608.58C169.501 610.732 173.163 612.388 177.162 613.286C178.484 613.63 179.076 614.066 178.268 615.55C176.278 619.409 173.534 622.367 169.508 624.286C169.175 624.482 168.71 624.643 168.342 624.972C163.37 628.904 157.837 629.019 151.947 628.337C146.322 627.722 141.103 626.085 136.463 622.762C134.708 626.259 134.709 626.259 137.503 628.538C144.996 635.001 153.5 635.94 162.829 633.704C168.24 632.427 172.771 629.651 176.45 625.807C179.194 622.849 182.041 619.494 183.14 615.262C183.449 614.072 184.184 613.416 185.379 613.161C188.762 612.629 191.852 611.596 194.654 609.5C199.523 605.965 203.835 601.861 206.766 596.552C209.123 592.365 211.084 588.074 210.568 582.999C210.481 581.706 211.147 581.314 212.4 581.922C213.521 582.495 214.539 583.465 215.625 584.171C216.448 584.808 217.402 585.48 218.494 585.622C219.586 585.764 220.516 585.441 220.762 583.952C221.248 581.537 220.7 579.842 218.728 578.201C215.836 575.755 212.978 573.178 210.086 570.732C206.733 567.885 204.182 567.929 201.468 571.317C200.262 572.699 199.057 574.08 197.392 575.059C196.892 575.353 196.525 575.681 196.255 576.175C195.245 577.89 195.053 580.804 196.174 581.378C197.921 582.255 199.224 581.041 200.591 580.125C201.958 579.209 203.261 577.995 204.892 577.148ZM170.667 592.117C172.058 592.196 172.983 592.436 173.84 592.941C174.696 593.446 175.553 593.951 176.277 594.421C179.571 596.406 182.07 601.996 181.275 605.602C180.794 607.453 180.461 607.649 178.542 607.433C175.962 607.045 173.587 605.864 171.213 604.682C167.983 602.996 165.056 600.683 163.565 597.19C162.367 594.196 163.612 592.12 166.697 591.651C168.322 591.367 169.644 591.71 170.667 592.117Z" fill="#965EEB"/>
</g>
<defs>
<clipPath id="clip0_2012_1361">
<rect width="375" height="1049" fill="white"/>
</clipPath>
</defs>
</svg>
