<svg width="375" height="917" viewBox="0 0 375 917" fill="none" xmlns="http://www.w3.org/2000/svg">
<g clip-path="url(#clip0_2012_1191)">
<path d="M71.7859 18.4861C27.5607 18.4861 12.6828 25.1486 11.3858 36.9362C-1.9228 157.887 13.945 340.85 11.3857 356.738C8.82634 372.625 11.3857 552.59 11.3857 602.303C11.3857 652.015 29.9538 656.739 58.1064 655.201C86.2591 653.664 300.859 658.789 333.106 655.201C365.354 651.614 371.734 597.303 369.606 557.303C368.004 527.183 363.606 356.892 363.606 319.303C363.606 267.803 371.675 64.1427 365.606 40.3028C358.606 12.8027 127.068 18.4861 71.7859 18.4861Z" fill="white"/>
<path d="M275.987 636.905C281.94 640.776 287.856 640.784 293.961 637.658C295.548 636.848 297.367 636.526 298.959 635.474C302.999 632.907 303.123 632.789 305.875 628.384C304.33 627.264 302.648 626.866 300.848 626.344C295.569 624.781 291.569 619.987 291.322 614.672C291.248 612.498 291.298 610.207 291.828 608.046C292.886 603.845 294.73 602.317 298.964 601.926C301.627 601.622 304.534 601.202 306.665 603.18C309.272 605.408 311.022 608.222 312.038 611.503C313.05 614.904 313.578 618.415 313.378 622.031C313.352 623.237 313.58 623.845 315.036 623.515C318.796 622.752 321.97 621.131 324.57 618.171C324.817 617.935 325.066 617.578 325.434 617.345C329.972 614.065 331.402 609.389 332.239 604.219C333.071 599.289 332.934 594.459 331.226 589.715C334.621 589.065 334.621 589.065 335.886 591.989C339.577 599.913 338.328 607.368 334.183 614.76C331.796 619.052 328.346 622.235 324.193 624.438C321.018 626.058 317.481 627.671 313.62 627.587C312.533 627.563 311.799 628.03 311.295 628.985C310.028 631.733 308.407 634.111 305.951 635.988C301.774 639.276 297.249 641.953 292.03 643.167C287.903 644.164 283.784 644.798 279.595 643.138C278.516 642.753 278.023 643.225 278.238 644.436C278.456 645.527 279.036 646.626 279.374 647.719C279.718 648.571 280.059 649.544 279.917 650.507C279.776 651.469 279.277 652.182 277.952 652.033C275.782 651.865 274.473 650.991 273.552 648.92C272.17 645.873 270.666 642.823 269.284 639.776C267.67 636.242 268.321 634.084 271.855 632.592C273.319 631.899 274.783 631.207 276.016 630.027C276.386 629.673 276.753 629.44 277.239 629.33C278.939 628.884 281.463 629.422 281.68 630.513C282.006 632.209 280.66 633.025 279.553 633.966C278.445 634.907 277.099 635.723 275.987 636.905ZM296.947 611.416C296.679 612.617 296.661 613.461 296.884 614.31C297.107 615.16 297.33 616.01 297.555 616.739C298.45 620.016 302.601 623.486 305.856 623.677C307.546 623.714 307.793 623.478 308.071 621.794C308.362 619.508 307.929 617.206 307.496 614.903C306.84 611.751 305.578 608.707 302.968 606.599C300.712 604.86 298.647 605.419 297.506 607.928C296.873 609.242 296.847 610.448 296.947 611.416Z" fill="#965EEB"/>
<path d="M139.579 634.795C139.601 634.527 139.571 634.261 139.511 634.003C137.744 611.356 135.832 588.72 133.982 566.079C132.971 553.732 132.59 542.33 117.56 540.856C99.0553 539.04 77.3859 550.012 60.3377 556.08C38.2814 563.929 16.5229 572.603 -4.86419 582.118C-12.4867 585.512 -24.3382 588.58 -30.1575 594.842C-31.8826 596.695 -32.7161 598.636 -33.0447 600.633C-33.6288 601.024 -34.0169 601.694 -33.8504 602.583C-29.6171 625.166 -24.9295 647.651 -19.9205 670.074C-17.5155 680.84 -17.4091 701.51 -3.25532 703.883C3.43981 705.008 10.2676 702.209 16.4408 700.046C27.7887 696.072 39.0809 691.942 50.3823 687.849C72.9994 679.657 95.6378 671.526 118.209 663.206C123.861 661.121 132.753 659.572 137.203 655.234C142.591 649.986 140.154 641.403 139.579 634.795ZM129.105 570.264C130.623 589.992 132.121 609.722 133.72 629.44C118.772 619.968 102.854 609.904 85.4719 606.042C85.9309 605.366 86.3936 604.69 86.8526 604.015C98.8495 586.319 110.897 568.661 122.945 551.001C123.486 550.208 124.027 549.415 124.568 548.622C129.805 553.453 128.618 563.949 129.105 570.264ZM-27.1428 608.824C-27.2185 608.111 -27.2617 607.398 -27.2172 606.682C-26.5505 595.736 -17.7737 593.816 -10.0764 590.292C-1.13521 586.197 7.87354 582.259 16.9448 578.462C36.1709 570.416 55.6776 563.033 75.4161 556.349C84.4468 553.291 93.5712 549.859 102.858 547.658C102.917 547.644 102.977 547.63 103.037 547.616C107.638 546.523 114.319 544.937 119.645 546.163C111.252 558.528 102.871 570.905 94.4615 583.259C90.4136 589.207 86.3464 595.145 82.284 601.086C78.1384 607.156 73.806 616.862 67.9006 621.289C63.8461 624.331 62.2962 623.369 56.8523 622.9C53.184 622.584 49.5169 622.259 45.8508 621.926C37.7837 621.193 29.7219 620.419 21.6654 619.602C12.792 618.704 -19.9311 618.722 -27.1428 608.824ZM-2.59477 697.592C-5.14069 696.772 -7.36597 695.127 -9.0589 692.308C-13.0984 685.571 -13.7998 672.311 -15.5928 664.675C-19.3069 648.873 -22.9025 633.04 -26.4968 617.212C-26.442 617.036 -26.3688 616.878 -26.3446 616.674C-23.4833 618.437 -20.1133 619.687 -17.1934 620.285C0.62907 623.931 19.4595 625.139 37.8453 626.584C23.8455 649.503 7.59732 672.782 -2.59477 697.592ZM133.365 648.813C130.249 654.789 123.175 655.44 116.953 657.648C107.038 661.164 97.1442 664.737 87.2525 668.318C67.2264 675.568 47.1715 682.749 27.1782 690.092C20.7521 692.453 10.1984 698.377 1.59621 698.23C17.4009 675.842 29.4378 650.288 44.0031 627.084C46.0028 627.253 48.0048 627.417 49.9891 627.6C55.5469 628.117 64.2837 630.836 69.4536 628.17C72.837 626.423 75.1808 621.15 77.1368 618.286C79.128 615.374 81.1083 612.454 83.0922 609.532C101.041 617.75 117.765 626.367 134.484 636.898C134.989 641.003 135.307 645.09 133.365 648.813Z" fill="#965EEB"/>
<path d="M-27.1428 608.824C-27.2185 608.111 -27.2617 607.398 -27.2172 606.682C-26.5505 595.736 -17.7737 593.816 -10.0764 590.292C-1.13521 586.197 7.87354 582.259 16.9448 578.462C36.1709 570.416 55.6776 563.033 75.4161 556.349C84.4468 553.291 93.5712 549.859 102.858 547.658L103.037 547.616C107.638 546.523 114.319 544.937 119.645 546.163C111.252 558.528 102.871 570.905 94.4615 583.259C90.4136 589.207 86.3464 595.145 82.284 601.086C78.1384 607.156 73.806 616.862 67.9006 621.289C63.8461 624.331 62.2962 623.369 56.8523 622.9C53.184 622.584 49.5169 622.259 45.8508 621.926C37.7837 621.193 29.7219 620.419 21.6654 619.602C12.792 618.704 -19.9311 618.722 -27.1428 608.824Z" fill="white"/>
<path d="M-2.59477 697.592C-5.14069 696.772 -7.36597 695.127 -9.0589 692.308C-13.0984 685.571 -13.7998 672.311 -15.5928 664.675C-19.3069 648.873 -22.9025 633.04 -26.4968 617.212C-26.442 617.036 -26.3688 616.878 -26.3446 616.674C-23.4833 618.437 -20.1133 619.687 -17.1934 620.285C0.62907 623.931 19.4595 625.139 37.8453 626.584C23.8455 649.503 7.59732 672.782 -2.59477 697.592Z" fill="white"/>
<path d="M133.365 648.813C130.249 654.789 123.175 655.44 116.953 657.648C107.038 661.164 97.1442 664.737 87.2525 668.318C67.2264 675.568 47.1715 682.749 27.1782 690.092C20.7521 692.453 10.1984 698.377 1.59621 698.23C17.4009 675.842 29.4378 650.288 44.0031 627.084C46.0028 627.253 48.0048 627.417 49.9891 627.6C55.5469 628.117 64.2837 630.836 69.4536 628.17C72.837 626.423 75.1808 621.15 77.1368 618.286C79.128 615.374 81.1083 612.454 83.0922 609.532C101.041 617.75 117.765 626.367 134.484 636.898C134.989 641.003 135.307 645.09 133.365 648.813Z" fill="white"/>
<path d="M129.105 570.264C130.623 589.992 132.121 609.722 133.72 629.44C118.772 619.968 102.854 609.904 85.4719 606.042C85.9309 605.366 86.3936 604.69 86.8526 604.015C98.8495 586.319 110.897 568.661 122.945 551.001L124.568 548.622C129.805 553.453 128.618 563.949 129.105 570.264Z" fill="white"/>
<path d="M334.14 74.1254C332.059 83.4012 329.251 93.6737 329.368 103.233C329.43 108.212 331.348 110.709 335.745 112.517C343.232 115.593 353.909 119.609 358.159 110.133C361.395 102.923 361.569 93.5694 362.896 85.8403C363.8 80.5757 365.585 75.4287 360.269 72.0945C354.19 68.2825 338.18 64.5217 334.76 73.482C333.502 76.7809 338.252 78.9145 339.789 75.7094C339.959 75.3539 340.185 75.048 340.456 74.7859C342.883 72.4378 348.931 73.612 351.407 74.1351C357.953 75.5222 358.51 77.419 357.355 83.5198C356.531 87.8813 355.488 92.2102 354.557 96.5501C353.887 99.675 353.267 108.229 349.643 109.254C347.632 109.822 337.539 107.032 336.357 105.312C334.563 102.699 337.451 92.8766 337.939 89.6944C338.688 84.8035 339.501 79.9277 340.414 75.0641C340.432 74.9696 340.445 74.8769 340.456 74.7859C340.885 70.9837 335.006 70.2733 334.14 74.1254Z" fill="#965EEB"/>
<path d="M351.407 74.1351C348.931 73.612 342.883 72.4378 340.456 74.7859C340.445 74.8769 340.432 74.9696 340.414 75.0641C339.501 79.9277 338.688 84.8035 337.939 89.6944C337.451 92.8766 334.563 102.699 336.357 105.312C337.539 107.032 347.632 109.822 349.643 109.254C353.267 108.229 353.887 99.675 354.557 96.5501C355.488 92.2102 356.531 87.8813 357.355 83.5198C358.51 77.419 357.953 75.5222 351.407 74.1351Z" fill="white"/>
<rect x="361.121" y="87.6213" width="15.3618" height="17.9298" transform="rotate(11.2779 361.121 87.6213)" fill="white"/>
<path d="M232.611 51.0058C228.115 66.8862 224.099 83.9023 228.227 100.317C229.793 106.542 232.362 115.74 240.086 116.192C257.213 117.198 265.562 89.8256 268.884 77.6865C272.818 63.3015 282.399 33.5687 264.983 24.3308C247.027 14.8059 234.632 35.8005 232.485 50.9869C232.078 53.8643 235.855 54.6868 237.163 52.3463C240.759 45.9066 243.12 37.5601 248.605 32.3531C255.277 26.0169 266.139 28.7562 268.47 37.8302C271.358 49.0683 266.758 64.4426 263.87 75.2821C261.085 85.7344 257.359 101.493 246.97 107.424C234.476 114.556 231.741 94.4245 231.6 85.5725C231.414 74.0181 234.229 62.7599 237.219 51.6958C238.002 48.7918 233.415 48.1682 232.611 51.0058Z" fill="#965EEB"/>
<path d="M249.419 38.8518C243.024 47.87 240.4 59.1649 238.111 69.8293C236.67 76.5518 233.022 90.61 237.898 97.2412C244.54 106.278 250.55 93.3377 252.742 87.6562C257.953 74.1589 264.882 58.2333 264.942 43.5488C264.982 33.1142 252.669 28.3889 249.479 39.966C249.069 41.4567 251.028 42.2367 252.092 41.5355C264.686 33.2546 258.598 52.9659 256.903 59.1876C254.599 67.6527 251.573 75.9469 248.373 84.1104C246.674 88.4433 241.992 100.04 241.201 87.9549C240.275 73.804 244.857 53.2672 252.801 41.5696C254.352 39.2818 251.042 36.5637 249.419 38.8518Z" fill="#965EEB"/>
<path d="M265.446 28.8187C278.471 37.8425 290.751 48.1497 303.143 58.0135C313.042 65.8929 323.639 78.314 335.088 83.7124C336.945 84.5875 339.609 82.4354 338.497 80.4256C332.514 69.6161 316.072 61.1383 306.446 53.9033C293.631 44.2686 280.711 34.6129 266.881 26.4612C265.528 25.6667 264.154 27.9259 265.446 28.8187Z" fill="#965EEB"/>
<path d="M239.523 115.311C270.296 115.707 302.987 110.311 333.284 104.952C337.148 104.269 336.463 98.701 332.55 98.9139C319.225 99.6438 305.615 102.93 292.419 104.832C274.665 107.39 256.857 109.306 239.064 111.519C236.547 111.835 237.146 115.282 239.523 115.311Z" fill="#965EEB"/>
<path d="M261.557 57.4922C256.134 52.6233 248.434 58.8834 246.808 64.462C245.341 69.4911 246.758 81.6673 254.838 78.7548C256.574 78.129 256.556 76.0123 255.415 74.8884C254.415 73.9041 253.032 73.4553 252.357 72.1611C251.628 70.7625 251.759 68.7065 251.985 67.2051C252.357 64.7331 255.688 58.3145 259.086 60.5689C261.185 61.9625 263.47 59.2081 261.557 57.4922Z" fill="#965EEB"/>
<path d="M355.621 105.878C361.224 107.565 367.3 109.293 373.192 109.411C378.536 109.519 379.358 105.265 380.1 100.902C380.874 96.3597 382.42 91.3562 377.979 88.3123C375.696 86.748 372.77 85.9423 370.218 84.8917C367.34 83.7073 364.597 82.3086 361.439 82.5983C358.977 82.8263 358.641 85.7473 360.113 87.243C362.729 89.9017 367.057 90.5942 370.522 91.7175C371.337 91.9824 373.917 92.4444 374.574 93.0661C375.943 94.3646 374.886 97.0182 374.638 98.5522C374.354 100.307 374.613 103.058 372.829 103.988C371.959 104.442 369.212 103.683 368.305 103.591C364.399 103.202 360.501 102.802 356.583 102.551C354.781 102.437 353.598 105.27 355.621 105.878Z" fill="#965EEB"/>
<path d="M335.297 108.572C331.933 118.359 328.947 128.288 326.04 138.221C324.399 143.825 321.284 150.645 321.369 156.542C321.385 157.658 322.326 158.647 323.264 159.102C328.027 161.411 334.851 161.486 340.008 162.153C344.194 162.695 347.41 163.674 349.235 159.296C351.509 153.844 350.535 145.13 350.774 139.372C351.144 130.406 351.954 120.891 350.809 111.972C350.385 108.665 344.888 108.319 344.719 111.89C344.143 124.064 344.439 136.233 343.502 148.411C343.344 150.468 342.659 153.062 342.892 155.106C342.81 155.838 342.713 156.567 342.599 157.292C342.105 159.07 342.923 158.572 345.054 155.8C343.718 154.353 334.724 154.599 332.631 154.292C331.622 154.144 327.891 152.937 327.074 153.424C325.115 152.81 325.356 153.67 327.798 155.999C327.873 155.492 327.963 154.985 328.06 154.481C329.902 152.592 330.241 144.41 330.836 141.822C333.311 131.034 335.796 120.234 338.752 109.564C339.287 107.618 335.959 106.645 335.297 108.572Z" fill="#965EEB"/>
<path d="M208.627 100.724C196.68 106.315 184.558 111.342 172.326 116.273C170.98 116.816 170.277 118.423 170.824 119.781C172.8 124.662 176.096 129.081 179.239 133.268C179.74 133.935 180.736 134.486 181.598 134.284C187.548 132.89 193.595 127.993 198.789 124.972C204.503 121.646 211.953 118.562 216.806 113.997C217.701 113.155 218.034 111.956 217.272 110.875C215.163 107.884 213.286 104.748 211.062 101.84C209.78 100.163 206.842 101.657 207.758 103.684C209.349 107.212 211.46 110.372 213.685 113.529C213.84 112.488 213.995 111.447 214.15 110.406C208.232 115.973 198.719 119.766 191.659 123.658C188.854 125.204 183.671 126.724 181.412 128.992C181.007 129.4 183.182 130.783 182.757 129.402C182.458 128.431 181.384 127.425 180.82 126.586C178.943 123.781 177.043 120.937 175.831 117.771C175.332 118.94 174.829 120.111 174.33 121.279C186.683 116.568 198.852 111.65 210.43 105.226C213.077 103.761 211.528 99.3678 208.627 100.724Z" fill="#965EEB"/>
<path d="M204.793 69.4525C191.653 70.6786 178.536 71.3238 165.351 71.8348C163.819 71.8928 162.937 73.4812 162.999 74.8382C163.237 80.0776 164.885 85.3645 166.422 90.3594C166.673 91.174 167.589 91.8482 168.417 91.9358C174.814 92.62 182.531 89.8876 188.768 88.7233C195.006 87.559 202.519 87.1363 208.403 84.6266C209.604 84.114 209.974 82.9122 209.646 81.7251C208.676 78.1984 207.917 74.6537 206.86 71.1527C206.22 69.0314 202.986 70.0015 203.192 72.0912C203.578 75.9551 204.471 79.6467 205.502 83.3835C205.916 82.4172 206.33 81.4482 206.745 80.4819C199.365 83.6312 189.352 83.9814 181.484 85.2497C177.815 85.8408 173.255 85.7174 169.738 86.8684C168.257 87.3531 170.955 88.9216 170.961 87.7234C170.965 86.605 169.917 83.7614 169.776 83.1587C169.076 80.2016 168.441 77.2321 168.358 74.1878C167.574 75.19 166.788 76.1891 166.005 77.1912C179.217 76.924 192.323 76.4067 205.381 74.2699C208.449 73.7657 207.918 69.1607 204.793 69.4525Z" fill="#965EEB"/>
<path d="M213.396 39.707C201.416 34.1688 189.756 28.1379 178.096 21.9555C176.745 21.2385 175.178 22.1156 174.536 23.3291C172.09 27.9585 170.86 33.4116 169.689 38.493C169.496 39.3268 169.942 40.3609 170.615 40.8609C175.747 44.6831 183.872 46.1872 189.805 48.2989C195.749 50.4121 202.536 53.8942 208.86 54.628C210.158 54.7802 211.08 53.9532 211.398 52.7492C212.324 49.2161 213.508 45.7737 214.299 42.2066C214.779 40.0429 211.567 39.2716 210.666 41.1521C208.993 44.6428 207.963 48.3533 206.981 52.0904C207.827 51.4641 208.673 50.8378 209.519 50.2116C201.475 49.2763 192.436 44.4054 184.925 41.5099C181.781 40.2996 177.57 37.5463 174.231 37.1062C173.705 37.0358 174.146 39.3425 174.993 38.2644C175.643 37.4353 175.77 35.4228 176.063 34.4384C176.968 31.379 177.921 28.3157 179.47 25.512C178.283 25.9689 177.095 26.4284 175.91 26.8857C187.468 33.2926 199.063 39.4322 211.428 44.1404C214.338 45.2526 216.247 41.0254 213.396 39.707Z" fill="#965EEB"/>
<path d="M230.105 14.5194C221.777 4.2918 213.955 -6.25464 206.202 -16.9201C205.338 -18.1102 203.604 -18.3303 202.43 -17.4828C198.168 -14.4087 194.686 -10.1019 191.396 -6.03944C190.858 -5.3754 190.616 -4.2843 191.015 -3.48879C193.749 1.94909 200.146 6.71527 204.319 10.9981C208.863 15.6615 213.687 22.2215 219.251 25.7168C220.302 26.3752 221.526 26.3759 222.389 25.3746C224.776 22.605 227.361 20.0194 229.642 17.1598C230.972 15.4921 228.749 13.063 227.02 14.4313C226.331 14.9768 225.666 15.544 225.021 16.1293C223.335 17.658 221.784 19.3099 220.272 21.0185C219.816 21.5342 219.363 22.055 218.912 22.5792C219.957 22.465 221.005 22.3512 222.05 22.2369C221.451 21.8612 220.859 21.4535 220.272 21.0185C214.119 16.4563 208.606 8.88392 203.625 3.51336C201.8 1.54571 199.319 -2.5409 196.923 -4.47964C196.608 -4.7347 196.294 -4.95258 195.983 -5.12358C195.627 -5.32009 195.053 -3.46807 195.933 -3.49116C196.051 -3.49392 196.467 -3.94342 196.923 -4.47964C197.573 -5.24391 198.304 -6.18434 198.371 -6.25846C199.99 -8.04724 201.631 -9.85447 203.457 -11.4396C204.154 -12.0451 204.878 -12.6181 205.639 -13.1454C204.382 -13.3328 203.123 -13.5207 201.867 -13.7081C202.396 -12.9508 202.926 -12.1945 203.457 -11.4396C210.188 -1.86863 217.109 7.4941 225.021 16.1293C225.413 16.5572 225.807 16.9833 226.204 17.4076C228.284 19.6307 232.12 16.9947 230.105 14.5194Z" fill="#965EEB"/>
<path d="M220.272 21.0185C221.784 19.3099 223.335 17.658 225.021 16.1293C217.109 7.4941 210.188 -1.86863 203.457 -11.4396C201.631 -9.85447 199.99 -8.04724 198.371 -6.25846C198.304 -6.18434 197.573 -5.24391 196.923 -4.47964C199.319 -2.5409 201.8 1.54571 203.625 3.51336C208.606 8.88392 214.119 16.4563 220.272 21.0185Z" fill="white"/>
<path d="M346.052 81.7111C347.956 82.0861 349.893 82.6398 351.844 82.4402C354.181 82.2017 354.935 78.4968 352.554 77.684C350.668 77.0389 348.718 77.1063 346.749 77.0386C343.768 76.9384 343.002 81.1128 346.052 81.7111Z" fill="#965EEB"/>
<path d="M346.77 89.7429C347.396 89.8667 347.945 90.1249 348.554 90.3095C349.748 90.6723 351.061 90.372 351.607 89.1305C352.119 87.9721 351.569 86.5973 350.428 86.0771C349.272 85.5491 348.079 85.509 346.823 85.5779C344.37 85.7054 344.531 89.3015 346.77 89.7429Z" fill="#965EEB"/>
<path d="M346.776 99.3583C346.941 99.3416 347.106 99.3249 347.272 99.3055C349.834 99.0372 350.392 95.3141 348.018 94.3067C347.865 94.2425 347.712 94.1756 347.559 94.1114C345.916 93.4143 343.99 94.4418 343.725 96.2186C343.46 97.9954 345.001 99.5455 346.776 99.3583Z" fill="#965EEB"/>
<path d="M146.953 34.2271C147.016 34.0027 147.024 33.7625 147.28 33.7139C148.073 33.6962 148.073 33.6962 148.275 34.4805C148.683 34.1113 148.754 33.6467 148.993 33.2298C149.296 32.5885 149.939 33.3159 150.346 32.9467C149.8 32.3072 149.8 32.3072 149.119 32.3567C148.807 32.3894 148.742 32.1893 148.678 31.9893C148.725 31.821 148.813 31.7247 148.861 31.5565C149.085 31.62 149.31 31.6836 149.389 31.4032C149.437 31.2349 149.228 31.1153 149.076 31.0115C149.115 30.6591 149.347 30.4824 149.579 30.3057C150.709 30.3834 150.725 30.3273 151.195 29.3093C152.004 29.2356 152.478 29.9152 153.192 30.178C153.579 31.3783 153.117 32.5804 153.024 33.7658C152.844 35.4718 152.551 37.146 152.259 38.8203C152.117 39.7495 152.117 39.7495 153.039 40.1319C154.507 40.7294 156.038 41.1025 157.402 41.8524C158.14 42.2432 158.253 42.6994 157.75 43.4051C157.47 43.75 157.15 44.023 156.75 44.152C155.221 44.6276 153.676 45.1594 152.107 45.5631C151.322 45.765 150.915 46.1342 150.748 46.9353C150.44 48.6656 149.963 50.3483 149.823 52.1263C149.792 52.2385 149.744 52.4067 149.712 52.5189C149.537 53.1358 149.459 53.8407 148.715 54.1145C148.186 54.2678 146.775 53.6862 146.397 53.0944C145.721 52.0549 144.958 51.1116 144.659 49.815C144.27 48.1902 143.669 47.9593 142.092 48.6032C141.404 48.8929 140.675 49.1107 140.043 49.4163C138.523 50.0762 138.17 50.0369 136.789 48.9187C136.948 48.3578 137.244 47.9568 137.707 47.6035C138.739 46.7445 139.104 45.4545 139.887 44.4038C140.007 44.1953 140.07 43.971 140.246 43.7784C141.429 42.5988 140.978 41.6228 140.238 40.3832C139.498 39.1436 138.429 37.9927 138.266 36.4315C138.217 36.1754 137.928 35.9118 137.751 35.6799C137.861 34.8629 138.148 34.2777 139.126 34.2516C139.31 34.2432 139.47 34.1067 139.67 34.0423C139.966 34.0656 140.247 34.1451 140.48 34.3929C141.107 35.1763 141.901 35.583 142.846 35.6691C143.52 35.8599 144.233 36.1226 144.843 36.5377C144.867 36.6658 144.804 36.8902 144.86 36.9061C145.084 36.9696 145.036 36.7135 145.124 36.6172C145.252 36.5929 145.34 36.4966 145.468 36.4724C146.085 36.6472 146.051 35.9106 146.38 35.8218C147.252 35.5237 147.171 34.9553 146.953 34.2271Z" fill="#965EEB"/>
<path d="M151.194 29.3092C150.724 30.3272 150.652 30.3674 149.578 30.3056C149.897 29.6083 150.328 28.9428 150.992 28.5249C151.224 28.3483 151.527 28.1314 151.76 28.3792C152.338 28.9064 153.236 29.1608 153.191 30.1779C152.477 29.9151 152.003 29.2355 151.194 29.3092C151.169 29.1812 151.129 29.1092 151.097 29.2214L151.194 29.3092Z" fill="#965EEB"/>
<path d="M148.621 31.9733C148.686 32.1733 148.75 32.3734 149.063 32.3407C149.743 32.2912 149.743 32.2912 150.29 32.9307C149.922 33.3719 149.239 32.5725 148.937 33.2138C148.753 33.6466 148.61 34.1514 148.218 34.4645C148.016 33.6802 148.016 33.6802 147.223 33.6979C147.638 33.0884 147.805 32.2873 148.621 31.9733Z" fill="#965EEB"/>
<path d="M139.668 34.0421C139.524 34.1224 139.308 34.243 139.124 34.2514C138.202 34.2934 137.843 34.9188 137.749 35.6797C137.267 35.2403 137.442 34.6233 137.457 34.1428C137.488 33.6062 138.008 33.2688 138.529 33.3558C138.937 33.411 139.474 33.4419 139.668 34.0421Z" fill="#965EEB"/>
<path d="M146.951 34.2271C147.185 34.8993 147.307 35.5396 146.338 35.7499C146.01 35.8386 146.043 36.5753 145.426 36.4004C145.873 35.6788 146.127 34.7814 146.951 34.2271Z" fill="#965EEB"/>
<path d="M142.861 35.613C141.915 35.5269 141.065 35.1043 140.494 34.3367C141.504 34.6229 142.354 35.0455 142.861 35.613Z" fill="#965EEB"/>
<path d="M149.06 31.0674C149.228 31.115 149.381 31.2188 149.373 31.4591C149.294 31.7395 149.013 31.66 148.845 31.6123C148.909 31.388 148.956 31.2197 149.06 31.0674Z" fill="#965EEB"/>
<path d="M145.083 36.5452C144.995 36.6415 145.044 36.8976 144.82 36.8341C144.763 36.8182 144.827 36.5938 144.803 36.4658C144.915 36.4976 144.971 36.5134 145.083 36.5452Z" fill="#965EEB"/>
<path d="M151.193 29.3092C151.137 29.2933 151.097 29.2214 151.097 29.2214C151.169 29.1812 151.169 29.1811 151.193 29.3092Z" fill="#965EEB"/>
<path d="M105.305 69.29C105.13 69.4436 104.916 69.5534 104.982 69.8058C105.307 70.5297 105.307 70.5297 106.102 70.3757C105.943 70.9024 105.554 71.1659 105.28 71.561C104.831 72.1098 105.764 72.3781 105.605 72.9048C104.793 72.6858 104.793 72.6858 104.546 72.0496C104.441 71.7534 104.233 71.7809 104.024 71.8084C103.893 71.9237 103.844 72.0444 103.712 72.1597C103.866 72.3351 104.02 72.5106 103.8 72.7027C103.669 72.8179 103.471 72.6809 103.312 72.5877C103.011 72.7744 102.951 73.0597 102.89 73.345C103.445 74.3321 103.402 74.3705 102.684 75.2321C102.964 75.9944 103.782 76.1312 104.325 76.663C105.576 76.4979 106.464 75.5649 107.494 74.972C108.958 74.0771 110.345 73.0945 111.731 72.1119C112.51 71.5849 112.51 71.5849 113.251 72.2538C114.42 73.3229 115.414 74.5457 116.677 75.4557C117.347 75.9546 117.807 75.8611 118.229 75.1039C118.42 74.7034 118.53 74.2974 118.474 73.8805C118.248 72.2953 118.065 70.6716 117.756 69.081C117.602 68.2857 117.761 67.7589 118.413 67.2649C119.843 66.2439 121.159 65.0913 122.705 64.2019C122.792 64.1251 122.924 64.0098 123.012 63.933C123.494 63.5104 124.097 63.137 124.025 62.3472C123.936 61.8041 122.805 60.7789 122.109 60.6915C120.88 60.5275 119.7 60.2428 118.401 60.5287C116.766 60.8751 116.3 60.4309 116.205 58.7305C116.171 57.9844 116.055 57.233 116.06 56.5308C116.003 54.8742 115.817 54.5726 114.214 53.8054C113.776 54.1896 113.54 54.6286 113.42 55.1991C113.087 56.4994 112.078 57.383 111.465 58.5408C111.328 58.7383 111.153 58.892 111.054 59.1334C110.497 60.708 109.422 60.7195 107.984 60.5831C106.547 60.4466 105.049 59.9756 103.569 60.4974C103.316 60.5634 102.954 60.4154 102.669 60.3552C101.978 60.8054 101.573 61.3157 101.969 62.2097C102.04 62.3797 101.985 62.5827 102.013 62.7911C102.161 63.0489 102.354 63.2682 102.677 63.3723C103.654 63.6022 104.362 64.1449 104.846 64.9621C105.307 65.4885 105.851 66.0203 106.487 66.393C106.613 66.36 106.789 66.2064 106.827 66.2502C106.981 66.4257 106.729 66.4916 106.679 66.6123C106.712 66.7385 106.663 66.8592 106.696 66.9854C107.119 67.4679 106.439 67.7535 106.5 68.0881C106.605 69.0041 106.057 69.1744 105.305 69.29Z" fill="#965EEB"/>
<path d="M102.685 75.2318C103.402 74.3703 103.408 74.288 102.891 73.3447C102.398 73.9319 101.982 74.6068 101.89 75.3858C101.83 75.6711 101.764 76.0387 102.088 76.1427C102.812 76.4386 103.427 77.1405 104.326 76.6628C103.783 76.131 102.965 75.9942 102.685 75.2318C102.559 75.2648 102.476 75.2594 102.564 75.1825L102.685 75.2318Z" fill="#965EEB"/>
<path d="M103.987 71.7644C104.195 71.7369 104.404 71.7094 104.508 72.0056C104.756 72.6418 104.756 72.6418 105.568 72.8608C105.808 72.3395 104.793 72.0658 105.243 71.517C105.555 71.1658 105.949 70.82 106.064 70.3317C105.269 70.4857 105.269 70.4857 104.945 69.7617C104.572 70.3982 103.92 70.8923 103.987 71.7644Z" fill="#965EEB"/>
<path d="M102.013 62.7911C102.024 62.6265 102.04 62.3797 101.968 62.2096C101.611 61.3596 102.022 60.7669 102.669 60.3552C102.065 60.1086 101.583 60.5313 101.155 60.7509C100.684 61.0089 100.602 61.6233 100.904 62.0566C101.129 62.402 101.387 62.8737 102.013 62.7911Z" fill="#965EEB"/>
<path d="M105.305 69.2898C106.013 69.2126 106.643 69.0477 106.417 68.0824C106.357 67.7478 107.037 67.4622 106.614 66.9797C106.154 67.6931 105.452 68.3078 105.305 69.2898Z" fill="#965EEB"/>
<path d="M104.803 65.0004C104.319 64.1833 103.573 63.5967 102.635 63.4106C103.327 64.2002 104.073 64.7868 104.803 65.0004Z" fill="#965EEB"/>
<path d="M103.357 72.5496C103.472 72.6812 103.631 72.7744 103.845 72.6646C104.064 72.4725 103.872 72.2531 103.757 72.1215C103.581 72.2752 103.45 72.3905 103.357 72.5496Z" fill="#965EEB"/>
<path d="M106.598 66.6069C106.648 66.4862 106.9 66.4202 106.746 66.2448C106.708 66.2009 106.532 66.3546 106.406 66.3876C106.483 66.4753 106.522 66.5192 106.598 66.6069Z" fill="#965EEB"/>
<path d="M102.685 75.2324C102.646 75.1885 102.564 75.1831 102.564 75.1831C102.559 75.2654 102.559 75.2653 102.685 75.2324Z" fill="#965EEB"/>
</g>
<defs>
<clipPath id="clip0_2012_1191">
<rect width="375" height="917" fill="white"/>
</clipPath>
</defs>
</svg>
