<svg width="375" height="667" viewBox="0 0 375 667" fill="none" xmlns="http://www.w3.org/2000/svg">
<g clip-path="url(#clip0_2025_1422)">
<g opacity="0.75">
<path d="M20.3497 696.605C26.0127 686.902 32.7667 677.903 39.1097 668.647C39.6867 667.805 40.3457 665.401 39.0447 664.804C30.7957 661.017 21.6807 659.808 13.1837 656.734C12.6497 658.591 12.1157 660.448 11.5817 662.305C20.5397 656.377 34.2717 663.069 41.6337 653.927C44.6987 650.121 45.8047 645.03 46.7707 640.358C47.6417 636.146 48.0527 631.244 50.4767 627.573C49.2247 628.073 47.9727 628.573 46.7197 629.074C48.7477 632.916 49.9297 637.22 51.6037 641.222C53.0757 644.743 54.8157 649.459 58.2317 651.591C61.8457 653.847 67.5497 652.513 71.5007 652.152C77.6577 651.589 83.4967 653.051 89.6137 653.515C89.7757 651.745 89.9377 649.976 90.1007 648.206C81.9057 654.666 72.4727 659.353 63.5407 664.677C62.1347 665.515 60.7767 667.651 61.2997 669.36C63.5797 676.809 68.9187 682.681 72.1627 689.662C73.2217 687.827 74.2817 685.992 75.3407 684.158C69.6447 683.148 64.8107 679.683 59.6967 677.194C55.3007 675.055 50.1827 673.248 45.5017 675.579C41.0357 677.803 38.2577 682.361 34.4687 685.465C29.3977 689.621 23.5947 692.78 18.3227 696.663C19.3307 696.988 20.3377 697.313 21.3457 697.638C21.3467 695.398 22.0347 693.553 23.1987 691.669C23.7997 690.697 24.4077 688.562 23.1337 687.826C21.8187 687.067 20.3547 688.751 19.7737 689.691C17.7687 692.936 16.5947 696.443 16.5937 700.276C16.5927 702.316 18.3977 702.149 19.6167 701.251C24.4657 697.68 29.7417 694.731 34.5127 691.046C36.7307 689.333 38.6967 687.412 40.6077 685.367C41.9767 683.902 43.3457 682.237 45.1277 681.257C49.3377 678.941 54.7947 682.016 58.5357 683.993C63.2097 686.462 67.7927 689.252 73.0737 690.188C75.5567 690.628 77.0727 686.451 76.2517 684.684C73.1757 678.063 68.0337 672.482 65.8747 665.429C65.1277 666.99 64.3807 668.551 63.6337 670.112C72.9987 664.53 82.8027 659.569 91.3957 652.795C92.4557 651.96 94.4827 647.683 91.8827 647.486C85.9757 647.038 80.2697 645.559 74.3227 646.072C71.8177 646.288 69.3137 646.589 66.7977 646.654C65.1017 646.698 63.0217 646.832 61.5277 645.885C58.4077 643.91 56.8377 638.977 55.5477 635.744C53.9997 631.865 52.7637 627.8 50.8087 624.097C49.8557 622.29 47.5257 624.881 47.0517 625.598C44.5807 629.339 43.6797 633.97 42.8027 638.294C42.0277 642.113 41.6257 647.133 39.3237 650.355C37.0177 653.583 30.7297 653.205 27.1737 653.34C21.7787 653.546 16.1357 653.797 11.4897 656.871C10.4627 657.55 7.54571 661.595 9.88771 662.442C18.3807 665.514 27.5127 666.731 35.7487 670.512C35.7267 669.231 35.7057 667.95 35.6837 666.669C29.3397 675.926 22.5877 684.924 16.9237 694.628C16.3477 695.615 15.6967 697.724 16.9887 698.47C18.2867 699.22 19.7917 697.56 20.3497 696.605Z" fill="white"/>
<path d="M112.972 674.431C118.635 664.728 125.389 655.73 131.732 646.473C132.309 645.631 132.968 643.227 131.667 642.63C123.418 638.844 114.303 637.634 105.806 634.56C105.272 636.417 104.738 638.274 104.204 640.131C113.162 634.203 126.894 640.893 134.256 631.752C137.321 627.946 138.427 622.856 139.393 618.184C140.265 613.972 140.675 609.07 143.099 605.399C141.847 605.899 140.595 606.399 139.342 606.9C141.37 610.742 142.553 615.046 144.226 619.048C145.698 622.569 147.438 627.285 150.854 629.417C154.468 631.673 160.172 630.339 164.123 629.978C170.28 629.415 176.118 630.877 182.236 631.341C182.398 629.571 182.56 627.802 182.723 626.032C174.528 632.492 165.095 637.179 156.163 642.503C154.757 643.341 153.399 645.477 153.921 647.186C156.201 654.635 161.54 660.507 164.784 667.488C165.843 665.653 166.903 663.818 167.962 661.984C162.266 660.974 157.432 657.509 152.318 655.02C147.922 652.881 142.804 651.074 138.123 653.405C133.657 655.629 130.879 660.187 127.09 663.291C122.019 667.446 116.217 670.605 110.944 674.489C111.952 674.814 112.959 675.139 113.967 675.464C113.968 673.224 114.656 671.379 115.82 669.495C116.421 668.523 117.03 666.388 115.755 665.652C114.44 664.893 112.976 666.576 112.395 667.517C110.39 670.762 109.216 674.269 109.215 678.102C109.214 680.141 111.019 679.975 112.238 679.077C117.087 675.506 122.363 672.556 127.134 668.871C129.352 667.158 131.318 665.237 133.229 663.192C134.598 661.727 135.967 660.062 137.749 659.082C141.959 656.766 147.416 659.843 151.157 661.819C155.831 664.288 160.414 667.077 165.695 668.014C168.178 668.454 169.694 664.277 168.873 662.51C165.797 655.889 160.655 650.308 158.496 643.255C157.749 644.816 157.002 646.377 156.254 647.938C165.619 642.356 175.423 637.395 184.016 630.621C185.076 629.786 187.103 625.509 184.503 625.312C178.596 624.864 172.89 623.385 166.943 623.898C164.438 624.114 161.934 624.415 159.418 624.48C157.722 624.524 155.642 624.657 154.148 623.711C151.028 621.735 149.458 616.803 148.168 613.57C146.62 609.692 145.384 605.626 143.429 601.923C142.475 600.116 140.146 602.707 139.672 603.424C137.201 607.166 136.3 611.796 135.423 616.12C134.648 619.939 134.246 624.959 131.944 628.182C129.638 631.41 123.35 631.032 119.793 631.167C114.398 631.373 108.755 631.624 104.109 634.698C103.082 635.377 100.165 639.422 102.507 640.269C111 643.341 120.132 644.558 128.368 648.339C128.346 647.058 128.325 645.777 128.303 644.496C121.959 653.753 115.207 662.75 109.543 672.454C108.967 673.441 108.316 675.551 109.608 676.297C110.909 677.046 112.415 675.386 112.972 674.431Z" fill="white"/>
<path d="M215.019 661.555C223.259 653.918 232.338 647.273 241.098 640.261C242.467 639.165 243.647 636.484 242.099 635.112C235.313 629.095 226.937 625.282 219.702 619.871C218.967 621.81 218.231 623.748 217.496 625.688C227.63 622.681 239.398 633.268 248.651 626.246C252.386 623.412 254.763 619.012 256.952 614.968C258.909 611.355 260.682 606.951 263.919 604.268C262.941 604.158 261.963 604.049 260.985 603.939C261.803 608.18 261.682 612.617 262.116 616.908C262.506 620.762 262.808 625.956 265.526 629.016C268.355 632.201 274.136 632.624 278.04 633.429C284.053 634.669 289.157 637.71 294.837 639.918C295.572 637.979 296.308 636.04 297.043 634.1C287.087 637.99 276.482 639.808 266.143 642.365C264.423 642.79 263.204 644.992 263.208 646.649C263.227 654.468 266.626 661.657 267.706 669.306C269.018 667.699 270.329 666.093 271.641 664.486C267.03 662.149 263.657 658.217 260.024 654.653C256.702 651.393 252.54 647.38 247.552 647.391C242.286 647.403 238.033 651.308 233.448 653.357C227.311 656.101 220.598 657.355 214.274 659.588C214.784 660.641 215.295 661.694 215.805 662.747C216.444 660.631 217.522 659.113 219.178 657.658C220.248 656.718 221.313 654.87 220.818 653.399C220.333 651.958 218.828 652.24 217.884 653.069C215.011 655.592 212.741 658.667 211.627 662.357C211.324 663.361 211.127 666.231 213.158 665.514C219.066 663.427 225.221 662.104 231.062 659.819C233.774 658.758 236.275 657.415 238.793 655.962C240.779 654.816 242.923 653.486 245.285 653.42C249.953 653.29 254.06 657.732 257.074 660.765C260.522 664.235 263.926 667.952 268.346 670.193C270.802 671.438 272.526 667.111 272.281 665.373C271.264 658.169 267.979 651.355 267.961 644.007C266.983 645.434 266.005 646.863 265.026 648.291C275.365 645.734 285.97 643.916 295.926 640.026C297.171 639.539 298.116 638.522 298.574 637.256C298.858 636.469 299.207 634.626 298.132 634.208C292.675 632.087 287.663 628.988 281.899 627.73C279.514 627.209 277.106 626.785 274.738 626.186C273.069 625.764 270.883 625.293 269.613 624.035C267.014 621.461 266.999 615.968 266.713 612.602C266.357 608.416 266.355 604.142 265.557 600.006C265.256 598.447 263.444 598.996 262.623 599.677C259.161 602.546 256.934 606.664 254.83 610.561C252.926 614.086 251.155 618.491 248.016 621.128C244.541 624.047 238.852 622.097 234.982 621.088C229.63 619.693 224.098 618.13 218.611 619.758C216.735 620.315 214.331 624.025 216.405 625.576C223.639 630.987 232.015 634.801 238.802 640.819C239.136 639.103 239.469 637.386 239.803 635.67C231.042 642.682 221.963 649.326 213.723 656.964C212.673 657.938 211.58 659.728 212.083 661.224C212.561 662.641 214.091 662.415 215.019 661.555Z" fill="white"/>
</g>
<g opacity="0.75">
<path d="M177.821 18.2454C180.101 17.9656 182.453 17.8317 184.769 18.0179C189.279 18.3803 193.721 20.0674 197.103 23.1683C200.327 26.1254 202.29 30.1387 202.769 34.4681C203.845 44.21 197.707 53.9462 189.302 58.4192C185.218 60.5925 180.448 61.5987 175.824 60.7933C170.646 59.8909 166.255 56.8014 162.874 52.9681C159.241 48.8486 156.4 43.3677 157.047 37.6136C157.433 34.1798 159.112 31.3613 161.211 28.8841C161.256 28.775 161.302 28.6659 161.351 28.5579C163.254 24.2911 166.91 21.4189 171.159 19.8186C173.308 19.0093 175.564 18.5226 177.821 18.2454ZM181.229 20.7054C177.171 20.803 172.989 21.4507 169.392 23.2688C168.583 23.6776 167.829 24.1465 167.138 24.6731C167.155 24.7106 167.172 24.7487 167.186 24.7884C167.314 25.1713 167.227 25.547 167.098 25.8304C166.967 26.1176 166.769 26.369 166.578 26.5491C165.694 27.3835 164.817 28.205 163.979 29.0628C163.7 29.3479 163.427 29.6387 163.158 29.9329C162.928 30.5386 162.743 31.1728 162.609 31.8353C162.556 32.1003 162.428 32.4053 162.242 32.6624C162.062 32.9115 161.774 33.19 161.373 33.261H161.372C161.184 33.2941 160.991 33.2799 160.812 33.2005C160.789 33.1899 160.767 33.1756 160.745 33.1634C160.525 33.5548 160.327 33.9563 160.155 34.3704C159.254 36.5481 159.113 38.963 159.616 41.2796C160.674 46.1525 163.966 50.5957 167.809 53.7737C171.26 56.628 175.397 58.3573 179.874 58.3167C183.994 58.2794 188.083 56.7677 191.413 54.3323C198.104 49.4395 202.287 40.5292 199.771 32.4075C198.65 28.786 196.197 25.6949 192.993 23.6644C189.49 21.444 185.386 20.6054 181.229 20.7054Z" fill="white" stroke="white"/>
<path d="M175.562 13.5879C181.914 11.9604 188.967 12.0773 195.144 14.4932C200.95 16.7645 205.767 21.4163 208.535 26.9492C211.346 32.5689 212.04 39.1163 209.875 45.1074C207.921 50.5145 204.021 55.0827 199.506 58.4785C194.805 62.0141 189.249 64.5438 183.426 65.5439C180.643 66.022 177.773 66.1597 174.95 65.8037C172.091 65.4429 169.395 64.5265 166.854 63.2197C160.964 60.1913 155.803 55.3042 153.206 49.0898C150.27 42.0649 151.302 33.4142 154.935 26.877C156.363 24.3062 158.356 22.1416 160.745 20.4502C163.218 18.6995 165.966 17.4009 168.624 16.1035C168.733 16.0504 168.853 16.0103 168.977 15.9912C171.085 14.9792 173.292 14.1698 175.562 13.5879ZM189.389 15.8408C177.11 13.4462 164.212 18.8445 156.838 28.8682C156.692 29.0666 156.445 29.275 156.164 29.3799C156.137 29.3901 156.107 29.3976 156.077 29.4062C155.612 30.4399 155.228 31.5186 154.907 32.6172C153.869 36.1696 153.542 40.163 154.286 43.7783C154.908 46.7971 156.238 49.6206 158.062 52.1172C159.861 54.5819 162.1 56.7072 164.606 58.4619C166.973 60.119 169.603 61.5606 172.352 62.3623C177.305 63.8073 182.663 63.3786 187.603 61.8789C197.373 58.9128 207.5 51.0671 208.692 40.4531C209.322 34.8501 207.276 29.1284 203.835 24.6885C200.222 20.0259 195.17 16.9683 189.389 15.8408Z" fill="white" stroke="white"/>
<path d="M195.963 58.887C196.151 58.8751 196.351 58.9241 196.521 59.0628C196.681 59.1944 196.775 59.3742 196.829 59.552C197.425 61.5247 197.798 63.5434 198.182 65.5218C198.567 67.5101 198.964 69.463 199.603 71.3548C200.113 72.8658 200.776 74.5395 201.24 76.2132C201.708 77.9017 201.998 79.6658 201.756 81.4319C201.704 81.8092 201.451 82.2604 201.138 82.5511C200.976 82.7007 200.753 82.8515 200.48 82.8948C200.217 82.9367 199.957 82.8692 199.737 82.6975L199.646 82.6175C195.84 78.9273 192.256 75.7533 189.068 71.4417C187.62 74.2634 186.643 77.1754 185.659 80.1302C184.664 83.1198 183.66 86.1541 182.148 89.1096L181.839 89.6995C181.76 89.8463 181.634 89.9913 181.508 90.1096C181.378 90.2312 181.213 90.3561 181.031 90.4427C180.863 90.5227 180.599 90.6093 180.318 90.5227C179.994 90.4226 179.82 90.1504 179.75 89.8665C178.774 85.917 179.09 81.779 178.992 77.8938C178.942 75.8983 178.691 73.9268 178.534 71.8772C178.379 69.8496 178.32 67.7863 178.68 65.718C178.728 65.4402 178.863 65.13 179.051 64.8743C179.232 64.6269 179.523 64.3493 179.92 64.2796L180.062 64.2639C180.204 64.2574 180.347 64.2795 180.482 64.3401C180.663 64.4211 180.793 64.5539 180.878 64.6975C181.039 64.9692 181.053 65.2933 181.009 65.5491C180.685 67.4106 180.745 69.3063 180.905 71.2425C181.063 73.157 181.325 75.1523 181.374 77.1018C181.423 79.0396 181.219 80.8747 181.125 82.6126C181.055 83.9028 181.042 85.1665 181.217 86.4612C182.462 83.8465 183.271 81.219 184.095 78.554C185.052 75.4567 186.029 72.3098 187.74 69.1712C187.858 68.9552 188.109 68.6653 188.401 68.4866C188.549 68.3962 188.759 68.303 189 68.3098C189.239 68.3167 189.453 68.42 189.613 68.6018L189.679 68.6848L190.287 69.5208C193.109 73.304 196.074 76.0327 199.491 79.3177C199.468 79.2072 199.44 79.1024 199.405 78.9983C199.336 78.7892 199.251 78.5877 199.146 78.3167C199.043 78.0531 198.929 77.7479 198.822 77.3714C198.353 75.7219 197.761 74.1305 197.208 72.468C196.574 70.5624 196.188 68.606 195.82 66.679C195.451 64.7421 195.102 62.8374 194.542 60.9837C194.44 60.6459 194.529 60.2968 194.643 60.0384C194.762 59.766 194.946 59.5044 195.152 59.303C195.342 59.1181 195.628 58.9082 195.963 58.887Z" fill="white" stroke="white"/>
<path d="M212.369 60.9011L212.263 60.7292L212.371 60.903L212.369 60.9011ZM212.369 60.9011L212.216 60.78L212.369 60.9021V60.9011ZM204.729 51.4997C206.452 51.2929 208.167 51.6413 209.745 52.0427C211.577 52.5087 213.368 53.1206 215.119 53.7907C216.661 54.3811 218.192 54.9626 219.743 55.5124C221.24 56.0431 223.03 56.6408 224.292 57.9138C224.534 58.1574 224.604 58.4626 224.578 58.739C224.554 59.0001 224.446 59.2436 224.326 59.4402C224.203 59.6409 224.048 59.825 223.889 59.9724C223.736 60.1133 223.547 60.2509 223.35 60.322C222.515 60.6222 221.616 60.7166 220.747 60.7351C219.887 60.7533 218.998 60.6963 218.232 60.6765C216.607 60.6345 215.029 60.517 213.526 60.8044C213.245 60.8585 213.001 60.9113 212.791 60.9997L212.79 61.0007C212.732 61.0252 212.672 61.0558 212.608 61.0925L212.607 61.0954C212.601 61.1026 212.593 61.1089 212.586 61.1159C212.564 61.1807 212.557 61.2092 212.535 61.3318V61.3327C212.491 61.5804 212.488 61.8438 212.498 62.1394C212.554 63.76 213.046 65.3532 213.467 67.0193C213.797 68.3268 214.226 69.819 214.14 71.3152L214.115 71.614C214.077 71.9705 213.861 72.3835 213.589 72.6706C213.329 72.9449 212.821 73.2908 212.248 73.0114C210.597 72.2064 209.231 70.9538 207.915 69.8659C206.53 68.7206 205.013 67.784 203.442 66.8279C201.882 65.8779 200.286 65 198.679 64.0984C197.37 63.3643 195.975 62.4407 195.164 60.9782C194.981 60.6472 195.017 60.2749 195.098 59.9948C195.182 59.7021 195.339 59.4169 195.521 59.1882C195.695 58.9707 195.941 58.7429 196.233 58.6482C196.389 58.5977 196.585 58.5779 196.785 58.6521C196.938 58.7088 197.058 58.8067 197.147 58.9236L197.228 59.0456L197.357 59.2654C198.039 60.3381 199.142 61.0246 200.369 61.7009C201.971 62.5834 203.564 63.484 205.131 64.4421C206.693 65.3972 208.24 66.376 209.678 67.573C210.325 68.1116 210.668 68.4936 210.931 68.7341C211.046 68.8396 211.168 68.9384 211.327 69.0476C211.136 68.2623 210.93 67.4891 210.733 66.6745C210.348 65.0743 209.849 63.1228 210.246 61.3103C210.636 59.5346 211.892 58.4547 213.599 58.1111L213.932 58.0495C215.223 57.8332 216.557 57.8519 217.827 57.8904C216.532 57.4258 215.251 56.9415 213.97 56.447C212.283 55.7962 210.578 55.2062 208.841 54.7644C207.399 54.3977 205.904 54.0498 204.524 54.2155C204.333 54.2385 204.134 54.2217 203.95 54.1335C203.76 54.0424 203.627 53.8947 203.548 53.7282C203.401 53.4219 203.436 53.0701 203.507 52.8054C203.582 52.5237 203.724 52.2364 203.911 52.0046C204.089 51.7844 204.366 51.5436 204.729 51.4997Z" fill="white" stroke="white"/>
</g>
<g opacity="0.75">
<path d="M264.962 24.3677C273.208 21.973 281.85 23.2318 289.988 25.4538C294.1 26.5766 298.106 28.008 302.148 29.3484C306.358 30.7442 310.68 31.7821 314.856 33.2782C316.523 33.8752 318.178 34.4871 319.85 35.0704C321.195 35.5397 323 36.0879 323.669 37.4673C324.145 36.4706 324.62 35.4744 325.096 34.4777C321.099 35.4739 316.943 34.9021 312.959 34.1181C308.857 33.3111 304.779 32.4202 300.67 31.6455C292.589 30.122 284.595 27.9894 276.713 25.6511C273.07 24.5706 269.226 23.2811 266.258 20.8228C265.185 19.9336 263.274 22.9774 264.451 23.9522C267.131 26.1731 270.524 27.4044 273.802 28.445C277.117 29.497 280.499 30.3221 283.843 31.2738C292.608 33.7689 301.578 35.3028 310.486 37.1723C315.071 38.1345 319.861 38.8784 324.483 37.7266C325.634 37.4398 326.421 35.7886 325.91 34.737C324.732 32.3106 321.062 31.8347 318.805 30.9657C314.493 29.3046 310.054 28.1198 305.644 26.758C297.172 24.1413 288.934 20.8469 280.03 19.9665C275.184 19.4873 270.263 19.7571 265.574 21.1189C264.755 21.3568 264.139 22.251 264.001 23.0651C263.897 23.683 264.129 24.6095 264.962 24.3677Z" fill="white"/>
<path d="M265.396 22.4604C258.043 33.3698 252.331 46.9956 254.093 60.3978C254.773 65.5654 256.62 70.2792 260.241 74.0932C263.578 77.6085 267.8 80.1408 272.252 81.9878C276.828 83.8864 281.676 85.1375 286.561 85.9225C291.278 86.6807 296.199 87.1632 300.97 86.7054C305.979 86.2246 310.77 84.4341 314.694 81.2505C318.569 78.1058 321.348 73.8082 323.235 69.2271C325.229 64.3867 326.213 59.1412 326.833 53.9626C327.494 48.4314 327.891 42.4929 326.418 37.0533C326.111 35.9218 325.686 34.8379 325.147 33.7963C324.458 32.4619 322.256 35.2683 322.906 36.5259C325.16 40.8866 324.95 46.4934 324.621 51.2444C324.288 56.0508 323.576 61.0101 322.155 65.6246C320.853 69.8548 318.87 73.9776 315.731 77.1595C312.582 80.3524 308.498 82.3042 304.112 83.109C299.649 83.9275 294.973 83.5558 290.497 82.9999C285.918 82.4308 281.354 81.4791 276.989 79.9698C268.764 77.125 260.254 71.9749 257.602 63.1554C253.512 49.5564 259.741 34.7211 267.274 23.5443C267.624 23.0251 267.923 21.8321 267.238 21.4374C266.502 21.0131 265.735 21.9577 265.396 22.4604Z" fill="white"/>
<path d="M326.78 35.9591C327.384 34.373 329.934 33.7694 331.575 33.5633C333.686 33.2979 336.12 33.4871 338.045 34.4553C342.896 36.8955 341.755 42.8844 340.033 46.9583C337.919 51.9615 334.455 55.7772 330.614 59.5239C328.149 61.9279 325.646 64.3188 323.468 66.9936C321.314 69.6394 319.013 72.8104 318.479 76.2621C317.954 79.6567 319.441 83.3195 322.287 85.2904C324.812 87.0387 328.091 87.1456 331.046 87.0031C331.894 86.9625 332.536 86.2164 332.813 85.4571C332.978 85.0026 333.15 83.6561 332.289 83.6972C329.558 83.8288 326.576 83.8074 324.214 82.2411C321.454 80.4106 320.218 76.7407 321.604 73.7084C323.07 70.5012 325.629 67.7282 328.075 65.2414C330.633 62.6401 333.336 60.1823 335.8 57.4877C339.392 53.5585 342.233 48.603 343.587 43.4463C344.824 38.7425 344.143 32.7881 338.907 30.9285C333.92 29.1566 326.591 30.2256 324.489 35.7464C324.264 36.3368 324.194 37.3741 325.013 37.5062C325.82 37.6356 326.544 36.5758 326.78 35.9591Z" fill="white"/>
<path d="M322.894 32.1883C323.725 30.3309 326.249 28.8254 328.226 27.8962C330.892 26.6424 333.843 25.8913 336.767 25.5717C339.143 25.3118 341.882 25.2789 344.113 26.2603C347.338 27.6785 349.26 30.6692 349.934 34.0457C351.436 41.573 347.113 48.6584 342.435 54.1265C339.626 57.4105 336.282 60.133 333.221 63.1675C331.795 64.5808 330.473 66.0896 329.057 67.5122C327.706 68.8702 326.381 70.2436 325.351 71.8696C323.636 74.5785 322.412 79.2001 324.947 81.83C327.104 84.0679 330.725 83.8535 333.467 83.046C333.195 82.9593 332.924 82.8727 332.652 82.7861C332.65 82.7823 333.021 83.6529 332.927 83.6501C333.193 83.2077 333.242 83.0728 333.072 83.2444C333.003 83.2861 332.931 83.3212 332.855 83.3502C332.616 83.3409 332.303 83.5076 332.042 83.5196C331.671 83.5372 331.312 83.4593 330.954 83.3722C329.624 83.047 328.097 86.2838 329.711 86.678C333.525 87.61 336.788 83.5147 334.894 80.0564C334.75 79.7938 334.337 79.7209 334.079 79.7966C331.804 80.4665 328.327 80.836 326.754 78.5828C324.738 75.6941 327.562 72.2638 329.513 70.2825C332.514 67.237 335.478 64.2146 338.61 61.3007C341.769 58.3622 344.692 55.1906 347.158 51.6419C351.365 45.5883 354.482 37.3538 351.935 30.0135C350.839 26.8534 348.566 24.0574 345.35 22.9045C342.805 21.9922 340.032 22.0279 337.379 22.3223C331.087 23.0202 323.375 25.7794 320.602 31.9751C320.342 32.5562 320.331 33.6066 321.126 33.7349C321.962 33.8692 322.622 32.7963 322.894 32.1883Z" fill="white"/>
<path d="M266.385 24.0843C268.627 17.665 260.158 13.5428 254.912 13.5352C246.99 13.5237 245.146 24.3003 245.609 30.4482C246.02 35.8834 247.655 41.2583 249.192 46.4644C250.551 51.0729 252.696 56.2049 251.711 61.0941C251.277 63.2519 250.142 64.7848 248.18 65.9449C246.154 67.1417 243.755 67.617 241.419 67.4679C238.835 67.3028 236.203 66.3697 234.326 64.5331C232.084 62.3386 231.39 59.343 231.661 56.2948C231.732 55.4829 230.953 55.2208 230.333 55.5284C229.523 55.9297 229.129 56.9012 229.055 57.7411C228.571 63.2009 231.271 68.2622 236.6 70.0517C241.346 71.6454 247.009 70.6591 250.636 67.0956C256.967 60.8748 253.96 51.9056 251.762 44.5165C250.227 39.3582 248.51 33.9586 248.186 28.5596C247.988 25.2619 248.373 21.0104 250.369 18.2522C252.109 15.8465 256.244 16.9101 258.639 17.9062C260.62 18.7302 265.028 21.1951 264.094 23.87C263.886 24.4648 263.787 25.4955 264.618 25.6298C265.412 25.7581 266.168 24.7049 266.385 24.0843Z" fill="white"/>
<path d="M230.383 58.5075C230.85 58.224 231.576 57.6478 232.115 58.048C232.486 58.3238 232.666 59.1061 232.838 59.5124C233.504 61.0896 234.389 62.4416 235.801 63.4531C238.625 65.4755 242.625 65.2847 245.245 63.0019C248.192 60.434 248.608 56.3951 248.393 52.7362C248.121 48.0992 247.575 43.4754 246.819 38.8932C245.666 31.9087 243.305 24.6413 244.35 17.4978C244.822 14.2698 246.121 11.3225 248.643 9.17886C250.89 7.2688 253.789 6.92671 256.575 7.71616C259.804 8.63117 262.68 10.8669 264.818 13.3981C266.892 15.8531 268.649 18.9265 268.782 22.2071C268.814 22.9938 269.421 23.3151 270.11 22.9736C270.842 22.6112 271.421 21.5717 271.387 20.7609C271.137 14.6009 266.559 8.76823 261.319 5.84558C258.705 4.38728 255.641 3.58302 252.664 4.22116C249.278 4.94648 246.545 7.54621 244.687 10.3521C240.568 16.5735 241.25 24.4412 242.491 31.4263C243.219 35.5205 244.125 39.5725 244.721 43.6914C245.078 46.159 245.357 48.6381 245.568 51.1222C245.739 53.138 246.019 55.252 245.806 57.2739C245.607 59.1582 244.941 60.7026 243.015 61.3051C241.057 61.9175 238.937 61.3873 237.35 60.1286C235.84 58.9312 235.547 57.2794 234.618 55.7219C233.578 53.9785 231.766 54.661 230.334 55.5283C229.615 55.9636 229.012 56.8743 229.057 57.741C229.093 58.4822 229.691 58.9269 230.383 58.5075Z" fill="white"/>
<path d="M268.445 24.5459C262.002 32.5458 256.919 42.5565 255.838 52.8754C255.316 57.8496 255.734 62.9542 257.805 67.5572C259.756 71.8904 263.255 75.164 267.142 77.7944C272.495 81.4171 278.599 83.8672 284.796 85.6166C286.102 85.9856 287.647 82.7647 286.039 82.3108C280.876 80.853 275.83 78.8338 271.209 76.0943C267.328 73.7939 263.513 70.9069 261.153 66.9843C256.188 58.7317 258.201 48.1074 261.755 39.7496C263.788 34.9684 266.518 30.4674 269.775 26.4231C270.216 25.8765 270.736 24.78 270.231 24.1199C269.723 23.4555 268.822 24.0777 268.445 24.5459Z" fill="white"/>
<path d="M271.04 91.2607C269.991 89.8605 268.269 90.383 267.303 91.6039C265.946 93.3177 266.416 95.2261 268.284 96.2173C268.688 95.1543 269.091 94.0912 269.494 93.0277C267.874 93.4799 266.743 94.469 266.082 96.0161C265.882 96.4837 265.779 97.3823 266.324 97.6877C267.128 98.1383 267.959 98.5292 268.795 98.9163C268.978 97.9755 269.161 97.0347 269.344 96.0939C268.401 97.015 267.277 97.8592 266.837 99.1564C266.37 100.535 266.971 101.523 268.187 102.185C271.166 103.809 274.681 104.667 277.971 105.383C280.486 105.931 282.999 106.468 285.512 107.019C287.696 107.497 290.349 108.035 292.051 106.189C293 105.16 293.597 103.515 292.604 102.317C291.813 101.362 290.494 100.867 289.369 100.439C288.966 101.502 288.562 102.565 288.159 103.629C289.63 103.339 291.245 102.651 292.233 101.488C293.481 100.02 293.459 98.1887 291.647 97.3149C291.138 98.3872 290.63 99.4601 290.122 100.532C292.277 100.534 295.096 99.3801 295.261 96.8823C295.345 95.6236 294.439 95.0534 293.359 94.6926C291.83 94.1817 290.216 93.9005 288.625 93.657C285.346 93.1549 282.05 92.8319 278.78 92.2568C277.059 91.9542 275.279 91.6785 273.624 91.1072C272.444 90.6999 271.213 90.1384 269.957 90.5595C269.141 90.8331 268.526 91.6669 268.384 92.5057C268.284 93.0945 268.513 94.0874 269.344 93.8089C270.212 93.5183 271.155 94.0068 271.97 94.2908C273.038 94.6636 274.146 94.9026 275.253 95.1312C277.787 95.6548 280.35 96.061 282.918 96.3812C285.31 96.6795 287.716 96.9322 290.072 97.4558C290.617 97.5769 291.167 97.7003 291.697 97.8762C291.909 97.9464 292.322 98.2381 292.534 98.2299C292.583 98.2606 292.632 98.2913 292.681 98.322C292.827 97.8483 292.973 97.3752 293.119 96.9015C293.085 96.6433 293.46 96.8604 293.072 96.8604C292.975 96.8604 292.772 96.9865 292.677 97.0194C292.255 97.1646 291.81 97.2277 291.366 97.2271C290.278 97.2266 288.464 99.7808 289.841 100.445C290.038 100.529 290.227 100.629 290.407 100.747C290.872 101.188 291.094 100.751 291.074 99.4338C290.901 99.4744 290.588 99.7578 290.421 99.84C289.9 100.097 289.342 100.268 288.773 100.38C287.901 100.552 286.251 103.071 287.564 103.57C288.529 103.936 289.366 104.403 290.243 104.932C290.322 104.979 290.504 105.274 290.539 105.265C290.779 105.204 290.839 104.025 290.921 104.063C290.8 104.006 290.067 104.173 289.89 104.169C287.711 104.124 285.596 103.399 283.489 102.92C280.742 102.296 277.972 101.873 275.258 101.083C273.763 100.647 272.287 100.126 270.868 99.4804C270.515 99.3197 270.139 99.158 269.807 98.9568C269.705 98.8927 269.603 98.8285 269.5 98.7639C269.098 98.3258 268.912 98.6317 268.942 99.6816C269.25 99.5977 269.837 98.8247 270.056 98.6109C270.541 98.1361 271.706 96.2984 270.604 95.7886C269.768 95.4015 268.938 95.0106 268.133 94.56C268.214 95.117 268.295 95.6745 268.376 96.2315C268.182 96.6866 268.59 96.3615 268.884 96.2792C269.784 96.0281 271.372 93.7683 270.093 93.0896C269.826 92.9482 269.499 92.6335 269.234 92.5172C269.127 92.2947 269.08 92.2404 269.092 92.3544C269.117 92.7338 268.981 93.0869 268.684 93.4131C268.183 93.9597 268.414 93.4767 268.801 93.992C269.761 95.2754 271.884 92.3879 271.04 91.2607Z" fill="white"/>
<path d="M274.149 80.91C271.945 84.4576 272.22 88.7141 271.18 92.6209C270.997 93.3078 271.367 94.0605 272.141 93.924C273.001 93.7722 273.518 92.7141 273.714 91.9778C274.572 88.7531 274.222 84.899 276.026 81.9944C276.357 81.4621 276.689 80.2905 275.991 79.8875C275.269 79.4703 274.469 80.3947 274.149 80.91Z" fill="white"/>
<path d="M289.334 85.3617C288.584 88.4439 287.834 91.5261 287.084 94.6082C286.917 95.2957 287.26 96.0496 288.044 95.9114C288.892 95.7617 289.438 94.7009 289.617 93.9652C290.368 90.883 291.118 87.8008 291.868 84.7186C292.035 84.0311 291.692 83.2773 290.907 83.4155C290.06 83.5646 289.514 84.6254 289.334 85.3617Z" fill="white"/>
<path d="M270.282 101.441C269.028 103.703 268.665 106.275 267.812 108.689C266.929 111.191 266.279 113.824 265.002 116.166C264.702 116.717 264.319 117.858 265.038 118.273C265.738 118.677 266.59 117.783 266.88 117.251C268.193 114.842 268.966 112.233 269.845 109.648C270.242 108.481 270.634 107.328 270.951 106.136C271.276 104.916 271.543 103.639 272.16 102.526C272.464 101.978 272.84 100.832 272.124 100.419C271.421 100.013 270.575 100.911 270.282 101.441Z" fill="white"/>
<path d="M285.554 105.537C284.338 110.516 282.971 115.456 281.74 120.431C281.571 121.119 281.918 121.873 282.701 121.734C283.551 121.585 284.092 120.524 284.274 119.788C285.504 114.813 286.871 109.873 288.087 104.894C288.255 104.207 287.911 103.453 287.127 103.591C286.279 103.74 285.734 104.801 285.554 105.537Z" fill="white"/>
<path d="M259.179 125.676C258.402 128.816 257.399 131.895 256.707 135.057C256.557 135.744 256.872 136.501 257.668 136.36C258.502 136.213 259.079 135.15 259.241 134.414C259.933 131.252 260.936 128.173 261.713 125.033C261.883 124.345 261.535 123.591 260.752 123.729C259.902 123.88 259.361 124.94 259.179 125.676Z" fill="white"/>
<path d="M259.603 127.142C261.911 127.166 264.146 128.094 266.404 128.501C268.672 128.91 270.96 129.186 273.244 129.482C275.511 129.774 277.766 130.139 280.03 130.445C281.198 130.603 282.37 130.747 283.545 130.829C284.525 130.897 285.453 130.89 286.302 131.444C286.181 131.03 286.06 130.615 285.939 130.201C285.565 132.056 284.982 133.851 284.469 135.669C284.246 136.459 284.04 137.25 283.867 138.052C283.746 138.618 283.674 139.437 283.324 139.925C283.847 139.716 284.37 139.508 284.893 139.299C280.066 137.63 275.018 136.831 270.115 135.442C267.987 134.839 265.932 134.377 263.737 134.081C261.61 133.793 259.45 133.514 257.541 132.469C256.237 131.755 254.439 134.889 255.734 135.598C259.452 137.634 264.016 137.294 268.011 138.496C272.988 139.994 278.167 140.728 283.086 142.428C283.678 142.633 284.298 142.298 284.655 141.802C285.857 140.127 286.156 138.287 286.648 136.333C287.22 134.062 288.009 131.856 288.473 129.557C288.561 129.12 288.518 128.581 288.11 128.314C286.461 127.238 284.061 127.492 282.177 127.257C279.761 126.956 277.359 126.55 274.945 126.234C272.509 125.916 270.067 125.631 267.648 125.195C265.389 124.788 263.155 123.859 260.846 123.835C259.439 123.821 258.051 127.125 259.603 127.142Z" fill="white"/>
<path d="M248.564 122.194C257.163 123.124 265.579 125.136 273.959 127.218C278.005 128.224 282.042 129.162 286.132 129.975C288.198 130.387 290.27 130.822 292.28 131.462C294.26 132.092 296.199 132.822 298.215 133.337C299.538 133.675 301.07 130.443 299.457 130.031C297.396 129.505 295.418 128.733 293.385 128.112C291.412 127.51 289.396 127.072 287.374 126.67C283.285 125.856 279.248 124.919 275.201 123.913C266.822 121.829 258.406 119.818 249.807 118.888C248.415 118.738 246.965 122.022 248.564 122.194Z" fill="white"/>
<path d="M299.814 130.119C297.426 129.494 297.098 133.932 296.752 135.321C296.025 138.242 295.289 141.162 294.627 144.099C294.472 144.786 294.794 145.542 295.588 145.402C296.425 145.254 296.994 144.191 297.161 143.455C297.636 141.347 298.147 139.248 298.669 137.151C298.93 136.102 299.192 135.054 299.453 134.005C299.551 133.608 299.663 133.212 299.736 132.809C299.766 132.612 299.794 132.416 299.818 132.218C299.928 131.689 299.822 131.848 299.5 132.694C299.176 132.923 298.853 133.151 298.529 133.38C298.543 133.395 298.557 133.41 298.571 133.425C299.89 133.77 301.425 130.54 299.814 130.119Z" fill="white"/>
<path d="M246.939 120.248C245.664 125.573 245.267 131.444 242.385 136.225C242.149 136.617 241.607 138.501 242.703 138.42C243.807 138.34 244.745 138.756 245.766 139.116C246.698 139.446 247.652 139.729 248.603 140C250.799 140.629 253.027 141.136 255.264 141.593C259.829 142.524 264.352 143.614 268.879 144.709C273.366 145.795 277.87 146.78 282.324 147.997C284.468 148.583 286.67 149.049 288.785 149.722C290.513 150.272 292.253 151.121 294.109 150.985C294.958 150.923 295.593 150.213 295.876 149.439C296.035 149.001 296.214 147.617 295.351 147.68C293.465 147.818 291.73 146.922 289.966 146.393C287.855 145.761 285.693 145.272 283.567 144.691C279.113 143.474 274.609 142.489 270.122 141.403C265.595 140.308 261.071 139.218 256.507 138.287C254.27 137.83 252.041 137.323 249.846 136.695C247.987 136.162 245.91 134.971 243.946 135.115C244.052 135.846 244.158 136.578 244.264 137.31C247.492 131.951 248.045 125.569 249.472 119.605C249.637 118.918 249.299 118.163 248.512 118.302C247.666 118.45 247.115 119.512 246.939 120.248Z" fill="white"/>
<path d="M294.662 144.026C294.017 145.687 293.971 147.521 293.229 149.139C292.962 149.72 292.963 150.768 293.753 150.899C294.591 151.037 295.243 149.956 295.52 149.353C296.271 147.715 296.308 145.901 296.953 144.239C297.182 143.648 297.244 142.614 296.429 142.48C295.619 142.346 294.9 143.412 294.662 144.026Z" fill="white"/>
<path d="M247.548 122.219C250.531 121.735 253.173 120.102 255.836 118.773C258.612 117.387 261.645 116.599 264.303 114.969C265.021 114.528 265.626 113.625 265.581 112.756C265.543 112.019 264.944 111.566 264.253 111.99C261.707 113.551 258.813 114.313 256.144 115.616C253.552 116.881 251.053 118.501 248.16 118.97C246.828 119.186 245.706 122.517 247.548 122.219Z" fill="white"/>
<path d="M261.775 114.654C264.376 115.72 267.15 116.067 269.881 116.647C271.23 116.933 272.74 113.684 271.124 113.341C268.593 112.804 265.992 112.513 263.582 111.525C262.18 110.949 260.46 114.115 261.775 114.654Z" fill="white"/>
<path d="M281.843 120.123C285.518 121.018 289.193 121.912 292.868 122.807C294.199 123.131 295.725 119.893 294.111 119.501C290.436 118.606 286.761 117.712 283.086 116.817C281.755 116.493 280.229 119.731 281.843 120.123Z" fill="white"/>
<path d="M290.543 121.443C291.815 125.304 294.481 128.496 295.804 132.33C296.407 134.076 298.756 131.46 298.312 130.174C296.987 126.336 294.319 123.14 293.05 119.288C292.475 117.539 290.118 120.152 290.543 121.443Z" fill="white"/>
<path d="M290.629 121.153C293.004 125.09 294.519 129.451 296.434 133.613C297.219 135.319 299.509 132.69 298.942 131.458C296.939 127.106 295.354 122.54 292.87 118.424C292.07 117.098 289.897 119.94 290.629 121.153Z" fill="white"/>
</g>
<g opacity="0.75">
<path d="M132.582 78.1682C131.65 78.5821 131.058 78.9325 130.489 78.3672C129.906 77.774 130.012 77.0725 130.419 76.4654C130.995 75.6128 131.585 74.7416 132.319 74.0199C136.075 70.3096 139.858 66.632 143.66 62.9684C144.188 62.4642 144.836 62.0629 145.471 61.6801C145.942 61.3895 146.556 61.3182 146.846 61.8589C147.062 62.2504 147.111 62.8411 147.006 63.2869C146.911 63.7049 146.565 64.0844 146.252 64.413C143.481 67.3238 140.701 70.2159 137.916 73.0987C136.72 74.3389 135.501 75.5557 134.267 76.7445C133.655 77.3366 132.956 77.8446 132.587 78.1543L132.582 78.1682Z" fill="white"/>
<path d="M134.607 59.5678C130.986 61.182 127.389 62.8196 123.755 64.3826C123.103 64.6584 122.317 64.8034 121.61 64.7581C120.848 64.7172 120.521 64.0322 120.924 63.3693C121.238 62.8548 121.706 62.3689 122.223 62.0553C123.403 61.3451 124.633 60.7141 125.877 60.1344C130.052 58.2114 134.227 56.3116 138.416 54.4398C139.301 54.0489 140.246 53.756 141.177 53.4816C141.787 53.3079 142.504 53.1626 142.854 53.871C143.195 54.5607 142.667 55.0881 142.2 55.5043C141.821 55.8418 141.341 56.0673 140.88 56.3068C138.778 57.3566 136.658 58.3923 134.551 59.4327L134.611 59.5539L134.607 59.5678Z" fill="white"/>
<path d="M118.262 45.8667C118.774 45.7297 119.645 45.4271 120.543 45.2966C125.581 44.5819 130.633 43.8952 135.69 43.241C136.583 43.1245 137.517 43.1848 138.424 43.259C139.079 43.318 139.71 43.6093 139.655 44.4133C139.609 45.0965 139.046 45.2937 138.432 45.3883C135.273 45.8936 132.104 46.4268 128.94 46.9228C125.949 47.3918 122.948 47.8653 119.947 48.2691C119.165 48.3769 118.343 48.3543 117.562 48.2297C117.195 48.1674 116.672 47.7418 116.632 47.4255C116.587 47.0998 117.021 46.6882 117.302 46.3641C117.442 46.2021 117.698 46.1568 118.257 45.8806L118.262 45.8667Z" fill="white"/>
</g>
</g>
<defs>
<clipPath id="clip0_2025_1422">
<rect width="375" height="667" fill="white"/>
</clipPath>
</defs>
</svg>
