<svg width="375" height="667" viewBox="0 0 375 667" fill="none" xmlns="http://www.w3.org/2000/svg">
<g clip-path="url(#clip0_2025_1298)">
<path opacity="0.75" d="M103.161 578.561C108.209 575.965 113.518 575.998 118.696 577.681L118.695 577.682C124.054 579.346 128.942 581.85 133.351 585.195L134.228 585.877L134.239 585.887C141.275 591.607 148.038 598.052 151.223 607.208C154.016 615.206 154.947 623.38 150.297 631.454C153.139 632.065 155.69 633.445 157.915 634.385C163.063 636.479 167.329 639.945 170.855 643.751H170.854C175.236 648.428 177.157 654.322 178.104 660.286H178.105C180.472 674.935 171.967 688.019 159.222 693.157C154.486 695.081 149.61 696.1 144.341 695.059C144.189 695.389 144.053 695.755 143.905 696.173C143.643 696.916 143.323 697.892 142.75 698.794L142.719 698.843L142.685 698.889C141.311 700.724 139.692 701.885 137.439 702.369C133.748 703.162 129.76 703.9 125.712 703.031L125.688 703.026L125.662 703.02C125.262 702.919 125.01 702.877 124.851 702.862C124.841 702.882 124.83 702.903 124.819 702.928C124.714 703.17 124.6 703.522 124.438 704.073C124.132 705.292 123.801 706.242 123.685 707.178L123.676 707.248L123.66 707.317C122.495 712.572 119.276 716.182 115.073 718.85C109.081 722.803 102.551 725.252 95.6387 726.475C90.9582 727.302 86.2789 727.024 81.8584 726.894H81.8486C74.3984 726.622 67.2344 724.994 60.4961 722.428V722.427C56.859 721.125 52.7537 719.719 49.3398 716.726L49.3027 716.692L49.2676 716.657C49.1925 716.582 49.1279 716.541 48.8643 716.409V716.408C47.8413 715.928 47.1076 715.506 46.627 715.246C46.4277 715.138 46.2933 715.073 46.208 715.034C46.1743 715.062 46.1324 715.095 46.084 715.139C45.7291 715.459 45.2592 715.979 44.4307 716.879L44.4229 716.888L44.415 716.896C41.5899 719.868 38.2296 721.815 34.752 723.558L34.7412 723.563C27.4784 727.134 19.8432 728.348 12.0439 728.482L12.043 728.481C8.53778 728.616 5.19883 727.914 2.06738 727.26L2.05566 727.258L2.04395 727.255C-3.45264 726.016 -8.37238 723.679 -12.9746 720.695L-12.9863 720.688C-20.8888 715.453 -28.0376 709.028 -31.9023 699.899L-31.9043 699.894C-34.8003 692.984 -35.4168 685.87 -31.5771 678.744L-31.4736 678.552L-31.3184 678.396C-31.0883 678.166 -30.8761 677.909 -30.6797 677.638C-30.9764 677.436 -31.2743 677.236 -31.5752 677.033C-32.2535 676.577 -32.9448 676.108 -33.6113 675.613C-34.9406 674.627 -36.2304 673.497 -37.2812 672.001C-38.0947 670.938 -38.9798 669.992 -39.9404 668.892C-40.8815 667.814 -41.852 666.634 -42.6533 665.247V665.246C-45.8455 659.798 -47.6181 654.396 -47.4941 649.071C-47.3694 643.719 -45.3317 638.6 -41.1816 633.744C-34.6977 626.028 -26.8712 620.086 -17.998 615.505L-17.9932 615.502C-10.9001 611.878 -3.15226 611.344 4.49609 612.847C5.34492 613.004 6.21904 613.124 7.13086 613.244C8.0312 613.363 8.97741 613.482 9.91504 613.636C11.4985 613.895 13.1431 614.266 14.7334 614.955C14.7215 614.542 14.7019 614.112 14.6807 613.665C14.648 612.977 14.6133 612.246 14.6133 611.542V611.489L14.6172 611.437C15.319 601.451 20.5683 594.532 29.1631 590.087L29.1699 590.084C35.8573 586.665 42.8767 584.997 50.4648 585.688H50.4639C52.6065 585.824 54.7983 586.096 56.8848 586.649C63.9308 588.218 71.3591 589.574 78.3701 592.411H78.3691C80.7539 593.368 83.0651 594.806 85.1553 595.968L86.0371 596.447L86.0449 596.451C86.3002 596.588 86.5054 596.697 86.6885 596.792C86.7065 596.801 86.7242 596.81 86.7412 596.818C86.809 596.676 86.8909 596.498 86.9893 596.273C88.8132 591.515 91.8719 587.646 95.373 584.138L95.3887 584.121L95.4053 584.105C97.7347 581.908 100.363 579.963 103.161 578.561ZM116.488 584.021C111.311 583.191 106.883 584.618 102.843 588.176L102.831 588.186C98.2781 592.114 95.122 596.792 93.0928 602.512L93.0918 602.511C92.8301 603.264 92.5697 603.955 92.2637 604.488C91.9582 605.02 91.4539 605.671 90.584 605.896C89.7634 606.107 89.0095 605.83 88.4844 605.578C87.9305 605.312 87.3011 604.905 86.6182 604.449V604.448C82.0051 601.411 77.4295 598.626 72.1426 597.238L72.124 597.234L72.1064 597.229C66.2555 595.535 60.1317 594.489 54.0352 593.427L54.0312 593.426C45.4524 591.909 37.3864 593.794 30.1572 598.624L30.1455 598.632L30.1338 598.639C27.1246 600.569 24.9417 603.346 23.5928 606.91C22.1405 610.795 22.2361 614.732 22.8809 618.996H22.8799C23.0184 619.805 23.0841 620.57 23.0049 621.243C22.9241 621.929 22.6688 622.704 21.9932 623.25C21.3208 623.793 20.5152 623.881 19.8418 623.824C19.1689 623.768 18.4386 623.555 17.6914 623.27L17.6641 623.258C11.5753 620.791 5.57295 619.269 -0.899414 619.396L-0.992188 619.398L-1.08398 619.389C-4.70907 619.013 -8.51064 619.396 -12.0332 621.101L-12.043 621.104L-12.0518 621.109C-21.5198 625.528 -29.6543 631.488 -36.2314 639.501C-40.1019 644.359 -40.8402 649.771 -38.874 655.683L-38.8701 655.693L-38.8672 655.703C-36.442 663.358 -31.1845 668.963 -24.6201 673.67L-23.9805 674.123L-23.9736 674.128L-23.9678 674.133C-23.5284 674.447 -23.0937 674.757 -22.7627 675.057C-22.4296 675.358 -22.0196 675.804 -21.8525 676.449C-21.6801 677.116 -21.8366 677.715 -22.0186 678.166C-22.1945 678.602 -22.4692 679.078 -22.7607 679.564L-22.7793 679.596L-22.7988 679.625C-23.3388 680.437 -23.8122 681.151 -24.1592 681.847L-24.1748 681.88L-24.1934 681.911C-26.337 685.73 -26.4955 689.829 -25.6191 694.103L-25.4717 694.744C-23.8424 701.327 -19.1641 706.306 -13.9355 711.035C-10.6824 713.933 -7.0022 716.468 -3.00879 718.236L-2.20605 718.58L-2.17285 718.594C1.06128 720.02 4.23849 721.162 7.63965 721.796C14.9703 722.933 21.9649 721.676 28.9336 719.09C33.8707 717.184 37.9842 714.42 41.2197 710.307C42.4709 708.686 43.9705 707.536 45.7734 707.278C47.4769 707.034 49.1258 707.632 50.6748 708.753L50.9834 708.983L51.0068 709.002L51.0293 709.021C55.7042 712.947 61.307 715.389 67.2031 717.49L67.792 717.69C73.8896 719.718 80.3743 720.452 86.9229 720.452C92.4364 720.452 97.81 719.554 103.053 717.632L103.073 717.624L103.094 717.617C105.287 716.884 107.401 715.647 109.51 714.326L109.539 714.309C113.564 711.913 116.578 708.797 117.277 704.123C117.425 702.612 117.852 700.956 118.078 699.708L118.082 699.688L118.086 699.668C118.343 698.445 118.715 697.121 119.776 696.348C120.865 695.554 122.235 695.649 123.48 695.846C126.77 696.353 130.223 696.358 133.627 696.227L133.869 696.213C135.058 696.124 135.889 695.762 136.48 695.242C137.12 694.68 137.622 693.808 137.904 692.509L137.914 692.462L137.928 692.416C138.025 692.076 138.08 691.711 138.126 691.277C138.168 690.888 138.211 690.329 138.281 689.835L138.294 689.743L138.319 689.653C138.523 688.903 138.935 687.784 140.01 687.315C141.164 686.813 142.271 687.38 142.994 687.885H142.995C144.564 688.966 146.115 688.834 148.356 688.438L148.39 688.432L148.423 688.428C151.317 688.049 154.105 687.291 156.926 686.265C162.384 684.02 166.364 680.296 169.385 675.125C172.189 670.232 172.473 665.051 171.833 659.52L171.758 658.959C170.913 653.201 168.21 648.269 163.359 644.949L163.354 644.946C157.537 640.93 151.309 638.025 144.386 637.395V637.394C141.992 637.201 140.517 635.671 139.826 633.941C139.586 633.341 139.529 632.7 139.729 632.072C139.918 631.477 140.291 631.05 140.621 630.757C140.948 630.467 141.315 630.239 141.608 630.065C141.957 629.859 142.154 629.756 142.405 629.599L142.412 629.595L142.42 629.59C144.936 628.055 146.115 625.507 146.607 622.426L146.609 622.416C146.999 620.073 147.235 617.853 146.994 615.679L146.993 615.662L146.991 615.646C146.612 611.334 145.35 607.093 143.016 603.646V603.645C140.448 599.915 137.375 596.454 133.803 593.512L133.171 593.008C130.001 590.512 126.598 588.342 122.952 586.393C120.938 585.385 118.699 584.518 116.488 584.021Z" fill="white" stroke="white" stroke-width="3"/>
<g opacity="0.75">
<path d="M16.5922 664.485C16.3969 664.657 16.1587 664.779 16.2323 665.06C16.5936 665.866 16.5936 665.866 17.4793 665.695C17.3027 666.281 16.8692 666.575 16.5642 667.015C16.0639 667.626 17.1027 667.925 16.9262 668.512C16.0218 668.268 16.0217 668.268 15.7461 667.559C15.6297 667.229 15.3976 667.26 15.1655 667.29C15.019 667.419 14.9641 667.553 14.8177 667.682C14.9889 667.877 15.1602 668.072 14.916 668.286C14.7695 668.415 14.5495 668.262 14.3722 668.158C14.0364 668.366 13.9695 668.684 13.9026 669.002C14.5208 670.101 14.4719 670.144 13.6726 671.104C13.985 671.953 14.8954 672.105 15.5008 672.697C16.8935 672.513 17.8822 671.474 19.03 670.814C20.6602 669.817 22.2047 668.723 23.7492 667.628C24.6162 667.041 24.6162 667.042 25.4417 667.786C26.7441 668.977 27.8513 670.339 29.2574 671.353C30.0033 671.908 30.5164 671.804 30.9859 670.961C31.1993 670.515 31.321 670.063 31.2595 669.598C31.0072 667.833 30.8038 666.024 30.4599 664.253C30.2879 663.367 30.4645 662.78 31.1909 662.23C32.7843 661.093 34.2492 659.809 35.971 658.819C36.0686 658.733 36.2151 658.605 36.3128 658.519C36.8499 658.048 37.5215 657.633 37.4412 656.753C37.3428 656.148 36.0832 655.006 35.3072 654.909C33.9386 654.726 32.6248 654.409 31.1772 654.727C29.3571 655.113 28.8373 654.619 28.7315 652.725C28.694 651.894 28.5649 651.057 28.5702 650.275C28.5072 648.43 28.2992 648.094 26.5144 647.239C26.0261 647.667 25.7639 648.156 25.6302 648.792C25.259 650.24 24.1359 651.224 23.4529 652.513C23.3004 652.733 23.1051 652.905 22.9954 653.173C22.374 654.927 21.1767 654.94 19.5759 654.788C17.9751 654.636 16.3068 654.111 14.6579 654.693C14.3769 654.766 13.9736 654.601 13.6558 654.534C12.8866 655.036 12.4351 655.604 12.8759 656.6C12.9556 656.789 12.8947 657.015 12.9254 657.247C13.0907 657.534 13.3048 657.779 13.6653 657.895C14.753 658.151 15.5417 658.755 16.0803 659.665C16.594 660.251 17.1994 660.844 17.9085 661.259C18.049 661.222 18.2443 661.051 18.2871 661.1C18.4584 661.295 18.1774 661.369 18.1226 661.503C18.1594 661.644 18.1045 661.778 18.1413 661.919C18.6123 662.456 17.8551 662.774 17.9226 663.147C18.0397 664.167 17.429 664.357 16.5922 664.485Z" fill="white"/>
<path d="M15.1227 667.242C15.3548 667.211 15.5869 667.18 15.7033 667.51C15.9789 668.219 15.979 668.219 16.8834 668.463C17.1516 667.882 16.0211 667.577 16.5214 666.966C16.8692 666.575 17.3087 666.19 17.4364 665.646C16.5508 665.817 16.5508 665.817 16.1895 665.011C15.7748 665.72 15.0484 666.27 15.1227 667.242Z" fill="white"/>
<path d="M12.9249 657.247C12.9369 657.064 12.955 656.789 12.8754 656.6C12.4773 655.653 12.9349 654.993 13.6553 654.534C12.983 654.26 12.4459 654.73 11.9696 654.975C11.4445 655.262 11.3535 655.947 11.69 656.429C11.9409 656.814 12.2285 657.339 12.9249 657.247Z" fill="white"/>
<path d="M16.5924 664.485C17.3804 664.399 18.0827 664.216 17.8312 663.14C17.7636 662.768 18.5208 662.45 18.0499 661.912C17.5375 662.707 16.7562 663.391 16.5924 664.485Z" fill="white"/>
<path d="M16.0316 659.708C15.4931 658.798 14.6616 658.145 13.6167 657.937C14.3873 658.817 15.2189 659.47 16.0316 659.708Z" fill="white"/>
<path d="M18.031 661.497C18.0858 661.362 18.3667 661.289 18.1955 661.094C18.1527 661.045 17.9574 661.216 17.8169 661.253C17.9025 661.35 17.9453 661.399 18.031 661.497Z" fill="white"/>
</g>
<g opacity="0.75">
<path d="M122.441 643.406C122.66 643.267 122.914 643.183 122.884 642.894C122.651 642.041 122.651 642.041 121.749 642.075C122.014 641.523 122.487 641.299 122.856 640.911C123.444 640.383 122.463 639.929 122.727 639.376C123.584 639.756 123.584 639.756 123.748 640.498C123.812 640.842 124.046 640.847 124.28 640.853C124.445 640.748 124.519 640.624 124.684 640.519C124.545 640.3 124.405 640.081 124.679 639.907C124.844 639.802 125.038 639.987 125.197 640.116C125.561 639.962 125.676 639.659 125.79 639.355C125.348 638.174 125.403 638.139 126.34 637.313C126.161 636.426 125.284 636.136 124.777 635.458C123.372 635.427 122.236 636.302 121.001 636.779C119.237 637.514 117.543 638.359 115.85 639.204C114.903 639.651 114.903 639.651 114.201 638.789C113.097 637.413 112.211 635.897 110.977 634.68C110.325 634.017 109.802 634.041 109.209 634.803C108.929 635.211 108.74 635.639 108.73 636.107C108.708 637.891 108.633 639.709 108.701 641.512C108.735 642.414 108.471 642.967 107.669 643.399C105.92 644.279 104.276 645.323 102.423 646.038C102.313 646.108 102.149 646.212 102.039 646.282C101.436 646.665 100.709 646.973 100.654 647.855C100.658 648.467 101.728 649.789 102.48 650.004C103.804 650.394 105.054 650.908 106.533 650.815C108.391 650.713 108.829 651.281 108.644 653.169C108.553 653.996 108.553 654.843 108.428 655.615C108.207 657.448 108.362 657.812 109.994 658.929C110.543 658.581 110.876 658.138 111.106 657.531C111.695 656.157 112.955 655.356 113.828 654.186C114.012 653.992 114.231 653.853 114.381 653.604C115.263 651.966 116.449 652.137 118.007 652.532C119.566 652.928 121.134 653.702 122.853 653.38C123.141 653.35 123.515 653.575 123.819 653.69C124.655 653.312 125.189 652.819 124.906 651.768C124.856 651.569 124.951 651.355 124.956 651.12C124.836 650.811 124.662 650.537 124.324 650.368C123.288 649.948 122.601 649.23 122.209 648.248C121.791 647.59 121.283 646.912 120.646 646.393C120.501 646.408 120.282 646.547 120.247 646.492C120.108 646.273 120.397 646.243 120.472 646.119C120.457 645.974 120.532 645.85 120.517 645.705C120.134 645.102 120.931 644.904 120.921 644.525C120.962 643.499 121.594 643.405 122.441 643.406Z" fill="white"/>
<path d="M126.34 637.313C125.403 638.139 125.383 638.229 125.79 639.355C126.433 638.793 127.007 638.121 127.241 637.279C127.356 636.975 127.491 636.582 127.152 636.412C126.405 635.963 125.848 635.086 124.777 635.458C125.285 636.136 126.161 636.426 126.34 637.313C126.484 637.298 126.574 637.318 126.464 637.388L126.34 637.313Z" fill="white"/>
<path d="M124.315 640.908C124.081 640.902 123.847 640.897 123.782 640.553C123.618 639.811 123.618 639.811 122.762 639.431C122.408 639.964 123.479 640.438 122.891 640.966C122.487 641.299 121.994 641.612 121.784 642.13C122.686 642.096 122.686 642.096 122.919 642.948C123.438 642.311 124.24 641.879 124.315 640.908Z" fill="white"/>
<path d="M124.956 651.121C124.916 651.3 124.856 651.569 124.906 651.768C125.154 652.765 124.601 653.347 123.819 653.69C124.441 654.064 125.044 653.681 125.552 653.512C126.115 653.309 126.31 652.647 126.051 652.118C125.862 651.7 125.658 651.136 124.956 651.121Z" fill="white"/>
<path d="M122.441 643.406C121.649 643.371 120.927 643.445 121.011 644.546C121.021 644.924 120.224 645.123 120.607 645.726C121.235 645.019 122.112 644.462 122.441 643.406Z" fill="white"/>
<path d="M122.263 648.213C122.656 649.195 123.378 649.968 124.378 650.333C123.752 649.346 123.03 648.573 122.263 648.213Z" fill="white"/>
<path d="M125.142 640.151C125.038 639.987 124.879 639.857 124.625 639.941C124.351 640.115 124.525 640.39 124.629 640.554C124.848 640.415 125.013 640.31 125.142 640.151Z" fill="white"/>
<path d="M120.561 646.139C120.486 646.263 120.198 646.293 120.337 646.512C120.372 646.567 120.591 646.428 120.735 646.413C120.666 646.304 120.631 646.249 120.561 646.139Z" fill="white"/>
<path d="M126.34 637.313C126.374 637.367 126.464 637.387 126.464 637.387C126.484 637.298 126.484 637.298 126.34 637.313Z" fill="white"/>
</g>
<g opacity="0.75">
<path d="M283.312 -52.9714C290.984 -52.3228 300.042 -50.7349 308.965 -48.3418C325.315 -43.9582 341.641 -39.5074 357.924 -34.9001C364.745 -32.9767 371.499 -30.7401 378.142 -28.2799C381.966 -26.8709 385.59 -24.9027 389.123 -22.8674C390.398 -22.1294 391.36 -20.5191 392.076 -19.1324C396.213 -11.1256 399.523 -2.8727 400.664 6.18533C401.492 12.649 400.798 18.8666 398.875 24.9947C395.028 37.2287 391.092 49.4179 387.155 61.6295C377.516 91.6216 367.921 121.614 358.192 151.584C354.725 162.252 350.901 172.786 345.309 182.582C344.146 184.64 342.939 186.697 341.552 188.598C336.632 195.465 329.855 198.037 321.602 196.628C308.831 194.436 296.284 191.282 284.006 187.055C278.705 185.221 273.36 183.589 268.037 181.822C264.972 180.793 261.908 179.742 258.889 178.601C251.352 175.761 245.09 171.399 240.594 164.466C238.313 160.932 235.159 157.98 232.543 154.648C226.459 146.909 222.053 138.343 220.376 128.525C219.392 122.732 220.51 117.051 221.785 111.505C224.424 99.9863 227.175 88.468 230.373 77.084C238.961 46.5103 247.684 16.0038 256.608 -14.4804C259.157 -23.1806 262.512 -31.6571 265.509 -40.2455C265.889 -41.2966 266.337 -42.3255 266.784 -43.3543C270.117 -51.1151 273.248 -53.128 283.267 -52.9938L283.312 -52.9714ZM228.807 120.652C228.651 123.85 229.657 128.569 231.201 133.221C232.475 137.046 234.757 139.953 238.268 142.033C252.247 150.309 266.985 156.974 282.529 161.715C291.118 164.332 299.572 167.195 307.847 170.728C312.276 172.629 317.107 173.591 321.736 175.023C324.286 175.805 326.075 174.978 327.328 172.697C329.676 168.447 332.516 164.421 334.306 159.948C338.376 149.772 342.424 139.551 345.578 129.084C353.562 102.76 361.189 76.3236 368.704 49.8428C373.11 34.3883 377.18 18.8666 381.117 3.30019C382.302 -1.3742 382.816 -6.27226 383.04 -11.0808C383.308 -16.963 382.369 -18.3273 376.8 -20.1836C365.819 -23.8292 354.77 -27.2511 343.677 -30.5165C333.411 -33.5358 322.966 -35.996 312.768 -39.1496C303.352 -42.0795 293.802 -44.3384 284.05 -45.6803C276.424 -46.7315 275.149 -46.2842 272.331 -39.1719C267.835 -27.8326 263.273 -16.4933 259.694 -4.84085C255.534 8.71265 252.515 22.6016 248.802 36.3117C243.681 55.3 238.246 74.2212 233.213 93.2319C230.977 101.641 228.942 110.14 228.852 120.674L228.807 120.652ZM238.156 151.338C241.176 155.005 244.016 158.002 246.32 161.38C249.54 166.099 253.745 169.409 259.068 171.31C265.397 173.569 271.794 175.626 278.146 177.818C292.527 182.783 307.042 187.167 322.072 189.65C329.318 190.857 333.344 189.225 337.303 183.119C337.906 182.18 338.443 181.195 339.025 180.234C345.332 169.811 349.358 158.405 353.003 146.887C360.294 123.85 367.339 100.747 374.519 77.6879C380.11 59.7284 385.679 41.7689 391.427 23.8765C393.999 15.892 393.999 7.97459 391.964 -0.0546326C391.785 -0.770329 391.36 -1.4413 391.069 -2.0899C387.849 10.2335 384.874 22.4451 381.474 34.5448C373.378 63.3069 365.394 92.1136 356.761 120.719C352.489 134.876 346.964 148.676 341.82 162.565C339.561 168.671 336.117 174.173 332.136 179.339C329.721 182.47 326.701 183.991 322.698 183.231C316.212 182.001 309.882 180.211 303.732 177.729C297.38 175.179 290.984 172.697 284.453 170.706C275.372 167.955 266.449 164.891 257.883 160.798C251.508 157.756 245.157 154.692 238.223 151.36L238.156 151.338Z" fill="white"/>
<path d="M374.294 -2.00038C373.847 0.0125208 373.154 3.92649 372.058 7.75099C370.805 12.0452 369.352 16.2946 367.697 20.4546C360.249 39.1298 354.971 58.4536 350.162 77.9116C346.517 92.6729 341.686 107.054 336.184 121.234C333.187 128.994 330.95 137.068 328.333 144.986C327.551 147.357 326.813 149.75 325.784 152.009C323.413 157.175 319.678 158.763 314.198 157.22C304.85 154.581 295.434 152.21 286.197 149.235C277.922 146.574 269.736 143.532 261.751 140.11C254.08 136.822 246.61 133.132 238.536 130.896C234.778 129.867 233.392 127.653 234.756 124.163C238.737 113.965 239.184 103.006 241.935 92.5834C245.559 78.8733 249.092 65.1186 253.163 51.5203C259.828 29.2219 266.851 7.01294 273.784 -15.196C274.902 -18.7521 276.132 -22.3083 277.698 -25.6854C281.165 -33.0661 285.951 -35.5039 294.025 -34.1844C296.709 -33.737 299.348 -32.8871 302.009 -32.3056C304.671 -31.7465 306.013 -29.9572 306.661 -27.5194C306.907 -26.5577 307.086 -25.5736 307.198 -24.5895C307.802 -19.6467 308.719 -18.4614 313.46 -17.1195C317.777 -15.8893 322.093 -14.704 326.432 -13.5633C329.675 -12.7135 332.963 -11.9754 336.228 -11.1926C338.689 -10.5887 340.769 -10.9018 342.647 -12.9371C346.628 -17.2313 351.705 -18.9758 357.498 -18.3719C360.07 -18.1035 362.709 -17.9022 365.147 -17.1195C371.834 -14.9724 374.518 -10.9242 374.272 -2.00038H374.294ZM240.772 124.432C241.868 124.812 242.763 125.237 243.702 125.438C249.853 126.758 255.467 129.442 261.125 132.059C264.726 133.736 268.371 135.391 272.039 136.934C286.309 142.951 301.539 145.97 316.144 150.913C317.911 151.517 319.074 150.935 319.723 149.28C320.438 147.424 321.132 145.567 321.758 143.666C324.509 135.391 326.88 126.982 330.033 118.885C335.803 104.124 340.567 89.072 344.168 73.6398C348.462 55.3225 353.204 37.1393 360.294 19.6495C362.217 14.9303 363.76 10.0323 365.281 5.17897C366.064 2.6964 366.623 0.124367 366.981 -2.47003C367.786 -8.1956 365.885 -10.3651 360.159 -10.5216C358.907 -10.5664 357.655 -10.4993 356.424 -10.5887C353.07 -10.8795 350.319 -9.85066 348.127 -7.2339C344.414 -2.76079 339.695 -1.91091 334.283 -3.36467C326.477 -5.46703 318.627 -7.47992 310.844 -9.64938C309.077 -10.1414 307.31 -10.9242 305.744 -11.9083C302.568 -13.9212 300.13 -16.7169 300.019 -20.6085C299.884 -25.5065 300.533 -25.7078 294.002 -27.0274C293.756 -27.0721 293.533 -27.1616 293.287 -27.2063C288.232 -28.1904 285.749 -27.1616 283.625 -22.4872C282.037 -18.9981 280.829 -15.3078 279.666 -11.6175C273.158 9.18241 266.828 30.0271 260.208 50.7823C252.76 74.0424 246.744 97.6827 241.13 121.435C240.907 122.374 240.884 123.358 240.75 124.454L240.772 124.432Z" fill="white"/>
<path d="M281.478 30.5639C285.884 31.3243 290.804 32.1071 295.68 33.0688C304.358 34.7462 313.08 36.1999 321.646 38.3694C327.148 39.7561 332.471 42.0597 337.682 44.3634C342.021 46.2644 343.274 48.5234 342.334 52.9965C339.494 66.5052 336.385 79.9693 333.343 93.4333C333.097 94.5068 332.65 95.558 332.203 96.5868C330.794 99.9416 329.004 101.216 325.471 100.322C317.777 98.3537 309.904 97.2801 302.278 94.7752C292.862 91.6888 282.999 89.9443 273.314 87.6406C271.615 87.238 269.87 87.1038 268.193 86.6565C263.496 85.4264 261.237 82.2282 262.266 77.4419C263.496 71.7387 265.017 66.0803 266.717 60.4889C269.356 51.8111 272.286 43.2003 275.081 34.5673C276.065 31.5032 277.564 30.4744 281.455 30.5639H281.478ZM268.618 79.7232C269.266 79.9245 269.714 80.1258 270.183 80.2153C271.659 80.4837 273.113 80.7521 274.612 80.9533C285.369 82.3176 295.993 84.5095 306.214 88.155C312.476 90.3916 318.94 91.3533 325.762 92.5834C329.139 81.1323 331.509 69.5469 334.149 57.8274C333.388 57.9392 333.12 57.9169 332.941 58.0287C324.151 63.9108 315.339 69.7482 306.594 75.6974C301.629 79.0746 299.214 78.7168 295.725 73.774C295.3 73.1701 294.852 72.5663 294.472 71.9177C289.619 63.374 284.766 54.8304 279.912 46.3092C279.398 45.3922 278.883 44.4528 278.28 43.3569C275.685 48.2326 268.327 75.8987 268.64 79.7456L268.618 79.7232ZM330.771 50.0665C330.682 49.7087 330.57 49.3732 330.481 49.0154C315.406 43.0214 299.214 41.8584 282.932 37.5419C289.194 48.993 294.964 59.6837 302.009 69.8153C311.761 63.128 321.266 56.5973 330.771 50.0889V50.0665Z" fill="white"/>
<path d="M254.929 115.284C255.108 108.821 257.457 103.319 259.961 97.884C260.946 95.7369 262.78 95.1106 264.927 95.4909C268.237 96.0947 271.547 96.6762 274.79 97.5932C288.925 101.597 302.948 105.913 316.345 112.086C320.617 114.054 321.578 115.486 320.058 119.914C318.604 124.141 316.725 128.212 314.779 132.237C313.236 135.436 310.373 137.024 306.884 136.934C304.424 136.867 301.897 136.576 299.548 135.883C288.343 132.506 277.183 129.017 266.067 125.438C263.607 124.655 261.236 123.492 258.91 122.307C255.936 120.809 254.504 118.348 254.974 115.307L254.929 115.284ZM314.399 117.499C313.683 117.096 313.191 116.738 312.632 116.492C297.849 109.894 282.394 105.242 266.738 101.239C265.709 100.97 264.591 101.082 263.473 101.037C262.645 104.459 261.617 107.546 261.214 110.722C260.386 117.141 259.223 117.454 266.604 119.735C278.458 123.381 290.423 126.713 302.366 130.135C303.552 130.47 304.827 130.873 306.012 130.761C307.13 130.649 308.718 130.247 309.21 129.419C311.447 125.729 313.415 121.882 314.377 117.499H314.399Z" fill="white"/>
<path d="M280.561 13.2752C282.44 11.4636 284.296 12.1346 286.04 12.5819C293.399 14.4159 300.757 16.2722 308.093 18.218C316.144 20.3651 324.174 22.5793 332.181 24.8829C334.395 25.5092 336.765 26.1578 338.018 28.6851C336.944 30.4519 335.222 30.2283 333.724 30.027C330.883 29.6468 328.021 29.2442 325.292 28.439C311.94 24.5027 298.61 20.4546 285.302 16.3617C283.625 15.8473 281.657 15.4223 280.539 13.2976L280.561 13.2752Z" fill="white"/>
<path d="M299.884 0.907023C303.306 -0.904584 306.527 0.549166 309.658 1.1083C320.461 3.03174 326.566 5.42487 328.646 8.22056C325.985 9.67431 325.314 9.60723 306.214 4.53026C304 3.94876 301.226 3.9711 299.907 0.907023H299.884Z" fill="white"/>
<path d="M302.903 121.055C301.427 122.889 299.593 122.866 297.737 122.486C295.545 122.039 293.309 121.659 291.229 120.876C284.944 118.572 278.681 116.179 272.464 113.674C269.847 112.623 268.863 111.214 269.579 110.051C270.697 108.217 272.486 108.888 273.94 109.335C282.349 111.952 290.714 114.658 299.079 117.409C300.734 117.946 302.299 118.773 302.903 121.032V121.055Z" fill="white"/>
</g>
<path opacity="0.75" d="M160.748 77.295C165.945 78.0294 171.027 77.7404 175.914 75.5873C180.729 73.5444 185.062 70.5536 188.918 67.0905C190.045 66.0956 191.211 65.2834 192.08 63.9611C194.182 60.7653 196.432 57.8247 197.91 54.377C198.307 53.5332 198.818 53.2372 199.583 52.7934C202.827 50.9801 206.438 49.5668 208.355 45.9334C209.477 43.9876 210.929 42.2591 211.648 40.2062C212.474 37.7503 213.118 35.3321 214.017 32.766C214.089 32.6558 213.941 32.4007 213.794 32.1457C213.64 30.9397 214.255 29.7652 214.467 28.4837C214.606 27.3124 214.965 26.2859 214.336 25.083C214.626 24.6422 214.623 24.1668 214.51 23.6189C214.91 23.2505 215.09 22.7373 214.685 22.1547C214.775 18.8989 214.207 15.684 213.384 12.617C212.822 10.3529 211.608 9.08064 210.477 9.60003C208.871 10.1225 208.845 11.8418 208.671 13.3059C208.392 15.6486 209.065 17.985 209.444 20.2868C209.119 21.0204 209.087 21.7887 209.421 22.4815C209.096 23.2151 209.392 23.7253 209.615 24.3456C209.542 24.4558 209.397 24.6762 209.507 24.7486C209.073 25.4098 209.478 25.9924 209.701 26.6128C209.412 27.0535 209.377 27.3463 209.49 27.8942C208.545 28.8513 209.026 29.7992 209.397 30.6746C209.289 31.0776 209 31.5184 208.892 31.9214C208.237 32.4377 208.643 33.0203 208.866 33.6407C207.758 37.9638 205.99 41.8522 203.085 45.3092C202.25 46.3387 201.302 46.8204 200.204 46.5715C199.105 46.3226 199.134 45.0788 199.056 44.2381C198.824 42.1913 198.593 40.1446 197.448 38.2867C194.935 33.9505 191.698 30.7163 186.391 29.9095C184.231 29.5944 182.846 30.2617 181.466 31.88C177.254 36.845 178.934 42.6862 182.137 46.2132C184.603 48.9404 187.325 51.5196 191.096 52.2633C192.377 52.4744 192.931 53.312 192.426 54.5588C190.626 59.2156 187.576 62.893 183.608 65.8082C179.639 68.7234 175.225 70.398 170.439 71.1971C168.32 71.5401 166.129 71.9932 163.932 71.4954C161.149 70.9283 160.749 71.2966 159.41 73.573C158.105 75.5565 158.699 77.0523 160.748 77.295ZM184.431 38.4078C184.17 37.6048 183.981 36.6916 184.709 36.0651C185.509 35.3284 186.5 35.9803 187.306 36.1946C187.819 36.3741 188.187 36.7741 188.628 37.0638C191.271 38.8023 192.532 41.6836 193.755 44.3822C193.978 45.0025 194.018 45.6607 193.656 46.2117C193.221 46.8728 192.488 46.5484 191.937 46.1862C188.236 44.857 185.442 42.388 184.431 38.4078Z" fill="white"/>
<g opacity="0.75">
<path d="M322.663 620.623C322.72 620.451 322.777 620.279 322.948 620.336C324.035 619.931 324.09 619.187 323.629 618.272C323.857 617.871 323.913 617.412 324.141 617.011C326.313 615.629 327.852 613.276 326.932 612.02C325.724 610.192 325.144 607.904 323.365 606.651C321.695 603.622 320.596 600.305 319.212 596.989C320.241 596.47 321.27 595.665 322.645 596.119C323.333 596.345 323.732 595.714 324.075 595.255C325.107 595.595 325.395 596.452 325.799 597.253C328.221 602.626 331.214 607.711 334.722 612.394C335.7 613.764 337.02 614.676 338.226 615.645C339.547 616.843 341.033 616.093 342.458 613.798C343.316 613.509 344.118 613.392 344.803 612.759C345.888 611.782 346.977 611.95 347.783 613.264C348.013 613.721 348.072 614.122 347.73 614.581C347.043 614.927 346.873 615.443 347.104 616.187C345.226 619.857 341.792 620.728 338.186 621.256C336.01 621.492 334.344 619.895 332.966 618.583C332.104 617.727 331.242 616.872 330.266 616.073C329.294 616.42 329.124 617.222 328.955 618.025C327.487 625.072 321.828 628.641 314.78 627.177C314.607 626.834 314.376 626.377 314.203 626.034C315.289 625.343 315.803 624.655 314.254 623.858C313.336 623.461 312.648 623.234 311.791 623.81C311.446 623.41 311.045 623.183 311.272 622.495C311.555 621.349 311.036 620.32 309.832 619.923C309.313 618.895 308.966 617.636 307.305 617.757C306.388 617.359 305.816 617.647 305.704 618.564C305.935 619.021 306.051 619.536 305.709 619.995C302.898 618.402 305.528 617.076 306.211 615.585C304.95 615.36 304.265 615.992 303.464 616.396C303.119 615.996 303.061 615.596 303.403 615.136C304.318 614.675 305.061 614.157 303.855 613.188C303.281 612.618 302.935 611.932 302.532 611.132C302.127 609.759 301.607 608.444 301.202 607.071C300.855 605.813 301.023 604.725 302.453 604.147C303.717 605.517 304.629 603.91 305.659 603.678C306.865 604.933 307.786 606.19 307.963 607.964C307.62 608.137 307.162 608.367 307.335 608.71C307.566 609.168 308.138 609.166 308.539 609.107C308.712 609.45 308.885 609.793 309.172 610.078C308.944 610.48 308.602 610.939 308.546 611.397C308.321 612.657 308.608 612.943 310.21 612.422C310.383 612.765 310.556 613.108 310.786 613.565C310.386 613.91 309.929 614.14 310.217 614.712C310.562 615.111 311.134 614.823 311.477 614.65C312.338 615.506 312.915 616.649 313.205 617.793C312.576 618.253 312.291 618.827 312.236 619.571C312.182 620.602 313.957 620.424 313.733 621.971C313.677 622.429 315.223 622.366 315.966 621.849C316.482 622.019 316.769 622.304 317 622.761C316.714 623.048 315.856 623.338 316.43 623.908C317.005 624.479 317.518 623.79 318.033 623.673C319.407 623.268 320.607 622.519 321.865 621.885C323.068 621.996 322.894 621.366 322.663 620.623Z" fill="white"/>
<path d="M310.005 619.98C311.209 620.377 311.727 621.405 311.445 622.551C311.332 623.181 311.619 623.467 311.964 623.866C312.768 624.608 313.572 625.349 314.491 626.033C314.664 626.376 314.894 626.833 315.067 627.176C313.522 627.525 313.002 626.21 311.969 625.584C311.338 625.185 311.106 624.156 310.075 624.102C309.274 624.505 309.335 625.479 309.108 626.166C308.03 629.72 306.034 632.303 302.257 633.347C299.282 634.273 296.532 633.939 294.062 631.601C291.247 628.862 288.776 625.951 287.161 622.464C285.489 618.863 283.131 615.608 281.574 611.949C280.766 610.062 280.877 608.86 282.249 607.882C283.963 606.731 285.224 606.955 286.146 608.784C288.737 613.355 291.271 617.812 293.747 622.441C294.841 624.327 296.221 625.925 297.714 627.466C299.725 629.463 302.53 629.052 303.036 625.787C303.372 623.324 303.593 620.918 303.242 618.515C303.183 617.828 302.837 617.142 303.351 616.453C304.151 616.05 304.837 615.418 306.097 615.642C305.529 617.076 302.784 618.459 305.595 620.053C305.597 620.625 304.854 621.143 305.429 621.713C305.945 622.17 306.288 621.71 306.745 621.48C308.061 620.96 308.976 620.499 310.005 619.98Z" fill="white"/>
<path d="M347.955 613.321C347.149 612.007 346.061 611.839 344.975 612.816C344.29 613.448 343.489 613.565 342.631 613.855C342.573 613.74 342.515 613.626 342.63 613.568C344.505 608.753 342.372 604.237 341.27 599.775C340.342 595.942 338.155 592.458 336.598 588.799C336.194 587.999 335.619 587.142 336.59 586.222C337.561 585.303 338.649 585.471 339.682 586.097C340.657 586.609 341.118 587.523 341.579 588.438C343.193 591.638 345.035 594.724 346.362 597.925C348.323 602.384 349.368 607.018 348.638 611.83C348.525 612.46 348.355 612.976 347.955 613.321Z" fill="white"/>
<path d="M323.308 606.536C325.259 607.846 325.724 610.192 326.875 611.906C327.795 613.162 326.199 615.687 324.084 616.897C324.361 613.747 324.523 610.654 323.311 607.681C323.139 607.339 323.194 606.88 323.308 606.536Z" fill="white"/>
<path d="M316.023 621.677C315.28 622.194 313.62 622.315 313.79 621.799C314.186 620.309 312.354 620.373 312.294 619.399C312.349 618.655 312.576 617.967 313.262 617.621C314.354 618.934 314.76 620.593 316.023 621.677Z" fill="white"/>
<path d="M324.017 595.14C323.675 595.6 323.276 596.231 322.588 596.004C321.212 595.551 320.184 596.356 319.154 596.875C319.097 596.761 319.039 596.646 319.154 596.589C319.951 595.04 322.468 594.344 324.017 595.14Z" fill="white"/>
<path d="M302.647 611.074C303.107 611.702 303.396 612.56 303.97 613.131C305.062 614.157 304.319 614.675 303.518 615.079C302.77 613.879 302.136 612.622 302.647 611.074Z" fill="white"/>
<path d="M310.325 612.364C308.837 612.827 308.493 612.714 308.661 611.339C308.717 610.881 309.059 610.422 309.287 610.02C310.033 610.648 310.265 611.391 310.325 612.364Z" fill="white"/>
<path d="M305.888 603.563C304.858 603.795 303.946 605.401 302.682 604.032C303.254 603.744 303.94 603.398 304.512 603.109C305.026 602.707 305.428 602.934 305.888 603.563Z" fill="white"/>
<path d="M311.534 614.478C311.077 614.709 310.505 614.997 310.274 614.54C309.872 614.026 310.444 613.738 310.843 613.393C311.245 613.621 311.532 613.906 311.534 614.478Z" fill="white"/>
<path d="M318.091 623.502C317.633 623.732 316.948 624.364 316.488 623.736C315.914 623.166 316.772 622.876 317.057 622.589C317.345 622.874 317.689 623.274 318.091 623.502Z" fill="white"/>
<path d="M323.63 618.272C324.091 619.187 324.15 619.873 322.949 620.336C323.004 619.591 323.059 618.847 323.63 618.272Z" fill="white"/>
<path d="M308.654 609.049C308.253 609.108 307.68 609.11 307.45 608.653C307.277 608.31 307.849 608.022 308.078 607.906C308.594 608.076 308.824 608.533 308.654 609.049Z" fill="white"/>
<path d="M322.664 620.623C322.895 621.366 323.069 621.996 321.923 621.713C321.749 621.084 322.206 620.854 322.664 620.623Z" fill="white"/>
<path d="M347.277 616.243C346.931 615.557 347.216 614.984 347.902 614.638C348.076 615.267 347.963 615.897 347.277 616.243Z" fill="white"/>
<path d="M310.005 619.98C309.09 620.441 308.06 620.96 307.145 621.421C306.688 621.652 306.174 622.054 305.829 621.655C305.254 621.084 305.997 620.566 305.996 619.994C306.338 619.535 306.222 619.02 305.991 618.563C306.563 618.274 307.135 617.986 307.592 617.756C309.024 617.751 309.486 618.951 310.005 619.98Z" fill="white"/>
<path d="M314.376 626.091C313.572 625.349 312.768 624.608 311.849 623.924C312.706 623.349 313.509 623.518 314.312 623.973C315.975 624.711 315.462 625.4 314.376 626.091Z" fill="white"/>
<path d="M307.478 617.813C306.906 618.101 306.334 618.39 305.877 618.62C305.989 617.704 306.56 617.416 307.478 617.813Z" fill="white"/>
</g>
<g opacity="0.75">
<path d="M65.5409 621.277C65.6116 621.027 65.6199 620.759 65.9053 620.705C66.7886 620.685 66.7886 620.685 67.0138 621.559C67.4679 621.148 67.5469 620.63 67.8135 620.166C68.1509 619.452 68.8666 620.262 69.3207 619.851C68.7123 619.138 68.7122 619.138 67.9539 619.193C67.606 619.23 67.5341 619.007 67.4622 618.784C67.5153 618.597 67.6132 618.49 67.6663 618.302C67.9163 618.373 68.1663 618.444 68.2547 618.131C68.3078 617.944 68.0756 617.811 67.9057 617.695C67.9494 617.303 68.2077 617.106 68.466 616.909C69.7243 616.996 69.742 616.933 70.2657 615.799C71.1667 615.717 71.695 616.474 72.4898 616.767C72.9213 618.104 72.407 619.443 72.3031 620.763C72.1024 622.663 71.7767 624.528 71.4511 626.392C71.2929 627.427 71.293 627.427 72.3201 627.853C73.9546 628.519 75.6598 628.934 77.1787 629.769C78.0006 630.205 78.1268 630.713 77.5665 631.499C77.2551 631.883 76.8989 632.187 76.4531 632.331C74.7502 632.86 73.0295 633.453 71.2817 633.902C70.4078 634.127 69.9537 634.538 69.7685 635.431C69.4251 637.358 68.8942 639.232 68.7384 641.212C68.703 641.337 68.6499 641.524 68.6145 641.649C68.4198 642.337 68.3325 643.122 67.5034 643.427C66.9149 643.597 65.3429 642.95 64.922 642.29C64.1697 641.133 63.3195 640.082 62.9859 638.638C62.5533 636.828 61.8834 636.571 60.1274 637.288C59.3608 637.611 58.5494 637.853 57.8453 638.194C56.1517 638.929 55.759 638.885 54.2213 637.64C54.3983 637.015 54.7274 636.568 55.244 636.175C56.3927 635.218 56.7997 633.781 57.6713 632.611C57.8046 632.379 57.8754 632.129 58.0712 631.915C59.3886 630.601 58.8863 629.514 58.0621 628.133C57.2379 626.752 56.0481 625.471 55.8655 623.732C55.8113 623.447 55.4894 623.153 55.2924 622.895C55.4152 621.985 55.7348 621.333 56.8233 621.304C57.0285 621.295 57.2066 621.143 57.4295 621.071C57.7597 621.097 58.0722 621.185 58.3317 621.461C59.0297 622.334 59.9142 622.787 60.9673 622.883C61.7173 623.095 62.5122 623.388 63.1914 623.85C63.2185 623.993 63.1477 624.243 63.2102 624.26C63.4602 624.331 63.406 624.046 63.5039 623.939C63.6466 623.912 63.7445 623.804 63.8872 623.777C64.5747 623.972 64.5371 623.152 64.9027 623.053C65.8745 622.721 65.7837 622.088 65.5409 621.277Z" fill="white"/>
<path d="M70.2654 615.799C69.7417 616.933 69.6615 616.978 68.4657 616.909C68.8207 616.133 69.3008 615.391 70.0403 614.926C70.2985 614.729 70.637 614.488 70.8964 614.764C71.5403 615.351 72.5403 615.634 72.4895 616.767C71.6947 616.474 71.1664 615.717 70.2654 615.799C70.2383 615.657 70.1935 615.577 70.1581 615.702L70.2654 615.799Z" fill="white"/>
<path d="M67.3994 618.766C67.4714 618.989 67.5433 619.212 67.8912 619.176C68.6495 619.121 68.6495 619.121 69.2579 619.833C68.8487 620.324 68.0881 619.434 67.7508 620.148C67.5467 620.63 67.3874 621.192 66.951 621.541C66.7259 620.668 66.7259 620.668 65.8426 620.687C66.3049 620.008 66.4902 619.116 67.3994 618.766Z" fill="white"/>
<path d="M57.4294 621.07C57.269 621.16 57.0285 621.294 56.8233 621.304C55.7972 621.35 55.3974 622.047 55.2924 622.894C54.7558 622.405 54.9505 621.718 54.967 621.183C55.0013 620.585 55.5804 620.209 56.1606 620.306C56.6158 620.368 57.2137 620.402 57.4294 621.07Z" fill="white"/>
<path d="M65.5406 621.277C65.8011 622.025 65.9366 622.738 64.8575 622.973C64.4919 623.071 64.5296 623.892 63.8421 623.697C64.3399 622.893 64.623 621.894 65.5406 621.277Z" fill="white"/>
<path d="M60.9848 622.82C59.9316 622.725 58.9847 622.254 58.3491 621.399C59.4742 621.718 60.4211 622.188 60.9848 622.82Z" fill="white"/>
<path d="M67.8882 617.758C68.0757 617.811 68.2455 617.926 68.2372 618.194C68.1487 618.506 67.8362 618.418 67.6487 618.364C67.7195 618.115 67.7726 617.927 67.8882 617.758Z" fill="white"/>
<path d="M63.459 623.859C63.3611 623.966 63.4153 624.251 63.1653 624.18C63.1028 624.163 63.1736 623.913 63.1465 623.77C63.2715 623.805 63.334 623.823 63.459 623.859Z" fill="white"/>
<path d="M70.2661 615.799C70.2036 615.782 70.1588 615.701 70.1588 615.701C70.239 615.657 70.239 615.657 70.2661 615.799Z" fill="white"/>
</g>
<path d="M230.758 504.196C232.922 499.452 236.585 497.116 241.599 496.648C242.902 496.525 244.155 496.008 245.556 496.032C249.071 496.031 249.194 496.056 252.635 497.701C252.119 499.004 251.234 499.913 250.324 500.946C247.669 503.994 247.078 508.54 249.019 511.931C249.83 513.307 250.764 514.707 251.944 515.837C254.254 518.024 255.999 518.244 258.777 516.818C260.546 515.957 262.513 515.072 263.054 513.008C263.792 510.599 263.768 508.166 263.104 505.734C262.392 503.227 261.336 500.844 259.787 498.682C259.296 497.945 259.198 497.478 260.23 497.109C262.86 496.101 265.466 495.854 268.243 496.664C268.489 496.713 268.784 496.836 269.103 496.836C273.208 497.08 275.936 499.414 278.492 502.288C280.949 505.015 282.768 508.062 283.578 511.674C285.938 510.74 285.938 510.74 285.57 508.43C284.735 502.065 281.024 497.938 275.544 494.991C272.373 493.271 268.981 492.658 265.54 492.93C262.935 493.176 260.108 493.57 257.748 495.144C257.084 495.586 256.445 495.586 255.757 495.193C253.889 493.99 251.948 493.155 249.686 492.959C245.803 492.567 241.944 492.691 238.232 493.995C235.282 495.003 232.48 496.233 230.538 498.912C230.021 499.576 229.53 499.478 229.186 498.642C228.891 497.881 228.817 496.971 228.596 496.161C228.474 495.497 228.302 494.76 227.835 494.219C227.368 493.679 226.778 493.433 226.016 494.048C224.738 495.007 224.27 496.064 224.516 497.71C224.86 500.143 225.13 502.625 225.473 505.058C225.866 507.883 227.119 508.964 229.897 508.497C231.077 508.349 232.257 508.201 233.486 508.446C233.854 508.52 234.174 508.52 234.518 508.397C235.747 508.003 237.099 506.676 236.804 505.914C236.337 504.735 235.182 504.76 234.125 504.612C233.068 504.465 231.913 504.49 230.758 504.196ZM253.788 511.733C253.149 511.094 252.805 510.578 252.608 509.964C252.412 509.35 252.215 508.735 252.068 508.195C251.331 505.811 252.536 502.026 254.478 500.625C255.51 499.937 255.756 499.986 256.592 500.919C257.673 502.221 258.312 503.818 258.951 505.416C259.786 507.627 260.203 510.011 259.416 512.345C258.703 514.312 257.204 514.779 255.508 513.674C254.599 513.109 254.107 512.372 253.788 511.733Z" fill="#E5D7FA"/>
</g>
<defs>
<clipPath id="clip0_2025_1298">
<rect width="375" height="667" fill="white"/>
</clipPath>
</defs>
</svg>
