<svg width="375" height="667" viewBox="0 0 375 667" fill="none" xmlns="http://www.w3.org/2000/svg">
<g clip-path="url(#clip0_2048_1730)">
<g opacity="0.75">
<path fill-rule="evenodd" clip-rule="evenodd" d="M256.779 29.9926C258.337 30.3976 259.23 30.8416 259.856 31.4983C260.631 32.2859 262.299 35.3305 262.779 36.7772C263.091 37.7342 263.299 37.9725 263.714 37.8881C263.99 37.8444 265.486 37.6921 267.012 37.5962C271.787 37.2696 275.102 38.5936 276.476 41.3788C277.146 42.7314 277.383 46.5065 276.9 48.1248C276.372 49.9153 276.477 50.2714 277.732 51.1664C279.392 52.3166 280.134 53.4688 280.235 55.0795C280.321 56.9135 279.669 58.4895 278.201 59.974L276.943 61.2229L278.745 63.2851C282.168 67.1669 286.102 70.3496 289.081 71.6392C290.829 72.3656 294.598 73.3832 296.253 73.5306C297.347 73.6286 299.713 74.0091 302.926 74.588C306.054 75.1429 310.623 76.4173 312.715 77.318C315.148 78.3348 319.48 81.159 321.288 82.8848C324.283 85.7349 328.165 90.7311 332.023 96.7055C333.999 99.7599 338.913 108.288 339.593 109.804C339.825 110.374 340.32 111.18 340.654 111.606C340.986 112.003 341.267 112.488 341.276 112.625C341.287 112.792 342.308 114.847 343.543 117.194C345.664 121.213 346.904 123.673 348.111 125.995C349.066 127.886 350.894 131.701 351.804 133.764C352.293 134.876 353.71 137.937 354.992 140.561C357.081 144.945 357.763 146.493 359.376 150.433C359.7 151.164 360.124 152.143 360.378 152.601C361.367 154.574 364.242 162.616 364.781 165.007C364.935 165.693 365.126 166.491 365.227 166.791C365.301 167.094 365.561 169.001 365.799 171.022C366.779 179.49 365.444 186.209 361.423 193.179C357.75 199.516 353.001 203.326 337.428 212.332C335.251 213.612 333.392 214.648 333.337 214.651C333.252 214.657 328.193 217.539 322.086 221.046C316.007 224.551 310.026 227.881 308.837 228.458C299.77 232.763 287.626 237.374 282.158 238.636C276.36 239.948 271.232 240.437 268.302 239.925C267.514 239.808 266.583 239.644 266.192 239.613C264.562 239.409 257.805 237.465 255.742 236.562C252.533 235.202 252.073 234.953 246.948 231.483C242.611 228.551 234.913 220.057 230.952 213.841C228.541 210.091 223.118 200.534 221.429 197.157C220.504 195.291 219.387 193.048 218.883 192.158C218.409 191.267 217.648 189.812 217.203 188.919C216.758 188.026 215.358 185.3 214.09 182.842C212.847 180.385 211.574 177.845 211.253 177.166C210.933 176.49 210.198 175.03 209.654 173.921C208.192 171.03 205.864 165.963 205.065 163.896C204.696 162.916 203.941 161.095 203.443 159.816C202.029 156.393 199.791 149.173 199.288 146.474C198.757 143.802 198.299 137.392 198.479 135.374C198.867 130.472 199.986 125.662 201.755 121.425C202.241 120.28 202.961 118.422 203.337 117.339C203.714 116.257 204.954 113.334 206.109 110.866C209.221 104.036 209.726 101.886 209.067 98.0533C208.514 95.0206 208.545 95.0478 205.792 95.1653C202.874 95.3222 201.275 94.7241 200.028 93.0742C199.208 91.9824 199.17 91.8445 199.191 89.5301C199.243 86.8219 199.46 87.1444 196.541 85.5149C192.873 83.488 193.468 79.658 198.09 75.5484C199.014 74.7096 199.744 73.9385 199.733 73.7724C199.698 73.6344 199.194 73.1924 198.559 72.8141C197.369 72.079 194.043 67.9133 192.834 65.565C192.424 64.81 192.001 63.3862 191.847 62.2817C191.604 60.6534 191.655 60.1182 192.071 59.2002C192.338 58.5694 192.767 57.8464 193.026 57.5522C193.762 56.8363 206.352 49.6057 207.961 49.0044C208.315 48.871 209.045 48.5181 209.554 48.2082C211.03 47.3055 214.061 45.8341 216.991 44.5357C218.482 43.8835 220.244 43.0766 220.92 42.7563C226.92 39.759 236.153 35.4151 238.382 34.4943C247.188 30.8468 253.859 29.2287 256.779 29.9926ZM249.417 34.8037C246.626 35.6196 243.109 36.902 240.697 37.972C239.72 38.396 238.202 39.0763 237.305 39.4661C234.864 40.5406 231.998 41.9461 228.379 43.8172C225.247 45.4353 216.235 49.7388 215.93 49.758C215.458 49.7876 206.241 54.8265 199.76 58.5792C196.398 60.5479 196.266 60.6382 196.24 61.5609C196.197 62.6514 196.457 63.2464 198.525 66.8799C200.063 69.6257 201.233 71.3942 201.765 71.861C201.972 72.0438 202.458 71.8174 203.31 71.1789C204.001 70.6327 205.416 69.6518 206.487 68.9731C207.557 68.2654 209.245 67.1562 210.29 66.4765C211.306 65.7986 212.809 64.8678 213.588 64.3742C214.367 63.8806 215.143 63.3846 215.331 63.2616C217.432 61.6528 239.588 48.7181 243.887 46.582C249.944 43.6103 254.303 41.5498 256.886 40.4955C258.381 39.9013 259.683 39.3166 259.787 39.199C259.998 39.019 258.168 35.6219 257.453 34.857C257.244 34.6478 256.804 34.3129 256.488 34.166C255.592 33.7195 252.016 34.0554 249.417 34.8037ZM262.965 42.3419C260.392 43.0885 256.5 44.5877 254.826 45.4472C254.314 45.7308 253.014 46.3418 251.985 46.8246C250.926 47.2802 249.17 48.1449 248.063 48.7147C246.957 49.3135 244.687 50.4594 243.067 51.2599C239.985 52.7928 237.887 53.9833 230.825 58.2727C228.544 59.6706 224.299 62.195 221.424 63.9081C218.549 65.6212 215.302 67.6091 214.261 68.3442C213.191 69.0519 211.024 70.4981 209.446 71.574C205.327 74.3418 204.793 74.738 203.475 75.9086C202.843 76.5068 201.81 77.3789 201.174 77.8662C199.631 79.0509 197.914 80.9982 198.054 81.4632C198.122 81.6548 198.999 82.2957 200.013 82.9015C202.789 84.4844 203.095 84.9389 203.349 88.0988C203.466 89.5418 203.631 90.8125 203.719 90.8625C204.013 91.1219 206.785 90.8365 206.876 90.5238C206.921 90.3542 207.17 89.8913 207.451 89.4846C208.039 88.6404 208.894 88.4729 209.597 89.0162C210.01 89.3529 210.203 89.3407 211.172 88.806C211.793 88.4891 215.407 87.0075 219.188 85.5153C223 84.0504 226.534 82.6293 227.049 82.401C227.562 82.1465 228.73 81.6549 229.626 81.2624C230.521 80.8436 231.795 80.2633 232.47 79.9403C233.145 79.5909 234.851 78.7876 236.261 78.1405C238.565 77.1038 240.7 76.0486 243.565 74.5876C244.078 74.333 247.123 72.6648 250.3 70.8745C258.946 66.0647 259.979 65.6662 261.048 66.7133C261.849 67.4992 261.447 68.6387 260.075 69.4237C259.483 69.7679 258.576 70.4098 258.048 70.8612C257.257 71.5805 246.285 77.9551 245.814 77.9847C245.729 77.99 244.592 78.5061 243.322 79.1444C240.889 80.356 239.052 81.2813 236.533 82.4692C235.181 83.1391 231.87 84.5753 226.633 86.8259C225.573 87.2551 223.615 88.0186 222.28 88.5207C218.167 90.0337 211.823 92.8859 211.844 93.2181C211.851 93.3288 212.167 94.3675 212.548 95.5425C213.625 98.9048 213.898 101.479 213.413 103.989C212.82 106.983 212.744 107.125 209.756 114.115C204.043 127.437 202.816 132.336 203.317 140.305C203.533 144.166 204.053 146.698 205.641 152.006C206.938 156.217 210.788 165.593 213.234 170.372C213.65 171.211 214.006 171.996 214.015 172.136C214.022 172.247 214.505 173.275 215.105 174.41C215.704 175.515 216.877 177.755 217.677 179.404C218.504 181.024 219.712 183.402 220.377 184.67C221.041 185.938 222.247 188.287 223.076 189.936C223.903 191.557 225.361 194.364 226.309 196.143C227.283 197.921 228.271 199.866 228.529 200.437C229.798 203.311 236.549 214.037 238.593 216.417C238.923 216.788 239.856 217.899 240.702 218.934C241.572 219.938 242.327 220.838 242.414 220.917C242.504 220.996 243.07 221.572 243.667 222.233C246.211 225.027 250.178 228.263 253.543 230.338C256.472 232.134 260.922 233.749 265.753 234.784C271.857 236.1 279.074 235.175 288.152 231.926C291.098 230.875 295.402 229.295 296.595 228.775C300.671 227.098 304.901 225.215 307.441 223.941C310.684 222.316 342.156 204.14 346.311 201.484C348.861 199.902 352.603 196.907 354.173 195.276C357.598 191.659 360.332 185.94 361.337 180.19C361.854 177.341 361.356 169.427 360.443 165.973C359.35 161.889 356.916 155.547 354.377 150.186C353.604 148.535 352.603 146.338 352.12 145.31C351.664 144.251 350.926 142.735 350.512 141.925C350.099 141.115 349.362 139.573 348.905 138.541C346.053 132.196 341.938 123.954 338.217 117.052C337.208 115.192 335.723 112.413 334.9 110.851C333.28 107.692 328.012 98.8235 327.415 98.2205C327.206 98.0114 326.564 97.1042 326.009 96.2181C323.656 92.5178 320.04 88.1744 317.446 85.9396C313.055 82.1451 307.909 80.0999 299.861 78.9331C290.27 77.5855 287.083 76.5313 282.353 73.1472C279.521 71.1232 276.999 68.688 275.144 66.2136C272.496 62.6457 272.933 62.9517 271.396 63.7999C269.86 64.6217 268.94 64.6504 268.363 63.8795C268.029 63.4532 268.013 63.2054 268.258 62.6316C268.647 61.7152 271.211 59.9369 272.266 59.8706C273.431 59.7974 274.473 59.0623 275.362 57.6699C276.479 55.9561 276.366 55.4603 274.464 54.0475C272.27 52.4016 271.766 50.5648 272.738 47.8836C273.233 46.4577 273.053 43.5974 272.415 42.7456C271.288 41.2893 267.235 41.0995 262.965 42.3419Z" fill="white" stroke="white"/>
<path fill-rule="evenodd" clip-rule="evenodd" d="M262.726 50.5529C263.644 50.969 263.615 52.2809 262.663 53.0924C261.339 54.2078 247.708 62.1999 243.874 64.1427C237.495 67.3305 233.921 69.0055 232.692 69.4162C231.654 69.7329 231.457 69.7162 230.898 69.2511C230.454 68.8344 230.322 68.5066 230.429 67.9706C230.573 67.1543 231.833 66.3499 237.689 63.306C239.605 62.2937 243.567 60.1497 246.447 58.5183C251.857 55.447 255.358 53.4986 255.606 53.4539C255.691 53.4486 256.579 52.9746 257.633 52.4347C261.246 50.5058 261.981 50.2372 262.726 50.5529Z" fill="white"/>
<path fill-rule="evenodd" clip-rule="evenodd" d="M221.615 74.1549C222.776 75.3099 221.883 76.1733 215.805 79.7339C211.853 82.044 210.918 82.2431 210.392 80.9951C209.931 79.8808 210.59 79.2545 215.293 76.479C219.997 73.7035 220.816 73.3979 221.615 74.1549Z" fill="white"/>
<path fill-rule="evenodd" clip-rule="evenodd" d="M276.495 103.263C278.087 103.748 280.228 105.426 281.131 106.957C284.005 111.877 282.928 120.001 278.271 128.405C276.719 131.208 274.476 133.662 273.059 134.196C271.286 134.836 269.886 134.284 266.66 131.726C259.501 126.044 257.839 124.447 255.123 120.687C251.702 115.94 250.379 109.084 252.396 106.559C254.824 103.508 260.967 104.57 264.095 108.64L265.366 110.259L266.458 108.547C268.966 104.573 273.257 102.326 276.495 103.263ZM272.12 107.72C270.817 108.723 270.085 109.491 268.389 111.773C266.687 113.971 265.932 114.381 264.746 113.701C263.618 113.047 263.38 112.811 262.507 111.333C260.671 108.27 257.063 106.742 255.176 108.226C254.592 108.708 254.577 108.878 254.803 110.703C255.334 114.74 257.813 118.681 262.515 122.957C265.588 125.746 271.571 130.444 272.043 130.414C272.599 130.379 275.103 126.765 276.206 124.354C280.43 115.251 279.994 107.892 275.158 106.801C274.166 106.588 273.236 106.869 272.12 107.72Z" fill="white"/>
<path fill-rule="evenodd" clip-rule="evenodd" d="M301.129 111.14C301.699 111.326 302.413 111.617 302.647 111.796C303.582 112.489 304.579 114.154 304.893 115.614C305.276 117.289 305.24 118.017 304.801 120.386C304.635 121.289 304.575 122.1 304.662 122.179C304.752 122.258 305.469 122.128 306.261 121.883C312.2 120.115 316.895 121.214 318.145 124.677C319.288 127.783 317.236 132.401 313.462 135.314C310.3 137.77 304.549 140.752 301.289 141.656C300.467 141.874 299.481 142.158 299.097 142.267C298.714 142.376 296.722 142.639 294.674 142.852C291.269 143.207 290.792 143.207 289.594 142.753C287.711 142.062 287.205 141.12 287.258 138.385C287.285 135.708 288.016 131.843 289.601 125.973C292.766 114.23 296.248 109.745 301.129 111.14ZM297.643 115.985C295.733 118.392 294.01 123.822 292.352 132.486C292.017 134.262 291.714 136.094 291.662 136.571C291.608 137.019 291.51 137.694 291.476 138.033C291.414 138.399 291.493 138.728 291.635 138.803C292.095 139.052 299.727 137.599 301.688 136.89C303.704 136.15 309.171 133.104 310.739 131.862C312.065 130.776 313.333 129.219 313.706 128.079C314.817 124.915 312.582 124.386 305.414 126.091C301.512 127.006 300.561 126.954 300.012 125.761C299.718 125.083 299.878 123.623 300.367 122.978C300.879 122.25 301.563 118.944 301.494 117.416C301.424 115.414 300.775 114.393 299.609 114.467C298.998 114.505 298.521 114.871 297.643 115.985Z" fill="white"/>
<path fill-rule="evenodd" clip-rule="evenodd" d="M241.96 121.046C244.937 122.309 246.789 126.038 247.293 131.832C247.753 136.906 247.369 140.579 245.719 147.122C244.867 150.41 244.725 150.808 242.978 154.959C240.696 160.343 239.42 160.897 235.784 158.032C226.752 150.935 221.936 146.609 218.564 142.639C215.07 138.51 213.289 135.444 212.992 132.953C212.766 131.128 212.765 131.099 213.776 129.892C214.683 128.776 214.924 128.65 216.444 128.414C218.488 128.09 220.547 128.519 223.756 129.879C226.276 130.946 230.086 133.44 231.836 135.141C232.431 135.717 232.991 136.211 233.046 136.208C233.102 136.204 233.148 135.169 233.178 133.886C233.295 126.437 234.231 123.562 237.119 121.623C238.885 120.459 240.184 120.292 241.96 121.046ZM238.315 125.624C237.043 127.572 236.574 131.196 236.56 138.919C236.562 139.84 236.611 141.092 236.651 141.73C236.793 143.978 235.491 144.116 233.911 142.042C230.682 137.701 226.719 134.493 222.482 132.725C219.104 131.32 216.243 131.026 216.198 132.087C216.103 134.573 220.687 140.502 227.334 146.468C231.056 149.802 238.023 155.551 238.445 155.609C238.953 155.689 241.075 150.455 241.967 146.887C244.314 137.651 244.001 128.249 241.285 125.381C240.21 124.276 239.131 124.373 238.315 125.624Z" fill="white"/>
<path fill-rule="evenodd" clip-rule="evenodd" d="M280.083 139.082C282.282 139.92 284.024 142.375 284.947 145.94C285.717 148.875 286.135 157.768 285.658 160.78C284.956 165.146 284.163 168.039 282.759 171.417C281.328 174.852 279.563 176.022 277.112 175.146C276.599 174.982 275.994 174.658 275.76 174.479C275.525 174.272 274.91 173.837 274.445 173.503C273.952 173.201 273.042 172.504 272.399 171.986C271.281 171.053 267.953 168.669 262.029 164.441C258.79 162.136 256.843 160.419 254.646 157.852C251.188 153.832 250.43 150.646 252.26 147.855C254.783 144.073 262.152 145.142 269.167 150.304C270.192 151.076 270.708 151.322 270.777 151.068C270.82 150.87 271.029 149.772 271.209 148.643C271.416 147.516 271.661 146.524 271.795 146.431C271.93 146.338 272.021 146.028 272.002 145.722C271.983 145.416 272.231 144.48 272.57 143.68C274.181 139.62 277.025 137.882 280.083 139.082ZM276.945 143.265C276.505 143.795 276.021 144.522 275.878 144.894C275.363 146.014 273.855 153.522 273.746 155.315C273.647 157.272 273.621 157.329 272.772 157.552C272.306 157.666 271.866 157.331 270.697 156.036C267.066 151.945 261.133 148.888 257.241 149.077C256.101 149.122 255.666 149.287 255.249 149.76C253.166 152.122 257.366 157.292 266.302 163.283C270.725 166.239 270.873 166.368 270.672 166.743C270.596 166.888 270.684 166.938 270.9 166.84C271.116 166.742 272.069 167.24 273.151 168.037C276.92 170.783 278.193 171.54 278.564 171.209C279.273 170.524 280.562 166.624 281.183 163.184C282.006 158.562 282.06 157.193 281.671 151.418C281.379 147.229 281.251 146.512 280.604 145.102C279.86 143.447 278.809 142.259 278.115 142.302C277.917 142.312 277.39 142.763 276.945 143.265Z" fill="white"/>
<path fill-rule="evenodd" clip-rule="evenodd" d="M319.547 141.619C322.338 142.113 326.15 145.581 327.856 149.179C328.146 149.802 328.484 150.283 328.621 150.275C328.731 150.268 329.496 149.55 330.334 148.69C332.112 146.821 332.62 146.485 334.104 146.14C335.672 145.819 337.037 146.234 338.283 147.439C339.739 148.88 340.291 150.129 340.429 152.322C340.79 158.069 336.173 170.626 332 175.237C329.969 177.484 328.635 178.039 326.973 177.281C326.14 176.915 325.834 176.461 323.577 172.058C322.849 170.654 321.806 168.713 321.271 167.744C320.736 166.774 320.034 165.368 319.71 164.637C319.411 163.875 318.83 162.601 318.443 161.789C316.247 156.994 313.796 149.928 313.674 147.985C313.403 143.622 315.857 140.988 319.547 141.619ZM317.808 144.989C317.212 145.278 316.656 146.623 316.817 147.42C316.895 147.778 317.098 148.768 317.259 149.568C317.481 150.864 320.019 157.562 321.044 159.673C321.234 160.05 321.906 161.431 322.55 162.783C324.41 166.652 328.164 173.162 328.552 173.138C329.135 173.101 330.789 170.573 332.363 167.24C333.2 165.488 334.086 163.619 334.308 163.158C334.555 162.669 334.748 162.154 334.795 162.013C334.813 161.845 335.219 160.343 335.669 158.613C337.047 153.508 336.756 149.763 334.979 149.875C334.647 149.896 333.457 150.918 332.281 152.162C329.719 154.861 328.647 155.54 327.605 154.965C327.229 154.737 326.769 154.07 326.532 153.415C325.772 151.094 323.763 148.404 321.352 146.381C319.471 144.829 318.785 144.568 317.808 144.989Z" fill="white"/>
<path fill-rule="evenodd" clip-rule="evenodd" d="M255.998 162.563C258.751 163.337 260.802 166.276 261.205 169.985C261.559 173.39 260.668 178.297 258.891 182.395C257.921 184.687 254.662 190.495 253.752 191.555C252.689 192.821 251.515 193.228 250.072 192.874C249.25 192.648 244.889 188.907 241.907 185.834C241.55 185.467 240.895 184.81 240.477 184.391C235.425 179.384 231.697 173.764 231.45 170.715C231.256 168.525 231.341 168.101 232.113 167.076C234.382 164.147 239.176 165.044 245.089 169.521C245.994 170.189 246.895 170.747 247.061 170.736C247.227 170.726 247.344 170.356 247.316 169.913C247.239 168.69 248.162 166.07 249.088 164.839C250.761 162.614 253.273 161.787 255.998 162.563ZM252.473 167.244C251.642 168.217 250.853 171.612 250.76 174.598C250.691 177.919 249.975 178.077 246.991 175.394C242.234 171.122 239.318 169.492 235.638 169.054C234.542 168.927 234.887 171.303 236.26 173.641C236.853 174.662 237.718 176.003 238.177 176.644C239.427 178.349 244.728 183.73 247.916 186.568L250.718 189.011L251.399 188.299C252.131 187.528 254.415 183.065 255.567 180.092C256.605 177.518 257.337 174.1 257.384 171.726C257.406 169.856 257.325 169.443 256.666 168.314C255.415 166.138 253.8 165.739 252.473 167.244Z" fill="white"/>
<path fill-rule="evenodd" clip-rule="evenodd" d="M307.215 160.905C308.035 161.105 311.378 163.737 312.378 164.984C314.58 167.633 316.757 172.543 318.342 178.269C319.541 182.682 319.438 189.935 318.143 192.414C317.296 194 316.342 194.367 312.51 194.581C305.007 194.968 301.082 194.574 295.457 192.922C289.41 191.155 286.254 189.292 284.718 186.628C284.027 185.391 283.917 184.95 284.013 183.83C284.303 180.44 286.343 178.332 290.585 177.062C293.784 176.08 297.969 176.124 301.179 177.092C301.833 177.303 301.886 177.27 301.694 176.864C300.986 175.376 299.827 171.545 299.756 170.407C299.496 166.27 301.694 161.784 304.347 160.974C305.635 160.612 305.967 160.592 307.215 160.905ZM304.807 165.209C303.023 167.441 303.015 170.424 304.721 174.496C307.241 180.443 307.48 181.124 307.147 181.592C306.66 182.264 305.955 182.17 303.412 181.158C298.723 179.277 294.415 179.047 290.854 180.497C288.898 181.289 287.428 182.747 287.496 183.831C287.707 187.189 297.883 190.76 307.878 190.995C309.33 191.015 313.641 190.884 314.61 190.767C315.469 190.658 315.452 183.328 314.577 179.59C313.153 173.352 310.235 167.736 307.149 165.199C306.092 164.347 305.508 164.357 304.807 165.209Z" fill="white"/>
<path fill-rule="evenodd" clip-rule="evenodd" d="M271.734 183.651C275.907 184.866 278.598 187.291 281.723 192.668C285.851 199.824 288.409 208.138 287.375 211.186C286.833 212.752 286.07 213.022 280.845 213.269C269.839 213.794 263.267 213.034 257.593 210.549C253.209 208.649 250.871 206.064 250.669 202.843C250.435 199.123 252.745 196.413 256.641 195.832C258.549 195.572 261.921 196.003 263.582 196.706C264.156 196.948 264.667 197.112 264.717 197.024C264.798 196.963 264.372 195.958 263.798 194.824C262.393 192.014 262.106 190.108 262.658 187.76C263.168 185.693 264.257 184.37 265.949 183.79C267.5 183.248 270.146 183.193 271.734 183.651ZM267.135 187.201C265.824 187.646 265.512 189.757 266.386 192.126C266.822 193.297 269.239 197.605 270.504 199.532C270.871 200.067 271.017 200.587 270.909 201.094C270.809 201.741 270.624 201.864 269.791 201.916C269.153 201.956 268.554 201.772 268.026 201.331C267.585 200.97 266.899 200.706 266.456 200.734C266.039 200.76 264.931 200.44 263.989 200.052C260.952 198.766 257.397 198.516 255.313 199.51C254.5 199.868 253.752 201.281 253.818 202.335C253.906 203.724 255.156 205.43 256.861 206.41C259.927 208.197 266.629 209.671 272.012 209.722C276.281 209.76 277.87 209.772 280.877 209.749L283.916 209.754L283.647 208.125C283.39 206.691 282.959 205.185 282.004 202.403C280.811 198.966 277.764 193.052 276.165 191.117C275.169 189.925 272.965 188.084 271.988 187.645C270.349 186.888 268.557 186.749 267.135 187.201Z" fill="white"/>
</g>
<g opacity="0.75">
<path fill-rule="evenodd" clip-rule="evenodd" d="M141.395 493.377C139.867 493.509 132.695 494.659 129.646 495.241C125.03 496.145 124.712 496.222 117.223 497.789C110.335 499.237 103.359 500.814 97.3029 502.265C95.2217 502.78 91.9769 503.547 90.0979 503.993C88.2188 504.44 85.6376 505.04 84.3663 505.346C83.095 505.653 81.0606 506.162 79.8367 506.461C77.7484 506.997 76.3628 507.378 69.2309 509.293C64.1686 510.662 56.4616 512.817 53.9876 513.565C51.8376 514.217 49.0049 515.03 43.193 516.697C42.0776 517.01 39.549 517.651 37.5288 518.117C35.5207 518.612 33.0339 519.198 32.0135 519.43C29.5671 520.029 28.7821 520.427 28.4976 521.289C28.3351 521.78 28.3831 522.113 28.7 522.582C29.2208 523.39 40.2737 534.377 44.4764 538.265C46.2394 539.869 49.1109 542.681 50.8962 544.496C52.6809 546.312 54.3085 547.848 54.5318 547.922C54.8359 548.022 54.9032 548.226 54.8216 548.744C54.74 549.127 54.3807 551.028 54.0092 552.973C53.6364 554.915 53.1357 557.658 52.8914 559.076C52.1271 563.638 51.7144 565.908 51.3134 567.864C49.4112 577.227 49.3099 578.896 50.5862 579.318C50.8499 579.405 51.6135 579.407 52.3098 579.342C53.5676 579.212 55.4732 578.208 60.4153 575.095C67.4941 570.622 72.191 567.974 84.0139 561.73C92.5109 557.248 91.4296 557.458 96.1065 559.368C97.6271 560.006 99.7086 560.854 100.743 561.264C101.771 561.695 103.648 562.475 104.892 563C110.225 565.238 111.09 565.548 111.974 565.385C113.212 565.182 114.348 564.057 115.632 561.87C116.862 559.711 117.201 559.027 120.685 551.276C122.071 548.238 123.336 545.43 123.505 545.055C124.614 542.72 124.688 542.561 128.157 534.102C128.82 532.504 129.537 530.742 129.781 530.21C130.011 529.65 130.627 528.129 131.133 526.796C131.641 525.465 132.168 524.208 132.289 523.976C132.404 523.764 132.872 522.692 133.303 521.586C133.73 520.501 134.432 518.848 134.852 517.92C135.272 516.991 136.077 515.168 136.645 513.857C137.213 512.546 137.977 510.846 138.336 510.102C140.304 506.052 144.492 495.763 144.391 495.185C144.276 494.511 143.58 493.554 143.093 493.393C142.869 493.343 142.09 493.314 141.395 493.377ZM139.601 500.574C138.587 503.1 137.349 506.029 134.893 511.689C133.798 514.189 132.506 517.144 132.052 518.245C131.336 519.871 128.629 526.356 125.099 534.795C124.781 535.552 124.005 537.294 123.395 538.66C122.767 540.02 121.305 543.215 120.149 545.763C118.993 548.311 117.62 551.24 117.093 552.293C116.573 553.324 115.895 554.691 115.618 555.327C115.342 555.962 114.894 556.905 114.605 557.445C114.32 557.963 113.855 558.9 113.59 559.494C112.975 560.813 111.961 562.248 111.521 562.422C111.265 562.518 109.981 562.049 106.877 560.683C104.512 559.675 101.14 558.241 99.3958 557.529C95.6108 555.983 92.4956 554.658 89.4273 553.328C86.2237 551.928 82.628 550.423 79.7361 549.308C78.3636 548.764 77.1682 548.233 77.0463 548.124C76.9116 547.989 77.5933 547.418 79.0618 546.451C84.6856 542.768 86.6055 541.313 98.8304 531.682C107.37 524.965 113.717 519.978 120.485 514.675C123.77 512.082 126.014 510.258 128.159 508.399C132.561 504.608 140.059 498.524 140.28 498.598C140.338 498.617 140.041 499.517 139.601 500.574ZM132.783 497.664C132.722 497.848 128.084 499.904 125.537 500.879C124.685 501.21 123.508 501.707 122.928 501.971C122.346 502.233 121.461 502.598 120.967 502.8C120.481 502.979 119.122 503.552 117.96 504.076C116.803 504.58 114.019 505.794 111.782 506.78C107.179 508.801 101.785 511.311 96.2265 514.039C91.9276 516.161 90.6164 516.795 87.4985 518.263C86.2695 518.855 84.1111 519.869 82.7196 520.545C81.3263 521.221 79.4072 522.131 78.4548 522.564C77.5088 522.978 75.704 523.813 74.4467 524.42C73.1959 525.007 70.8096 526.103 69.1602 526.875C66.584 528.068 62.6984 530.166 60.832 531.389C59.737 532.118 59.0469 532.843 59.0127 533.353C58.9522 534.15 57.9639 534.279 56.741 533.625C55.8357 533.166 43.5485 527.471 40.7041 526.212C38.9807 525.438 34.1891 523.061 33.561 522.649C33.2697 522.439 33.0336 522.203 33.0535 522.072C33.0472 521.955 33.8366 521.673 34.8114 521.45C40.7387 520.047 46.641 518.455 54.3667 516.172C59.1729 514.763 73.4484 510.828 80.4655 508.99C82.9793 508.323 86.0354 507.584 89.1376 506.906C91.7541 506.341 96.7284 505.167 97.7892 504.884C102.595 503.611 111.626 501.599 118.055 500.384C119.372 500.138 120.724 499.858 121.075 499.748C121.421 499.657 122.46 499.433 123.374 499.259C124.3 499.11 125.961 498.775 127.092 498.558C129.62 498.054 132.71 497.484 132.797 497.492C132.816 497.493 132.81 497.582 132.783 497.664ZM130.564 502.131C129.537 503.13 122.432 509.184 120.91 510.385C120.518 510.686 118.529 512.278 116.508 513.904C111.141 518.238 105.712 522.552 102.92 524.741C98.6403 528.096 96.6261 529.701 93.556 532.252C85.6333 538.808 83.8541 540.173 78.7444 543.664C76.1019 545.47 74.7431 546.52 74.4047 547.066C73.6664 548.208 70.9027 552.016 70.5978 552.325C70.463 552.462 69.3126 553.966 68.0492 555.683C66.7903 557.38 65.6552 558.844 65.5339 558.94C65.419 559.016 64.6615 559.945 63.8649 560.999C63.047 562.046 61.9788 563.373 61.4916 563.962C60.5588 565.085 58.294 567.991 56.0901 570.92C53.865 573.841 52.9599 574.881 52.7764 574.751C52.6879 574.676 52.8577 573.484 53.1622 572.084C53.9475 568.551 54.9893 563.014 55.2273 561.208C55.7071 557.644 57.1101 550.477 58.9845 542.013C59.2762 540.723 59.552 539.204 59.6414 538.597C59.7912 537.465 59.7565 537.499 60.9663 537.172C61.3918 537.041 61.3841 536.994 61.0012 536.388C60.785 536.022 60.3995 535.418 60.1494 535.018L59.6888 534.299L61.0347 533.495C63.2728 532.169 68.7744 529.399 70.9861 528.496C76.6788 526.175 88.2094 520.88 99.2081 515.567C101.061 514.658 103.461 513.521 104.549 513.018C105.645 512.494 106.597 512.061 106.679 512.019C109.397 510.668 120.767 505.797 127.256 503.172C130.05 502.051 130.957 501.761 130.564 502.131ZM38.5872 528.122C39.3571 528.512 41.7427 529.596 43.8524 530.564C45.9666 531.513 47.9614 532.422 48.2713 532.57C51.4268 534.044 52.6767 534.616 54.6234 535.465C55.8592 536.009 56.9756 536.514 57.0828 536.596C57.1835 536.699 57.0818 537.549 56.8531 538.519C56.6103 539.461 56.2022 541.439 55.9059 542.885C55.6289 544.337 55.3436 545.536 55.2826 545.585C55.2076 545.605 54.8971 545.253 54.5584 544.779C53.8425 543.746 51.3752 541.275 48.3343 538.498C47.1109 537.367 45.4153 535.831 44.564 535.073C43.739 534.3 43.0243 533.678 42.9627 533.657C42.6778 533.563 36.0225 527.095 36.0701 526.951C36.0971 526.87 36.3396 526.95 36.6444 527.12C36.9312 527.279 37.7961 527.724 38.5872 528.122ZM82.7085 553.578C84.865 554.541 87.148 555.522 87.7967 555.736C88.4454 555.95 88.9247 556.199 88.8502 556.289C88.7969 556.386 87.1064 557.347 85.152 558.428C83.1791 559.501 79.9058 561.304 77.8648 562.447C75.8238 563.59 72.3541 565.509 70.1584 566.714C67.9608 567.917 63.9186 570.283 61.1606 571.961C58.4027 573.639 56.0497 575.041 55.9278 575.068C55.6852 575.124 56.8279 573.707 58.6933 571.668C60.8162 569.327 66.272 562.954 68.3019 560.423C69.7617 558.59 73.1905 553.932 74.4212 552.114C74.8276 551.498 75.3142 550.911 75.4894 550.787C75.8572 550.566 76.5803 550.827 82.7085 553.578Z" fill="white" stroke="white"/>
<path d="M12.2793 530.742C-0.000318515 533.555 -27.2576 540.194 -38.0498 544.245" stroke="white" stroke-width="3" stroke-linecap="round"/>
<path d="M27.0098 544.245C18.9232 547.314 0.973266 554.556 -6.13381 558.976" stroke="white" stroke-width="3" stroke-linecap="round"/>
<path d="M108.028 487.778C123.84 483.914 160.132 474.509 156.359 491.125C153.399 504.16 146.542 523.329 142.399 530.742" stroke="white" stroke-width="3" stroke-linecap="round"/>
</g>
<g opacity="0.75">
<path d="M72 40.9924C72.0709 39.4269 72.071 38.0657 72.9222 36.9086C74.4827 34.7306 77.7456 34.3902 79.9445 36.0238C81.3632 37.0447 82.7109 38.0657 83.633 39.495C84.2005 40.3118 84.4133 40.3118 85.2645 39.6992C86.825 38.6782 88.3146 37.385 90.017 36.5683C93.3509 35.0028 96.5429 34.7305 99.1674 38.1337C100.09 39.3589 100.231 40.9243 99.6639 42.3537C99.0255 43.9191 98.3871 45.3485 97.1103 46.6417C95.337 48.3433 94.0602 50.5213 92.5706 52.4952C91.2938 54.1967 89.9461 55.8302 88.6693 57.5318C88.0309 58.4167 87.0378 58.8931 86.1866 59.5057C85.832 59.778 85.2645 59.9141 84.768 59.9821C84.1296 60.1183 83.9877 59.4376 83.5621 59.2334C83.1365 58.9612 82.7109 58.6889 82.2853 58.4167C79.6608 56.7831 77.6746 54.6732 75.9013 52.2229C74.4117 50.181 73.6315 47.9349 72.7803 45.6207C72.2838 44.0553 72.0709 42.4217 72 40.9924Z" fill="white"/>
<path d="M121.541 62.014C123.986 62.226 126.537 62.014 128.769 62.756C132.49 63.9222 136.104 65.3003 139.293 67.9505C140.994 69.4346 142.695 71.1308 144.502 72.5089C145.565 73.251 145.565 75.0531 147.053 75.1591C148.222 75.2652 149.073 74.0991 150.242 73.675C153.325 72.4029 156.088 70.6007 159.171 69.5407C163.636 67.9505 167.888 67.5265 172.033 70.3887C174.584 72.0849 175.435 74.4171 174.797 77.3853C173.734 82.5798 170.651 86.6082 167.25 90.4245C163.104 94.9829 158.852 99.4353 154.388 103.57C151.305 106.432 148.435 109.824 144.289 111.52C143.651 111.732 143.332 112.368 142.907 112.899C140.887 115.549 138.23 115.655 135.679 113.429C133.553 111.626 131.321 110.036 129.301 108.128C126.962 105.902 124.517 103.782 122.604 101.344C118.352 95.937 114.95 90.0005 112.399 83.6399C111.442 81.3077 110.805 78.8695 110.273 76.3253C109.742 73.781 110.06 71.4488 110.592 69.0106C110.805 68.2685 110.911 67.5265 111.549 66.9964C114.313 64.0282 116.651 61.802 121.541 62.014ZM149.073 78.9755C149.498 80.1416 149.817 81.3077 150.242 82.3678C151.199 84.912 150.88 87.3503 150.029 89.7885C149.71 90.7426 149.073 91.4846 148.116 92.1207C145.033 94.1348 141.632 94.0288 138.655 92.7567C135.466 91.3786 133.234 87.9863 135.998 83.9579C137.38 81.9438 139.187 80.2476 141.206 78.8695C142.482 78.0214 142.588 77.5974 141.738 76.5373C140.143 74.5231 138.655 72.6149 136.635 71.0248C133.765 68.7986 130.895 66.7844 127.068 66.2543C124.624 65.9363 122.391 65.3003 119.84 66.1483C116.332 67.4204 114.631 69.2226 114.631 72.933C114.631 75.9012 115.694 78.6575 116.651 81.5197C117.608 84.7 119.309 87.5623 120.903 90.4245C122.179 92.6507 123.561 94.9829 125.261 96.8911C128.557 100.813 131.852 104.524 135.785 107.81C137.805 109.506 138.124 109.612 140.462 108.446C140.888 108.234 141.313 107.916 141.738 107.704C145.99 105.16 149.285 101.556 152.899 98.2692C156.088 95.301 159.065 92.0147 162.041 88.8344C164.38 86.2902 166.293 83.5339 167.994 80.6716C168.738 79.3995 169.27 77.9154 169.695 76.4313C170.439 73.463 167.143 71.3428 164.805 71.8729C160.765 72.827 157.045 74.5231 153.431 76.5373C152.155 77.3854 150.773 78.3394 149.073 78.9755ZM144.927 82.1558C143.226 82.7918 141.95 83.8519 140.781 85.1241C139.718 86.2902 139.399 87.9863 140.037 88.8344C140.887 89.8945 142.163 90.2125 143.439 90.0005C144.927 89.7885 145.777 88.8344 145.884 87.1382C145.99 85.4421 146.096 83.7459 144.927 82.1558Z" fill="white"/>
<path fill-rule="evenodd" clip-rule="evenodd" d="M57.1557 100.289C55.8865 100.85 54.1642 102.861 53.2302 104.859L52.8797 105.621L51.9749 104.499C50.9093 103.22 49.4946 102.098 48.6036 101.854C47.757 101.61 45.9044 101.654 44.9261 101.94C43.9922 102.199 42.9419 103.047 42.5332 103.881C41.7448 105.419 41.8334 107.547 42.7812 109.53C44.5035 113.152 47.7141 116.487 51.6257 118.743C53.7997 119.993 54.8514 120.253 55.7853 119.778C57.0546 119.116 57.7405 117.621 59.521 111.498C60.9219 106.725 61.1699 105.216 60.908 103.362C60.5117 100.562 59.1109 99.4112 57.1557 100.289ZM58.5705 102.401C58.673 102.632 58.7894 103.394 58.8337 104.111C58.921 105.85 58.7603 106.584 57.1696 111.644C56.3382 114.304 55.8712 115.655 55.4029 116.775C54.9498 117.853 54.7905 117.897 53.4325 117.221C47.6683 114.361 42.8366 107.375 44.807 104.773C45.1714 104.285 46.1497 103.997 47.1418 104.069C48.2946 104.155 49.0678 104.716 50.8636 106.758C52.4404 108.555 52.8769 108.87 53.5337 108.683C54.0159 108.54 54.336 108.166 54.336 107.764C54.336 107.189 54.8611 105.708 55.3724 104.859C56.1456 103.581 57.7072 102.012 58.2185 102.012C58.3086 102.014 58.4693 102.186 58.5705 102.401Z" fill="white"/>
<path d="M58.5705 102.401C58.673 102.632 58.7894 103.394 58.8337 104.111C58.921 105.85 58.7603 106.584 57.1696 111.644C56.3382 114.304 55.8712 115.655 55.4029 116.775C54.9498 117.853 54.7905 117.897 53.4325 117.221C47.6683 114.361 42.8366 107.375 44.807 104.773C45.1714 104.285 46.1497 103.997 47.1418 104.069C48.2946 104.155 49.0678 104.716 50.8636 106.758C52.4404 108.555 52.8769 108.87 53.5337 108.683C54.0159 108.54 54.336 108.166 54.336 107.764C54.336 107.189 54.8611 105.708 55.3724 104.859C56.1456 103.581 57.7072 102.012 58.2185 102.012C58.3086 102.014 58.4693 102.186 58.5705 102.401Z" fill="white"/>
</g>
<g opacity="0.75">
<path d="M280.515 563.919C280.515 563.919 280.184 563.835 279.852 563.835C278.857 564.002 278.525 563.417 278.277 562.496C277.613 559.986 276.867 557.56 275.789 555.134C274.794 552.875 273.302 550.95 271.395 549.361C270.317 548.44 269.239 547.52 268.161 546.516C267.332 545.763 266.586 545.094 265.508 544.926C263.85 544.759 264.513 543.253 264.099 542.416C263.684 541.496 264.679 541.329 265.176 541.078C265.674 540.827 266.171 540.576 266.669 540.576C268.576 540.576 270.234 539.739 271.644 538.484C273.716 536.56 275.209 534.301 276.287 531.623C277.199 529.281 278.028 527.022 278.194 524.512C278.277 523.759 278.608 522.922 279.437 523.006C280.349 523.089 281.51 523.006 282.008 524.177C282.339 525.097 282.588 526.101 282.837 527.022C283.666 530.201 284.08 533.38 284.992 536.56C285.324 537.731 285.904 538.819 286.485 539.823C287.646 541.914 289.967 542.918 292.372 542.333C293.367 542.082 294.196 542.416 295.025 542.918C296.268 543.755 296.351 544.508 295.108 545.345C293.449 546.432 291.791 547.436 289.967 548.357C285.573 550.532 282.92 553.795 282.837 558.899C282.837 560.154 282.505 561.409 282.256 562.664C282.091 563.5 281.842 564.253 280.515 563.919ZM269.322 543.337C273.468 546.683 277.116 549.779 279.603 554.297C281.261 549.863 284.578 547.353 288.889 545.177C286.402 544.843 285.158 543.42 283.749 542.165C283.085 541.58 282.505 540.743 282.256 539.823C281.676 537.982 280.847 536.225 280.598 534.301C280.515 533.882 280.598 533.38 279.852 533.129C279.189 534.217 278.525 535.388 277.862 536.56C275.955 539.739 273.716 542.5 269.322 543.337Z" fill="white"/>
<path d="M315.899 576.541C315.777 576.848 315.654 577.093 315.593 577.399C315.47 577.522 315.347 577.583 315.347 577.706C315.286 578.318 315.47 579.176 314.796 579.299C314.121 579.422 313.937 580.157 313.324 580.096C313.14 578.809 312.65 577.583 312.282 576.296C311.914 575.07 311.239 574.335 309.829 574.151C308.541 573.967 307.376 573.477 306.395 572.497C305.905 572.006 305.966 571.577 306.579 571.271C307.744 570.719 308.848 570.045 310.136 569.678C311.301 569.371 311.852 568.391 311.975 567.226C312.159 565.878 312.711 564.714 313.079 563.427C313.201 563.059 313.324 562.691 313.692 562.446C313.876 562.324 313.998 562.201 314.244 562.262C315.102 562.385 315.961 563.427 315.899 564.285C315.838 565.51 316.083 566.675 316.39 567.839C316.635 568.636 317.064 568.942 317.739 569.126C319.026 569.494 320.314 569.861 321.602 570.474C322.276 570.842 322.276 571.21 322.031 571.761C321.847 572.19 321.479 572.558 321.111 572.68C320.191 572.926 319.517 573.6 318.597 573.784C317.739 573.967 317.126 574.458 316.696 575.254C316.267 575.316 316.022 575.561 315.777 575.867C315.531 576.235 315.593 576.419 315.899 576.541Z" fill="white"/>
<path d="M313.201 580.034C313.876 580.095 314.06 579.36 314.673 579.237C315.409 579.115 315.225 578.257 315.225 577.644C315.225 577.521 315.409 577.46 315.47 577.337C315.776 578.195 315.654 579.053 315.347 579.911C315.163 580.463 314.857 580.708 314.244 580.892C313.446 581.076 313.262 580.769 313.201 580.034Z" fill="white"/>
<path d="M315.899 576.541C315.592 576.418 315.531 576.234 315.715 575.989C315.899 575.683 316.205 575.376 316.635 575.376C316.635 575.867 316.144 576.173 315.899 576.541Z" fill="white"/>
</g>
</g>
<defs>
<clipPath id="clip0_2048_1730">
<rect width="375" height="667" fill="white"/>
</clipPath>
</defs>
</svg>
