<svg width="375" height="667" viewBox="0 0 375 667" fill="none" xmlns="http://www.w3.org/2000/svg">
<g clip-path="url(#clip0_2073_1723)">
<rect width="375" height="667" fill="#965EEB"/>
<g opacity="0.75">
<path d="M339.244 519.963C337.687 519.564 336.097 519.269 334.501 519.043C335.254 516.258 335.434 513.384 335.885 510.502C336.11 509.068 334.597 507.222 333.079 508.348C327.215 512.663 321.783 517.564 316.621 522.69C312.438 520.902 307.694 520.786 303.202 521.237C298.047 521.758 293.071 523.263 288.373 525.411C279.517 529.463 271.304 536.383 267.604 545.574C265.891 549.832 265.55 554.533 266.58 559.003C267.758 564.091 270.854 568.612 274.503 572.265C280.894 578.665 290.079 581.823 298.819 583.264C308.84 584.923 319.254 584.46 329.114 582.061C338.073 579.881 346.897 575.822 353.288 569.03C360.303 561.582 363.515 549.877 361.237 539.914C358.804 529.27 349.349 522.555 339.244 519.97V519.963ZM357.317 553.511C356.236 558.167 354.498 562.747 351.415 566.451C345.565 573.475 336.412 577.25 327.737 579.347C318.031 581.694 307.662 582.003 297.841 580.183C288.991 578.536 280.411 574.986 274.458 568.027C271.227 564.252 269 559.563 268.807 554.559C268.633 550.076 270.184 545.773 272.559 542.03C277 535.02 284.395 529.9 292.009 526.864C295.955 525.289 300.151 524.227 304.38 523.861C307.997 523.546 311.575 523.919 315.128 524.542C314.787 526.067 316.808 527.63 318.211 526.247C322.44 522.06 326.835 517.982 331.515 514.284C331.212 516.278 330.807 518.246 330.015 520.156C329.481 521.436 330.781 522.51 331.894 522.626C341.909 523.674 352.632 528.176 356.596 538.139C358.553 543.046 358.488 548.423 357.311 553.504L357.317 553.511Z" fill="white"/>
<path d="M311.22 547.118C310.554 545.557 310.097 544.32 309.525 542.992C308.662 541.037 305.258 539.64 302.13 539.818C301.477 539.864 301.17 540.182 301 540.448C300.491 541.245 299.981 542.043 300.092 543.008C300.435 545.832 300.536 548.547 301.521 551.396C302.704 554.641 304.551 557.768 306.387 560.967C306.69 561.524 306.981 562.152 307.168 562.618C307.542 563.551 308.52 563.919 309.771 564.184C311.023 564.448 312.076 564.318 312.932 563.792C314.495 562.864 315.564 561.788 316.529 560.549C318.968 557.275 322.027 554.169 323.488 550.527C324.14 548.803 324.676 546.988 324.065 545.071C323.526 543.53 322.938 543.148 320.528 542.852C319.255 542.73 317.921 542.162 316.802 542.72C314.986 543.609 312.583 544.117 311.965 545.627C311.751 546.178 311.57 546.515 311.22 547.118Z" fill="white"/>
</g>
<g opacity="0.75">
<path d="M378.384 79.6128C376.097 89.8041 373.012 101.09 373.141 111.594C373.209 117.064 375.316 119.807 380.147 121.793C388.373 125.173 400.104 129.585 404.773 119.174C408.329 111.252 408.52 100.976 409.978 92.4839C410.971 86.6997 412.932 81.0447 407.092 77.3814C400.412 73.1932 382.823 69.0613 379.065 78.9058C377.682 82.5303 382.901 84.8745 384.59 81.3531C384.777 80.9625 385.025 80.6264 385.323 80.3385C387.989 77.7586 394.634 79.0487 397.354 79.6234C404.546 81.1474 405.159 83.2314 403.89 89.9344C402.984 94.7263 401.838 99.4824 400.815 104.251C400.079 107.684 399.398 117.082 395.417 118.208C393.207 118.833 382.118 115.767 380.819 113.878C378.849 111.007 382.021 100.215 382.558 96.7183C383.381 91.3448 384.274 85.9877 385.277 80.6441C385.296 80.5403 385.311 80.4384 385.323 80.3385C385.794 76.161 379.335 75.3805 378.384 79.6128Z" fill="white"/>
<path d="M266.837 54.2111C261.897 71.6589 257.485 90.3544 262.02 108.389C263.74 115.229 266.563 125.335 275.05 125.831C293.866 126.936 303.04 96.8624 306.689 83.5251C311.012 67.7204 321.539 35.0532 302.403 24.9035C282.676 14.4385 269.057 37.5052 266.698 54.1904C266.251 57.3518 270.401 58.2555 271.838 55.684C275.789 48.6087 278.383 39.4385 284.409 33.7176C291.74 26.756 303.674 29.7657 306.235 39.7353C309.408 52.0824 304.354 68.9742 301.181 80.8835C298.121 92.3674 294.027 109.681 282.613 116.197C268.886 124.034 265.881 101.915 265.727 92.1895C265.522 79.4947 268.614 67.1253 271.9 54.9693C272.76 51.7787 267.72 51.0935 266.837 54.2111Z" fill="white"/>
<path d="M285.302 40.8578C278.276 50.766 275.392 63.1757 272.878 74.8926C271.295 82.2785 267.286 97.7243 272.644 105.01C279.942 114.938 286.544 100.721 288.953 94.4789C294.678 79.6495 302.291 62.1522 302.357 46.0183C302.401 34.5539 288.873 29.3622 285.368 42.0819C284.918 43.7197 287.07 44.5768 288.239 43.8063C302.075 34.7082 295.387 56.3649 293.525 63.2006C290.993 72.5012 287.668 81.6139 284.153 90.5832C282.286 95.3437 277.142 108.085 276.273 94.8071C275.255 79.2596 280.29 56.6959 289.018 43.8437C290.722 41.3302 287.085 38.3439 285.302 40.8578Z" fill="white"/>
<path d="M302.911 29.8346C317.221 39.7489 330.713 51.0734 344.328 61.9107C355.205 70.5678 366.847 84.2147 379.426 90.146C381.466 91.1075 384.393 88.7429 383.172 86.5348C376.598 74.6584 358.534 65.344 347.958 57.3948C333.877 46.8093 319.683 36.2005 304.487 27.2444C303.001 26.3715 301.492 28.8537 302.911 29.8346Z" fill="white"/>
<path d="M274.433 124.861C308.242 125.296 344.161 119.367 377.447 113.479C381.693 112.729 380.94 106.612 376.641 106.845C362.001 107.647 347.048 111.258 332.549 113.347C313.042 116.158 293.478 118.263 273.928 120.695C271.163 121.042 271.821 124.829 274.433 124.861Z" fill="white"/>
<path d="M298.641 61.3382C292.683 55.9888 284.222 62.8667 282.436 68.9959C280.824 74.5213 282.381 87.8992 291.259 84.6993C293.166 84.0117 293.146 81.6861 291.892 80.4513C290.794 79.3699 289.274 78.8767 288.533 77.4548C287.732 75.9182 287.875 73.6593 288.125 72.0097C288.533 69.2937 292.192 62.2416 295.926 64.7185C298.232 66.2496 300.743 63.2234 298.641 61.3382Z" fill="white"/>
<path d="M379.657 117.46C375.961 128.213 372.68 139.122 369.486 150.035C367.684 156.192 364.261 163.685 364.355 170.164C364.372 171.39 365.406 172.477 366.437 172.976C371.67 175.513 379.167 175.596 384.833 176.329C389.432 176.924 392.966 178 394.971 173.19C397.469 167.2 396.399 157.626 396.661 151.299C397.068 141.449 397.958 130.995 396.7 121.195C396.234 117.561 390.195 117.181 390.009 121.106C389.377 134.481 389.702 147.851 388.672 161.23C388.498 163.491 387.746 166.34 388.002 168.586C387.912 169.39 387.805 170.192 387.68 170.988C387.137 172.942 388.036 172.395 390.377 169.349C388.91 167.759 379.027 168.029 376.728 167.692C375.619 167.529 371.52 166.203 370.623 166.739C368.47 166.063 368.735 167.008 371.418 169.567C371.501 169.011 371.599 168.453 371.706 167.9C373.73 165.824 374.102 156.834 374.756 153.991C377.475 142.139 380.205 130.272 383.453 118.55C384.041 116.412 380.385 115.342 379.657 117.46Z" fill="white"/>
<path d="M240.484 108.836C227.358 114.979 214.039 120.502 200.6 125.92C199.121 126.517 198.349 128.282 198.95 129.774C201.121 135.137 204.742 139.992 208.195 144.592C208.746 145.326 209.84 145.931 210.788 145.709C217.324 144.176 223.968 138.796 229.675 135.477C235.953 131.823 244.138 128.435 249.471 123.419C250.454 122.494 250.82 121.177 249.982 119.989C247.665 116.703 245.602 113.258 243.16 110.062C241.751 108.22 238.523 109.861 239.529 112.088C241.277 115.965 243.597 119.436 246.041 122.905C246.211 121.761 246.382 120.618 246.553 119.474C240.05 125.59 229.598 129.758 221.841 134.033C218.759 135.733 213.065 137.403 210.583 139.894C210.138 140.343 212.527 141.862 212.06 140.345C211.732 139.278 210.552 138.173 209.933 137.25C207.87 134.169 205.783 131.044 204.452 127.566C203.903 128.85 203.351 130.136 202.802 131.42C216.374 126.244 229.745 120.84 242.465 113.783C245.373 112.173 243.671 107.346 240.484 108.836Z" fill="white"/>
<path d="M236.272 74.4785C221.836 75.8256 207.424 76.5345 192.938 77.0959C191.254 77.1597 190.285 78.9048 190.353 80.3958C190.615 86.1522 192.426 91.961 194.114 97.4488C194.39 98.3438 195.397 99.0845 196.306 99.1808C203.334 99.9325 211.813 96.9304 218.666 95.6512C225.519 94.372 233.774 93.9076 240.239 91.1502C241.558 90.587 241.964 89.2666 241.605 87.9623C240.538 84.0876 239.705 80.1931 238.544 76.3465C237.841 74.0159 234.287 75.0817 234.514 77.3776C234.937 81.6228 235.919 85.6788 237.051 89.7844C237.506 88.7227 237.962 87.6581 238.417 86.5964C230.309 90.0565 219.307 90.4413 210.663 91.8348C206.632 92.4843 201.622 92.3486 197.757 93.6133C196.13 94.1458 199.095 95.8691 199.101 94.5526C199.106 93.3238 197.955 90.1996 197.799 89.5374C197.03 86.2884 196.333 83.0259 196.241 79.6812C195.38 80.7822 194.517 81.8799 193.656 82.981C208.172 82.6874 222.571 82.119 236.918 79.7713C240.29 79.2174 239.706 74.1579 236.272 74.4785Z" fill="white"/>
<path d="M245.723 41.7975C232.561 35.7127 219.75 29.0865 206.939 22.294C205.455 21.5062 203.733 22.4698 203.029 23.8032C200.341 28.8894 198.99 34.8807 197.703 40.4636C197.491 41.3798 197.981 42.5159 198.72 43.0652C204.359 47.2647 213.285 48.9173 219.804 51.2373C226.335 53.5591 233.792 57.3849 240.74 58.1911C242.166 58.3583 243.179 57.4497 243.528 56.1269C244.546 52.2451 245.846 48.4629 246.715 44.5438C247.243 42.1665 243.714 41.3191 242.724 43.3852C240.887 47.2204 239.755 51.2971 238.676 55.403C239.605 54.715 240.534 54.0269 241.464 53.3388C232.626 52.3112 222.695 46.9596 214.442 43.7783C210.989 42.4485 206.362 39.4235 202.694 38.9399C202.115 38.8627 202.6 41.397 203.53 40.2125C204.245 39.3015 204.384 37.0904 204.706 36.0089C205.701 32.6476 206.748 29.2819 208.449 26.2015C207.145 26.7035 205.84 27.2084 204.538 27.7107C217.237 34.75 229.976 41.4955 243.561 46.6685C246.758 47.8904 248.856 43.246 245.723 41.7975Z" fill="white"/>
<path d="M264.083 14.124C254.933 2.88695 246.338 -8.70037 237.82 -20.4185C236.871 -21.7261 234.966 -21.9678 233.676 -21.0367C228.993 -17.6592 225.168 -12.9273 221.553 -8.46393C220.963 -7.73436 220.696 -6.53558 221.135 -5.66155C224.138 0.313017 231.167 5.5496 235.752 10.2552C240.745 15.3788 246.044 22.5862 252.157 26.4265C253.312 27.1499 254.657 27.1506 255.605 26.0505C258.227 23.0076 261.068 20.1668 263.574 17.0249C265.035 15.1926 262.592 12.5238 260.693 14.0272C257.36 16.6642 254.553 19.7644 251.784 22.9792C252.933 22.8537 254.084 22.7287 255.232 22.6032C247.679 17.8606 240.984 8.49492 234.989 2.03167C232.72 -0.414576 229.529 -5.84178 226.593 -7.45768C226.201 -7.67359 225.571 -5.63878 226.538 -5.66415C226.854 -5.67151 229.09 -8.566 229.217 -8.70457C231.675 -11.4206 234.179 -14.1754 237.202 -16.2712C235.821 -16.4772 234.438 -16.6835 233.057 -16.8894C241.372 -4.9866 249.864 6.68225 259.797 17.2972C262.082 19.7398 266.297 16.8435 264.083 14.124Z" fill="white"/>
</g>
<path opacity="0.75" d="M95.9659 611.596C95.983 611.387 95.9598 611.18 95.9132 610.978C94.5337 593.299 93.0408 575.63 91.5965 557.955C90.8075 548.317 90.5106 539.416 78.7778 538.266C64.3324 536.849 47.4169 545.413 34.1087 550.15C16.8912 556.277 -0.0938648 563.048 -16.789 570.476C-22.7393 573.125 -31.9908 575.521 -36.5334 580.408C-37.8801 581.855 -38.5308 583.37 -38.7873 584.929C-39.2432 585.234 -39.5462 585.757 -39.4162 586.451C-36.1116 604.08 -32.4524 621.632 -28.5423 639.136C-26.6649 647.54 -26.5818 663.675 -15.5331 665.528C-10.3068 666.406 -4.97689 664.221 -0.157966 662.533C8.70039 659.431 17.5153 656.207 26.3374 653.011C43.9927 646.617 61.6647 640.269 79.2845 633.774C83.6959 632.147 90.6376 630.938 94.1115 627.551C98.3172 623.455 96.4149 616.755 95.9659 611.596ZM87.7901 561.222C88.9745 576.622 90.1439 592.024 91.3921 607.417C79.7235 600.022 67.2979 592.166 53.729 589.151C54.0873 588.624 54.4485 588.096 54.8068 587.569C64.1718 573.755 73.5759 559.971 82.9809 546.185C83.4033 545.566 83.8256 544.947 84.248 544.328C88.336 548.1 87.4096 556.292 87.7901 561.222ZM-34.1801 591.323C-34.2392 590.766 -34.2729 590.21 -34.2382 589.651C-33.7178 581.106 -26.8664 579.608 -20.8578 576.856C-13.8781 573.66 -6.84573 570.586 0.235484 567.622C15.2437 561.341 30.471 555.578 45.8792 550.36C52.9288 547.973 60.0514 545.294 67.301 543.576C67.3471 543.565 67.3936 543.554 67.4403 543.543C71.0321 542.69 76.2474 541.451 80.4052 542.409C73.8532 552.061 67.3107 561.723 60.7464 571.367C57.5866 576.01 54.4116 580.645 51.2404 585.283C48.0043 590.021 44.6224 597.597 40.0125 601.053C36.8475 603.428 35.6376 602.677 31.388 602.311C28.5245 602.064 25.6619 601.811 22.8 601.551C16.5027 600.979 10.2095 600.374 3.92044 599.737C-3.00633 599.035 -28.5505 599.05 -34.1801 591.323ZM-15.0175 660.617C-17.0049 659.977 -18.742 658.693 -20.0635 656.492C-23.2168 651.233 -23.7643 640.882 -25.164 634.921C-28.0633 622.586 -30.8701 610.227 -33.6758 597.871C-33.633 597.734 -33.5759 597.61 -33.557 597.451C-31.3234 598.827 -28.6928 599.803 -26.4134 600.27C-12.5009 603.116 2.19849 604.059 16.5508 605.187C5.62223 623.078 -7.06135 641.249 -15.0175 660.617ZM91.1155 622.539C88.6828 627.204 83.1604 627.712 78.3036 629.436C70.5642 632.181 62.8406 634.97 55.1189 637.765C39.4862 643.425 23.8309 649.03 8.22381 654.763C3.20747 656.605 -5.0309 661.229 -11.7459 661.115C0.591511 643.638 9.98775 623.69 21.3576 605.577C22.9186 605.709 24.4815 605.837 26.0304 605.98C30.3689 606.383 37.189 608.506 41.2248 606.425C43.8659 605.061 45.6955 600.945 47.2224 598.709C48.7768 596.436 50.3227 594.156 51.8713 591.876C65.8823 598.291 78.9378 605.017 91.9884 613.238C92.3831 616.442 92.6311 619.633 91.1155 622.539Z" fill="white"/>
<path opacity="0.75" d="M80.5513 52.2275C75.3876 51.2871 70.2989 51.3738 65.3299 53.3308C60.4378 55.1806 55.9886 57.9966 51.9985 61.3037C50.8322 62.2529 49.6355 63.0181 48.7139 64.3049C46.4867 67.4145 44.122 70.2633 42.5074 73.6495C42.077 74.4769 41.5554 74.7522 40.7731 75.1653C37.4599 76.8482 33.7948 78.1167 31.7355 81.6711C30.5371 83.5707 29.0171 85.24 28.217 87.2627C27.2936 89.6838 26.5543 92.0745 25.5541 94.6028C25.4773 94.7101 25.6148 94.9708 25.7524 95.2315C25.8578 96.4427 25.197 97.5918 24.9344 98.8639C24.7487 100.029 24.3487 101.04 24.9292 102.267C24.622 102.696 24.6059 103.171 24.6971 103.723C24.2827 104.075 24.0827 104.581 24.4649 105.179C24.2453 108.429 24.6848 111.664 25.3851 114.761C25.8567 117.046 27.0195 118.365 28.1697 117.891C29.7951 117.433 29.8897 115.716 30.1219 114.26C30.4933 111.93 29.9145 109.569 29.6269 107.254C29.9805 106.534 30.043 105.767 29.7376 105.062C30.0912 104.342 29.8161 103.82 29.6178 103.192C29.6946 103.084 29.8482 102.87 29.7411 102.793C30.2019 102.15 29.8196 101.552 29.6213 100.923C29.9285 100.494 29.9749 100.203 29.8838 99.6508C30.8662 98.732 30.4232 97.7658 30.0873 96.8763C30.2106 96.4779 30.5178 96.049 30.641 95.6506C31.3162 95.1607 30.9339 94.5624 30.7357 93.9337C32.0144 89.6581 33.9362 85.843 36.976 82.5043C37.8512 81.5088 38.8175 81.0652 39.9052 81.3576C40.993 81.65 40.9145 82.8916 40.9592 83.7348C41.1093 85.7891 41.2594 87.8434 42.3293 89.7454C44.6675 94.1781 47.7737 97.5385 53.0446 98.5557C55.1898 98.9565 56.6008 98.3448 58.0439 96.7827C62.4501 91.9891 61.0032 86.0857 57.9434 82.4341C55.5874 79.611 52.9707 76.9256 49.2323 76.0326C47.9605 75.7706 47.4407 74.9117 47.9944 73.6859C49.9786 69.1044 53.1721 65.5513 57.2533 62.7962C61.3345 60.0411 65.8124 58.5434 70.626 57.9352C72.7568 57.6768 74.9645 57.3112 77.14 57.8959C79.8978 58.5733 80.3121 58.2212 81.741 55.9999C83.1234 54.0698 82.5893 52.5516 80.5513 52.2275ZM55.3413 90.1421C55.5699 90.9548 55.7218 91.8748 54.9698 92.4719C54.1411 93.1762 53.1766 92.4854 52.3799 92.2393C51.8745 92.0395 51.5226 91.6252 51.0939 91.3181C48.5218 89.4759 47.3768 86.5468 46.2622 83.8016C46.0639 83.1729 46.0496 82.5137 46.4336 81.9776C46.8944 81.3342 47.6142 81.6875 48.1501 82.0713C51.7956 83.5467 54.4892 86.1249 55.3413 90.1421Z" fill="white"/>
<g opacity="0.75">
<path d="M105.333 42.261C105.333 41.8189 105.223 41.3768 105.665 41.1558C107.103 40.7137 107.103 40.7137 107.877 42.04C108.43 41.1558 108.319 40.2716 108.54 39.3874C108.761 38.0612 110.309 39.0559 110.862 38.1717C109.535 37.2876 109.535 37.2875 108.319 37.7296C107.766 37.9507 107.545 37.6191 107.324 37.2876C107.324 36.956 107.434 36.735 107.434 36.4034C107.877 36.4034 108.319 36.4034 108.319 35.8508C108.319 35.5193 107.877 35.4088 107.545 35.2982C107.434 34.6351 107.766 34.193 108.098 33.7509C110.199 33.3088 110.199 33.1983 110.531 31.0984C111.968 30.5458 113.184 31.5405 114.622 31.651C115.949 33.6404 115.728 36.0718 116.17 38.2822C116.723 41.4873 117.055 44.6924 117.386 47.8975C117.608 49.6659 117.608 49.6658 119.487 49.8869C122.473 50.2184 125.459 50.108 128.334 50.7711C129.882 51.1027 130.324 51.8763 129.771 53.4236C129.44 54.1972 128.997 54.8603 128.334 55.3024C125.791 56.9602 123.247 58.7286 120.593 60.2758C119.266 61.0495 118.713 61.9337 118.824 63.481C119.156 66.7966 119.156 70.1122 119.819 73.4278C119.819 73.6489 119.819 73.9804 119.819 74.2014C119.819 75.4171 120.04 76.7434 118.824 77.6276C117.939 78.1802 115.064 77.8486 114.069 76.9644C112.3 75.4171 110.42 74.0909 109.204 71.8805C107.655 69.1175 106.439 69.007 103.896 70.9964C102.79 71.8805 101.574 72.6541 100.578 73.5383C98.1456 75.5277 97.4821 75.6382 94.3859 74.312C94.3859 73.2068 94.7177 72.3226 95.3812 71.4384C96.8187 69.3385 96.8187 66.7965 97.7033 64.4756C97.8139 64.0335 97.8139 63.5914 98.035 63.1494C99.5831 60.3863 98.2562 58.8391 96.2658 56.9602C94.2754 55.0814 91.732 53.5341 90.6262 50.7711C90.405 50.329 89.7416 49.9975 89.2993 49.6659C89.0781 48.1186 89.2993 46.9029 91.0685 46.3503C91.4003 46.2398 91.6214 45.9082 91.9532 45.6871C92.5061 45.5766 93.059 45.5766 93.6118 45.9082C95.16 47.0134 96.8187 47.3449 98.5879 47.0134C99.9149 47.0134 101.352 47.1239 102.679 47.566C102.79 47.787 102.79 48.2291 102.901 48.2291C103.343 48.2291 103.122 47.787 103.232 47.566C103.453 47.4555 103.564 47.2344 103.785 47.1239C105.002 47.1239 104.559 45.7976 105.112 45.4661C106.55 44.4714 106.107 43.4767 105.333 42.261Z" fill="white"/>
<path d="M110.53 31.0982C110.199 33.1981 110.088 33.3087 108.098 33.7508C108.319 32.314 108.761 30.8773 109.756 29.772C110.088 29.33 110.53 28.7773 111.083 29.1089C112.41 29.772 114.179 29.772 114.622 31.6508C113.184 31.5403 111.968 30.5456 110.53 31.0982C110.42 30.8772 110.309 30.7667 110.309 30.9877L110.53 31.0982Z" fill="white"/>
<path d="M107.213 37.2873C107.435 37.6189 107.656 37.9504 108.209 37.7293C109.425 37.2873 109.425 37.2873 110.752 38.1714C110.31 39.1661 108.651 38.0609 108.43 39.3871C108.319 40.2713 108.319 41.266 107.766 42.0397C106.992 40.7134 106.992 40.7134 105.555 41.1555C105.997 39.8293 105.886 38.282 107.213 37.2873Z" fill="white"/>
<path d="M91.9524 45.6867C91.7313 45.9077 91.3995 46.2393 91.0678 46.3499C89.4091 46.9025 89.0774 48.2287 89.2986 49.6655C88.1928 49.1129 88.1928 47.8971 87.9716 47.013C87.7504 46.0183 88.5244 45.1341 89.5197 45.0236C90.2937 44.9131 91.289 44.692 91.9524 45.6867Z" fill="white"/>
<path d="M105.333 42.2606C106.107 43.3658 106.659 44.471 105.001 45.3552C104.448 45.6867 104.89 47.013 103.674 47.013C104.116 45.4657 104.116 43.6974 105.333 42.2606Z" fill="white"/>
<path d="M98.5874 46.9026C96.8181 47.2341 95.0489 46.9026 93.6113 45.7974C95.6018 45.7974 97.371 46.1289 98.5874 46.9026Z" fill="white"/>
<path d="M107.544 35.4086C107.876 35.4086 108.208 35.5192 108.318 35.9612C108.318 36.5138 107.765 36.5138 107.434 36.5138C107.434 36.0718 107.434 35.7402 107.544 35.4086Z" fill="white"/>
<path d="M103.121 47.4554C103.011 47.6765 103.232 48.1185 102.789 48.1185C102.679 48.1185 102.679 47.6765 102.568 47.4554C102.79 47.4554 102.9 47.4554 103.121 47.4554Z" fill="white"/>
<path d="M110.53 31.0981C110.419 31.0981 110.309 30.9876 110.309 30.9876C110.419 30.8771 110.419 30.8771 110.53 31.0981Z" fill="white"/>
</g>
<path opacity="0.75" d="M114.911 571.526C114.86 572.461 115.409 572.831 115.789 573.27C116.231 573.764 116.503 574.327 116.498 575.084C116.392 576.081 115.953 576.46 114.956 576.355C113.256 576.181 113.078 576.135 112.849 574.521C112.739 573.772 112.359 573.332 111.863 572.901C110.996 572.146 110.067 571.337 109.253 570.52C108.254 569.541 108.167 569.14 109.138 568.025C109.461 567.653 109.723 567.228 110.116 567.026C112.237 565.715 114.474 564.397 116.656 563.14C117.775 562.481 118.138 562.689 118.86 563.861C119.38 564.64 119.189 565.236 118.31 565.995C117.701 566.444 117.03 566.84 116.429 567.405C115.604 568.102 115.661 568.913 116.666 569.135C119.913 569.784 123.254 570.951 126.603 569.73C127.282 569.45 127.969 569.286 128.586 568.953C130.43 567.836 130.422 567.72 128.595 566.566C126.768 565.411 125.489 563.753 124.209 562.095C122.93 560.437 124.135 557.676 126.118 556.899C127.646 556.27 128.929 556.298 130.238 557.546C131.733 558.956 133.112 560.375 133.829 562.304C134.335 563.725 134.922 563.8 136.21 563.071C137.267 562.358 137.774 561.275 137.987 560.155C138.108 559.39 137.89 558.764 136.985 558.303C134.455 557.081 132.294 555.309 131.228 552.53C130.722 551.11 131.034 549.75 131.935 548.465C132.781 547.242 133.923 546.931 135.176 547.368C136.074 547.714 136.933 548.353 137.738 549.054C139.341 550.34 140.721 551.759 141.106 553.944C141.114 554.06 141.345 554.044 141.407 554.098C141.461 554.036 141.693 554.02 141.685 553.904C142.278 550.72 142.702 547.605 142.013 544.393C141.841 543.59 141.507 542.973 140.941 542.372C140.127 541.555 140.101 540.334 140.801 539.529C141.34 538.91 142.337 539.016 143.259 539.709C145.172 541.265 145.896 543.31 145.949 545.751C146.073 548.362 145.786 550.943 145.5 553.524C145.244 555.696 144.624 557.659 142.479 558.622C141.915 558.894 141.708 559.258 141.632 559.845C141.595 560.139 141.549 560.316 141.511 560.61C141.165 564.01 139.085 565.9 136.067 566.865C135.326 567.091 134.701 567.308 134.339 567.974C131.002 573.559 123.735 574.526 118.36 572.569C117.293 572.293 116.164 571.964 114.911 571.526ZM128.733 563.529C129.353 564.068 129.716 564.276 130.188 564.36C130.837 564.49 131.33 564.048 131.12 563.539C130.576 562.412 130.094 561.34 129.38 560.283C129.054 559.782 128.281 559.544 127.618 560.055C127.009 560.505 127.165 561.076 127.375 561.586C127.779 562.373 128.291 563.036 128.733 563.529ZM134.877 550.59C134.38 552.662 135.274 554.637 136.721 555.353C136.961 555.452 137.255 555.49 137.425 555.42C137.648 555.289 137.686 554.995 137.608 554.709C137.309 552.925 136.849 551.327 134.877 550.59Z" fill="white"/>
</g>
<defs>
<clipPath id="clip0_2073_1723">
<rect width="375" height="667" fill="white"/>
</clipPath>
</defs>
</svg>
